<svg id="Grupo_66917" data-name="Grupo 66917" xmlns="http://www.w3.org/2000/svg" xmlns:xlink="http://www.w3.org/1999/xlink" width="51.619" height="51.618" viewBox="0 0 51.619 51.618">
  <defs>
    <clipPath id="clip-path">
      <rect id="Rectángulo_9112" data-name="Rectángulo 9112" width="51.619" height="51.618" fill="none"/>
    </clipPath>
  </defs>
  <g id="Grupo_66916" data-name="Grupo 66916" transform="translate(0 0)" clip-path="url(#clip-path)">
    <path id="Trazado_139344" data-name="Trazado 139344" d="M49.557,15.6a2.786,2.786,0,0,0-1.343-.041L48.928,13a2.844,2.844,0,0,0-3.336-3.5,2.843,2.843,0,0,0-2.961-3.153C41.075,6.431,40.3,7.6,39.921,8.964a2.847,2.847,0,0,0-4.641,1.3l-4.3,15.447a.106.106,0,0,1-.2,0l-1.532-4.83a2.821,2.821,0,0,0-2.432-1.95l.239-.519a2.817,2.817,0,1,0-5.127-2.336l-2.093,4.612a.106.106,0,0,1-.2-.027L17.2,4.817a2.848,2.848,0,0,0-4.455-1.842C12.53,1.585,11.916.331,10.385.046A2.848,2.848,0,0,0,7.051,2.825,2.846,2.846,0,0,0,3.323,5.91l.4,2.623a2.844,2.844,0,0,0-3.694,3.1L2.407,27.06a19.621,19.621,0,0,0,2.2,6.491l-.4,9.724A1.783,1.783,0,0,0,6.24,45.091l17.07-2.626a1.784,1.784,0,0,0,1.368-2.4l-3.541-8.782L24.4,24.2l3.834,11.875-4.559,8.3a1.784,1.784,0,0,0,1.072,2.549l16.638,4.634a1.783,1.783,0,0,0,2.232-1.563l.754-9.7a19.653,19.653,0,0,0,2.959-6.182l.765-2.749a.756.756,0,0,0-1.456-.406L45.869,33.7A18.141,18.141,0,0,1,43.02,39.57a.758.758,0,0,0-.145.388l-.465,5.985L26.9,41.624l2.808-5.11a.759.759,0,0,0,.056-.6L25.319,22.138a1.306,1.306,0,0,1,2.487-.8l1.532,4.828a1.629,1.629,0,0,0,3.1-.055l4.3-15.447a1.306,1.306,0,0,1,2.515.7l-3.7,13.268a.757.757,0,0,0,1.458.406l3.7-13.268L41.538,8.8a1.305,1.305,0,0,1,2.514.7L39.527,25.744a.756.756,0,0,0,1.456.406L44.956,11.89a1.305,1.305,0,0,1,2.514.7l-1.383,4.964h0l-2.59,9.3a.757.757,0,0,0,1.458.406l2.59-9.3a1.306,1.306,0,0,1,2.514.7L47.9,26.413a.756.756,0,0,0,1.456.406l2.16-7.752A2.82,2.82,0,0,0,49.557,15.6ZM42.292,47.481,42.1,49.874a.253.253,0,0,1-.318.224L25.15,45.463A.253.253,0,0,1,25,45.1l1.161-2.114ZM19.611,31.542l2.181,5.408-2.448.377a.757.757,0,0,0,.23,1.495l2.8-.432.9,2.237a.252.252,0,0,1-.2.343L6.009,43.6a.253.253,0,0,1-.29-.26l.1-2.4,9.116-1.4a.757.757,0,0,0-.23-1.495L5.882,39.4l.249-6a.756.756,0,0,0-.1-.4A18.156,18.156,0,0,1,3.9,26.83L1.527,11.4A1.306,1.306,0,0,1,4.107,11l1.467,9.539a.756.756,0,0,0,1.495-.231L5.6,10.773h0L4.817,5.679a1.306,1.306,0,0,1,2.579-.4L9.648,19.914a.756.756,0,0,0,1.495-.231L8.579,3.015a1.306,1.306,0,0,1,2.579-.4l2.566,16.668a.757.757,0,0,0,1.495-.231l-2.1-13.612a1.306,1.306,0,0,1,2.581-.4L18.138,20.9a1.628,1.628,0,0,0,3.073.422L23.3,16.706a1.306,1.306,0,0,1,2.376,1.081,6.76,6.76,0,0,0-.719,1.638,2.824,2.824,0,0,0-1.205,2.543l-4.13,8.976A.753.753,0,0,0,19.611,31.542Z" transform="translate(0 0)" fill="#d44f4a"/>
  </g>
</svg>
