<svg id="Grupo_66844" data-name="Grupo 66844" xmlns="http://www.w3.org/2000/svg" xmlns:xlink="http://www.w3.org/1999/xlink" width="55.468" height="44.168" viewBox="0 0 55.468 44.168">
  <defs>
    <clipPath id="clip-path">
      <rect id="Rectángulo_9078" data-name="Rectángulo 9078" width="55.468" height="44.168" fill="none"/>
    </clipPath>
  </defs>
  <g id="Grupo_66843" data-name="Grupo 66843" clip-path="url(#clip-path)">
    <path id="Trazado_139272" data-name="Trazado 139272" d="M48.726,30.381l3.464-6.975-7.725-3.837-.657,1.324,6.4,3.179-1.1,2.207-8.52-4.231-.657,1.324,8.52,4.231-.4.794L22.59,15.747l-.659,1.324,9,4.468-6.408,2.155,1.538,4.573,4.756-1.6.58,1.724c-.663,1.071-2.6,4.614-1.528,7.815.828,2.464,3.2,4.008,4.789,4.8a12.4,12.4,0,0,0,1.507.638l.525.171L37,41.36c.123-.178,2.993-4.39,1.733-8.135-1.076-3.2-4.763-4.852-5.939-5.3l-.58-1.724,4.823-1.622ZM33.6,34.952l1.4-.471-1.562-4.646c1.356.7,3.259,1.971,3.894,3.862.8,2.389-.6,5.215-1.246,6.332-1.192-.5-4.017-1.9-4.82-4.293-.637-1.891.109-4.055.769-5.43Zm-6.613-8.558-.6-1.77L32.8,22.47l2.364,1.174Z" transform="translate(3.278 2.354)" fill="#d44f4a"/>
    <rect id="Rectángulo_9075" data-name="Rectángulo 9075" width="1.478" height="1.577" transform="matrix(0.445, -0.896, 0.896, 0.445, 30.144, 18.354)" fill="#d44f4a"/>
    <rect id="Rectángulo_9076" data-name="Rectángulo 9076" width="1.478" height="1.577" transform="matrix(0.445, -0.896, 0.896, 0.445, 32.969, 19.757)" fill="#d44f4a"/>
    <rect id="Rectángulo_9077" data-name="Rectángulo 9077" width="1.478" height="1.577" transform="matrix(0.445, -0.896, 0.896, 0.445, 27.319, 16.951)" fill="#d44f4a"/>
    <path id="Trazado_139273" data-name="Trazado 139273" d="M38.4,16.112c1.586.789,4.251,1.746,6.714.917,3.746-1.259,5.368-6.091,5.435-6.3l.172-.523-.454-.315c-.178-.122-4.39-2.993-8.135-1.735-3.2,1.077-4.851,4.764-5.3,5.94L33.11,15.351,27.167,12.4l-1.982.667,16.723,8.307.657-1.324-7.582-3.767L37.3,15.5c.247.153.625.374,1.1.61m4.2-6.55h0c2.389-.8,5.216.6,6.333,1.246-.5,1.192-1.9,4.016-4.294,4.82-1.89.636-4.055-.11-5.43-.77L43.862,13.3l-.47-1.4-4.647,1.562c.7-1.356,1.971-3.259,3.862-3.894" transform="translate(3.764 1.173)" fill="#d44f4a"/>
    <path id="Trazado_139274" data-name="Trazado 139274" d="M14.2,24.641l-2.275-.9,8.5-3.672L19.83,18.71l-15.97,6.9-.978-2.262,6.56-2.836-.586-1.358L2.3,21.994l-.352-.814,11.908-5.147L19.445,1.92l1.737.687L16.276,14.984l3.608-1.56.3-1.741-1.22.528L23.1,1.778,18.617,0,12.7,14.918,0,20.409l3.09,7.148L10,24.57l3.648,1.446c.391,1.2,1.843,4.968,4.983,6.212,2.415.959,5.128.143,6.754-.561a12.249,12.249,0,0,0,1.461-.739l.469-.29-.144-.532c-.056-.209-1.42-5.12-5.093-6.576-3.14-1.245-6.779.506-7.885,1.112m11.373,5.3c-1.151.589-4.047,1.838-6.39.909-1.855-.736-3.027-2.7-3.651-4.094l4.558,1.807.545-1.375-4.558-1.806c1.408-.587,3.609-1.216,5.463-.482,2.343.929,3.6,3.824,4.032,5.04" transform="translate(0 0.001)" fill="#d44f4a"/>
  </g>
</svg>
