<svg id="Grupo_66958" data-name="Grupo 66958" xmlns="http://www.w3.org/2000/svg" xmlns:xlink="http://www.w3.org/1999/xlink" width="357.55" height="239.105" viewBox="0 0 357.55 239.105">
  <defs>
    <clipPath id="clip-path">
      <rect id="Rectángulo_9137" data-name="Rectángulo 9137" width="357.55" height="239.105" fill="none"/>
    </clipPath>
    <clipPath id="clip-path-3">
      <rect id="Rectángulo_9127" data-name="Rectángulo 9127" width="64.476" height="27.099" fill="none"/>
    </clipPath>
    <clipPath id="clip-path-4">
      <rect id="Rectángulo_9128" data-name="Rectángulo 9128" width="9.858" height="13.508" fill="none"/>
    </clipPath>
    <clipPath id="clip-path-5">
      <rect id="Rectángulo_9129" data-name="Rectángulo 9129" width="18.468" height="10.41" fill="none"/>
    </clipPath>
    <clipPath id="clip-path-6">
      <rect id="Rectángulo_9130" data-name="Rectángulo 9130" width="35.829" height="23.124" fill="none"/>
    </clipPath>
    <clipPath id="clip-path-7">
      <rect id="Rectángulo_9131" data-name="Rectángulo 9131" width="14.229" height="39.499" fill="none"/>
    </clipPath>
  </defs>
  <g id="Grupo_66957" data-name="Grupo 66957" clip-path="url(#clip-path)">
    <path id="Trazado_139381" data-name="Trazado 139381" d="M430.4,322.219l5.474,3.287-5.56,3.3-5.56,3.3.086-6.586.086-6.585Z" transform="translate(-189.098 -141.987)" fill="#e0e0e0"/>
    <path id="Trazado_139382" data-name="Trazado 139382" d="M46.761,383.941v25.611h78.761V383.941Z" transform="translate(-20.818 -170.929)" fill="#f5ddd3"/>
    <path id="Trazado_139383" data-name="Trazado 139383" d="M40.805,371.035v7.16h84.819v-7.16H40.805Z" transform="translate(-18.166 -165.183)" fill="#e0cac1"/>
    <path id="Trazado_139384" data-name="Trazado 139384" d="M114.267,371.036v6.5l1.653,26.273h39.656V378.2h2.754v-7.16Z" transform="translate(-50.871 -165.183)" fill="#e0cac1"/>
    <rect id="Rectángulo_9120" data-name="Rectángulo 9120" width="15.972" height="3.855" transform="translate(36.959 217.142)" fill="#e0cac1"/>
    <rect id="Rectángulo_9121" data-name="Rectángulo 9121" width="20.509" height="8.141" transform="translate(34.903 225.817)" fill="#fff"/>
    <path id="Trazado_139385" data-name="Trazado 139385" d="M68.6,324.935v25.611h78.761V324.935Z" transform="translate(-30.541 -144.659)" fill="#f5ddd3"/>
    <path id="Trazado_139386" data-name="Trazado 139386" d="M62.646,312.029v7.16h84.819v-7.16H62.646Z" transform="translate(-27.89 -138.914)" fill="#e0cac1"/>
    <path id="Trazado_139387" data-name="Trazado 139387" d="M137.76,344.8h39.656V319.189h2.753v-7.16H136.107v6.5Z" transform="translate(-60.594 -138.914)" fill="#e0cac1"/>
    <rect id="Rectángulo_9122" data-name="Rectángulo 9122" width="15.972" height="3.855" transform="translate(49.076 184.405)" fill="#e0cac1"/>
    <rect id="Rectángulo_9123" data-name="Rectángulo 9123" width="20.509" height="8.141" transform="translate(47.021 193.08)" fill="#fff"/>
    <g id="Grupo_66956" data-name="Grupo 66956">
      <g id="Grupo_66955" data-name="Grupo 66955" clip-path="url(#clip-path)">
        <path id="Trazado_139388" data-name="Trazado 139388" d="M536.068,219.954H443.32a4.365,4.365,0,0,1-4.365-4.365V161.425a4.365,4.365,0,0,1,4.365-4.365h92.748a4.364,4.364,0,0,1,4.365,4.365v54.164a4.364,4.364,0,0,1-4.365,4.365" transform="translate(-195.421 -69.922)" fill="#fce6e6"/>
        <path id="Trazado_139389" data-name="Trazado 139389" d="M531.935,209.08a7.73,7.73,0,1,1-7.73-7.73,7.73,7.73,0,0,1,7.73,7.73" transform="translate(-229.932 -89.64)" fill="#d88282"/>
        <path id="Trazado_139390" data-name="Trazado 139390" d="M527.051,215.465V210.9a.29.29,0,0,1,.433-.253l4.077,2.3a.29.29,0,0,1,0,.507l-4.077,2.263a.29.29,0,0,1-.431-.254" transform="translate(-234.641 -93.764)" fill="#fff"/>
        <path id="Trazado_139391" data-name="Trazado 139391" d="M448.767,256.687v.163H448v-.129l.412-.392c.1-.1.119-.157.119-.214,0-.095-.065-.15-.193-.15a.291.291,0,0,0-.242.108l-.135-.1a.478.478,0,0,1,.394-.172c.225,0,.371.114.371.3a.415.415,0,0,1-.172.327l-.277.264Z" transform="translate(-199.431 -113.88)" fill="#fff"/>
        <path id="Trazado_139392" data-name="Trazado 139392" d="M449.6,256.375a.122.122,0,1,1,.122.123.121.121,0,0,1-.122-.123m0,.565a.122.122,0,1,1,.243,0,.122.122,0,1,1-.243,0" transform="translate(-200.159 -114.082)" fill="#fff"/>
        <path id="Trazado_139393" data-name="Trazado 139393" d="M450.574,255.824v1.037h-.193v-.875h-.219v-.161Z" transform="translate(-200.41 -113.892)" fill="#fff"/>
        <path id="Trazado_139394" data-name="Trazado 139394" d="M452.186,256.626H452v.236h-.187v-.236h-.569v-.133l.511-.668h.206l-.481.638h.339v-.209H452v.209h.184Z" transform="translate(-200.893 -113.892)" fill="#fff"/>
        <rect id="Rectángulo_9124" data-name="Rectángulo 9124" width="78.592" height="0.416" transform="translate(252.985 142.291)" fill="#fff"/>
        <rect id="Rectángulo_9125" data-name="Rectángulo 9125" width="24.561" height="1.11" transform="translate(252.925 141.857)" fill="#d88282"/>
        <path id="Trazado_139395" data-name="Trazado 139395" d="M499.66,255.887a1.2,1.2,0,1,1-1.2-1.2,1.2,1.2,0,0,1,1.2,1.2" transform="translate(-221.382 -113.387)" fill="#d88282"/>
        <path id="Trazado_139396" data-name="Trazado 139396" d="M600.55,256.239a.346.346,0,0,1-.379.336c-.282,0-.449-.182-.449-.515a.491.491,0,0,1,.508-.551.519.519,0,0,1,.272.067l-.071.145a.348.348,0,0,0-.2-.05c-.2,0-.318.122-.318.357h0a.353.353,0,0,1,.277-.108.324.324,0,0,1,.357.318m-.187.009c0-.108-.082-.176-.207-.176a.188.188,0,0,0-.21.178c0,.1.077.174.215.174a.179.179,0,0,0,.2-.176" transform="translate(-266.994 -113.752)" fill="#fff"/>
        <path id="Trazado_139397" data-name="Trazado 139397" d="M601.381,256.085a.122.122,0,1,1,.122.123.121.121,0,0,1-.122-.123m0,.565a.122.122,0,1,1,.122.123.121.121,0,0,1-.122-.123" transform="translate(-267.732 -113.953)" fill="#fff"/>
        <path id="Trazado_139398" data-name="Trazado 139398" d="M602.042,256.042c0-.341.187-.533.433-.533s.434.193.434.533-.187.533-.434.533-.433-.193-.433-.533m.673,0c0-.25-.1-.366-.24-.366s-.238.115-.238.366.1.366.238.366.24-.115.24-.366" transform="translate(-268.027 -113.752)" fill="#fff"/>
        <path id="Trazado_139399" data-name="Trazado 139399" d="M603.835,256.042c0-.341.187-.533.433-.533s.434.193.434.533-.187.533-.434.533-.433-.193-.433-.533m.673,0c0-.25-.1-.366-.24-.366s-.238.115-.238.366.1.366.238.366.24-.115.24-.366" transform="translate(-268.825 -113.752)" fill="#fff"/>
        <path id="Trazado_139400" data-name="Trazado 139400" d="M608.13,255.5h-.416v-1.062h1.06v.416h-.644Z" transform="translate(-270.552 -113.276)" fill="#fff"/>
        <path id="Trazado_139401" data-name="Trazado 139401" d="M608.774,257.987h-1.062v-1.06h.416v.644h.646Z" transform="translate(-270.551 -114.383)" fill="#fff"/>
        <path id="Trazado_139402" data-name="Trazado 139402" d="M611.793,257.985h-1.06v-.416h.644v-.646h.416Z" transform="translate(-271.896 -114.381)" fill="#fff"/>
        <path id="Trazado_139403" data-name="Trazado 139403" d="M611.794,255.5h-.416v-.644h-.646v-.416h1.062Z" transform="translate(-271.895 -113.276)" fill="#fff"/>
        <path id="Trazado_139404" data-name="Trazado 139404" d="M588.382,167.986a16.606,16.606,0,0,1,2.138-.117l.115,0v.119c.008.811.018,1.727.028,2.716l0,.351-.25-.249-.285-.285-.725-.728.195.005-1.137,1-.215.189,0-.282c.012-.841.04-1.536.064-2.008a3.258,3.258,0,0,1,.062-.708,5.459,5.459,0,0,1,.062.789c.024.48.052,1.142.064,1.927l-.211-.094,1.116-1.023.1-.09.1.1.728.724.285.285-.246.1c.01-.989.019-1.905.028-2.716l.116.117a20.99,20.99,0,0,1-2.138-.117" transform="translate(-261.887 -74.734)" fill="#fff"/>
        <path id="Trazado_139405" data-name="Trazado 139405" d="M599.9,168.563a7.56,7.56,0,0,1-.518.661c-.351.434-.876,1.085-1.517,1.808l-.239.27,0-.362c0-.425,0-.877-.007-1.347v-.132l.044.1-.947-.922-.247-.24.343,0c.939.013,1.746.062,2.284.094a7.165,7.165,0,0,1,.806.061c-.028.013-.38.024-.934.05s-1.3.065-2.157.068l.1-.235.958.911.044.042v.194c0,.469,0,.922-.007,1.347l-.24-.092c.6-.656,1.143-1.195,1.551-1.6s.66-.668.689-.681" transform="translate(-265.546 -74.972)" fill="#fff"/>
        <path id="Trazado_139406" data-name="Trazado 139406" d="M600.94,168.676c.031.074-.423.334-1.013.582s-1.093.389-1.125.316.422-.334,1.013-.582,1.093-.389,1.125-.316" transform="translate(-266.583 -75.085)" fill="#fff"/>
        <path id="Trazado_139407" data-name="Trazado 139407" d="M608.249,168.059c0-.015.135-.048.383-.007a1.51,1.51,0,0,1,.9.543,1.607,1.607,0,0,1,.262,1.538,1.639,1.639,0,0,1-3.094,0,1.606,1.606,0,0,1,.262-1.538,1.51,1.51,0,0,1,.9-.543c.247-.041.384-.008.383.007s-.134.031-.356.1a1.515,1.515,0,0,0-.766.558,1.418,1.418,0,0,0-.175,1.324,1.385,1.385,0,0,0,2.593,0,1.418,1.418,0,0,0-.175-1.324,1.515,1.515,0,0,0-.766-.558c-.221-.071-.356-.078-.356-.1" transform="translate(-270.06 -74.807)" fill="#fff"/>
        <path id="Trazado_139408" data-name="Trazado 139408" d="M609.858,170.708c-.056.056-.389-.186-.747-.543l-.042-.042v-.069c0-.509.064-.92.144-.92s.144.412.144.92v.009l-.042-.1c.356.357.6.691.543.747" transform="translate(-271.155 -75.298)" fill="#fff"/>
        <path id="Trazado_139409" data-name="Trazado 139409" d="M505.931,171.675c0,.08-10.429.144-23.291.144s-23.293-.064-23.293-.144,10.427-.144,23.293-.144,23.291.064,23.291.144" transform="translate(-204.499 -76.365)" fill="#fff"/>
        <path id="Trazado_139410" data-name="Trazado 139410" d="M452.435,170.317a1.837,1.837,0,1,1-1.837-1.837,1.837,1.837,0,0,1,1.837,1.837" transform="translate(-199.786 -75.007)" fill="#fff"/>
        <path id="Trazado_139411" data-name="Trazado 139411" d="M534.4,339.068c-.052.065-.486-.2-.969-.583s-.833-.753-.781-.818.486.2.969.583.833.753.781.818" transform="translate(-237.131 -150.324)" fill="#263238"/>
        <path id="Trazado_139412" data-name="Trazado 139412" d="M548.194,297.216a15.237,15.237,0,0,0-.45-5.48A5.4,5.4,0,0,0,544.01,288c-2.06-.427-4.171.874-5.326,2.633a15.169,15.169,0,0,0-1.892,5.97,210.878,210.878,0,0,0-2.584,43.337l8.43,1.182c3.7-15.128,4.884-28.35,5.557-43.911" transform="translate(-237.738 -128.182)" fill="#455a64"/>
        <path id="Trazado_139413" data-name="Trazado 139413" d="M544.951,287.953a.476.476,0,0,1-.038.134c-.037.1-.083.229-.139.382q-.206.535-.561,1.456c-.118.317-.274.661-.4,1.054l-.409,1.277-.472,1.466-.436,1.672a73.424,73.424,0,0,0-1.628,8.343c-.456,3.17-.755,6.682-.99,10.372-.431,7.386-.5,14.091-.689,18.939-.09,2.424-.173,4.386-.266,5.74q-.067.985-.106,1.559c-.014.163-.026.3-.035.4a.475.475,0,0,1-.022.138.462.462,0,0,1-.009-.139c0-.109,0-.243.006-.406q.018-.573.049-1.561c.057-1.355.108-3.317.17-5.741.135-4.848.169-11.553.6-18.951.236-3.7.544-7.215,1.016-10.393a69.88,69.88,0,0,1,1.7-8.358l.458-1.672.5-1.464.434-1.273c.134-.391.3-.732.425-1.047l.615-1.437.167-.371a.483.483,0,0,1,.066-.122" transform="translate(-239.849 -128.195)" fill="#263238"/>
        <path id="Trazado_139414" data-name="Trazado 139414" d="M549.749,287.961a6.036,6.036,0,0,1,1.03,1.744,12.911,12.911,0,0,1,.768,5.453c-.224,4.658-.641,11.077-1.2,18.164s-1.175,13.5-1.673,18.127c-.249,2.316-.464,4.189-.623,5.482q-.12.939-.191,1.488l-.057.386a.463.463,0,0,1-.03.13.444.444,0,0,1,0-.134c.007-.106.016-.234.027-.389q.05-.551.135-1.494c.128-1.324.307-3.192.528-5.49.443-4.636,1.027-11.044,1.584-18.129s1-13.5,1.283-18.148a13.193,13.193,0,0,0-.665-5.4,11.33,11.33,0,0,0-.921-1.788" transform="translate(-243.867 -128.199)" fill="#263238"/>
        <path id="Trazado_139415" data-name="Trazado 139415" d="M559.385,326.382a9.06,9.06,0,0,1-3.094-1.11,9.031,9.031,0,0,1,3.094,1.11" transform="translate(-247.658 -144.802)" fill="#263238"/>
        <path id="Trazado_139416" data-name="Trazado 139416" d="M561.16,311.791A10.04,10.04,0,0,1,558,313.207a10.055,10.055,0,0,1,3.163-1.415" transform="translate(-248.417 -138.802)" fill="#263238"/>
        <path id="Trazado_139417" data-name="Trazado 139417" d="M560.75,298.954a5.253,5.253,0,0,1-2.493-.172,5.253,5.253,0,0,1,2.493.172" transform="translate(-248.534 -132.978)" fill="#263238"/>
        <path id="Trazado_139418" data-name="Trazado 139418" d="M545.942,289.284c-.071.044-.439-.416-.825-1.027s-.64-1.143-.569-1.188.439.416.824,1.028.64,1.143.569,1.188" transform="translate(-242.425 -127.8)" fill="#263238"/>
        <path id="Trazado_139419" data-name="Trazado 139419" d="M539.972,298.563a4.8,4.8,0,0,1-2.388-.051,4.82,4.82,0,0,1,2.388.051" transform="translate(-239.33 -132.84)" fill="#263238"/>
        <path id="Trazado_139420" data-name="Trazado 139420" d="M536.236,313.2a2.927,2.927,0,0,1-1.26-.346c-.665-.268-1.178-.548-1.147-.625a2.924,2.924,0,0,1,1.26.346c.665.268,1.178.548,1.148.625" transform="translate(-237.657 -138.996)" fill="#263238"/>
        <path id="Trazado_139421" data-name="Trazado 139421" d="M536,326.823c.017.082-.463.251-1.073.379s-1.117.165-1.135.084.463-.251,1.072-.379,1.117-.166,1.135-.084" transform="translate(-237.642 -145.481)" fill="#263238"/>
        <path id="Trazado_139422" data-name="Trazado 139422" d="M534.151,347.856c.014.082-.5.242-1.138.357a2.461,2.461,0,0,1-1.192.061c-.014-.082.495-.242,1.139-.357a2.451,2.451,0,0,1,1.192-.06" transform="translate(-236.764 -154.843)" fill="#263238"/>
        <path id="Trazado_139423" data-name="Trazado 139423" d="M533.219,359.493c.039.074-.386.374-.949.672s-1.052.48-1.091.407.386-.375.95-.673,1.051-.479,1.09-.406" transform="translate(-236.478 -160.037)" fill="#263238"/>
        <path id="Trazado_139424" data-name="Trazado 139424" d="M543.212,370.731c-.072.042-.443-.47-.828-1.142a3.379,3.379,0,0,1-.566-1.292c.072-.042.442.47.827,1.142a3.4,3.4,0,0,1,.566,1.292" transform="translate(-241.21 -163.963)" fill="#263238"/>
        <path id="Trazado_139425" data-name="Trazado 139425" d="M545.423,350.779c.058.059-.354.559-.922,1.115s-1.075.959-1.133.9.354-.558.922-1.115,1.074-.959,1.132-.9" transform="translate(-241.903 -156.163)" fill="#263238"/>
        <path id="Trazado_139426" data-name="Trazado 139426" d="M545.269,338c-.061.057-.444-.257-.855-.7s-.7-.85-.634-.907.444.257.855.7.7.849.634.906" transform="translate(-242.085 -149.756)" fill="#263238"/>
        <path id="Trazado_139427" data-name="Trazado 139427" d="M546.932,324.6c.062.056-.282.54-.768,1.083s-.93.938-.992.882.282-.54.768-1.083.931-.938.992-.882" transform="translate(-242.705 -144.51)" fill="#263238"/>
        <path id="Trazado_139428" data-name="Trazado 139428" d="M547.855,312.422c-.058.059-.538-.318-1.072-.842s-.919-1-.861-1.057.538.318,1.072.843.919,1,.861,1.057" transform="translate(-243.04 -138.24)" fill="#263238"/>
        <path id="Trazado_139429" data-name="Trazado 139429" d="M550.409,299.544a2.953,2.953,0,0,1-.538,1.2c-.369.618-.726,1.085-.8,1.042a2.961,2.961,0,0,1,.539-1.2c.368-.618.725-1.085.8-1.042" transform="translate(-244.44 -133.354)" fill="#263238"/>
        <path id="Trazado_139430" data-name="Trazado 139430" d="M554.416,286.2a2.846,2.846,0,0,1-.476,1.2c-.336.622-.668,1.094-.741,1.054a2.846,2.846,0,0,1,.476-1.2c.336-.622.668-1.094.741-1.055" transform="translate(-246.275 -127.412)" fill="#263238"/>
        <path id="Trazado_139431" data-name="Trazado 139431" d="M558.529,292.242c.036.075-.3.311-.753.528s-.848.33-.884.255.3-.311.753-.527.847-.331.883-.256" transform="translate(-247.925 -130.095)" fill="#263238"/>
        <path id="Trazado_139432" data-name="Trazado 139432" d="M557.479,339.141a5.149,5.149,0,0,1-3.079-1.313,65.111,65.111,0,0,1,3.079,1.313" transform="translate(-246.815 -150.395)" fill="#263238"/>
        <path id="Trazado_139433" data-name="Trazado 139433" d="M556.27,350.321c.016.082-.492.249-1.134.372a2.462,2.462,0,0,1-1.191.077c-.016-.082.492-.249,1.134-.372a2.463,2.463,0,0,1,1.191-.077" transform="translate(-246.614 -155.942)" fill="#263238"/>
        <path id="Trazado_139434" data-name="Trazado 139434" d="M554.221,365.653a4.774,4.774,0,0,1-2.089-2.634,355.777,355.777,0,0,0,2.089,2.634" transform="translate(-245.802 -161.614)" fill="#263238"/>
        <path id="Trazado_139435" data-name="Trazado 139435" d="M531.477,374.539c-.055-.063.288-.445.765-.852s.907-.687.96-.624-.288.445-.764.852-.908.687-.961.624" transform="translate(-236.609 -166.082)" fill="#263238"/>
        <path id="Trazado_139436" data-name="Trazado 139436" d="M519.17,334.731c-.548-1.713-1.578-3.711-3.377-3.737a2.989,2.989,0,0,0-2.529,1.693,6.245,6.245,0,0,0-.684,3.1,80.8,80.8,0,0,0,3.867,22.455h6.582a78.206,78.206,0,0,0-3.858-23.512" transform="translate(-228.197 -147.357)" fill="#455a64"/>
        <path id="Trazado_139437" data-name="Trazado 139437" d="M493.928,313.594a7.317,7.317,0,0,0-6.852-5.852c-2.909.51-4.038,3.375-4.383,6.308s.565,5.853,1.465,8.667l8.664,27.1,8.189-.894c-2.592-12.1-4.08-23.32-7.082-35.328" transform="translate(-214.859 -137.005)" fill="#455a64"/>
        <path id="Trazado_139438" data-name="Trazado 139438" d="M517.489,330.995a6.958,6.958,0,0,0-.558.932,6.14,6.14,0,0,0-.308,2.91c.127,1.251.271,2.758.48,4.408s.512,3.465.882,5.356c.745,3.782,1.582,7.175,2.115,9.648.27,1.236.473,2.24.6,2.935.055.32.1.585.138.8a.144.144,0,1,1-.059.012c-.053-.215-.116-.476-.193-.791l-.694-2.912c-.585-2.459-1.456-5.844-2.2-9.638-.371-1.9-.662-3.716-.862-5.379-.1-.831-.174-1.624-.241-2.366s-.141-1.427-.176-2.063a5.975,5.975,0,0,1,.414-2.973,2.608,2.608,0,0,1,.664-.883" transform="translate(-229.894 -147.358)" fill="#263238"/>
        <path id="Trazado_139439" data-name="Trazado 139439" d="M488.876,307.322a10.932,10.932,0,0,0-.989,1.33,9.343,9.343,0,0,0-1.247,4.285,19.823,19.823,0,0,0,1.013,6.592l2.337,7.919,4.191,14.406c.516,1.824.936,3.311,1.237,4.375.134.5.24.893.322,1.194a2.347,2.347,0,0,1,.092.422,2.3,2.3,0,0,1-.15-.4l-.376-1.178-1.329-4.349c-1.1-3.708-2.61-8.778-4.276-14.381-.821-2.811-1.6-5.488-2.315-7.928a19.572,19.572,0,0,1-.959-6.682,9.184,9.184,0,0,1,1.359-4.332,5.06,5.06,0,0,1,1.089-1.268" transform="translate(-216.541 -136.818)" fill="#263238"/>
        <path id="Trazado_139440" data-name="Trazado 139440" d="M502.454,347.993a2.31,2.31,0,0,1-.185-.392c-.108-.263-.282-.645-.467-1.152-.391-1.006-.891-2.489-1.408-4.349s-1.032-4.1-1.526-6.6c-.475-2.507-1-5.258-1.542-8.146-.569-2.883-1.2-5.61-1.939-8.045A44.823,44.823,0,0,0,493,313a33.563,33.563,0,0,0-2.208-3.978c-.282-.459-.538-.79-.69-1.03a2.363,2.363,0,0,1-.229-.368,2.324,2.324,0,0,1,.278.332c.169.229.441.55.738,1a29.71,29.71,0,0,1,2.3,3.951,42.737,42.737,0,0,1,2.461,6.321,80.808,80.808,0,0,1,1.97,8.067c.539,2.89,1.051,5.642,1.519,8.151s.967,4.741,1.459,6.6.957,3.348,1.313,4.364c.167.512.323.9.413,1.17a2.4,2.4,0,0,1,.128.414" transform="translate(-218.089 -136.951)" fill="#263238"/>
        <path id="Trazado_139441" data-name="Trazado 139441" d="M484,332.264c.019.081-.426.259-.995.4s-1.046.185-1.066.1.426-.258.995-.4,1.046-.185,1.066-.1" transform="translate(-214.558 -147.905)" fill="#263238"/>
        <path id="Trazado_139442" data-name="Trazado 139442" d="M481.87,322.1a10.164,10.164,0,0,1-2.77.109,4.765,4.765,0,0,1,2.77-.109" transform="translate(-213.293 -143.326)" fill="#263238"/>
        <path id="Trazado_139443" data-name="Trazado 139443" d="M484.314,311.8c-.054.063-.5-.226-.994-.645s-.852-.812-.8-.875.5.225.994.645.852.812.8.875" transform="translate(-214.814 -138.13)" fill="#263238"/>
        <path id="Trazado_139444" data-name="Trazado 139444" d="M490.053,304.505c.083.019.06.417.048.9s-.016.88-.1.894-.217-.388-.2-.9.175-.909.254-.889" transform="translate(-218.056 -135.564)" fill="#263238"/>
        <path id="Trazado_139445" data-name="Trazado 139445" d="M498.533,308.515c.068.048-.132.451-.447.9s-.626.776-.694.728.132-.451.447-.9.625-.776.694-.728" transform="translate(-221.431 -137.348)" fill="#263238"/>
        <path id="Trazado_139446" data-name="Trazado 139446" d="M503.817,318.872c.032.077-.393.323-.947.549s-1.029.347-1.061.27.393-.322.947-.549,1.029-.347,1.061-.27" transform="translate(-223.402 -141.95)" fill="#263238"/>
        <path id="Trazado_139447" data-name="Trazado 139447" d="M506.874,329.548a3.78,3.78,0,0,1-2.714.615,27.248,27.248,0,0,1,2.714-.615" transform="translate(-224.45 -146.705)" fill="#263238"/>
        <path id="Trazado_139448" data-name="Trazado 139448" d="M492.392,325.137c-.079-.025-.022-.434.129-.914s.336-.848.416-.824.022.434-.128.914-.337.848-.416.823" transform="translate(-219.195 -143.975)" fill="#263238"/>
        <path id="Trazado_139449" data-name="Trazado 139449" d="M494.726,338.05a2.829,2.829,0,0,1,.37-1.231c.281-.647.57-1.144.647-1.111a2.837,2.837,0,0,1-.371,1.231c-.281.646-.57,1.144-.646,1.111" transform="translate(-220.242 -149.455)" fill="#263238"/>
        <path id="Trazado_139450" data-name="Trazado 139450" d="M487.167,342.993c-.032.078-.551-.064-1.179-.259s-1.135-.377-1.117-.459a2.215,2.215,0,0,1,1.207.171c.642.2,1.121.471,1.089.546" transform="translate(-215.863 -152.363)" fill="#263238"/>
        <path id="Trazado_139451" data-name="Trazado 139451" d="M490.913,354.513c.048.068-.3.4-.783.744s-.91.566-.959.5.3-.4.783-.744.91-.566.959-.5" transform="translate(-217.775 -157.822)" fill="#263238"/>
        <path id="Trazado_139452" data-name="Trazado 139452" d="M493.351,365.381c.019.081-.415.256-.97.391s-1.02.179-1.04.1.415-.256.97-.391,1.02-.179,1.04-.1" transform="translate(-218.742 -162.648)" fill="#263238"/>
        <path id="Trazado_139453" data-name="Trazado 139453" d="M507.82,338.648c.042.07-.329.366-.869.568s-1.014.227-1.029.147.409-.234.922-.429.933-.36.976-.286" transform="translate(-225.234 -150.757)" fill="#263238"/>
        <path id="Trazado_139454" data-name="Trazado 139454" d="M509.915,354.893c-.035.076-.478-.058-.988-.3s-.894-.5-.859-.571.478.058.988.3.894.5.859.571" transform="translate(-226.189 -157.601)" fill="#263238"/>
        <path id="Trazado_139455" data-name="Trazado 139455" d="M513.02,366.931a3.111,3.111,0,0,1-1.3-.349c-.69-.27-1.224-.552-1.194-.63a6.043,6.043,0,0,1,2.5.979" transform="translate(-227.282 -162.911)" fill="#263238"/>
        <path id="Trazado_139456" data-name="Trazado 139456" d="M495.542,375.789c-.041-.075.5-.437,1.116-.927s1.1-.923,1.165-.865-.332.6-.979,1.1a2.7,2.7,0,0,1-1.3.69" transform="translate(-220.612 -166.5)" fill="#263238"/>
        <path id="Trazado_139457" data-name="Trazado 139457" d="M504.515,369.491c-.086.01-.2-.442-.407-.967s-.42-.939-.35-.99.412.312.63.881.206,1.07.126,1.076" transform="translate(-224.265 -163.623)" fill="#263238"/>
        <path id="Trazado_139458" data-name="Trazado 139458" d="M501.5,355.687c-.048.068-.392-.1-.767-.366s-.64-.543-.591-.61.392.1.767.365.64.543.591.61" transform="translate(-222.656 -157.909)" fill="#263238"/>
        <path id="Trazado_139459" data-name="Trazado 139459" d="M523.592,333.619c.049.067-.285.4-.747.739s-.877.563-.927.5.285-.4.748-.738.877-.563.926-.5" transform="translate(-232.354 -148.521)" fill="#263238"/>
        <path id="Trazado_139460" data-name="Trazado 139460" d="M526.479,342.613c.008.08-.517.191-1.165.119s-1.137-.288-1.112-.365.528,0,1.145.065,1.126.095,1.132.18" transform="translate(-233.372 -152.405)" fill="#263238"/>
        <path id="Trazado_139461" data-name="Trazado 139461" d="M512.051,344.862c.018.079-.468.253-1.094.294s-1.131-.065-1.124-.146.5-.113,1.1-.155,1.1-.077,1.114.007" transform="translate(-226.975 -153.509)" fill="#263238"/>
        <path id="Trazado_139462" data-name="Trazado 139462" d="M513.6,335.517c-.006.08-.5.093-1.032-.155s-.848-.626-.791-.682.427.186.917.408.918.344.907.429" transform="translate(-227.84 -148.993)" fill="#263238"/>
        <path id="Trazado_139463" data-name="Trazado 139463" d="M527.877,351.66c-.044.07-.546-.166-1.121-.528s-1.005-.712-.961-.783.546.166,1.121.528,1.005.712.961.783" transform="translate(-234.08 -155.969)" fill="#263238"/>
        <rect id="Rectángulo_9126" data-name="Rectángulo 9126" width="42.855" height="7.596" transform="translate(270.541 210.027)" fill="#d44f4a"/>
        <path id="Trazado_139464" data-name="Trazado 139464" d="M493.4,389.536l5.211,22.7h25.541l5.7-22.7Z" transform="translate(-219.661 -173.42)" fill="#d44f4a"/>
        <path id="Trazado_139465" data-name="Trazado 139465" d="M530.187,392.149c0,.083-9.666.151-21.588.151s-21.59-.068-21.59-.151,9.664-.15,21.59-.15,21.588.067,21.588.15" transform="translate(-216.814 -174.516)" fill="#263238"/>
        <path id="Trazado_139466" data-name="Trazado 139466" d="M521.02,343.846c-.07.044-.363-.3-.654-.762s-.469-.878-.4-.922.363.3.654.762.469.878.4.922" transform="translate(-231.48 -152.327)" fill="#263238"/>
        <path id="Trazado_139467" data-name="Trazado 139467" d="M521.884,354.441c-.079-.026.021-.543.224-1.153s.431-1.084.51-1.058-.022.543-.225,1.153-.431,1.084-.509,1.058" transform="translate(-232.329 -156.81)" fill="#263238"/>
        <path id="Trazado_139468" data-name="Trazado 139468" d="M524.733,365.836c-.075.036-.4-.477-.715-1.146a3.124,3.124,0,0,1-.444-1.275c.075-.036.4.477.716,1.146a3.127,3.127,0,0,1,.443,1.275" transform="translate(-233.086 -161.79)" fill="#263238"/>
        <path id="Trazado_139469" data-name="Trazado 139469" d="M517.51,375.812c-.063-.054.193-.452.571-.888s.736-.745.8-.69-.193.452-.571.888-.736.745-.8.69" transform="translate(-230.389 -166.605)" fill="#263238"/>
        <path id="Trazado_139470" data-name="Trazado 139470" d="M514.369,359.89c-.014.082-.427.078-.921-.009s-.883-.225-.869-.306.427-.078.921.009.883.224.869.306" transform="translate(-228.198 -160.055)" fill="#263238"/>
        <path id="Trazado_139471" data-name="Trazado 139471" d="M319.758,144.346l-29.386-10.552c1.921,22.938,3.794,46.442-2.306,68.636-.66,2.4-1.24,5.41.669,7.007,1.143.956,2.775.988,4.264.942q4.575-.141,9.126-.668c3.229-.374,6.673-1.007,8.972-3.3,1.927-1.927,2.706-4.693,3.354-7.34a192.573,192.573,0,0,0,5.307-54.72" transform="translate(-127.966 -59.565)" fill="#263238"/>
        <path id="Trazado_139472" data-name="Trazado 139472" d="M258.93,274.612l3.481-4.569,2.333-12.215,5.3-29.708s2.338-11.177,9.543-14.379l1.528,29.686-14.7,37.3Z" transform="translate(-115.275 -95.157)" fill="#d44f4a"/>
        <path id="Trazado_139473" data-name="Trazado 139473" d="M286.679,196.61l-4.333,5.13-6.607,2.936s-14.544,27.789-14.934,28.049-2.727,8.181-1.428,14.933a117.124,117.124,0,0,1,2.077,21.946c-.13,6.363-8.44,27.269-8.96,32.074s-2.208,23.374-2.208,23.374l73.5-.559a135.443,135.443,0,0,0-2.727-13.855s-.26-18.44-2.987-21.945c0,0,2.077-4.8,1.818-7.531s10.908-17.271,13.116-22.335,10.908-16.621,11.038-24.932-1.169-15.323-5.324-21.037-11.687-9.61-14.8-11.687l-6.1-7.792Z" transform="translate(-111.427 -86.091)" fill="#d44f4a"/>
        <path id="Trazado_139474" data-name="Trazado 139474" d="M268.652,362.635a1.273,1.273,0,0,1,0-.222c.006-.16.013-.376.022-.651.026-.588.063-1.428.109-2.5.091-2.189.222-5.328.383-9.2.067-1.942.136-4.071.164-6.355.016-1.142.017-2.324-.024-3.536a16.1,16.1,0,0,1,.376-3.76,58.574,58.574,0,0,1,2.4-7.713,37.07,37.07,0,0,0,1.269-4.051,17.311,17.311,0,0,0,.284-2.144q.11-1.093.22-2.2c.3-2.952.586-5.834.865-8.617q.21-2.087.413-4.1c.12-1.34.306-2.647.347-3.932a100.63,100.63,0,0,1,1.85-13.538c.751-3.817,1.437-6.887,1.88-9.016.22-1.052.392-1.875.512-2.451.058-.269.1-.48.137-.637a1.317,1.317,0,0,1,.057-.215,1.287,1.287,0,0,1-.027.22c-.028.159-.064.371-.109.642-.108.578-.261,1.4-.459,2.462-.409,2.136-1.065,5.214-1.791,9.033a103.52,103.52,0,0,0-1.785,13.518c-.038,1.287-.22,2.593-.337,3.934q-.2,2.01-.407,4.1c-.277,2.785-.565,5.668-.859,8.621q-.11,1.107-.22,2.2a17.606,17.606,0,0,1-.29,2.178,36.763,36.763,0,0,1-1.284,4.085,59.181,59.181,0,0,0-2.406,7.672,15.945,15.945,0,0,0-.383,3.7c.036,1.222.031,2.406.01,3.55-.039,2.287-.12,4.416-.2,6.359-.166,3.886-.343,7.028-.475,9.2-.07,1.073-.125,1.912-.163,2.5-.022.274-.038.489-.052.649a1.366,1.366,0,0,1-.027.221" transform="translate(-119.601 -123.674)" fill="#263238"/>
        <path id="Trazado_139475" data-name="Trazado 139475" d="M289.275,238.608a64.481,64.481,0,0,1,8.057-19.079,45.5,45.5,0,0,0,6.636-15.76l.086-10.865.466,1.4,27.633-4.005.834,3.99L314.526,211s-8.543,1.659-8.9,1.9-16.352,25.715-16.352,25.715" transform="translate(-128.784 -84.72)" fill="#efbda8"/>
        <path id="Trazado_139476" data-name="Trazado 139476" d="M355.028,207.422a2.7,2.7,0,0,1-.243.386c-.168.247-.416.612-.747,1.074-.656.927-1.63,2.25-2.868,3.859s-2.74,3.5-4.36,5.636c-.809,1.068-1.648,2.2-2.5,3.384a7.588,7.588,0,0,1-.695.885,1.684,1.684,0,0,1-1.062.554,2.087,2.087,0,0,1-1.159-.331c-.341-.2-.654-.412-.983-.619l-3.8-2.443c-.614-.391-1.217-.792-1.806-1.155a2.986,2.986,0,0,0-1.858-.544,3.712,3.712,0,0,0-1.694.793c-.5.377-1,.765-1.512,1.078a10.782,10.782,0,0,1-3.082,1.284,10.921,10.921,0,0,1-4.8.111,7.031,7.031,0,0,1-.735-.18,4.984,4.984,0,0,1-.528-.169,2.642,2.642,0,0,1-.423-.173,2.664,2.664,0,0,1,.441.117c.141.047.32.092.532.141s.456.107.735.153a11.168,11.168,0,0,0,4.729-.2,10.7,10.7,0,0,0,3.006-1.289c.5-.311.978-.689,1.489-1.079a3.937,3.937,0,0,1,1.814-.852,3.236,3.236,0,0,1,2.029.57c.608.371,1.2.762,1.819,1.154l3.806,2.438c.653.389,1.279.943,1.965.907a1.4,1.4,0,0,0,.88-.467,7.507,7.507,0,0,0,.668-.85c.852-1.187,1.7-2.315,2.513-3.38,1.634-2.13,3.157-4.007,4.411-5.6s2.255-2.894,2.938-3.8l.79-1.041a2.749,2.749,0,0,1,.29-.352" transform="translate(-142.54 -92.343)" fill="#263238"/>
        <path id="Trazado_139477" data-name="Trazado 139477" d="M308.07,250.164a5.209,5.209,0,0,1,.412-.786c.28-.5.7-1.206,1.245-2.071,1.08-1.732,2.651-4.076,4.529-6.561s3.711-4.634,5.084-6.143c.686-.756,1.252-1.356,1.654-1.761a5.219,5.219,0,0,1,.644-.61,5.168,5.168,0,0,1-.561.686l-1.584,1.82c-1.332,1.541-3.131,3.706-5.007,6.183s-3.466,4.8-4.588,6.5l-1.321,2.019a5.2,5.2,0,0,1-.508.727" transform="translate(-137.151 -103.388)" fill="#263238"/>
        <path id="Trazado_139478" data-name="Trazado 139478" d="M308.206,268.4a.472.472,0,0,1,.108.016l.315.064,1.227.264c1.075.231,2.65.575,4.661.979,1.006.2,2.12.419,3.338.627.61.1,1.241.2,1.906.3s1.34.266,2.034.445c1.388.36,2.841.821,4.357,1.351.757.267,1.531.551,2.316.859.393.154.789.313,1.187.482l.6.264.3.144c.05.026.1.052.151.082a.689.689,0,0,1,.079.05l.042.031a.228.228,0,0,1,.068.126v.016l-.007.022-5.793,18.5,0,.012-.006.011A11.182,11.182,0,0,1,324,294.726a7.952,7.952,0,0,1-1.464,1.5,2.728,2.728,0,0,1-.676.366l-.687.232-1.366.46-2.694.908-5.2,1.751-.079.027-.061-.057-5.44-5.045-1.292-1.2a15.274,15.274,0,0,1-1.238-1.219,3.109,3.109,0,0,1-.737-1.56,5.6,5.6,0,0,1,.037-1.667c.74-4.251,1.58-7.974,2.339-11.061s1.459-5.525,1.955-7.195c.253-.821.45-1.461.589-1.909.067-.206.12-.368.16-.49a.984.984,0,0,1,.063-.164.938.938,0,0,1-.038.171l-.138.5c-.128.451-.309,1.095-.543,1.922-.466,1.677-1.135,4.122-1.873,7.21s-1.553,6.82-2.273,11.053a5.361,5.361,0,0,0-.032,1.593,2.85,2.85,0,0,0,.686,1.436,15.253,15.253,0,0,0,1.219,1.192l1.3,1.2,5.45,5.034-.14-.03,5.2-1.756,2.694-.91,1.365-.461.687-.232a2.443,2.443,0,0,0,.6-.326,7.673,7.673,0,0,0,1.405-1.439,10.876,10.876,0,0,0,1.059-1.643l-.009.022,5.829-18.486.108.038a73.777,73.777,0,0,0-9.012-3.192c-.689-.181-1.361-.34-2.014-.454s-1.3-.2-1.9-.311c-1.219-.218-2.333-.447-3.337-.659-2.008-.426-3.579-.792-4.649-1.047l-1.219-.3-.311-.083a.435.435,0,0,1-.1-.034" transform="translate(-134.902 -119.489)" fill="#263238"/>
        <g id="Grupo_66942" data-name="Grupo 66942" transform="translate(143.276 193.414)" opacity="0.3">
          <g id="Grupo_66941" data-name="Grupo 66941">
            <g id="Grupo_66940" data-name="Grupo 66940" clip-path="url(#clip-path-3)">
              <path id="Trazado_139479" data-name="Trazado 139479" d="M288.883,368.185c-6.426-.972-15.35-3.653-22.674-5.181-2.616-.546-4.877-1.178-7.493-1.724l-.47,1.454A87.739,87.739,0,0,1,279.6,370.35c4.065,2.08,8.09,4.511,12.608,5.174,5.054.742,10.132-.814,15-2.351,2.748-.867,5.627-1.815,7.586-3.927a15.988,15.988,0,0,0,2.895-5.318q2.877-7.53,5.025-15.312c-8.727,9.789-20.872,21.53-33.839,19.569" transform="translate(-258.246 -348.616)"/>
            </g>
          </g>
        </g>
        <path id="Trazado_139480" data-name="Trazado 139480" d="M339.769,269.913l-18.461,33.954a5.471,5.471,0,0,0-4.288,5.4,3.227,3.227,0,0,0-3.658.1c-1.394.828-5.317,1.932-7.484,3.09a2.589,2.589,0,0,0-1.277,2.973l5.729,20.82s6.964,0,7.582-1.727l9.544-2.987s6.168-1.633,8.542-5.734,16.609-25.312,16.609-25.312" transform="translate(-135.565 -120.164)" fill="#d44f4a"/>
        <path id="Trazado_139481" data-name="Trazado 139481" d="M352.492,300.481s-.04.074-.128.212l-.4.611-1.55,2.358-5.818,8.814-4.071,6.213c-1.462,2.256-3.05,4.674-4.635,7.3a10.8,10.8,0,0,1-3.39,3.327,19.675,19.675,0,0,1-4.518,2.15l-10.148,3.18.089-.085a1.555,1.555,0,0,1-.728.741,4.871,4.871,0,0,1-.928.381,12.954,12.954,0,0,1-1.964.414,32.38,32.38,0,0,1-4.093.286l-.108,0-.029-.106-3.234-11.747-1.727-6.277c-.277-1.042-.581-2.04-.832-3.1a2.738,2.738,0,0,1,1.361-2.8,55.542,55.542,0,0,1,5.7-2.3c.467-.18.928-.365,1.37-.575a11.319,11.319,0,0,1,1.349-.65,3.247,3.247,0,0,1,2.922.329l-.22.106a5.526,5.526,0,0,1,1.241-3.6,6.048,6.048,0,0,1,3.157-1.92l-.088.065,13.4-24.537,3.8-6.914,1.013-1.822.265-.465c.06-.1.1-.154.1-.154s-.023.057-.078.164l-.246.475-.979,1.841-3.737,6.948-13.309,24.587-.027.049-.061.015a5.8,5.8,0,0,0-3,1.838,5.255,5.255,0,0,0-1.173,3.433l0,.257-.217-.152a2.989,2.989,0,0,0-2.665-.28,11.239,11.239,0,0,0-1.317.639c-.456.217-.921.4-1.391.585a55.957,55.957,0,0,0-5.664,2.288,2.45,2.45,0,0,0-1.218,2.512c.238,1,.552,2.038.827,3.066l1.728,6.276c1.106,4.025,2.191,7.968,3.231,11.749l-.137-.1a32.244,32.244,0,0,0,4.053-.28,12.628,12.628,0,0,0,1.921-.4,4.663,4.663,0,0,0,.874-.356,1.305,1.305,0,0,0,.6-.592l.026-.066.063-.02,10.15-3.163a19.486,19.486,0,0,0,4.463-2.111,10.574,10.574,0,0,0,3.324-3.241c1.6-2.627,3.192-5.042,4.663-7.292l4.1-6.195,5.885-8.77,1.588-2.333.416-.6c.094-.134.148-.2.148-.2" transform="translate(-135.449 -120.164)" fill="#d44f4a"/>
        <path id="Trazado_139482" data-name="Trazado 139482" d="M366.153,324.567a1.5,1.5,0,0,1-.1-.326l-.244-.949c-.213-.862-.505-2.047-.863-3.5-.728-2.952-1.757-7.022-2.966-11.5s-2.376-8.512-3.235-11.428l-1.016-3.454-.267-.942a1.508,1.508,0,0,1-.074-.335,1.561,1.561,0,0,1,.13.317l.319.926c.272.806.651,1.977,1.105,3.428.909,2.9,2.1,6.931,3.317,11.412s2.209,8.562,2.886,11.527c.339,1.482.6,2.684.773,3.517.078.392.141.711.191.961a1.526,1.526,0,0,1,.048.339" transform="translate(-159.105 -130.059)" fill="#fff"/>
        <path id="Trazado_139483" data-name="Trazado 139483" d="M355.758,340.847c-.079.014-1.62-8.029-3.443-17.963s-3.237-18-3.159-18.017,1.619,8.027,3.443,17.965,3.237,18,3.158,18.016" transform="translate(-155.442 -135.725)" fill="#fff"/>
        <path id="Trazado_139484" data-name="Trazado 139484" d="M296.455,284.777c.044.066-2.661,1.985-6.042,4.284s-6.16,4.112-6.2,4.046,2.66-1.983,6.042-4.284,6.159-4.112,6.2-4.046" transform="translate(-126.528 -126.781)" fill="#fff"/>
        <path id="Trazado_139485" data-name="Trazado 139485" d="M293.823,297.839a2.237,2.237,0,0,1-.4.421c-.269.257-.667.62-1.165,1.06-1,.882-2.4,2.069-3.986,3.333s-3.061,2.362-4.144,3.134c-.541.386-.984.692-1.3.9a2.248,2.248,0,0,1-.5.294,2.245,2.245,0,0,1,.433-.385l1.239-.969c1.05-.813,2.5-1.936,4.087-3.2s3.005-2.422,4.034-3.262l1.223-.989a2.245,2.245,0,0,1,.473-.336" transform="translate(-125.693 -132.596)" fill="#fff"/>
        <path id="Trazado_139486" data-name="Trazado 139486" d="M274.57,290.039c-.064.047-1.995-2.486-4.31-5.656s-4.142-5.781-4.077-5.828,1.994,2.486,4.31,5.657,4.141,5.779,4.077,5.827" transform="translate(-118.503 -124.011)" fill="#fff"/>
        <path id="Trazado_139487" data-name="Trazado 139487" d="M274.977,311.358a5.29,5.29,0,0,1-.985-.853c-.576-.56-1.342-1.366-2.134-2.3s-1.457-1.828-1.913-2.49a5.3,5.3,0,0,1-.675-1.114,6.5,6.5,0,0,1,.839.993c.5.629,1.183,1.493,1.97,2.425s1.523,1.754,2.06,2.348a6.527,6.527,0,0,1,.838.994" transform="translate(-119.877 -135.605)" fill="#fff"/>
        <path id="Trazado_139488" data-name="Trazado 139488" d="M363.307,217.517a10.48,10.48,0,0,1-1.362-.92l-3.208-2.323c-1.248-.915-2.367-1.76-3.16-2.393a8.331,8.331,0,0,1-1.239-1.082,10.428,10.428,0,0,1,1.362.919l3.208,2.324c1.247.915,2.366,1.76,3.16,2.393a8.29,8.29,0,0,1,1.239,1.082" transform="translate(-157.749 -93.846)" fill="#fff"/>
        <path id="Trazado_139489" data-name="Trazado 139489" d="M368.78,211.381a89.688,89.688,0,0,1-7.832-6.5,89.764,89.764,0,0,1,7.832,6.5" transform="translate(-160.692 -91.212)" fill="#fff"/>
        <path id="Trazado_139490" data-name="Trazado 139490" d="M323.24,280.006c.078.015-.912,5.526-2.21,12.308s-2.416,12.27-2.494,12.255.911-5.525,2.21-12.309,2.416-12.269,2.494-12.254" transform="translate(-141.809 -124.657)" fill="#fff"/>
        <path id="Trazado_139491" data-name="Trazado 139491" d="M344.785,346.918a1.9,1.9,0,0,1-.482-.225c-.3-.159-.727-.414-1.238-.749a23.9,23.9,0,0,1-6.719-6.717c-.336-.512-.59-.935-.75-1.238a1.9,1.9,0,0,1-.225-.482c.041-.024.435.619,1.143,1.6a28.78,28.78,0,0,0,6.667,6.665c.985.707,1.628,1.1,1.6,1.142" transform="translate(-149.305 -150.256)" fill="#263238"/>
        <path id="Trazado_139492" data-name="Trazado 139492" d="M344.842,334.357a6.4,6.4,0,0,1-1.575.287,18.7,18.7,0,0,1-7.649-.811,6.393,6.393,0,0,1-1.48-.611,13.9,13.9,0,0,1,1.538.415,23.432,23.432,0,0,0,7.574.8,13.972,13.972,0,0,1,1.591-.083" transform="translate(-148.757 -148.347)" fill="#263238"/>
        <path id="Trazado_139493" data-name="Trazado 139493" d="M274.686,240.208a.488.488,0,0,1-.04.132l-.145.377c-.124.333-.336.812-.618,1.426-.566,1.226-1.516,2.937-2.745,5.01a45.685,45.685,0,0,0-3.818,7.515q-.1.28-.2.563l-.163.582L266.63,257a8.23,8.23,0,0,0-.258,1.228q-.1.626-.212,1.263c-.1.855-.154,1.733-.206,2.621l0,1.346A13.372,13.372,0,0,0,266,264.82a86.228,86.228,0,0,0,1.424,10.245,73.253,73.253,0,0,1,1.141,8.4c.112,1.2.057,2.3.073,3.258-.074.957-.12,1.784-.2,2.453-.115.646-.206,1.158-.272,1.531-.031.16-.057.29-.078.4a.471.471,0,0,1-.036.133.507.507,0,0,1,.007-.139c.013-.107.029-.239.049-.4.053-.373.125-.886.217-1.533.067-.669.1-1.492.154-2.444-.032-.954.01-2.043-.115-3.24a77.1,77.1,0,0,0-1.2-8.364,83.483,83.483,0,0,1-1.45-10.277,13.57,13.57,0,0,1-.043-1.375q0-.683,0-1.359c.053-.9.109-1.784.212-2.648q.11-.645.217-1.278a8.37,8.37,0,0,1,.265-1.242q.168-.607.333-1.2l.167-.589.206-.568a44.469,44.469,0,0,1,3.893-7.528c1.251-2.059,2.223-3.747,2.82-4.954.3-.6.524-1.075.666-1.4l.171-.366a.52.52,0,0,1,.068-.121" transform="translate(-118.274 -106.94)" fill="#263238"/>
        <path id="Trazado_139494" data-name="Trazado 139494" d="M303.943,199.2a.5.5,0,0,1-.068.116l-.223.325c-.2.286-.511.69-.928,1.2-.834,1.025-2.107,2.457-3.708,4.217l-2.61,2.9c-.927,1.054-1.922,2.186-2.856,3.461a22.5,22.5,0,0,0-3.59,9.6l-.272-.082a16.029,16.029,0,0,1,1.559-2.41c.3-.409.6-.813.875-1.223.14-.2.275-.411.4-.62l.183-.316.084-.161.041-.08.021-.04c.01-.014-.011.008.034-.054a.168.168,0,0,1,.153-.053.17.17,0,0,1,.122.09l.012.03.017.044.033.089.066.177a2.428,2.428,0,0,1,.116.358,5.3,5.3,0,0,1,.161.73,7.94,7.94,0,0,1,.095,1.464,29.334,29.334,0,0,1-.91,5.445c-.65,3.464-1.835,6.424-2.54,8.97a23.11,23.11,0,0,0-1.029,6.157,15.583,15.583,0,0,0,.078,1.7l.05.441a.584.584,0,0,1,.008.152,10.1,10.1,0,0,1-.25-2.292,22.268,22.268,0,0,1,.945-6.212c.685-2.57,1.845-5.521,2.476-8.97a29.492,29.492,0,0,0,.888-5.395,7.641,7.641,0,0,0-.094-1.413,4.913,4.913,0,0,0-.154-.7,2.23,2.23,0,0,0-.11-.34l-.063-.168-.032-.084-.015-.042,0-.011c.047-.024-.111.038.1-.055h0v0c-.094-.045.134.063.107.057l-.006.011-.022.042-.043.084-.087.169-.189.327q-.2.323-.41.634c-.284.416-.582.823-.881,1.231a15.9,15.9,0,0,0-1.531,2.36l-.413.865.14-.947a22.579,22.579,0,0,1,3.666-9.714c.951-1.287,1.956-2.413,2.892-3.463s1.829-2,2.639-2.876c1.619-1.743,2.913-3.152,3.77-4.154.428-.5.756-.893.965-1.167l.244-.308c.057-.069.087-.1.091-.1" transform="translate(-128.69 -88.684)" fill="#263238"/>
        <path id="Trazado_139495" data-name="Trazado 139495" d="M317.954,341.924c.008-.007.074.059.194.189l.516.581a11.15,11.15,0,0,1,.773.956c.284.387.63.812.947,1.328.333.5.694,1.06,1.029,1.688.366.611.683,1.3,1.031,2.022a27.773,27.773,0,0,1,2.465,10.054c.024.8.062,1.559.021,2.27-.007.712-.069,1.371-.132,1.972-.043.6-.152,1.141-.225,1.614a11.254,11.254,0,0,1-.243,1.206c-.075.3-.138.549-.189.754a.923.923,0,0,1-.085.257,1,1,0,0,1,.028-.271l.135-.763c.067-.33.141-.733.194-1.208s.152-1.009.181-1.608c.05-.6.1-1.253.1-1.958.031-.705-.016-1.458-.047-2.249a28.861,28.861,0,0,0-2.442-9.96c-.34-.716-.645-1.4-1-2.016-.323-.627-.67-1.185-.99-1.692-.3-.519-.635-.949-.9-1.343s-.519-.72-.73-.981l-.473-.614a.982.982,0,0,1-.15-.228" transform="translate(-141.552 -152.223)" fill="#263238"/>
        <path id="Trazado_139496" data-name="Trazado 139496" d="M332.323,282.836a5.18,5.18,0,0,1-.839-.283l-2.259-.831c-1.912-.689-4.578-1.571-7.573-2.368s-5.75-1.35-7.751-1.7l-2.374-.4a5.225,5.225,0,0,1-.869-.171,5.149,5.149,0,0,1,.884.059c.567.054,1.384.158,2.392.309a73.394,73.394,0,0,1,15.362,4.078c.949.369,1.711.685,2.23.919a5.231,5.231,0,0,1,.8.387" transform="translate(-138.304 -123.353)" fill="#263238"/>
        <g id="Grupo_66945" data-name="Grupo 66945" transform="translate(181.455 188.5)" opacity="0.3">
          <g id="Grupo_66944" data-name="Grupo 66944">
            <g id="Grupo_66943" data-name="Grupo 66943" clip-path="url(#clip-path-4)">
              <path id="Trazado_139497" data-name="Trazado 139497" d="M336.623,349.869a7.6,7.6,0,0,0-1.565-2l-7.969-8.111-.027.6c1.774,1.2,2.151,3.642,2.66,5.724s.952,4.306,2.4,5.885a3.835,3.835,0,0,0,2.2,1.273,2.327,2.327,0,0,0,2.273-.927,2.572,2.572,0,0,0,.024-2.444" transform="translate(-327.061 -339.758)"/>
            </g>
          </g>
        </g>
        <g id="Grupo_66948" data-name="Grupo 66948" transform="translate(168.655 172.433)" opacity="0.3">
          <g id="Grupo_66947" data-name="Grupo 66947">
            <g id="Grupo_66946" data-name="Grupo 66946" clip-path="url(#clip-path-5)">
              <path id="Trazado_139498" data-name="Trazado 139498" d="M315.4,317.739a3.668,3.668,0,0,1-4.784-.893L303.99,310.8c1.9,2.792,3.417,5.618,5.313,8.41a4.407,4.407,0,0,0,1.927,1.857,4.042,4.042,0,0,0,2.779-.3,23.578,23.578,0,0,0,8.449-5.58l-7.057,2.554" transform="translate(-303.99 -310.8)"/>
            </g>
          </g>
        </g>
        <g id="Grupo_66951" data-name="Grupo 66951" transform="translate(171.738 121.984)" opacity="0.3">
          <g id="Grupo_66950" data-name="Grupo 66950">
            <g id="Grupo_66949" data-name="Grupo 66949" clip-path="url(#clip-path-6)">
              <path id="Trazado_139499" data-name="Trazado 139499" d="M309.547,242.993c6.2-2.973,8.428-11.213,14.577-14.284a11.075,11.075,0,0,1,11.173.9c1.065.766,2.247,1.788,3.509,1.426.953-.273,1.5-1.242,1.955-2.125l4.615-9.041L339.322,227a3.313,3.313,0,0,1-1.569,1.223c-1.219.313-2.1-1.052-3.227-1.614-3.511-1.751-5.97-3.951-7.928-2.473,0,0-3.408,2.347-4.777,2.593l-12.274,16.03" transform="translate(-309.547 -219.869)"/>
            </g>
          </g>
        </g>
        <g id="Grupo_66954" data-name="Grupo 66954" transform="translate(161.003 111.642)" opacity="0.3">
          <g id="Grupo_66953" data-name="Grupo 66953">
            <g id="Grupo_66952" data-name="Grupo 66952" clip-path="url(#clip-path-7)">
              <path id="Trazado_139500" data-name="Trazado 139500" d="M290.382,240.727a14.47,14.47,0,0,1,1.222-8.284c1.127-2.54,2.54-4.978,3.236-7.668a15.238,15.238,0,0,0,.225-6.583,7.885,7.885,0,0,1-.266-3.074,5.8,5.8,0,0,1,.836-1.8,40.018,40.018,0,0,1,4.835-6.266l3.869-5.824s.167,6.765.041,7.407a43.772,43.772,0,0,1-1.689,5.9,47.028,47.028,0,0,1-4.4,8.991,71.266,71.266,0,0,0-5.454,10.242Z" transform="translate(-290.198 -201.228)"/>
            </g>
          </g>
        </g>
        <path id="Trazado_139501" data-name="Trazado 139501" d="M316.557,162.552c-7.863-1.856-10.278-5.765-10.372-12.681l-.119-8.8s-8.7-.453-10.732-13.415a128.959,128.959,0,0,1-1.324-25.5c.508-7.772,8.583-21.479,16.327-20.643l21.268,10.347a4.558,4.558,0,0,1,4.068,4.632l-1.651,50.249" transform="translate(-130.814 -36.275)" fill="#efbda8"/>
        <path id="Trazado_139502" data-name="Trazado 139502" d="M300.144,134.722a1.663,1.663,0,0,0,1.6,1.681,1.59,1.59,0,0,0,1.716-1.495,1.662,1.662,0,0,0-1.6-1.681,1.59,1.59,0,0,0-1.718,1.5" transform="translate(-133.622 -59.311)" fill="#263238"/>
        <path id="Trazado_139503" data-name="Trazado 139503" d="M298.266,129.178c.18.16,1.487-.018,3.223.409s2.924,1.2,3.133,1.132c.1-.027-.067-.278-.583-.627a7.984,7.984,0,0,0-2.484-1.044,7.118,7.118,0,0,0-2.59-.187c-.573.085-.789.242-.7.316" transform="translate(-132.778 -57.347)" fill="#263238"/>
        <path id="Trazado_139504" data-name="Trazado 139504" d="M330.149,135.621a1.661,1.661,0,0,0,1.6,1.68,1.59,1.59,0,0,0,1.717-1.495,1.662,1.662,0,0,0-1.6-1.68,1.59,1.59,0,0,0-1.718,1.5" transform="translate(-146.98 -59.711)" fill="#263238"/>
        <path id="Trazado_139505" data-name="Trazado 139505" d="M329.994,130.211c.257.064,1.406-.816,3.283-1.314s3.421-.36,3.583-.538c.082-.082-.209-.245-.889-.319a8.292,8.292,0,0,0-2.918.279,7.415,7.415,0,0,0-2.563,1.2c-.5.393-.621.667-.5.693" transform="translate(-146.892 -56.988)" fill="#263238"/>
        <path id="Trazado_139506" data-name="Trazado 139506" d="M314.538,141.263a11.826,11.826,0,0,0-2.9-.53c-.456-.048-.888-.14-.965-.452a2.327,2.327,0,0,1,.308-1.353l1.358-3.474c1.886-4.946,3.253-9.014,3.053-9.088s-1.891,3.875-3.778,8.821q-.681,1.829-1.3,3.495a2.639,2.639,0,0,0-.241,1.791,1.146,1.146,0,0,0,.75.67,3.111,3.111,0,0,0,.775.109,11.638,11.638,0,0,0,2.944.011" transform="translate(-138.004 -56.257)" fill="#263238"/>
        <path id="Trazado_139507" data-name="Trazado 139507" d="M315.881,185.44a32.964,32.964,0,0,0,17.364-4.59s-4.4,9.135-17.364,7.894Z" transform="translate(-140.629 -80.514)" fill="#d1967c"/>
        <path id="Trazado_139508" data-name="Trazado 139508" d="M318.48,159.23a4.774,4.774,0,0,1,3.436-2.271,2.048,2.048,0,0,1,2.014,1.123,3.241,3.241,0,0,1-.288,2.973,2.737,2.737,0,0,1-2.71,1.31,4.581,4.581,0,0,1-2.238-1.458,1.613,1.613,0,0,1-.453-.641,1.1,1.1,0,0,1,.141-.938" transform="translate(-141.659 -69.876)" fill="#d1967c"/>
        <path id="Trazado_139509" data-name="Trazado 139509" d="M323.091,155.469c-.291-.018-.3,1.924-1.963,3.3s-3.73,1.156-3.745,1.428c-.028.121.46.378,1.333.4a4.835,4.835,0,0,0,3.127-1.082,4.212,4.212,0,0,0,1.522-2.765c.075-.811-.14-1.293-.272-1.282" transform="translate(-141.297 -69.214)" fill="#263238"/>
        <path id="Trazado_139510" data-name="Trazado 139510" d="M327.391,116.519c.224.467,1.977.062,4.09.108,2.114,0,3.858.448,4.092-.013.1-.22-.235-.646-.962-1.047a7.113,7.113,0,0,0-6.234-.072c-.736.384-1.084.8-.986,1.025" transform="translate(-145.746 -51.113)" fill="#263238"/>
        <path id="Trazado_139511" data-name="Trazado 139511" d="M297.253,120.88c.392.405,1.921-.019,3.762-.042,1.839-.075,3.4.267,3.757-.159.157-.206-.089-.613-.771-1a6.172,6.172,0,0,0-3.059-.66,6.058,6.058,0,0,0-3,.822c-.649.419-.862.837-.69,1.035" transform="translate(-132.31 -52.988)" fill="#263238"/>
        <path id="Trazado_139512" data-name="Trazado 139512" d="M364.77,148.616c-2.826-4.568-5.132-15.943-6.115-21.712s-4.04-24.26-8.954-33.978S339,79.276,333.322,77.747a13.055,13.055,0,0,0-12.5,2.839c-2.565,2.293-3.44,8.969-3.44,8.969s13.7,3.046,18.311,10.856c5.3,8.972,6.584,13.486,6.584,13.486l1.715,4.908s-1.605,9.5-2.2,14.2.351,9.057,4.216,10.962l7.774,5.494s10.163,6.907,10.631,7.265c2.168,1.656,6.421,7.972,6.421,7.972s-.292-6.743-6.066-16.078" transform="translate(-141.296 -34.379)" fill="#263238"/>
        <path id="Trazado_139513" data-name="Trazado 139513" d="M305.569,90.563s-7.832-.848-10.726,8c-1.309,4-2.307,15.558-2.307,15.558s-1.146-9.175-.723-14.414,3.036-11.861,7.05-15.528c3.9-3.566,7.2-5.239,14.177-4.817A11.2,11.2,0,0,0,308,83.127c-.895,1.326-1.284,2.457-2.433,7.435" transform="translate(-129.872 -35.302)" fill="#263238"/>
        <path id="Trazado_139514" data-name="Trazado 139514" d="M361.772,141.482a3.931,3.931,0,0,1,5.753-3.345c1.365.789,2.408,2.375,2.283,5.419-.335,8.12-8.416,6.109-8.421,5.875,0-.145.218-4.592.386-7.95" transform="translate(-160.887 -61.28)" fill="#efbda8"/>
        <path id="Trazado_139515" data-name="Trazado 139515" d="M366.078,148.422c.037-.024.138.1.372.225a1.414,1.414,0,0,0,1.056.065c.871-.28,1.649-1.612,1.749-3.073a4.675,4.675,0,0,0-.313-2.042,1.636,1.636,0,0,0-1.019-1.13.721.721,0,0,0-.85.353c-.118.222-.073.387-.117.4-.023.019-.169-.143-.089-.476a.9.9,0,0,1,.341-.5,1.067,1.067,0,0,1,.79-.174,1.99,1.99,0,0,1,1.426,1.319,4.811,4.811,0,0,1,.4,2.284c-.119,1.634-1.02,3.13-2.208,3.421a1.513,1.513,0,0,1-1.284-.268c-.244-.211-.279-.394-.25-.408" transform="translate(-162.973 -63.245)" fill="#d1967c"/>
        <path id="Trazado_139516" data-name="Trazado 139516" d="M330.063,77.209c0,.06-1.114.028-2.877.261a9.977,9.977,0,0,0-2.963.885,9.781,9.781,0,0,0-2.974,2.317,15.067,15.067,0,0,0-3.291,6.031c-.472,1.717-.528,2.833-.585,2.826a3.618,3.618,0,0,1,.026-.78,14.494,14.494,0,0,1,3.635-8.269,9.211,9.211,0,0,1,6.125-3.211,16.685,16.685,0,0,1,2.126-.1,3.784,3.784,0,0,1,.778.044" transform="translate(-141.288 -34.353)" fill="#455a64"/>
        <path id="Trazado_139517" data-name="Trazado 139517" d="M350.2,127.65a.448.448,0,0,1,.014-.132l.07-.38q.051-.26.121-.615.054-.374.122-.847a19.523,19.523,0,0,0-2.883-12.908,21.906,21.906,0,0,0-7.126-6.694,40.714,40.714,0,0,0-4.534-2.372c-1.505-.692-3.01-1.231-4.408-1.864a52.616,52.616,0,0,1-7.075-3.977c-1.925-1.278-3.424-2.4-4.442-3.191-.507-.4-.9-.712-1.158-.932l-.295-.251c-.065-.058-.1-.089-.094-.093a.456.456,0,0,1,.113.07l.312.227,1.19.889c1.036.766,2.552,1.857,4.485,3.109a54.716,54.716,0,0,0,7.073,3.906c1.384.619,2.9,1.156,4.415,1.848a40.226,40.226,0,0,1,4.57,2.384,21.951,21.951,0,0,1,7.2,6.8,19.3,19.3,0,0,1,2.787,7.6,18.528,18.528,0,0,1-.017,5.468l-.149.847-.149.612-.1.374a.445.445,0,0,1-.043.125" transform="translate(-141.8 -41.579)" fill="#455a64"/>
        <path id="Trazado_139518" data-name="Trazado 139518" d="M354.5,120.519a.46.46,0,0,1-.008-.133c0-.1,0-.232,0-.388,0-.341.038-.843.026-1.489a31.219,31.219,0,0,0-.529-5.439,31.662,31.662,0,0,0-2.513-7.683,30.487,30.487,0,0,0-5.673-8.082,36,36,0,0,0-7.942-5.905c-2.655-1.517-5.154-2.69-7.236-3.706s-3.771-1.835-4.916-2.444c-.576-.3-1.013-.548-1.312-.713l-.336-.194a.067.067,0,1,1,.014-.026l.35.169,1.335.664c1.159.578,2.853,1.378,4.953,2.36s4.6,2.148,7.279,3.659a35.667,35.667,0,0,1,8.016,5.934,30.313,30.313,0,0,1,5.707,8.171,31.1,31.1,0,0,1,2.473,7.761,29.031,29.031,0,0,1,.441,5.476c0,.649-.062,1.151-.08,1.492-.013.156-.024.283-.032.387a.444.444,0,0,1-.021.131" transform="translate(-144.226 -37.515)" fill="#455a64"/>
        <path id="Trazado_139519" data-name="Trazado 139519" d="M376.492,182.987a.941.941,0,0,1-.125-.245l-.3-.724a12.384,12.384,0,0,1-.431-1.166c-.15-.461-.339-.981-.484-1.575-.079-.3-.161-.606-.247-.927s-.143-.665-.22-1.016c-.163-.7-.266-1.461-.4-2.259a47.6,47.6,0,0,1-.4-5.235,81.29,81.29,0,0,1,.473-9.513c.123-1.212.238-2.19.325-2.866.043-.31.078-.566.107-.777a1,1,0,0,1,.057-.269,1.051,1.051,0,0,1,0,.275c-.015.212-.032.47-.053.782-.059.723-.138,1.694-.234,2.874-.19,2.424-.451,5.78-.389,9.488a51.763,51.763,0,0,0,.372,5.2c.122.792.216,1.55.368,2.247.07.35.129.69.2,1.013s.154.629.227.925c.131.593.306,1.113.44,1.577s.265.858.383,1.177c.1.3.185.54.254.742a1.025,1.025,0,0,1,.07.266" transform="translate(-166.45 -69.636)" fill="#455a64"/>
        <path id="Trazado_139520" data-name="Trazado 139520" d="M193.461,338.638s8.823,11.315,11.984,12.218,15.141,3.856,15.141,3.856L259.9,363.8l-4.63-16.85-37.225-.508Z" transform="translate(-86.128 -150.76)" fill="#efbda8"/>
        <path id="Trazado_139521" data-name="Trazado 139521" d="M102.311,233.83c2.948,7.306,17.794,40.734,21.236,48.473a3.9,3.9,0,0,0,2.386,2.134l46.725,14.833,46.358,3.465v-1.528l-37.479-11.356L169.7,288.465l-17.676-43.84a6.32,6.32,0,0,0-4.723-3.854L103.241,232.7a.836.836,0,0,0-.93,1.134" transform="translate(-45.521 -103.589)" fill="#455a64"/>
        <path id="Trazado_139522" data-name="Trazado 139522" d="M272.584,344.591a.573.573,0,0,1-.148,0l-.431-.032-1.654-.15-6.077-.609-9.009-.939-11.036-1.109c-3.916-.387-7.651-.681-11.053-.874l-4.833-.305a8.2,8.2,0,0,1-1.125-.141,2.432,2.432,0,0,1-.543-.175.959.959,0,0,1-.421-.408,17.9,17.9,0,0,1-.764-1.895l-2.16-5.712-.574-1.558-.143-.408a.575.575,0,0,1-.039-.143.6.6,0,0,1,.067.132c.044.1.1.236.169.4l.624,1.539,2.247,5.681a18.281,18.281,0,0,0,.762,1.849.73.73,0,0,0,.331.321,2.263,2.263,0,0,0,.491.153,7.994,7.994,0,0,0,1.092.129c1.509.07,3.13.18,4.832.278,3.407.179,7.15.466,11.067.853l11.034,1.131,9,1,6.068.7,1.648.2.428.06a.566.566,0,0,1,.145.031" transform="translate(-99.089 -146.973)" fill="#263238"/>
        <path id="Trazado_139523" data-name="Trazado 139523" d="M248.467,328.558s.672-4.408,0-5.273-5.4-5.117-5.4-5.117l-2.676-2.519-5.91-.9a1.8,1.8,0,0,0-1.8.829l-.606.973-1.6-.268-1.417-2.047h-3.936l-2.913,3.148v4.251a.8.8,0,0,0,1.417.315c1.024-.866,1.086-3.261,1.086-3.261l1.748,1.608-1.856,5.671s1.3,1.183,2.25,0,2.283-2.915,2.283-2.915,1.575,4.249,4.251,5.51,9.132,2.41,10.47,2.111,4.354.246,4.608-2.111" transform="translate(-98.927 -139.894)" fill="#efbda8"/>
        <path id="Trazado_139524" data-name="Trazado 139524" d="M244.114,320.345c.006,0-.021.066-.107.158a1.2,1.2,0,0,1-.463.3,2.347,2.347,0,0,1-.859.119c-.34,0-.715-.083-1.121-.123a1.961,1.961,0,0,0-1.247.2,5.776,5.776,0,0,0-1.035,1.112,4.682,4.682,0,0,1-3.157,1.717,2.976,2.976,0,0,1-2.635-1.224l-.059-.092.074-.078a30.225,30.225,0,0,0,2.857-3.484c.64-.912.984-1.474,1.015-1.456a1.791,1.791,0,0,1-.2.426c-.146.268-.369.653-.672,1.125a25.331,25.331,0,0,1-2.8,3.578l.015-.17a2.722,2.722,0,0,0,2.393,1.087,4.485,4.485,0,0,0,2.972-1.606,5.687,5.687,0,0,1,1.109-1.14,2.146,2.146,0,0,1,1.394-.194c.421.055.784.145,1.106.164a2.391,2.391,0,0,0,.817-.065,1.737,1.737,0,0,0,.605-.348" transform="translate(-103.922 -141.344)" fill="#d1967c"/>
        <path id="Trazado_139525" data-name="Trazado 139525" d="M257.87,331.352c-.033.007-.065-.249-.242-.666a6.413,6.413,0,0,0-1.023-1.616c-.51-.635-1.212-1.32-1.85-2.224a4.791,4.791,0,0,1-.735-1.58,3.756,3.756,0,0,1,.032-1.878,4.562,4.562,0,0,1,.846-1.673,1.977,1.977,0,0,1,.711-.6,1.048,1.048,0,0,1,.92.027,2.121,2.121,0,0,1,.94,1.29,5.931,5.931,0,0,0,.524,1.21,5.166,5.166,0,0,0,1.254,1.429c.357.282.582.4.57.424a2.013,2.013,0,0,1-.637-.333,4.814,4.814,0,0,1-1.362-1.414,5.893,5.893,0,0,1-.575-1.234,1.9,1.9,0,0,0-.834-1.134.775.775,0,0,0-.689-.014,1.722,1.722,0,0,0-.6.52,4.339,4.339,0,0,0-.788,1.571,3.516,3.516,0,0,0-.036,1.738,4.6,4.6,0,0,0,.681,1.5c.6.881,1.291,1.586,1.79,2.246a5.821,5.821,0,0,1,.968,1.7,2.419,2.419,0,0,1,.124.52c.018.121.023.184.013.186" transform="translate(-113.042 -142.92)" fill="#d1967c"/>
        <path id="Trazado_139526" data-name="Trazado 139526" d="M231.423,319.937a1.251,1.251,0,0,0-.853.351,5.784,5.784,0,0,0-1.057,2.09c-.318.885-.6,1.7-.827,2.273a2.85,2.85,0,0,1-.448.9,4.626,4.626,0,0,1,.255-.972c.18-.591.427-1.411.748-2.3a5.031,5.031,0,0,1,1.192-2.144,1.109,1.109,0,0,1,.718-.281c.188.006.277.067.271.082" transform="translate(-101.608 -142.398)" fill="#d1967c"/>
        <path id="Trazado_139527" data-name="Trazado 139527" d="M231.171,319.137c0,.031-.242.085-.649.032a2.964,2.964,0,0,1-1.481-.657h.184l-.363.312a12.619,12.619,0,0,1-2.143,1.635,12.67,12.67,0,0,1,1.955-1.855l.367-.309.093-.078.091.078a3.358,3.358,0,0,0,1.333.692c.373.1.613.11.613.15" transform="translate(-100.933 -141.669)" fill="#d1967c"/>
        <path id="Trazado_139528" data-name="Trazado 139528" d="M246.016,333.771a3.238,3.238,0,0,1,.419-1,11.691,11.691,0,0,1,3.443-3.919,3.214,3.214,0,0,1,.942-.544,18.916,18.916,0,0,0-4.8,5.467" transform="translate(-109.523 -146.158)" fill="#d1967c"/>
        <path id="Trazado_139529" data-name="Trazado 139529" d="M185.979,248.544a.688.688,0,0,1,.072.143l.186.432.687,1.669,2.477,6.158,8.07,20.355,7.993,20.39,2.391,6.191.637,1.689.159.442a.677.677,0,0,1,.045.154.667.667,0,0,1-.072-.143l-.186-.431-.687-1.669-2.477-6.157L197.2,277.407l-7.992-20.387c-1-2.6-1.819-4.709-2.391-6.191l-.637-1.689-.159-.442a.676.676,0,0,1-.045-.154" transform="translate(-82.797 -110.651)" fill="#263238"/>
        <path id="Trazado_139530" data-name="Trazado 139530" d="M163.819,284.387c1.178,1.63,1.166,3.652-.029,4.516s-3.119.244-4.3-1.386-1.166-3.652.029-4.516,3.119-.244,4.3,1.386" transform="translate(-70.616 -125.817)" fill="#fff"/>
        <path id="Trazado_139531" data-name="Trazado 139531" d="M357.55,430.6c0,.08-80.047.144-178.766.144C80.029,430.74,0,430.675,0,430.6s80.029-.144,178.784-.144c98.72,0,178.766.064,178.766.144" transform="translate(0 -191.635)" fill="#263238"/>
        <path id="Trazado_139532" data-name="Trazado 139532" d="M143.384,155.176H34.273a4.365,4.365,0,0,1-4.365-4.365V86.5a4.365,4.365,0,0,1,4.365-4.365H143.384a4.364,4.364,0,0,1,4.364,4.365v64.306a4.364,4.364,0,0,1-4.364,4.365" transform="translate(-13.315 -36.568)" fill="#263238"/>
        <path id="Trazado_139533" data-name="Trazado 139533" d="M137.881,142.548a8.976,8.976,0,1,1-8.977-8.977,8.977,8.977,0,0,1,8.977,8.977" transform="translate(-53.391 -59.465)" fill="#d44f4a"/>
        <path id="Trazado_139534" data-name="Trazado 139534" d="M132.209,149.963v-5.3a.337.337,0,0,1,.5-.293l4.734,2.669a.337.337,0,0,1,0,.589l-4.734,2.628a.337.337,0,0,1-.5-.295" transform="translate(-58.859 -64.255)" fill="#fff"/>
        <path id="Trazado_139535" data-name="Trazado 139535" d="M41.3,197.832v.189h-.887v-.15l.478-.454c.117-.112.138-.182.138-.249,0-.11-.076-.174-.224-.174a.339.339,0,0,0-.282.125l-.156-.12a.556.556,0,0,1,.457-.2c.261,0,.429.132.429.345a.481.481,0,0,1-.2.38l-.321.306Z" transform="translate(-17.971 -87.615)" fill="#fff"/>
        <path id="Trazado_139536" data-name="Trazado 139536" d="M42.266,197.471a.141.141,0,1,1,.282,0,.141.141,0,1,1-.282,0m0,.655a.141.141,0,1,1,.282,0,.141.141,0,1,1-.282,0" transform="translate(-18.817 -87.85)" fill="#fff"/>
        <path id="Trazado_139537" data-name="Trazado 139537" d="M43.4,196.832v1.2h-.223v-1.015h-.255v-.188Z" transform="translate(-19.109 -87.629)" fill="#fff"/>
        <path id="Trazado_139538" data-name="Trazado 139538" d="M45.271,197.762h-.213v.273h-.216v-.273h-.66v-.155l.593-.775h.239l-.559.741h.394v-.242h.21v.242h.213Z" transform="translate(-19.669 -87.629)" fill="#fff"/>
        <rect id="Rectángulo_9132" data-name="Rectángulo 9132" width="91.265" height="0.416" transform="translate(27.567 109.652)" fill="#fff"/>
        <rect id="Rectángulo_9133" data-name="Rectángulo 9133" width="28.52" height="1.11" transform="translate(27.498 109.204)" fill="#d44f4a"/>
        <path id="Trazado_139539" data-name="Trazado 139539" d="M100.4,196.9a1.389,1.389,0,1,1-1.389-1.389A1.389,1.389,0,0,1,100.4,196.9" transform="translate(-43.462 -87.042)" fill="#d44f4a"/>
        <path id="Trazado_139540" data-name="Trazado 139540" d="M217.559,197.313a.4.4,0,0,1-.44.391c-.328,0-.52-.211-.52-.6a.569.569,0,0,1,.589-.639.6.6,0,0,1,.316.077l-.082.168a.413.413,0,0,0-.229-.058c-.226,0-.369.141-.369.414v0a.412.412,0,0,1,.322-.125.376.376,0,0,1,.414.369m-.216.011c0-.125-.094-.2-.241-.2a.218.218,0,0,0-.244.206c0,.113.089.2.249.2a.209.209,0,0,0,.235-.2" transform="translate(-96.429 -87.466)" fill="#fff"/>
        <path id="Trazado_139541" data-name="Trazado 139541" d="M218.526,197.135a.141.141,0,1,1,.282,0,.141.141,0,1,1-.282,0m0,.655a.141.141,0,1,1,.282,0,.141.141,0,1,1-.282,0" transform="translate(-97.287 -87.7)" fill="#fff"/>
        <path id="Trazado_139542" data-name="Trazado 139542" d="M219.293,197.084c0-.4.216-.619.5-.619s.5.224.5.619-.216.619-.5.619-.5-.224-.5-.619m.78,0c0-.29-.113-.424-.278-.424s-.277.134-.277.424.114.424.277.424.278-.134.278-.424" transform="translate(-97.628 -87.465)" fill="#fff"/>
        <path id="Trazado_139543" data-name="Trazado 139543" d="M221.375,197.084c0-.4.216-.619.5-.619s.5.224.5.619-.216.619-.5.619-.5-.224-.5-.619m.78,0c0-.29-.113-.424-.279-.424s-.276.134-.276.424.113.424.276.424.279-.134.279-.424" transform="translate(-98.555 -87.465)" fill="#fff"/>
        <path id="Trazado_139544" data-name="Trazado 139544" d="M226.356,196.483h-.416v-1.2h1.2v.416h-.781Z" transform="translate(-100.587 -86.939)" fill="#fff"/>
        <path id="Trazado_139545" data-name="Trazado 139545" d="M227.137,199.307h-1.2v-1.2h.416v.781h.783Z" transform="translate(-100.586 -88.197)" fill="#fff"/>
        <path id="Trazado_139546" data-name="Trazado 139546" d="M230.582,199.3h-1.2v-.416h.781V198.1h.416Z" transform="translate(-102.121 -88.195)" fill="#fff"/>
        <path id="Trazado_139547" data-name="Trazado 139547" d="M230.582,196.48h-.416V195.7h-.783v-.416h1.2Z" transform="translate(-102.12 -86.939)" fill="#fff"/>
        <path id="Trazado_139548" data-name="Trazado 139548" d="M203.448,94.842a3.058,3.058,0,0,1,.64-.055c.428-.021,1.063-.048,1.842-.06l.115,0v.118c.008.93.018,2,.028,3.154l0,.35-.249-.249-.331-.33-.841-.846.195.006-1.319,1.162-.214.189,0-.283c.012-.971.04-1.776.064-2.325a4.6,4.6,0,0,1,.062-.828,7.09,7.09,0,0,1,.062.909c.024.557.052,1.328.064,2.244l-.211-.094,1.3-1.185.1-.09.1.1.846.842.33.331-.246.1c.01-1.156.019-2.224.028-3.154l.116.117c-.727-.013-1.334-.04-1.77-.061a5.094,5.094,0,0,1-.712-.055" transform="translate(-90.516 -42.171)" fill="#fff"/>
        <path id="Trazado_139549" data-name="Trazado 139549" d="M216.851,95.517c.029-.013-.2.264-.615.769s-1.024,1.248-1.765,2.083l-.239.269,0-.361c0-.492,0-1.018-.007-1.564v-.153l.044.1-1.1-1.07-.247-.24.343,0c1.084.014,2.016.063,2.641.1s.974.049.946.062-.432.023-1.074.05-1.508.064-2.515.065l.1-.235,1.111,1.059.044.042v.215c0,.546,0,1.072-.007,1.564l-.24-.092c.7-.768,1.329-1.4,1.8-1.879s.758-.776.787-.789" transform="translate(-94.792 -42.451)" fill="#fff"/>
        <path id="Trazado_139550" data-name="Trazado 139550" d="M218.012,95.633a6.331,6.331,0,0,1-2.483,1.042,6.361,6.361,0,0,1,2.483-1.042" transform="translate(-95.952 -42.568)" fill="#fff"/>
        <path id="Trazado_139551" data-name="Trazado 139551" d="M226.515,94.916a.793.793,0,0,1,.443,0,1.747,1.747,0,0,1,1.036.632,1.851,1.851,0,0,1,.3,1.769,1.882,1.882,0,0,1-3.552,0,1.853,1.853,0,0,1,.3-1.77,1.75,1.75,0,0,1,1.036-.631.793.793,0,0,1,.443,0,3.6,3.6,0,0,1-.416.109,1.758,1.758,0,0,0-.9.647,1.663,1.663,0,0,0-.21,1.555,1.628,1.628,0,0,0,3.051,0,1.663,1.663,0,0,0-.21-1.555,1.756,1.756,0,0,0-.9-.647,3.594,3.594,0,0,1-.416-.109" transform="translate(-100.006 -42.245)" fill="#fff"/>
        <path id="Trazado_139552" data-name="Trazado 139552" d="M228.387,97.988c-.056.056-.436-.233-.851-.646l-.043-.042v-.07c0-.59.065-1.069.144-1.069s.145.479.145,1.069v.011l-.042-.1c.413.414.7.794.646.851" transform="translate(-101.279 -42.81)" fill="#fff"/>
        <path id="Trazado_139553" data-name="Trazado 139553" d="M107.683,99.13c0,.08-12.111.144-27.047.144s-27.049-.064-27.049-.144,12.108-.144,27.049-.144,27.047.064,27.047.144" transform="translate(-23.857 -44.068)" fill="#fff"/>
        <path id="Trazado_139554" data-name="Trazado 139554" d="M45.56,97.534A2.133,2.133,0,1,1,43.427,95.4a2.133,2.133,0,0,1,2.133,2.133" transform="translate(-18.384 -42.472)" fill="#fff"/>
        <path id="Trazado_139555" data-name="Trazado 139555" d="M485.557,75.662H404.628a4.365,4.365,0,0,1-4.365-4.365V24.458a4.365,4.365,0,0,1,4.365-4.365h80.929a4.365,4.365,0,0,1,4.365,4.365V71.3a4.365,4.365,0,0,1-4.365,4.365" transform="translate(-178.195 -8.945)" fill="#f5f5f5"/>
        <path id="Trazado_139556" data-name="Trazado 139556" d="M475.691,60.528a12.95,12.95,0,0,0-7.053-2.332c-3.566.135-6.543,2.633-9.213,5L446.942,74.267a1.686,1.686,0,0,1-2.915-.067L432.972,61.938c-2.292-2.543-4.912-5.258-8.32-5.589-2.763-.269-5.4,1.12-7.725,2.641a55.293,55.293,0,0,0-16.534,16.818l-.129,11.607a5.887,5.887,0,0,0,5.34,4.373h78.978a5.409,5.409,0,0,0,5.34-4.9V75.961a37.672,37.672,0,0,0-14.231-15.433" transform="translate(-178.196 -25.071)" fill="#455a64"/>
        <path id="Trazado_139557" data-name="Trazado 139557" d="M408.93,108.118v.143h-.673v-.113l.362-.344c.089-.085.1-.138.1-.189,0-.084-.058-.132-.17-.132a.257.257,0,0,0-.214.1l-.119-.092a.422.422,0,0,1,.347-.151c.2,0,.326.1.326.262a.367.367,0,0,1-.151.289l-.243.232Z" transform="translate(-181.739 -47.786)" fill="#263238"/>
        <path id="Trazado_139558" data-name="Trazado 139558" d="M409.667,107.843a.107.107,0,1,1,.214,0,.107.107,0,1,1-.214,0m0,.5a.107.107,0,1,1,.214,0,.107.107,0,1,1-.214,0" transform="translate(-182.382 -47.963)" fill="#263238"/>
        <path id="Trazado_139559" data-name="Trazado 139559" d="M410.529,107.359v.913h-.17V107.5h-.193v-.142Z" transform="translate(-182.604 -47.796)" fill="#263238"/>
        <path id="Trazado_139560" data-name="Trazado 139560" d="M411.951,108.064h-.161v.208h-.164v-.208h-.5v-.117l.449-.589h.181l-.423.562h.3v-.184h.159v.184h.161Z" transform="translate(-183.031 -47.796)" fill="#263238"/>
        <rect id="Rectángulo_9134" data-name="Rectángulo 9134" width="69.439" height="0.416" transform="translate(230.417 59.853)" fill="#263238"/>
        <rect id="Rectángulo_9135" data-name="Rectángulo 9135" width="21.7" height="1.11" transform="translate(230.365 59.429)" fill="#d44f4a"/>
        <path id="Trazado_139561" data-name="Trazado 139561" d="M453.9,107.409a1.057,1.057,0,1,1-1.056-1.056,1.056,1.056,0,0,1,1.056,1.056" transform="translate(-201.133 -47.348)" fill="#d44f4a"/>
        <path id="Trazado_139562" data-name="Trazado 139562" d="M543.033,107.723a.3.3,0,0,1-.334.3c-.249,0-.395-.16-.395-.454a.432.432,0,0,1,.447-.485.456.456,0,0,1,.24.059l-.063.128a.311.311,0,0,0-.174-.044c-.172,0-.28.107-.28.315h0a.312.312,0,0,1,.244-.1.286.286,0,0,1,.315.281m-.164.008c0-.1-.072-.155-.183-.155a.167.167,0,0,0-.185.156c0,.086.068.154.189.154a.159.159,0,0,0,.179-.155" transform="translate(-241.432 -47.672)" fill="#263238"/>
        <path id="Trazado_139563" data-name="Trazado 139563" d="M543.771,107.588a.107.107,0,1,1,.214,0,.107.107,0,1,1-.214,0m0,.5a.107.107,0,1,1,.214,0,.107.107,0,1,1-.214,0" transform="translate(-242.085 -47.85)" fill="#263238"/>
        <path id="Trazado_139564" data-name="Trazado 139564" d="M544.355,107.549c0-.3.164-.469.38-.469s.383.17.383.469-.165.469-.383.469-.38-.17-.38-.469m.591,0c0-.22-.085-.322-.211-.322s-.21.1-.21.322.086.322.21.322.211-.1.211-.322" transform="translate(-242.344 -47.672)" fill="#263238"/>
        <path id="Trazado_139565" data-name="Trazado 139565" d="M545.939,107.549c0-.3.164-.469.38-.469s.383.17.383.469-.165.469-.383.469-.38-.17-.38-.469m.591,0c0-.22-.085-.322-.211-.322s-.21.1-.21.322.087.322.21.322.211-.1.211-.322" transform="translate(-243.05 -47.672)" fill="#263238"/>
        <path id="Trazado_139566" data-name="Trazado 139566" d="M549.74,107.051h-.416v-.963h.961v.416h-.545Z" transform="translate(-244.556 -47.23)" fill="#263238"/>
        <path id="Trazado_139567" data-name="Trazado 139567" d="M550.285,109.289h-.962v-.96h.416v.544h.546Z" transform="translate(-244.556 -48.227)" fill="#263238"/>
        <path id="Trazado_139568" data-name="Trazado 139568" d="M553,109.287h-.96v-.416h.544v-.546H553Z" transform="translate(-245.764 -48.226)" fill="#263238"/>
        <path id="Trazado_139569" data-name="Trazado 139569" d="M553,107.048h-.416V106.5h-.546v-.416H553Z" transform="translate(-245.763 -47.23)" fill="#263238"/>
        <path id="Trazado_139570" data-name="Trazado 139570" d="M532.274,29.734a12.961,12.961,0,0,1,1.888-.116l.114,0,0,.119c.016.681.026,1.5.028,2.4v.348l-.247-.246-.252-.251-.64-.644.195.006-1.006.882-.216.19.006-.284a18.38,18.38,0,0,1,.127-2.4,22.873,22.873,0,0,1,.126,2.4l-.211-.094.985-.9.1-.09.1.1.644.64.251.252-.246.1c0-.9.012-1.719.028-2.4l.116.117a16.6,16.6,0,0,1-1.888-.117" transform="translate(-236.907 -13.184)" fill="#263238"/>
        <path id="Trazado_139571" data-name="Trazado 139571" d="M542.434,30.243a5.541,5.541,0,0,1-.447.583c-.307.386-.77.966-1.339,1.609l-.239.27,0-.362c0-.377,0-.776-.007-1.19v-.117l.044.1-.836-.815-.247-.24.343,0c.834.013,1.551.06,2.025.093a5.352,5.352,0,0,1,.7.06c-.028.013-.342.024-.833.051s-1.141.067-1.9.069l.1-.235.847.8.044.042v.179c0,.414,0,.813-.007,1.19l-.24-.092c.528-.576,1.009-1.045,1.372-1.4s.59-.59.619-.6" transform="translate(-240.122 -13.394)" fill="#263238"/>
        <path id="Trazado_139572" data-name="Trazado 139572" d="M543.382,30.353c.031.074-.367.311-.888.53s-.97.337-1,.264.367-.311.888-.53.969-.337,1-.264" transform="translate(-241.07 -13.503)" fill="#263238"/>
        <path id="Trazado_139573" data-name="Trazado 139573" d="M549.828,29.807c0-.015.12-.047.34-.012a1.332,1.332,0,0,1,.8.479,1.432,1.432,0,0,1,.237,1.372,1.464,1.464,0,0,1-2.763,0,1.432,1.432,0,0,1,.237-1.373,1.331,1.331,0,0,1,.8-.479c.22-.034.341,0,.34.012s-.119.033-.313.1a1.339,1.339,0,0,0-.669.494,1.242,1.242,0,0,0-.149,1.157,1.208,1.208,0,0,0,2.262,0,1.241,1.241,0,0,0-.149-1.157,1.339,1.339,0,0,0-.669-.494c-.194-.064-.313-.073-.313-.1" transform="translate(-244.13 -13.258)" fill="#263238"/>
        <path id="Trazado_139574" data-name="Trazado 139574" d="M551.248,32.151c-.056.056-.356-.153-.672-.468l-.042-.042v-.068c0-.449.064-.813.144-.813s.144.364.144.813v.008l-.042-.1c.315.316.524.616.468.672" transform="translate(-245.095 -13.694)" fill="#263238"/>
        <path id="Trazado_139575" data-name="Trazado 139575" d="M459.439,32.992c0,.08-9.214.144-20.578.144s-20.58-.064-20.58-.144,9.212-.144,20.58-.144,20.578.064,20.578.144" transform="translate(-186.216 -14.624)" fill="#263238"/>
        <path id="Trazado_139576" data-name="Trazado 139576" d="M412.172,31.806a1.623,1.623,0,1,1-1.623-1.623,1.623,1.623,0,0,1,1.623,1.623" transform="translate(-182.052 -13.437)" fill="#263238"/>
        <path id="Trazado_139577" data-name="Trazado 139577" d="M485.439,75.545c0-.018.25.006.724-.08a4.308,4.308,0,0,0,1.927-.86,4.357,4.357,0,0,0,1.641-2.938c.054-1.366.007-2.964.016-4.751-.011-7.165-.027-17.522-.046-30.321q0-4.8-.009-10.046c-.011-.868.02-1.768-.024-2.635a4.26,4.26,0,0,0-3.294-3.713,5.758,5.758,0,0,0-1.359-.106h-1.4l-24.031.013-55.063.011a4.221,4.221,0,0,0-3.133,1.393,4.362,4.362,0,0,0-1.094,3.248q0,3.618,0,7.186,0,7.135,0,14.049t0,13.56q0,3.323,0,6.574,0,1.625,0,3.232,0,.8,0,1.6a4.693,4.693,0,0,0,.21,1.527,4.236,4.236,0,0,0,3.286,2.853,8.545,8.545,0,0,0,1.525.069l6.1,0,11.665.007L444,75.443l30.318.046,8.243.027,2.144.014c.483,0,.73.015.73.015s-.247.01-.73.015l-2.144.014-8.243.027L444,75.647l-20.939.018-11.665.007-6.1,0a8.8,8.8,0,0,1-1.57-.072,4.5,4.5,0,0,1-3.494-3.029,4.97,4.97,0,0,1-.224-1.61q0-.8,0-1.6,0-1.606,0-3.232,0-3.251,0-6.574,0-6.646,0-13.56t0-14.049q0-3.568,0-7.186a5.165,5.165,0,0,1,.229-1.833,4.527,4.527,0,0,1,4.286-3.1l55.063.012,24.031.013h1.4a6.033,6.033,0,0,1,1.411.113,4.493,4.493,0,0,1,3.469,3.921c.044.912.011,1.779.021,2.657q0,5.24-.009,10.046c-.019,12.8-.035,23.156-.046,30.321-.017,1.791.021,3.376-.043,4.761a4.41,4.41,0,0,1-1.691,2.974,4.279,4.279,0,0,1-1.958.843,3.308,3.308,0,0,1-.545.049c-.123,0-.184,0-.184,0" transform="translate(-178.077 -8.829)" fill="#263238"/>
        <path id="Trazado_139578" data-name="Trazado 139578" d="M484.956,50.385A5.959,5.959,0,1,1,479,44.426a5.959,5.959,0,0,1,5.959,5.959" transform="translate(-210.594 -19.778)" fill="#455a64"/>
        <path id="Trazado_139579" data-name="Trazado 139579" d="M283.437,32.683a2.923,2.923,0,0,0,1.412-.505,2.674,2.674,0,0,0,1-1.479,4.32,4.32,0,0,0,.088-1.162q0-.638,0-1.355c.018-3.856.043-9.39.075-16.216q.017-2.568.034-5.373.01-1.4.02-2.858a8.131,8.131,0,0,0-.048-1.423,2.426,2.426,0,0,0-.637-1.2,2.29,2.29,0,0,0-1.211-.645,11.886,11.886,0,0,0-1.505-.032L279.5.455,272.884.5,243.435.659a2.4,2.4,0,0,0-2.324,2.216q-.023,1.925-.047,3.824-.038,3.816-.075,7.514c-.052,4.926-.1,9.677-.15,14.2q-.009.849-.019,1.687a2.526,2.526,0,0,0,.365,1.467,2.3,2.3,0,0,0,1.132.937,3.992,3.992,0,0,0,1.52.146l6.239-.018,11.2-.023,16.216,0,4.409.026,1.147.019a2.3,2.3,0,0,1,.391.024,2.251,2.251,0,0,1-.391.028l-1.146.031-4.408.068-16.215.158-11.2.085-6.239.043a4.372,4.372,0,0,1-1.68-.17,2.747,2.747,0,0,1-1.358-1.115,2.978,2.978,0,0,1-.439-1.712q.007-.837.014-1.687c.038-4.527.079-9.279.12-14.2q.033-3.695.068-7.514.023-1.917.047-3.862A2.9,2.9,0,0,1,243.433.157L272.882.035,279.5.014,282.664,0a11.64,11.64,0,0,1,1.585.045,2.709,2.709,0,0,1,1.431.77,2.845,2.845,0,0,1,.741,1.41,8.328,8.328,0,0,1,.049,1.509q-.017,1.456-.035,2.858-.035,2.8-.067,5.373c-.1,6.826-.179,12.359-.234,16.215q-.012.717-.024,1.355a4.439,4.439,0,0,1-.116,1.2,2.759,2.759,0,0,1-1.086,1.522,2.514,2.514,0,0,1-1.077.413,1.462,1.462,0,0,1-.393.01" transform="translate(-107.007 0)" fill="#d44f4a"/>
        <path id="Trazado_139580" data-name="Trazado 139580" d="M280.471,22.2l5.474,3.287-5.56,3.3-5.56,3.3.086-6.586L275,18.91Z" transform="translate(-122.351 -8.418)" fill="#d44f4a"/>
      </g>
    </g>
  </g>
</svg>
