<svg id="Grupo_66807" data-name="Grupo 66807" xmlns="http://www.w3.org/2000/svg" xmlns:xlink="http://www.w3.org/1999/xlink" width="250.308" height="156.882" viewBox="0 0 250.308 156.882">
  <defs>
    <clipPath id="clip-path">
      <rect id="Rectángulo_9011" data-name="Rectángulo 9011" width="250.308" height="156.882" fill="none"/>
    </clipPath>
    <clipPath id="clip-path-3">
      <rect id="Rectángulo_8962" data-name="Rectángulo 8962" width="9.617" height="13.608" transform="translate(39.286 121.524)" fill="none"/>
    </clipPath>
    <clipPath id="clip-path-4">
      <rect id="Rectángulo_8961" data-name="Rectángulo 8961" width="9.573" height="13.608" transform="translate(39.329 121.524)" fill="none"/>
    </clipPath>
    <clipPath id="clip-path-6">
      <rect id="Rectángulo_8969" data-name="Rectángulo 8969" width="2.611" height="5.753" transform="translate(50.96 49.994)" fill="none"/>
    </clipPath>
    <clipPath id="clip-path-8">
      <rect id="Rectángulo_8971" data-name="Rectángulo 8971" width="34.535" height="0.857" transform="translate(178.181 118.991)" fill="none"/>
    </clipPath>
    <clipPath id="clip-path-10">
      <rect id="Rectángulo_8974" data-name="Rectángulo 8974" width="10.108" height="10.107" transform="translate(201.563 116.968)" fill="none"/>
    </clipPath>
    <clipPath id="clip-path-11">
      <rect id="Rectángulo_8973" data-name="Rectángulo 8973" width="10.108" height="10.108" transform="translate(201.563 116.968)" fill="none"/>
    </clipPath>
    <clipPath id="clip-path-13">
      <rect id="Rectángulo_8977" data-name="Rectángulo 8977" width="12.175" height="12.174" transform="translate(55.819 112.978)" fill="none"/>
    </clipPath>
    <clipPath id="clip-path-14">
      <rect id="Rectángulo_8976" data-name="Rectángulo 8976" width="12.174" height="12.174" transform="translate(55.817 112.977)" fill="none"/>
    </clipPath>
  </defs>
  <g id="Grupo_66806" data-name="Grupo 66806" clip-path="url(#clip-path)">
    <g id="Grupo_66776" data-name="Grupo 66776">
      <g id="Grupo_66775" data-name="Grupo 66775" clip-path="url(#clip-path)">
        <path id="Trazado_139053" data-name="Trazado 139053" d="M109.359,24.9C45.587,17.2-1.71,88.571,56.536,152.24h142.6c47.6-23.1,22.7-63.87-5.222-69.494s-24.7-50.614-84.557-57.845" fill="#dcf4f0"/>
        <path id="Trazado_139054" data-name="Trazado 139054" d="M25.616,27.122a.176.176,0,0,1-.146-.276c.2-.293.4-.585.614-.866a.176.176,0,0,1,.29.2l-.008.01c-.207.279-.411.566-.6.855a.175.175,0,0,1-.146.079" fill="#568584"/>
        <path id="Trazado_139055" data-name="Trazado 139055" d="M27.423,24.785a.176.176,0,0,1-.132-.292c.42-.476.866-.941,1.326-1.381a.176.176,0,0,1,.243.254c-.452.433-.892.891-1.305,1.36a.177.177,0,0,1-.132.059m2.741-2.626a.176.176,0,0,1-.111-.313c.5-.4,1.012-.784,1.538-1.142a.176.176,0,1,1,.215.279L31.788,21c-.517.351-1.026.729-1.514,1.123a.179.179,0,0,1-.111.039m3.14-2.132a.176.176,0,0,1-.175-.177.174.174,0,0,1,.089-.152c.555-.312,1.129-.6,1.706-.866a.176.176,0,0,1,.155.316h-.009c-.569.259-1.134.547-1.68.854a.172.172,0,0,1-.086.022m3.453-1.575A.176.176,0,0,1,36.7,18.1c.6-.214,1.214-.4,1.828-.567a.176.176,0,0,1,.118.332l-.018,0h-.011c-.6.159-1.21.347-1.8.558a.17.17,0,0,1-.059.01" fill="#568584"/>
        <path id="Trazado_139056" data-name="Trazado 139056" d="M40.431,17.483a.176.176,0,0,1-.03-.349c.347-.061.7-.115,1.052-.157a.176.176,0,1,1,.057.347l-.013,0c-.345.044-.694.1-1.036.157Z" fill="#568584"/>
        <path id="Trazado_139057" data-name="Trazado 139057" d="M50.519,17.991a.2.2,0,0,1-.048-.007c-.335-.095-.676-.183-1.014-.261a.176.176,0,0,1,.07-.345h.009c.343.079.689.169,1.03.266a.176.176,0,0,1-.048.345" fill="#568584"/>
        <path id="Trazado_139058" data-name="Trazado 139058" d="M44.668,62.295a.176.176,0,0,1,0-.352c.709-.01,1.423-.053,2.126-.129a.176.176,0,0,1,.067.346l-.017,0h-.01c-.712.079-1.438.121-2.157.131Zm-2.143-.071h-.014c-.717-.057-1.439-.15-2.144-.276a.176.176,0,0,1,.053-.348h.009c.694.123,1.4.214,2.111.271a.176.176,0,0,1-.014.351m6.4-.39a.176.176,0,0,1-.035-.348c.693-.142,1.386-.32,2.062-.528a.176.176,0,0,1,.1.336c-.686.211-1.391.394-2.094.537a.216.216,0,0,1-.036,0M38.3,61.472a.183.183,0,0,1-.047-.006c-.692-.192-1.383-.42-2.053-.677a.176.176,0,0,1,.1-.338l.015.005.013,0c.66.254,1.338.477,2.021.667a.176.176,0,0,1-.047.345m14.719-.9a.176.176,0,0,1-.068-.339c.652-.271,1.3-.577,1.924-.91a.176.176,0,0,1,.165.311c-.634.338-1.292.649-1.954.925a.179.179,0,0,1-.068.013m-18.72-.63a.184.184,0,0,1-.079-.019c-.642-.32-1.277-.675-1.887-1.055a.176.176,0,0,1,.176-.3l.01.006c.6.374,1.226.723,1.858,1.039a.176.176,0,0,1,.077.237.174.174,0,0,1-.156.1m22.5-1.384a.176.176,0,0,1-.178-.174.179.179,0,0,1,.078-.148c.59-.39,1.167-.814,1.717-1.26a.177.177,0,0,1,.221.276c-.559.451-1.145.881-1.744,1.278a.17.17,0,0,1-.1.029m-26.137-.882a.179.179,0,0,1-.107-.036c-.57-.435-1.127-.9-1.653-1.392a.176.176,0,0,1,.233-.264l.006.006c.52.481,1.068.942,1.629,1.371a.176.176,0,0,1-.107.315m29.473-1.811a.176.176,0,0,1-.174-.178.173.173,0,0,1,.051-.122c.506-.494.994-1.019,1.45-1.559a.176.176,0,0,1,.268.227c-.464.548-.959,1.081-1.473,1.583a.177.177,0,0,1-.123.05m-32.621-1.1a.177.177,0,0,1-.131-.059c-.479-.536-.938-1.1-1.364-1.678a.176.176,0,0,1,.276-.219l.007.01c.419.569.871,1.125,1.342,1.653a.176.176,0,0,1-.131.293m35.388-2.173a.176.176,0,0,1-.144-.276c.4-.581.784-1.188,1.131-1.8a.176.176,0,0,1,.307.172c-.352.626-.738,1.242-1.149,1.832a.176.176,0,0,1-.144.076M24.98,51.315a.176.176,0,0,1-.151-.085c-.369-.616-.713-1.257-1.023-1.9a.176.176,0,1,1,.318-.151,21.281,21.281,0,0,0,1.007,1.876.176.176,0,0,1-.151.266m40.029-2.458a.176.176,0,0,1-.176-.176.174.174,0,0,1,.015-.071c.287-.647.545-1.314.768-1.985a.176.176,0,1,1,.342.083l0,.017v.009c-.227.681-.489,1.36-.78,2.017a.175.175,0,0,1-.161.1M23.13,47.447a.176.176,0,0,1-.165-.116c-.246-.675-.461-1.369-.642-2.065a.176.176,0,1,1,.341-.088c.177.685.39,1.368.63,2.032a.176.176,0,0,1-.105.225.181.181,0,0,1-.06.011M66.356,44.79a.176.176,0,0,1-.176-.176.254.254,0,0,1,0-.039c.157-.688.284-1.393.376-2.1a.176.176,0,1,1,.351.022v.024c-.093.713-.222,1.428-.382,2.128a.175.175,0,0,1-.171.137M22.053,43.3a.176.176,0,0,1-.173-.148c-.113-.709-.193-1.431-.236-2.148a.176.176,0,1,1,.351-.03v.008c.045.709.124,1.417.236,2.115a.177.177,0,0,1-.146.2h-.028M66.915,40.54h-.006a.176.176,0,0,1-.17-.182c.01-.27.015-.543.015-.813,0-.437-.013-.88-.039-1.315a.176.176,0,1,1,.348-.051l0,.019v.011c.026.442.039.892.039,1.336q0,.413-.015.827a.176.176,0,0,1-.176.17m-.249-4.279a.175.175,0,0,1-.174-.149c-.107-.7-.25-1.4-.423-2.086a.176.176,0,1,1,.332-.117l0,.017v.014c.176.7.321,1.409.43,2.119a.176.176,0,0,1-.147.2H66.66M65.605,32.1a.177.177,0,0,1-.166-.118c-.238-.665-.512-1.327-.812-1.968a.176.176,0,0,1,.307-.173l.008.017v.007c.305.649.583,1.322.827,2a.177.177,0,0,1-.1.226h0a.173.173,0,0,1-.06.011M63.795,28.23a.176.176,0,0,1-.152-.086c-.36-.608-.754-1.206-1.17-1.778a.176.176,0,0,1,.284-.207c.423.581.823,1.188,1.189,1.805a.176.176,0,0,1-.151.266m-2.524-3.464a.174.174,0,0,1-.134-.057c-.468-.529-.968-1.043-1.484-1.526a.176.176,0,0,1,.232-.265l.008.007c.525.491,1.032,1.012,1.508,1.55a.176.176,0,0,1-.132.292m-3.131-2.928a.174.174,0,0,1-.107-.037c-.56-.433-1.147-.843-1.745-1.22a.176.176,0,0,1,.166-.311l.017.011c.607.383,1.2.8,1.771,1.239a.176.176,0,0,1-.108.315M54.505,19.55a.18.18,0,0,1-.079-.019c-.63-.319-1.286-.611-1.945-.866a.176.176,0,0,1,.128-.328c.669.261,1.334.557,1.975.881a.176.176,0,0,1,.077.237.174.174,0,0,1-.156.1" fill="#568584"/>
        <path id="Trazado_139059" data-name="Trazado 139059" d="M21.789,38.987h0a.175.175,0,0,1-.17-.181c.011-.354.031-.708.058-1.063a.176.176,0,1,1,.351.028c-.027.346-.046.7-.057,1.046a.176.176,0,0,1-.176.17" fill="#568584"/>
        <path id="Trazado_139060" data-name="Trazado 139060" d="M25.616,27.122a.176.176,0,0,1-.146-.276c.2-.293.4-.585.614-.866a.176.176,0,0,1,.29.2l-.008.01c-.207.279-.411.566-.6.855a.175.175,0,0,1-.146.079" fill="#568584"/>
        <path id="Trazado_139061" data-name="Trazado 139061" d="M27.423,24.785a.176.176,0,0,1-.132-.292c.42-.476.866-.941,1.326-1.381a.176.176,0,0,1,.243.254c-.452.433-.892.891-1.305,1.36a.177.177,0,0,1-.132.059m2.741-2.626a.176.176,0,0,1-.111-.313c.5-.4,1.012-.784,1.538-1.142a.176.176,0,1,1,.215.279L31.788,21c-.517.351-1.026.729-1.514,1.123a.179.179,0,0,1-.111.039m3.14-2.132a.176.176,0,0,1-.175-.177.174.174,0,0,1,.089-.152c.555-.312,1.129-.6,1.706-.866a.176.176,0,0,1,.155.316h-.009c-.569.259-1.134.547-1.68.854a.172.172,0,0,1-.086.022m3.453-1.575A.176.176,0,0,1,36.7,18.1c.6-.214,1.214-.4,1.828-.567a.176.176,0,0,1,.118.332l-.018,0h-.011c-.6.159-1.21.347-1.8.558a.17.17,0,0,1-.059.01" fill="#568584"/>
        <path id="Trazado_139062" data-name="Trazado 139062" d="M40.431,17.483a.176.176,0,0,1-.03-.349c.347-.061.7-.115,1.052-.157a.176.176,0,1,1,.057.347l-.013,0c-.345.044-.694.1-1.036.157Z" fill="#568584"/>
        <path id="Trazado_139063" data-name="Trazado 139063" d="M47.7,21.087,44.9,19.059l-2.791,2.028,1.066-3.282-2.792-2.028h3.451L44.9,12.495l1.066,3.282h3.451L46.63,17.805ZM44.9,18.624l2.122,1.542-.81-2.5,2.122-1.542H45.716L44.9,13.634l-.811,2.495H41.471l2.122,1.542-.811,2.5Z" fill="#568584"/>
        <path id="Trazado_139064" data-name="Trazado 139064" d="M22.178,35.891a1.167,1.167,0,0,1-1.166-1.166v-.294a2.271,2.271,0,0,0-.551-1.456A2.227,2.227,0,1,1,23.87,33a2.115,2.115,0,0,0-.527,1.364v.358a1.166,1.166,0,0,1-1.166,1.166m0-6.314h-.1a2,2,0,0,0-1.886,1.876,1.977,1.977,0,0,0,.452,1.366,2.543,2.543,0,0,1,.606,1.61v.294a.923.923,0,0,0,1.845,0v-.358a2.355,2.355,0,0,1,.586-1.521,1.982,1.982,0,0,0-1.507-3.269" fill="#568584"/>
        <rect id="Rectángulo_8949" data-name="Rectángulo 8949" width="0.243" height="1.554" transform="translate(22.056 27.276)" fill="#568584"/>
        <rect id="Rectángulo_8950" data-name="Rectángulo 8950" width="1.553" height="0.243" transform="translate(24.033 29.569) rotate(-45)" fill="#568584"/>
        <rect id="Rectángulo_8951" data-name="Rectángulo 8951" width="1.554" height="0.243" transform="translate(24.909 31.489)" fill="#568584"/>
        <rect id="Rectángulo_8952" data-name="Rectángulo 8952" width="0.243" height="1.554" transform="translate(19.037 28.607) rotate(-45)" fill="#568584"/>
        <rect id="Rectángulo_8953" data-name="Rectángulo 8953" width="1.554" height="0.243" transform="translate(17.843 31.439)" fill="#568584"/>
        <rect id="Rectángulo_8954" data-name="Rectángulo 8954" width="1.779" height="0.243" transform="translate(21.275 33.92)" fill="#568584"/>
        <rect id="Rectángulo_8955" data-name="Rectángulo 8955" width="1.604" height="0.243" transform="translate(21.351 34.647)" fill="#568584"/>
        <rect id="Rectángulo_8956" data-name="Rectángulo 8956" width="0.383" height="1.292" transform="translate(33.901 29.659)" fill="#568584"/>
        <rect id="Rectángulo_8957" data-name="Rectángulo 8957" width="0.383" height="1.292" transform="translate(33.901 31.881)" fill="#568584"/>
        <rect id="Rectángulo_8958" data-name="Rectángulo 8958" width="1.292" height="0.383" transform="translate(34.558 31.224)" fill="#568584"/>
        <rect id="Rectángulo_8959" data-name="Rectángulo 8959" width="1.292" height="0.383" transform="translate(32.336 31.224)" fill="#568584"/>
        <path id="Trazado_139065" data-name="Trazado 139065" d="M17.3,90.277a11.22,11.22,0,0,0,6.223,2.979A11.219,11.219,0,0,0,20.84,86.9c-2.46-2.576-5.246-3.911-6.223-2.979s.225,3.779,2.685,6.355" fill="#3ca7bd"/>
        <path id="Trazado_139066" data-name="Trazado 139066" d="M39.141,128.295a.39.39,0,0,0,.271-.444A79.517,79.517,0,0,0,28.259,98.915a46.372,46.372,0,0,0-7.574-9.3.391.391,0,0,0-.512.59,46.7,46.7,0,0,1,7.448,9.16,78.764,78.764,0,0,1,11.022,28.621.391.391,0,0,0,.453.315l.043-.01" fill="#13849c"/>
        <path id="Trazado_139067" data-name="Trazado 139067" d="M22.007,101.444a11.226,11.226,0,0,0,6.869-.643,11.224,11.224,0,0,0-5.569-4.071c-3.434-.947-6.51-.659-6.869.643s2.135,3.125,5.569,4.071" fill="#3ca7bd"/>
        <path id="Trazado_139068" data-name="Trazado 139068" d="M32.869,99.248a11.228,11.228,0,0,0-.72,6.861,11.222,11.222,0,0,0,5.087-4.66c1.6-3.181,1.926-6.253.72-6.861s-3.483,1.479-5.087,4.659" fill="#3ca7bd"/>
        <path id="Trazado_139069" data-name="Trazado 139069" d="M5.991,116.9a11.223,11.223,0,0,0,6.758-1.385,11.225,11.225,0,0,0-5.979-3.442c-3.517-.569-6.543.052-6.758,1.385s2.461,2.874,5.979,3.442" fill="#3ca7bd"/>
        <path id="Trazado_139070" data-name="Trazado 139070" d="M46.361,134a.39.39,0,0,0-.052-.518,79.507,79.507,0,0,0-26.365-16.322,46.445,46.445,0,0,0-11.652-2.834.39.39,0,1,0-.049.779,46.49,46.49,0,0,1,11.469,2.8,78.738,78.738,0,0,1,26.072,16.151.39.39,0,0,0,.551-.025c.01-.011.019-.022.028-.034" fill="#13849c"/>
        <path id="Trazado_139071" data-name="Trazado 139071" d="M16.487,122.952a11.227,11.227,0,0,0,5.085-4.662,11.233,11.233,0,0,0-6.9.118c-3.309,1.318-5.586,3.407-5.085,4.661s3.588,1.2,6.9-.118" fill="#3ca7bd"/>
        <path id="Trazado_139072" data-name="Trazado 139072" d="M23.815,114.642a11.238,11.238,0,0,0,3.571,5.9,11.222,11.222,0,0,0,1.239-6.786c-.644-3.5-2.244-6.147-3.571-5.9s-1.883,3.283-1.239,6.786" fill="#3ca7bd"/>
        <path id="Trazado_139073" data-name="Trazado 139073" d="M30.878,130.806a11.222,11.222,0,0,0,5.181-4.554,11.217,11.217,0,0,0-6.9-.024c-3.336,1.251-5.656,3.29-5.181,4.554s3.563,1.275,6.9.024" fill="#3ca7bd"/>
        <path id="Trazado_139074" data-name="Trazado 139074" d="M53.759,118.1V103.85h-10.7V118.1a17.324,17.324,0,1,0,10.7,0" fill="#314a66"/>
      </g>
    </g>
    <g id="Grupo_66781" data-name="Grupo 66781">
      <g id="Grupo_66780" data-name="Grupo 66780" clip-path="url(#clip-path-3)">
        <g id="Grupo_66779" data-name="Grupo 66779" opacity="0.2">
          <g id="Grupo_66778" data-name="Grupo 66778">
            <g id="Grupo_66777" data-name="Grupo 66777" clip-path="url(#clip-path-4)">
              <path id="Trazado_139075" data-name="Trazado 139075" d="M42.525,121.524H48.9a19.422,19.422,0,0,0-9.341,13.608,19.274,19.274,0,0,1,2.962-13.608" fill="#fff"/>
            </g>
          </g>
        </g>
      </g>
    </g>
    <g id="Grupo_66783" data-name="Grupo 66783">
      <g id="Grupo_66782" data-name="Grupo 66782" clip-path="url(#clip-path)">
        <rect id="Rectángulo_8963" data-name="Rectángulo 8963" width="3.314" height="23.949" transform="translate(45.06 79.898)" fill="#a3a3a3"/>
        <rect id="Rectángulo_8964" data-name="Rectángulo 8964" width="4.921" height="16.068" transform="translate(44.257 71.764)" fill="#c7c7c7"/>
        <rect id="Rectángulo_8965" data-name="Rectángulo 8965" width="2.109" height="4.168" transform="translate(45.663 67.596)" fill="#a3a3a3"/>
        <path id="Trazado_139076" data-name="Trazado 139076" d="M40.39,91.729a.385.385,0,0,1-.385-.385V73.471a4.707,4.707,0,0,1,4.7-4.7.385.385,0,1,1,0,.77,3.937,3.937,0,0,0-3.933,3.933V91.35a.385.385,0,0,1-.385.385" fill="#a3a3a3"/>
        <path id="Trazado_139077" data-name="Trazado 139077" d="M43.1,93.154a2.46,2.46,0,1,1-2.46-2.46,2.46,2.46,0,0,1,2.46,2.46" fill="#a3a3a3"/>
        <rect id="Rectángulo_8966" data-name="Rectángulo 8966" width="3.414" height="39.459" transform="translate(50.558 64.383)" fill="#004059"/>
        <rect id="Rectángulo_8967" data-name="Rectángulo 8967" width="3.414" height="12.352" transform="translate(50.558 60.366)" fill="#155973"/>
        <path id="Trazado_139078" data-name="Trazado 139078" d="M52.292,48.114h-.129s-4.92,10.645-1.607,12.252H53.9c3.314-1.607-1.607-12.252-1.607-12.252" fill="#6ba1b5"/>
      </g>
    </g>
    <g id="Grupo_66785" data-name="Grupo 66785">
      <g id="Grupo_66784" data-name="Grupo 66784" clip-path="url(#clip-path-6)">
        <path id="Trazado_139079" data-name="Trazado 139079" d="M52.613,53.188a18.852,18.852,0,0,0-.375-3.194h-.017a18.6,18.6,0,0,0-.374,3.217,1.3,1.3,0,1,0,.767-.023" fill="#bfbfbf"/>
      </g>
    </g>
    <g id="Grupo_66787" data-name="Grupo 66787">
      <g id="Grupo_66786" data-name="Grupo 66786" clip-path="url(#clip-path)">
        <path id="Trazado_139080" data-name="Trazado 139080" d="M179.053,32.73c-17.5,1.238-3.013,39.768,20.487,44.589s22.093-47.6-20.487-44.589" fill="#bbebe4"/>
        <path id="Trazado_139081" data-name="Trazado 139081" d="M204.189,32.738c0,9.871-8.824,17.871-8.824,17.871s-8.825-8-8.825-17.871,3.951-17.871,8.825-17.871,8.824,8,8.824,17.871" fill="#13849c"/>
        <path id="Trazado_139082" data-name="Trazado 139082" d="M195.365,116.255a.856.856,0,0,1-.857-.855V20.56a.857.857,0,0,1,1.713,0V115.4a.856.856,0,0,1-.855.857h0" fill="#005769"/>
        <path id="Trazado_139083" data-name="Trazado 139083" d="M208.266,151.758s17.426-23.458,2.346-38.537h-29.6c-15.08,15.08,2.346,38.537,2.346,38.537Z" fill="#314a66"/>
      </g>
    </g>
    <g id="Grupo_66789" data-name="Grupo 66789">
      <g id="Grupo_66788" data-name="Grupo 66788" clip-path="url(#clip-path-8)">
        <path id="Trazado_139084" data-name="Trazado 139084" d="M212.288,119.848H178.609a.429.429,0,1,1,0-.857h33.679a.429.429,0,0,1,0,.857" fill="#e3e3e3"/>
      </g>
    </g>
    <g id="Grupo_66791" data-name="Grupo 66791">
      <g id="Grupo_66790" data-name="Grupo 66790" clip-path="url(#clip-path)">
        <path id="Trazado_139085" data-name="Trazado 139085" d="M217.3,61.124c-6.421,5.14-16.221,3.566-16.221,3.566s.61-9.907,7.031-15.046,13.683-6.736,16.221-3.566-.611,9.907-7.031,15.046" fill="#13849c"/>
        <path id="Trazado_139086" data-name="Trazado 139086" d="M195.23,69.167a.713.713,0,0,1,.111-1l22.78-18.234a.714.714,0,1,1,.931,1.083l-.039.031-22.78,18.234a.714.714,0,0,1-1-.111" fill="#08697d"/>
        <path id="Trazado_139087" data-name="Trazado 139087" d="M177.049,86.95c6.421,5.14,16.221,3.566,16.221,3.566s-.61-9.907-7.031-15.046-13.683-6.736-16.221-3.566.61,9.907,7.031,15.046" fill="#13849c"/>
        <path id="Trazado_139088" data-name="Trazado 139088" d="M195.735,92.96a.714.714,0,0,0-.111-1l-19.39-16.2a.714.714,0,1,0-.912,1.1l.02.016,19.39,16.2a.713.713,0,0,0,1-.111" fill="#08697d"/>
        <path id="Trazado_139089" data-name="Trazado 139089" d="M219.045,80.33a.714.714,0,0,0-1-.118L195.293,97.387a.714.714,0,0,0,.831,1.161l.037-.028.016-.012,22.752-17.175a.714.714,0,0,0,.118-1" fill="#08697d"/>
        <path id="Trazado_139090" data-name="Trazado 139090" d="M218.924,81.332c-3.118,15.97-14.237,19.05-22.752,17.175Z" fill="#13849c"/>
      </g>
    </g>
    <g id="Grupo_66796" data-name="Grupo 66796">
      <g id="Grupo_66795" data-name="Grupo 66795" clip-path="url(#clip-path-10)">
        <g id="Grupo_66794" data-name="Grupo 66794" opacity="0.2">
          <g id="Grupo_66793" data-name="Grupo 66793">
            <g id="Grupo_66792" data-name="Grupo 66792" clip-path="url(#clip-path-11)">
              <path id="Trazado_139091" data-name="Trazado 139091" d="M211.671,122.022a5.054,5.054,0,1,1-5.054-5.054,5.054,5.054,0,0,1,5.054,5.054" fill="#fff"/>
            </g>
          </g>
        </g>
      </g>
    </g>
    <g id="Grupo_66798" data-name="Grupo 66798">
      <g id="Grupo_66797" data-name="Grupo 66797" clip-path="url(#clip-path)">
        <path id="Trazado_139092" data-name="Trazado 139092" d="M235.3,156.882H26.752V152.89a.851.851,0,0,1,.85-.85H234.45a.851.851,0,0,1,.85.85Z" fill="#568584"/>
        <path id="Trazado_139093" data-name="Trazado 139093" d="M70.523,119.69H53.453a.677.677,0,1,1,0-1.353H70.524a.677.677,0,1,1,0,1.353" fill="#572807"/>
        <path id="Trazado_139094" data-name="Trazado 139094" d="M69.508,131.7H52.437a.677.677,0,0,1,0-1.353H69.508a.677.677,0,1,1,0,1.353" fill="#572807"/>
        <path id="Trazado_139095" data-name="Trazado 139095" d="M102,122.164c-3.123-1.447-7.322.979-9.379,5.42s-1.192,9.211,1.929,10.658,7.322-.98,9.378-5.42,1.193-9.211-1.929-10.658m-6.48,13.987c-1.687-.781-2.433-4.094-.809-7.6s4.635-5.078,6.321-4.3,2.433,4.094.809,7.6-4.635,5.078-6.321,4.3" fill="#8ddbd9"/>
        <path id="Trazado_139096" data-name="Trazado 139096" d="M93.373,109.33H54.653c-4.2,21.474,1.352,36.64,9.46,42.945H83.908c8.109-6.307,13.665-21.473,9.46-42.945" fill="#8ddbd9"/>
      </g>
    </g>
    <g id="Grupo_66803" data-name="Grupo 66803">
      <g id="Grupo_66802" data-name="Grupo 66802" clip-path="url(#clip-path-13)">
        <g id="Grupo_66801" data-name="Grupo 66801" opacity="0.2">
          <g id="Grupo_66800" data-name="Grupo 66800">
            <g id="Grupo_66799" data-name="Grupo 66799" clip-path="url(#clip-path-14)">
              <path id="Trazado_139097" data-name="Trazado 139097" d="M67.991,119.064a6.087,6.087,0,1,1-6.087-6.087,6.087,6.087,0,0,1,6.087,6.087" fill="#fff"/>
            </g>
          </g>
        </g>
      </g>
    </g>
    <g id="Grupo_66805" data-name="Grupo 66805">
      <g id="Grupo_66804" data-name="Grupo 66804" clip-path="url(#clip-path)">
        <path id="Trazado_139098" data-name="Trazado 139098" d="M226.851,119.359H226.5a.153.153,0,0,1-.149-.157.158.158,0,0,1,.157-.149,14.218,14.218,0,0,0,1.811-.073.153.153,0,0,1,.032.3,14.448,14.448,0,0,1-1.5.079m-2.171-.167h-.024a14.146,14.146,0,0,1-1.807-.4.153.153,0,0,1,.086-.293,13.906,13.906,0,0,0,1.768.4.153.153,0,0,1-.024.3m5.46-.221a.153.153,0,0,1-.036-.3,13.686,13.686,0,0,0,1.729-.54.153.153,0,0,1,.11.285,14.122,14.122,0,0,1-1.767.551h-.036m-8.968-.812a.15.15,0,0,1-.062-.013,14.233,14.233,0,0,1-1.64-.862.153.153,0,0,1,.16-.261,13.872,13.872,0,0,0,1.6.844.153.153,0,0,1-.062.292m12.378-.5a.153.153,0,0,1-.074-.287A13.764,13.764,0,0,0,235,116.4a.153.153,0,0,1,.193.238l-.013.009a14.132,14.132,0,0,1-1.564.992.153.153,0,0,1-.073.019m-15.5-1.406a.152.152,0,0,1-.1-.034,14.3,14.3,0,0,1-1.36-1.256.153.153,0,1,1,.222-.211,13.942,13.942,0,0,0,1.331,1.229.153.153,0,0,1-.1.272m18.449-.75a.153.153,0,0,1-.106-.264,13.953,13.953,0,0,0,1.228-1.333.153.153,0,0,1,.236.192,14.062,14.062,0,0,1-1.255,1.362.152.152,0,0,1-.106.042m-20.966-1.9a.153.153,0,0,1-.124-.063,14.361,14.361,0,0,1-.99-1.564.153.153,0,0,1,.258-.165l.01.019a13.988,13.988,0,0,0,.969,1.53.152.152,0,0,1-.123.243m23.264-.945a.153.153,0,0,1-.153-.153.16.16,0,0,1,.022-.08,13.692,13.692,0,0,0,.842-1.605.153.153,0,0,1,.288.105l-.009.019a13.918,13.918,0,0,1-.86,1.641.152.152,0,0,1-.131.073M213.768,110.4a.152.152,0,0,1-.142-.1,14.2,14.2,0,0,1-.551-1.769.154.154,0,0,1,.3-.071,13.821,13.821,0,0,0,.537,1.732.152.152,0,0,1-.085.2h0a.145.145,0,0,1-.055.01m-.853-3.555a.153.153,0,0,1-.152-.137,14.414,14.414,0,0,1-.077-1.483v-.367a.153.153,0,0,1,.3.008v.359a14.062,14.062,0,0,0,.075,1.451.153.153,0,0,1-.136.168h-.016m.094-3.655h-.024a.153.153,0,0,1-.127-.174,14.131,14.131,0,0,1,.407-1.807.153.153,0,0,1,.293.087,13.888,13.888,0,0,0-.4,1.767.154.154,0,0,1-.151.129m1.037-3.506a.154.154,0,0,1-.152-.154.159.159,0,0,1,.013-.061,14.237,14.237,0,0,1,.866-1.639.153.153,0,1,1,.261.16,13.807,13.807,0,0,0-.846,1.6.153.153,0,0,1-.14.091m25.1-.959a.154.154,0,0,1-.135-.079,13.872,13.872,0,0,0-.965-1.535.153.153,0,0,1,.247-.179,14.079,14.079,0,0,1,.987,1.567.153.153,0,0,1-.061.207.147.147,0,0,1-.073.019m-23.183-2.158a.153.153,0,0,1-.118-.249,14.207,14.207,0,0,1,1.26-1.359.153.153,0,1,1,.223.209l-.012.012a14.079,14.079,0,0,0-1.231,1.33.153.153,0,0,1-.118.056m21.037-.8a.151.151,0,0,1-.111-.048,13.816,13.816,0,0,0-1.328-1.232.153.153,0,0,1,.193-.236,14.2,14.2,0,0,1,1.358,1.26.153.153,0,0,1-.111.258m-18.383-1.712a.153.153,0,0,1-.09-.276,14.205,14.205,0,0,1,1.565-.988.153.153,0,0,1,.15.266,13.986,13.986,0,0,0-1.531.967.153.153,0,0,1-.09.029m15.547-.6a.148.148,0,0,1-.079-.023,13.813,13.813,0,0,0-1.6-.847.153.153,0,0,1,.105-.287l.013.005h.007a14.225,14.225,0,0,1,1.638.866.153.153,0,0,1-.079.283M221.843,92.3a.153.153,0,0,1-.055-.3,14.019,14.019,0,0,1,1.769-.547.154.154,0,1,1,.071.3,13.809,13.809,0,0,0-1.732.535.149.149,0,0,1-.055.01m9-.345a.161.161,0,0,1-.044-.006,13.7,13.7,0,0,0-1.768-.4.153.153,0,0,1,.048-.3,14.137,14.137,0,0,1,1.807.409.153.153,0,0,1-.043.3m-5.442-.5a.153.153,0,0,1-.035-.3h.019a14.466,14.466,0,0,1,1.85-.07.153.153,0,0,1-.008.305,14.221,14.221,0,0,0-1.811.068H225.4" fill="#568584"/>
        <path id="Trazado_139099" data-name="Trazado 139099" d="M209.9,41.57h-.351a.153.153,0,0,1-.149-.157.156.156,0,0,1,.157-.149,14.225,14.225,0,0,0,1.811-.073.153.153,0,1,1,.083.295.177.177,0,0,1-.051.005,14.45,14.45,0,0,1-1.5.079m-2.171-.167H207.7a14.123,14.123,0,0,1-1.807-.4.153.153,0,1,1,.067-.3l.019.006a13.7,13.7,0,0,0,1.768.4.153.153,0,0,1-.023.3m5.46-.221a.153.153,0,0,1-.035-.3,13.738,13.738,0,0,0,1.729-.54.153.153,0,0,1,.2.076.155.155,0,0,1-.076.2l-.017.006a14.174,14.174,0,0,1-1.767.551h-.036m-8.968-.812a.147.147,0,0,1-.062-.013,14.07,14.07,0,0,1-1.64-.862.153.153,0,1,1,.16-.261,13.79,13.79,0,0,0,1.6.844.153.153,0,0,1-.062.292m12.379-.5a.153.153,0,0,1-.074-.287,13.858,13.858,0,0,0,1.53-.971.153.153,0,0,1,.192.238l-.012.009a14.079,14.079,0,0,1-1.564.992.156.156,0,0,1-.073.019m-15.5-1.406a.152.152,0,0,1-.1-.034,14.3,14.3,0,0,1-1.36-1.256.153.153,0,0,1,.222-.211,13.82,13.82,0,0,0,1.331,1.229.153.153,0,0,1-.1.272m18.449-.75a.153.153,0,0,1-.106-.263,13.952,13.952,0,0,0,1.228-1.333.153.153,0,0,1,.236.192,14.283,14.283,0,0,1-1.244,1.359.156.156,0,0,1-.106.042m-20.968-1.9a.153.153,0,0,1-.124-.063,14.211,14.211,0,0,1-.99-1.564.153.153,0,0,1,.257-.165.118.118,0,0,1,.011.019,13.748,13.748,0,0,0,.969,1.53.153.153,0,0,1-.032.213h0a.154.154,0,0,1-.09.03m23.264-.945a.152.152,0,0,1-.153-.153.151.151,0,0,1,.022-.08,13.846,13.846,0,0,0,.842-1.6.153.153,0,0,1,.287.1l-.008.019a14.149,14.149,0,0,1-.86,1.641.153.153,0,0,1-.131.073M196.829,32.6a.152.152,0,0,1-.143-.1,14.04,14.04,0,0,1-.551-1.769.154.154,0,0,1,.3-.071,13.821,13.821,0,0,0,.537,1.732.154.154,0,0,1-.085.2h0a.144.144,0,0,1-.054.01m-.853-3.555a.153.153,0,0,1-.152-.137,14.412,14.412,0,0,1-.079-1.483v-.367a.152.152,0,0,1,.153-.149.153.153,0,0,1,.149.157v.359a14.057,14.057,0,0,0,.075,1.451.153.153,0,0,1-.136.168h-.016m.1-3.655h-.019a.153.153,0,0,1-.127-.175,14.131,14.131,0,0,1,.407-1.807.153.153,0,1,1,.3.073l0,.014a13.891,13.891,0,0,0-.4,1.767.154.154,0,0,1-.151.129m1.037-3.506a.154.154,0,0,1-.153-.154.168.168,0,0,1,.013-.062,14.237,14.237,0,0,1,.866-1.639.153.153,0,0,1,.261.16,13.807,13.807,0,0,0-.846,1.6.152.152,0,0,1-.139.091m25.1-.959a.154.154,0,0,1-.135-.079,13.872,13.872,0,0,0-.965-1.535.153.153,0,0,1,.247-.179,14.223,14.223,0,0,1,.987,1.567.153.153,0,0,1-.061.207.147.147,0,0,1-.073.019m-23.183-2.158a.154.154,0,0,1-.152-.154.149.149,0,0,1,.034-.095,14.208,14.208,0,0,1,1.26-1.359.153.153,0,1,1,.211.222,13.828,13.828,0,0,0-1.231,1.33.153.153,0,0,1-.118.056m21.037-.8a.151.151,0,0,1-.111-.048,14.08,14.08,0,0,0-1.329-1.232.153.153,0,0,1,.179-.248l.014.011a14.318,14.318,0,0,1,1.358,1.26.153.153,0,0,1-.111.258M201.68,16.257a.153.153,0,0,1-.09-.276,14.207,14.207,0,0,1,1.565-.988.153.153,0,0,1,.146.268,14,14,0,0,0-1.532.967.153.153,0,0,1-.09.029m15.547-.6a.148.148,0,0,1-.079-.023,13.813,13.813,0,0,0-1.6-.847.153.153,0,0,1,.125-.279,14.226,14.226,0,0,1,1.638.866.153.153,0,0,1-.079.283M204.9,14.508a.153.153,0,0,1-.055-.3,14.19,14.19,0,0,1,1.769-.548.154.154,0,1,1,.071.3,13.81,13.81,0,0,0-1.732.535.149.149,0,0,1-.055.01m9-.345a.161.161,0,0,1-.044-.006,13.7,13.7,0,0,0-1.768-.4.153.153,0,0,1,.012-.306.225.225,0,0,1,.036.006,14.136,14.136,0,0,1,1.807.409.153.153,0,0,1-.043.3m-5.442-.5a.153.153,0,0,1-.015-.3,14.459,14.459,0,0,1,1.85-.07.153.153,0,0,1,.015.306h-.023a14.222,14.222,0,0,0-1.811.068h-.02" fill="#568584"/>
        <path id="Trazado_139100" data-name="Trazado 139100" d="M250.257,107.023H235.338l-.023-.185a1.529,1.529,0,0,1,.6-1.453,2.543,2.543,0,0,1,2.181-.342,4.788,4.788,0,0,1,1.271-3.385,5.228,5.228,0,0,1,6.872,0,4.788,4.788,0,0,1,1.271,3.385,2.54,2.54,0,0,1,2.181.342,1.53,1.53,0,0,1,.6,1.453Zm-14.536-.421h14.15a1.1,1.1,0,0,0-.446-.883,2.191,2.191,0,0,0-2.057-.187l-.3.118.008-.319a4.5,4.5,0,0,0-1.147-3.377,4.81,4.81,0,0,0-6.273,0,4.5,4.5,0,0,0-1.147,3.377l.008.319-.3-.118a2.193,2.193,0,0,0-2.058.187,1.1,1.1,0,0,0-.446.883" fill="#568584"/>
        <path id="Trazado_139101" data-name="Trazado 139101" d="M223.782,31.186h-4.606a2.046,2.046,0,0,1-2.047-2.047V23.553a.443.443,0,0,1,.441-.441v.169a.274.274,0,0,0-.272.272v5.582a1.879,1.879,0,0,0,1.877,1.877h4.606a.274.274,0,0,0,.272-.272v-.357h.169v.357a.443.443,0,0,1-.441.441" fill="#568584"/>
        <path id="Trazado_139102" data-name="Trazado 139102" d="M223.867,30.473h-3.251a3.131,3.131,0,0,1-3.128-3.128V23.117h3.251a3.131,3.131,0,0,1,3.128,3.128Zm-6.21-7.187v4.058a2.962,2.962,0,0,0,2.959,2.959H223.7V26.245a2.963,2.963,0,0,0-2.959-2.959Z" fill="#568584"/>
        <path id="Trazado_139103" data-name="Trazado 139103" d="M228.418,31.186h-4.606a.443.443,0,0,1-.441-.441v-.38h.169v.38a.272.272,0,0,0,.272.272h4.606a1.879,1.879,0,0,0,1.877-1.877V23.558a.274.274,0,0,0-.272-.272v-.169a.44.44,0,0,1,.441.441V29.14a2.046,2.046,0,0,1-2.047,2.047" fill="#568584"/>
        <path id="Trazado_139104" data-name="Trazado 139104" d="M226.979,30.473h-3.252V26.245a3.131,3.131,0,0,1,3.128-3.128h3.251v4.228a3.131,3.131,0,0,1-3.128,3.128M223.9,30.3h3.082a2.962,2.962,0,0,0,2.959-2.959V23.286h-3.082a2.962,2.962,0,0,0-2.959,2.959Z" fill="#568584"/>
        <path id="Trazado_139105" data-name="Trazado 139105" d="M230.08,146.263l-1.118.883-4.212-5.334,1.118-.883Zm-1.09.646.853-.673-4-5.068-.853.673Z" fill="#568584"/>
        <path id="Trazado_139106" data-name="Trazado 139106" d="M226.023,141.021l-1.22.965-.18-1.484Zm-1.09.646.748-.59-.859-.318Z" fill="#568584"/>
        <path id="Trazado_139107" data-name="Trazado 139107" d="M230.081,146.269l-1.118.883-.883-1.118,1.118-.883Zm-1.09.646.853-.674-.674-.853-.853.674Z" fill="#568584"/>
        <path id="Trazado_139108" data-name="Trazado 139108" d="M155.866,21.768l-1.118.883-4.212-5.334,1.118-.883Zm-1.09.646.853-.674-4-5.068-.853.674Z" fill="#568584"/>
        <path id="Trazado_139109" data-name="Trazado 139109" d="M151.809,16.525l-1.22.965-.18-1.484Zm-1.09.646.748-.59-.859-.318Z" fill="#568584"/>
        <path id="Trazado_139110" data-name="Trazado 139110" d="M155.867,21.766l-1.118.883-.883-1.118,1.118-.883Zm-1.09.646.853-.674-.674-.853-.853.674Z" fill="#568584"/>
        <path id="Trazado_139111" data-name="Trazado 139111" d="M28.783,75.548H20.674V66.18l1.661-1.662h6.448Zm-7.822-.287H28.5V64.8H22.455L20.962,66.3Z" fill="#568584"/>
        <path id="Trazado_139112" data-name="Trazado 139112" d="M23.049,66.927h-1.8V66.64h1.516V65.124h.287Z" fill="#568584"/>
        <path id="Trazado_139113" data-name="Trazado 139113" d="M127.56,14.876c-.007-.037-.644-3.767-.217-11.792l.347.019a59.275,59.275,0,0,0,.212,11.709Z" fill="#568584"/>
        <path id="Trazado_139114" data-name="Trazado 139114" d="M127.482,12.211l-.115-.1c-.118-.1-2.889-2.591-2.889-5.72a5.768,5.768,0,0,1,.236-1.593l.047-.165,1.255.346c-.268-.273-.616-.625-.922-.924l-.086-.085.049-.11A10.3,10.3,0,0,1,127.368.672l.115-.1.115.1a9.82,9.82,0,0,1,2.651,4.115l.022.076-.044.067c-.669,1.023-1.2,1.85-1.546,2.394L130.208,6.2l.273-.2v.394c0,3.129-2.772,5.616-2.889,5.72ZM125,5.058a5.322,5.322,0,0,0-.175,1.329c0,2.619,2.133,4.844,2.657,5.353a8.6,8.6,0,0,0,2.643-5.053c-1.861,1.37-1.922,1.41-1.943,1.424l-.113.076-.1-.1c-.13-.129-.131-.13,1.926-3.286a9.61,9.61,0,0,0-2.411-3.768,10.223,10.223,0,0,0-2.059,2.854c.59.58,1.281,1.3,1.288,1.3l.44.457Z" fill="#568584"/>
        <path id="Trazado_139115" data-name="Trazado 139115" d="M17.465,146.466a45.45,45.45,0,0,1,5.7-6.965l.193.182A45.579,45.579,0,0,0,17.69,146.6Z" fill="#568584"/>
        <path id="Trazado_139116" data-name="Trazado 139116" d="M18.736,144.876l-.017-.116a6.684,6.684,0,0,1,1.147-4.754,4.437,4.437,0,0,1,.924-.811l.109-.072.559.822c-.021-.291-.049-.669-.079-.994l-.009-.092.083-.039a7.855,7.855,0,0,1,2.92-.711h.118l.017.118a7.507,7.507,0,0,1-.492,3.7l-.025.056-.058.017c-.894.266-1.614.483-2.082.63l1.443.1.258.018-.192.231a6.684,6.684,0,0,1-4.508,1.9Zm2.093-5.386a4.073,4.073,0,0,0-.761.687,6.4,6.4,0,0,0-1.1,4.425,6.566,6.566,0,0,0,4.038-1.63c-1.76-.124-1.815-.13-1.834-.132l-.107-.012-.011-.109c-.012-.139-.012-.14,2.744-.959a7.33,7.33,0,0,0,.46-3.381,7.808,7.808,0,0,0-2.607.64c.056.63.1,1.387.1,1.4l.031.483Z" fill="#568584"/>
        <path id="Trazado_139117" data-name="Trazado 139117" d="M232.69,75.559a1.737,1.737,0,0,1-1.735-1.735v-.437a3.384,3.384,0,0,0-.82-2.165,3.313,3.313,0,1,1,5.073.041,3.148,3.148,0,0,0-.785,2.03v.531a1.737,1.737,0,0,1-1.735,1.735m0-9.4h-.143a2.974,2.974,0,0,0-2.807,2.8,2.944,2.944,0,0,0,.672,2.034,3.787,3.787,0,0,1,.9,2.4v.437a1.374,1.374,0,0,0,2.747,0v-.533a3.507,3.507,0,0,1,.872-2.265,2.952,2.952,0,0,0-2.244-4.867" fill="#568584"/>
        <rect id="Rectángulo_8978" data-name="Rectángulo 8978" width="0.362" height="2.313" transform="translate(232.509 62.733)" fill="#568584"/>
        <rect id="Rectángulo_8979" data-name="Rectángulo 8979" width="2.313" height="0.361" transform="translate(235.452 66.146) rotate(-45)" fill="#568584"/>
        <rect id="Rectángulo_8980" data-name="Rectángulo 8980" width="2.313" height="0.362" transform="translate(236.756 69.005)" fill="#568584"/>
        <rect id="Rectángulo_8981" data-name="Rectángulo 8981" width="0.362" height="2.314" transform="translate(228.014 64.713) rotate(-45)" fill="#568584"/>
        <rect id="Rectángulo_8982" data-name="Rectángulo 8982" width="2.313" height="0.362" transform="translate(226.236 68.93)" fill="#568584"/>
        <rect id="Rectángulo_8983" data-name="Rectángulo 8983" width="2.648" height="0.362" transform="translate(231.347 72.624)" fill="#568584"/>
        <rect id="Rectángulo_8984" data-name="Rectángulo 8984" width="2.387" height="0.362" transform="translate(231.459 73.705)" fill="#568584"/>
        <rect id="Rectángulo_8985" data-name="Rectángulo 8985" width="0.383" height="1.292" transform="translate(217.444 70.666)" fill="#568584"/>
        <rect id="Rectángulo_8986" data-name="Rectángulo 8986" width="0.383" height="1.292" transform="translate(217.444 72.888)" fill="#568584"/>
        <rect id="Rectángulo_8987" data-name="Rectángulo 8987" width="1.292" height="0.383" transform="translate(218.101 72.231)" fill="#568584"/>
        <rect id="Rectángulo_8988" data-name="Rectángulo 8988" width="1.291" height="0.383" transform="translate(215.879 72.231)" fill="#568584"/>
        <rect id="Rectángulo_8989" data-name="Rectángulo 8989" width="0.383" height="1.292" transform="translate(185.982 58.491)" fill="#568584"/>
        <rect id="Rectángulo_8990" data-name="Rectángulo 8990" width="0.383" height="1.291" transform="translate(185.982 60.713)" fill="#568584"/>
        <rect id="Rectángulo_8991" data-name="Rectángulo 8991" width="1.292" height="0.383" transform="translate(186.638 60.056)" fill="#568584"/>
        <rect id="Rectángulo_8992" data-name="Rectángulo 8992" width="1.292" height="0.383" transform="translate(184.416 60.056)" fill="#568584"/>
        <rect id="Rectángulo_8993" data-name="Rectángulo 8993" width="0.383" height="1.292" transform="translate(10.403 72.107)" fill="#568584"/>
        <rect id="Rectángulo_8994" data-name="Rectángulo 8994" width="0.383" height="1.292" transform="translate(10.403 74.33)" fill="#568584"/>
        <rect id="Rectángulo_8995" data-name="Rectángulo 8995" width="1.292" height="0.383" transform="translate(11.06 73.673)" fill="#568584"/>
        <rect id="Rectángulo_8996" data-name="Rectángulo 8996" width="1.292" height="0.383" transform="translate(8.838 73.673)" fill="#568584"/>
        <rect id="Rectángulo_8997" data-name="Rectángulo 8997" width="0.383" height="1.292" transform="translate(28.231 142.645)" fill="#568584"/>
        <rect id="Rectángulo_8998" data-name="Rectángulo 8998" width="0.383" height="1.292" transform="translate(28.231 144.868)" fill="#568584"/>
        <rect id="Rectángulo_8999" data-name="Rectángulo 8999" width="1.292" height="0.383" transform="translate(28.889 144.211)" fill="#568584"/>
        <rect id="Rectángulo_9000" data-name="Rectángulo 9000" width="1.292" height="0.383" transform="translate(26.666 144.211)" fill="#568584"/>
        <rect id="Rectángulo_9001" data-name="Rectángulo 9001" width="0.383" height="1.292" transform="translate(132.126 13.858)" fill="#568584"/>
        <rect id="Rectángulo_9002" data-name="Rectángulo 9002" width="0.383" height="1.292" transform="translate(132.126 16.081)" fill="#568584"/>
        <rect id="Rectángulo_9003" data-name="Rectángulo 9003" width="1.292" height="0.383" transform="translate(132.783 15.424)" fill="#568584"/>
        <rect id="Rectángulo_9004" data-name="Rectángulo 9004" width="1.292" height="0.383" transform="translate(130.561 15.424)" fill="#568584"/>
        <rect id="Rectángulo_9005" data-name="Rectángulo 9005" width="0.383" height="1.292" transform="translate(107.111)" fill="#568584"/>
        <rect id="Rectángulo_9006" data-name="Rectángulo 9006" width="0.383" height="1.292" transform="translate(107.111 2.222)" fill="#568584"/>
        <rect id="Rectángulo_9007" data-name="Rectángulo 9007" width="1.292" height="0.383" transform="translate(107.768 1.565)" fill="#568584"/>
        <rect id="Rectángulo_9008" data-name="Rectángulo 9008" width="1.292" height="0.383" transform="translate(105.546 1.565)" fill="#568584"/>
        <path id="Trazado_139118" data-name="Trazado 139118" d="M151.611,140.881H103.338a5.533,5.533,0,0,0-5.528,5.528v4.422a1.106,1.106,0,0,0,1.1,1.106h57.119a1.107,1.107,0,0,0,1.106-1.1h0v-4.422a5.536,5.536,0,0,0-5.528-5.528" fill="#314a66"/>
        <path id="Trazado_139119" data-name="Trazado 139119" d="M111.445,119.5H143.5a1.106,1.106,0,0,1,1.106,1.106v21.381a1.106,1.106,0,0,1-1.106,1.106H111.445a1.106,1.106,0,0,1-1.106-1.106V120.605a1.106,1.106,0,0,1,1.106-1.106" fill="#314a66"/>
        <path id="Trazado_139120" data-name="Trazado 139120" d="M144.611,140.868V120.587H110.339s34.272,20.878,34.272,20.281" fill="#23394c"/>
        <path id="Rectángulo_9009" data-name="Rectángulo 9009" d="M6.768,0H125.9a6.769,6.769,0,0,1,6.769,6.769V74.2a6.769,6.769,0,0,1-6.769,6.769H6.768A6.768,6.768,0,0,1,0,74.2V6.768A6.768,6.768,0,0,1,6.768,0Z" transform="translate(61.142 40.741)" fill="#6bbcb1"/>
        <path id="Trazado_139121" data-name="Trazado 139121" d="M193.809,114.939a6.767,6.767,0,0,1-6.767,6.766H67.908a6.767,6.767,0,0,1-6.767-6.766Z" fill="#b8f4e9"/>
        <path id="Trazado_139122" data-name="Trazado 139122" d="M193.809,47.507a6.767,6.767,0,0,0-6.767-6.766H67.908a6.767,6.767,0,0,0-6.767,6.766Z" fill="#b8f4e9"/>
        <path id="Trazado_139123" data-name="Trazado 139123" d="M193.81,47.51h-2.565l-2.366-6.5a6.745,6.745,0,0,1,4.931,6.5" fill="#b8f4e9"/>
        <path id="Trazado_139124" data-name="Trazado 139124" d="M157.148,146.4v4.422a1.11,1.11,0,0,1-1.106,1.106H98.907a1.108,1.108,0,0,1-1.1-1.106V146.4Z" fill="#23394c"/>
        <path id="Trazado_139125" data-name="Trazado 139125" d="M67.907,40.751V121.7a6.766,6.766,0,0,1-6.766-6.766V47.517a6.766,6.766,0,0,1,6.766-6.766" fill="#569b8f"/>
        <path id="Trazado_139126" data-name="Trazado 139126" d="M67.907,114.934V121.7a6.766,6.766,0,0,1-6.766-6.766Z" fill="#8bccbf"/>
        <path id="Trazado_139127" data-name="Trazado 139127" d="M67.907,47.507V40.741a6.766,6.766,0,0,0-6.766,6.766Z" fill="#8bccbf"/>
        <path id="Trazado_139128" data-name="Trazado 139128" d="M187.042,40.751v6.758h-35.2l6.7,18.441a7.489,7.489,0,0,0,7.009,4.886,7.3,7.3,0,0,0,2.543-.442l18.948-6.906V121.7a6.766,6.766,0,0,0,6.766-6.766V47.517A6.766,6.766,0,0,0,187.042,40.751Z" fill="#569b8f"/>
        <path id="Trazado_139129" data-name="Trazado 139129" d="M183.491,47.507l-2.169-6.766h5.72a6.766,6.766,0,0,1,6.766,6.766Z" fill="#8bccbf"/>
        <path id="Trazado_139130" data-name="Trazado 139130" d="M112.065,54.788a5.756,5.756,0,0,0-3.271-3L84.91,43.076a5.842,5.842,0,0,0-7.45,3.472l-8.69,23.9a5.8,5.8,0,0,0,3.469,7.431l23.884,8.714a5.831,5.831,0,0,0,7.451-3.474l8.69-23.9a5.76,5.76,0,0,0-.2-4.433" fill="#569b8f"/>
        <path id="Trazado_139131" data-name="Trazado 139131" d="M110.054,49.491a5.756,5.756,0,0,0-3.271-3L82.9,37.779a5.842,5.842,0,0,0-7.45,3.472L70.5,54.848a1.1,1.1,0,0,0,.26,1.162,1.118,1.118,0,0,0,1.164.253L84.168,51.7l3.692,7.382a1.1,1.1,0,0,0,.641.555,1.138,1.138,0,0,0,.846-.062l11.845-5.986L105.2,62.3a1.1,1.1,0,0,0,1,.643h.046a1.108,1.108,0,0,0,.994-.727l3.008-8.292A5.76,5.76,0,0,0,110.054,49.491Z" fill="#13849c"/>
        <path id="Trazado_139132" data-name="Trazado 139132" d="M107.209,61.376l-4.488-9.751a1.1,1.1,0,0,0-.64-.581,1.073,1.073,0,0,0-.863.056l-11.877,6L85.7,49.824a1.105,1.105,0,0,0-1.374-.542L71.15,54.19a1.107,1.107,0,0,0-.66.676l-2.316,6.4a1.106,1.106,0,0,0,.661,1.416l32.725,11.9a1.1,1.1,0,0,0,1.417-.661l3.752-10.33.508-1.328a1.09,1.09,0,0,0,.074-.4v-.022a1.1,1.1,0,0,0-.1-.462" fill="#7dc9bb"/>
        <path id="Trazado_139133" data-name="Trazado 139133" d="M103.353,72.873l-34.8-12.65-1.793,4.929a5.8,5.8,0,0,0,3.469,7.43L94.112,81.3a5.829,5.829,0,0,0,7.45-3.474Z" fill="#008593"/>
        <path id="Trazado_139134" data-name="Trazado 139134" d="M187.635,50.339,180.061,29.53a7.458,7.458,0,0,0-9.543-4.45l-20.81,7.574a7.443,7.443,0,0,0-4.45,9.539v0l7.573,20.809a7.445,7.445,0,0,0,9.542,4.451h0l20.81-7.575a7.442,7.442,0,0,0,4.45-9.538Z" fill="#d44f4a"/>
        <path id="Trazado_139135" data-name="Trazado 139135" d="M175.1,43.114a3.179,3.179,0,0,0-2.465-2.064l-12.057-2.127A3.217,3.217,0,0,0,157,43.192L161.188,54.7a3.187,3.187,0,0,0,2.466,2.068,3.434,3.434,0,0,0,.572.05,3.175,3.175,0,0,0,2.45-1.151l7.872-9.38a3.19,3.19,0,0,0,.557-3.172" fill="#ffc200"/>
        <path id="Trazado_139136" data-name="Trazado 139136" d="M148.522,65.037a1.1,1.1,0,0,0-.92-.227l-28.634,5.858a1.107,1.107,0,0,0-.884,1.084V91.66a7.727,7.727,0,1,0,2.211,5.4V81.7l26.423-5.426v8.755a7.727,7.727,0,1,0,2.211,5.4V65.894a1.1,1.1,0,0,0-.407-.857" fill="#569b8f"/>
        <path id="Trazado_139137" data-name="Trazado 139137" d="M146.414,63.576a1.1,1.1,0,0,0-.92-.227L116.86,69.207a1.107,1.107,0,0,0-.884,1.084V90.2a7.727,7.727,0,1,0,2.211,5.4V80.237l26.423-5.426v8.755a7.727,7.727,0,1,0,2.211,5.4V64.433a1.1,1.1,0,0,0-.407-.857" fill="#ffc200"/>
        <path id="Trazado_139138" data-name="Trazado 139138" d="M187.042,114.939v6.766a6.766,6.766,0,0,0,6.766-6.766Z" fill="#8bccbf"/>
      </g>
    </g>
  </g>
</svg>
