<svg id="Grupo_66828" data-name="Grupo 66828" xmlns="http://www.w3.org/2000/svg" xmlns:xlink="http://www.w3.org/1999/xlink" width="247.545" height="156.749" viewBox="0 0 247.545 156.749">
  <defs>
    <clipPath id="clip-path">
      <rect id="Rectángulo_9052" data-name="Rectángulo 9052" width="247.545" height="156.749" fill="none"/>
    </clipPath>
    <clipPath id="clip-path-3">
      <rect id="Rectángulo_9048" data-name="Rectángulo 9048" width="45.811" height="74.402" fill="none"/>
    </clipPath>
  </defs>
  <g id="Grupo_66827" data-name="Grupo 66827" clip-path="url(#clip-path)">
    <g id="Grupo_66826" data-name="Grupo 66826">
      <g id="Grupo_66825" data-name="Grupo 66825" clip-path="url(#clip-path)">
        <path id="Trazado_139172" data-name="Trazado 139172" d="M21.952,156.178s-41.81-31.55-10.026-61.452c33.838-31.836,3.859-72.705,49.793-89.2C111.379-12.3,124.157,19.1,144.947,14.282c41.467-9.618,94.066-4.881,85.314,41.832-10.986,58.637,34.086,51.159,7.316,100.261Z" transform="translate(0 0)" fill="#ffd2d2"/>
        <g id="Grupo_66824" data-name="Grupo 66824" transform="translate(70.359 15.697)" opacity="0.5">
          <g id="Grupo_66823" data-name="Grupo 66823">
            <g id="Grupo_66822" data-name="Grupo 66822" clip-path="url(#clip-path-3)">
              <path id="Trazado_139173" data-name="Trazado 139173" d="M95.389,58.938s14.081-.983,12.876-11.9c0,0-1.706-7.16-5.532-10.6,0,0-3.578,13.746-6.094,12.922s5.092-15.029,5.092-15.029S92.659,23.151,87.845,21.425c0,0,1.463,15.762-.774,14.343s-4.52-17.746-4.52-17.746-10.979-7.9-16.272-1.685-3.856,11.254-2.284,12.54,13.079,6.533,12.081,7.878-9.842.079-13.519-3.29c0,0-.782,13.976,5.737,16.324s10.27-.6,14.273.922,6.333,3.9,3.913,4.024-8.627-3.653-13-2.472-7.665,1.624-2.434,5.544,15.98,8.082,20.16,4.607Z" transform="translate(-62.527 -13.95)" fill="#ffa397"/>
              <path id="Trazado_139174" data-name="Trazado 139174" d="M69.81,20.354S96.237,45.166,94.477,58.136a26.191,26.191,0,0,0-2.144,12.243l-1.051,2.228s.3-9.116-.987-11c0,0,11.6-6.511-20.485-41.257" transform="translate(-61.615 -13.148)" fill="#ffa397"/>
              <path id="Trazado_139175" data-name="Trazado 139175" d="M90.567,65.039A22.746,22.746,0,0,1,85,82.211l-1.081-.917s5.821-9.226,5.627-15.338,1.025-.916,1.025-.916" transform="translate(-59.848 -7.809)" fill="#ffa397"/>
            </g>
          </g>
        </g>
        <path id="Trazado_139176" data-name="Trazado 139176" d="M74.415,101.756S80.2,84.418,66.54,80.46c0,0-9.413-1.5-15.419,1.377,0,0,14.68,11.082,12.45,13.685S48.1,82,48.1,82,30.239,87.323,25.792,92.232c0,0,19.584,6.044,16.781,8.019S19.1,96.882,19.1,96.882,4.212,106.114,9.036,115.524,20.6,125.7,22.914,124.459,37.2,112.039,38.315,113.9s-4.773,11.817-10.622,14.551c0,0,16.338,7.848,22.371,1.209s4.359-12.589,8.163-16.623,7.794-5.653,6.75-2.692-8.637,8.517-9.386,14.33-1.849,9.975,5.431,5.653S78.6,115.2,76.506,108.478Z" transform="translate(1.011 10.03)" fill="#ffa397"/>
        <path id="Trazado_139177" data-name="Trazado 139177" d="M16.009,110.416S58.771,91.063,73.421,99.583c0,0,4.98,6.106,2.091,6.722,0,0-2.05-17.107-59.5,4.111" transform="translate(2.005 12.202)" fill="#ffa397"/>
        <path id="Trazado_139178" data-name="Trazado 139178" d="M149.684,49.181s6.078-25.757,26.579-28.589a5.053,5.053,0,0,1,5.317,3.9c1.329,4.392-6.6,4.423-11.5,6.191s-16.331,9.256-20.391,18.5" transform="translate(18.749 2.577)" fill="#ffc1bb"/>
        <path id="Trazado_139179" data-name="Trazado 139179" d="M149.282,44.968s-2.131-21.336,12.83-28.908a4.094,4.094,0,0,1,5.1,1.589c2.174,3.016-3.893,5.129-7.184,7.774s-10.073,11.4-10.748,19.545" transform="translate(18.686 1.969)" fill="#ffc1bb"/>
        <path id="Trazado_139180" data-name="Trazado 139180" d="M57.679,76.555S42.313,62.184,27.5,69.338a4.017,4.017,0,0,0-1.8,4.924c1.054,3.493,6.318.02,10.34-.969s14.886-1.067,21.642,3.261" transform="translate(3.189 8.435)" fill="#ffa397"/>
        <path id="Trazado_139181" data-name="Trazado 139181" d="M55.141,74.025S47.155,58.965,33.918,60.543a3.254,3.254,0,0,0-2.677,3.3c-.111,2.954,4.835,1.68,8.178,1.983s11.685,3.1,15.721,8.2" transform="translate(3.913 7.569)" fill="#ffa397"/>
        <path id="Trazado_139182" data-name="Trazado 139182" d="M166.614,61.489S155.865,55.47,160.88,47.3c0,0,4.014-5.016,8.312-6.306,0,0-2.292,12.182,0,12.469s1.576-13.759,1.576-13.759,11.322-5.446,15.765-5.016c0,0-7.022,11.9-4.729,11.609S191.98,33.972,191.98,33.972s11.608-2.149,13.472,4.729-1.147,10.319-2.866,10.75-12.755.286-12.469,1.719,7.74,3.726,11.9,2.436c0,0-4.585,11.322-10.6,10.748s-7.882-4.3-11.609-4.585-6.449.717-4.585,1.719,8.168.329,11.178,2.887,5.446,4.135-.143,5.282-15.622.43-17.628-3.87Z" transform="translate(19.985 4.216)" fill="#ffa397"/>
        <path id="Trazado_139183" data-name="Trazado 139183" d="M199.682,40.051s-30.1,9.746-33.536,20.637a22.873,22.873,0,0,1-2.866,10.463V73.3s3.153-7.309,4.872-8.312c0,0-6.736-9.459,31.53-24.937" transform="translate(20.452 5.017)" fill="#ffa397"/>
        <path id="Trazado_139184" data-name="Trazado 139184" d="M163.593,67.838a19.848,19.848,0,0,0-2,15.628l1.194-.321s-1.159-9.45,1.269-14.2-.468-1.1-.468-1.1" transform="translate(20.139 8.33)" fill="#ffa397"/>
        <path id="Trazado_139185" data-name="Trazado 139185" d="M72.586,140.024l12.291.271c.672-.544-.415-1.838-1.578-1.949a7.226,7.226,0,0,0-1.881.181c-.119-2.251-.862-12.371-4.511-12.046-4.1.365-.1,4.448,1.007,6.838a56.372,56.372,0,0,1,2.054,5.495c-.334.065-.68.128-1.032.185-.506-1.678-2.4-7.325-4.976-7.055-3.022.315-1.86,2.589.246,3.97,1.546,1.015,3.44,2.451,4.339,3.145a13.084,13.084,0,0,1-2.408.14,5.179,5.179,0,0,0-3.551.826" transform="translate(9.034 15.842)" fill="#d44f4a"/>
        <path id="Trazado_139186" data-name="Trazado 139186" d="M201.346,140.358H187.241c-.756-.641.523-2.1,1.859-2.2a8.212,8.212,0,0,1,2.153.255c.195-2.578,1.3-14.168,5.481-13.7,4.7.521,0,5.1-1.328,7.817a64.161,64.161,0,0,0-2.5,6.251c.381.083.776.164,1.179.237.622-1.911,2.939-8.342,5.885-7.967,3.459.439,2.068,3.017-.383,4.547-1.8,1.125-4.008,2.725-5.057,3.5a15.126,15.126,0,0,0,2.758.221,5.946,5.946,0,0,1,4.053,1.037" transform="translate(23.425 15.62)" fill="#d44f4a"/>
        <path id="Trazado_139187" data-name="Trazado 139187" d="M185.5,117.521H51.708a5.675,5.675,0,0,1-5.675-5.675V43.52a5.674,5.674,0,0,1,5.675-5.675H185.5a5.674,5.674,0,0,1,5.675,5.675v68.327a5.675,5.675,0,0,1-5.675,5.675" transform="translate(5.766 4.74)" fill="#fff"/>
        <path id="Trazado_139188" data-name="Trazado 139188" d="M191.178,44.809H46.033V41.15a3.3,3.3,0,0,1,3.3-3.3H187.27a3.908,3.908,0,0,1,3.908,3.908Z" transform="translate(5.766 4.74)" fill="#d44f4a"/>
        <path id="Trazado_139189" data-name="Trazado 139189" d="M52.888,98.169a5.488,5.488,0,1,1,5.487,5.488,5.487,5.487,0,0,1-5.487-5.488" transform="translate(6.625 11.609)" fill="#f77d48"/>
        <rect id="Rectángulo_9049" data-name="Rectángulo 9049" width="1.198" height="5.057" transform="translate(63.1 107.4)" fill="#fff"/>
        <rect id="Rectángulo_9050" data-name="Rectángulo 9050" width="1.198" height="5.057" transform="translate(65.965 107.4)" fill="#fff"/>
        <path id="Trazado_139190" data-name="Trazado 139190" d="M133.757,98.482H67.2a.832.832,0,1,1,0-1.664h66.553a.832.832,0,1,1,0,1.664" transform="translate(8.314 12.127)" fill="#ffd2d2"/>
        <path id="Trazado_139191" data-name="Trazado 139191" d="M89.237,98.482H67.2a.832.832,0,0,1,0-1.664H89.237a.832.832,0,0,1,0,1.664" transform="translate(8.314 12.127)" fill="#f77d48"/>
        <path id="Trazado_139192" data-name="Trazado 139192" d="M84.7,97.777a1.967,1.967,0,1,1,1.967,1.967A1.968,1.968,0,0,1,84.7,97.777" transform="translate(10.609 12.001)" fill="#f77d48"/>
        <path id="Trazado_139193" data-name="Trazado 139193" d="M70.034,101.1H67.352a.582.582,0,1,1,0-1.164h2.683a.582.582,0,1,1,0,1.164" transform="translate(8.364 12.518)" fill="#f77d48"/>
        <path id="Trazado_139194" data-name="Trazado 139194" d="M126.841,101.1h-2.683a.582.582,0,0,1,0-1.164h2.683a.582.582,0,1,1,0,1.164" transform="translate(15.479 12.518)" fill="#f77d48"/>
        <path id="Trazado_139195" data-name="Trazado 139195" d="M133.757,84.236H67.2a.832.832,0,1,1,0-1.664h66.553a.832.832,0,1,1,0,1.664" transform="translate(8.314 10.343)" fill="#ffd2d2"/>
        <path id="Trazado_139196" data-name="Trazado 139196" d="M70.034,86.856H67.352a.582.582,0,1,1,0-1.164h2.683a.582.582,0,1,1,0,1.164" transform="translate(8.364 10.734)" fill="#f77d48"/>
        <path id="Trazado_139197" data-name="Trazado 139197" d="M126.841,86.856h-2.683a.582.582,0,1,1,0-1.164h2.683a.582.582,0,0,1,0,1.164" transform="translate(15.479 10.734)" fill="#739af0"/>
        <path id="Trazado_139198" data-name="Trazado 139198" d="M133.757,69.989H67.2a.832.832,0,1,1,0-1.664h66.553a.832.832,0,1,1,0,1.664" transform="translate(8.314 8.558)" fill="#ffd2d2"/>
        <path id="Trazado_139199" data-name="Trazado 139199" d="M88.693,66.885H67.2a.832.832,0,0,1,0-1.664h21.49a.832.832,0,0,1,0,1.664" transform="translate(8.314 8.17)" fill="#f77d48"/>
        <path id="Trazado_139200" data-name="Trazado 139200" d="M88.693,52.82H67.2a.832.832,0,0,1,0-1.664h21.49a.832.832,0,0,1,0,1.664" transform="translate(8.314 6.408)" fill="#f77d48"/>
        <path id="Trazado_139201" data-name="Trazado 139201" d="M88.693,80.994H67.2a.832.832,0,0,1,0-1.664h21.49a.832.832,0,0,1,0,1.664" transform="translate(8.314 9.937)" fill="#f77d48"/>
        <path id="Trazado_139202" data-name="Trazado 139202" d="M70.034,72.61H67.352a.582.582,0,1,1,0-1.164h2.683a.582.582,0,1,1,0,1.164" transform="translate(8.364 8.949)" fill="#f77d48"/>
        <path id="Trazado_139203" data-name="Trazado 139203" d="M126.841,72.61h-2.683a.582.582,0,0,1,0-1.164h2.683a.582.582,0,0,1,0,1.164" transform="translate(15.479 8.949)" fill="#f77d48"/>
        <path id="Trazado_139204" data-name="Trazado 139204" d="M133.757,55.743H67.2a.832.832,0,1,1,0-1.664h66.553a.832.832,0,1,1,0,1.664" transform="translate(8.314 6.774)" fill="#ffd2d2"/>
        <path id="Trazado_139205" data-name="Trazado 139205" d="M70.034,58.363H67.352a.582.582,0,1,1,0-1.164h2.683a.582.582,0,1,1,0,1.164" transform="translate(8.364 7.165)" fill="#f77d48"/>
        <path id="Trazado_139206" data-name="Trazado 139206" d="M126.841,58.363h-2.683a.582.582,0,0,1,0-1.164h2.683a.582.582,0,0,1,0,1.164" transform="translate(15.479 7.165)" fill="#f77d48"/>
        <path id="Trazado_139207" data-name="Trazado 139207" d="M52.6,41.086a1.065,1.065,0,1,1-1.064-1.064A1.064,1.064,0,0,1,52.6,41.086" transform="translate(6.322 5.013)" fill="#f2f2f2"/>
        <path id="Trazado_139208" data-name="Trazado 139208" d="M56.667,41.086A1.065,1.065,0,1,1,55.6,40.022a1.064,1.064,0,0,1,1.064,1.064" transform="translate(6.831 5.013)" fill="#f2f2f2"/>
        <path id="Trazado_139209" data-name="Trazado 139209" d="M60.979,41.086a1.065,1.065,0,1,1-1.064-1.064,1.064,1.064,0,0,1,1.064,1.064" transform="translate(7.371 5.013)" fill="#f2f2f2"/>
        <path id="Trazado_139210" data-name="Trazado 139210" d="M116.456,23.211l7.638-2.747v2.747l-7.638,2.472Z" transform="translate(14.587 2.563)" fill="#fff"/>
        <path id="Trazado_139211" data-name="Trazado 139211" d="M117.614,22.783V33.992s-4.368,1.318-4.78-.989,4.039-.989,4.039-.989l.039-8.921Z" transform="translate(14.13 2.854)" fill="#fff"/>
        <path id="Trazado_139212" data-name="Trazado 139212" d="M123.779,20.781V31.99S119.411,33.307,119,31s4.039-.989,4.039-.989l.039-8.921Z" transform="translate(14.902 2.603)" fill="#fff"/>
        <path id="Trazado_139213" data-name="Trazado 139213" d="M138.062,57.526l8.353-2.285-.23,2.922-8.329,1.993Z" transform="translate(17.268 6.919)" fill="#d44f4a"/>
        <path id="Trazado_139214" data-name="Trazado 139214" d="M139.373,57.193l-.934,11.921s-4.755,1.039-5-1.45,4.377-.716,4.377-.716l.787-9.485Z" transform="translate(16.713 7.164)" fill="#d44f4a"/>
        <path id="Trazado_139215" data-name="Trazado 139215" d="M146.1,55.578,145.164,67.5s-4.755,1.039-5-1.45,4.377-.716,4.377-.716l.787-9.485Z" transform="translate(17.555 6.962)" fill="#d44f4a"/>
        <path id="Trazado_139216" data-name="Trazado 139216" d="M131.632,31.038l15.907-4.268-.462,5.554-15.861,3.713Z" transform="translate(16.436 3.353)" fill="#ffc200"/>
        <path id="Trazado_139217" data-name="Trazado 139217" d="M134.134,30.421l-1.888,22.662s-9.053,1.931-9.5-2.8,8.331-1.32,8.331-1.32l1.583-18.031Z" transform="translate(15.373 3.811)" fill="#ffc200"/>
        <path id="Trazado_139218" data-name="Trazado 139218" d="M146.937,27.412l-1.888,22.662s-9.053,1.931-9.5-2.8,8.333-1.32,8.333-1.32l1.582-18.031Z" transform="translate(16.977 3.434)" fill="#ffc200"/>
        <path id="Trazado_139219" data-name="Trazado 139219" d="M52.888,55.429a5.488,5.488,0,1,1,5.487,5.488,5.487,5.487,0,0,1-5.487-5.488" transform="translate(6.625 6.256)" fill="#f77d48"/>
        <path id="Trazado_139220" data-name="Trazado 139220" d="M56.431,52.153v5.939a.326.326,0,0,0,.527.259l3.491-2.705a.569.569,0,0,0,0-.9l-3.605-2.8a.256.256,0,0,0-.412.2" transform="translate(7.069 6.5)" fill="#fff"/>
        <path id="Trazado_139221" data-name="Trazado 139221" d="M52.888,70.095a5.488,5.488,0,1,1,5.487,5.488,5.487,5.487,0,0,1-5.487-5.488" transform="translate(6.625 8.093)" fill="#f77d48"/>
        <path id="Trazado_139222" data-name="Trazado 139222" d="M56.431,66.817v5.94a.326.326,0,0,0,.527.258l3.491-2.705a.569.569,0,0,0,0-.9l-3.605-2.794a.255.255,0,0,0-.412.2" transform="translate(7.069 8.337)" fill="#fff"/>
        <path id="Trazado_139223" data-name="Trazado 139223" d="M52.888,84.278a5.488,5.488,0,1,1,5.487,5.488,5.487,5.487,0,0,1-5.487-5.488" transform="translate(6.625 9.869)" fill="#f77d48"/>
        <path id="Trazado_139224" data-name="Trazado 139224" d="M56.431,81v5.94a.326.326,0,0,0,.527.258l3.491-2.705a.569.569,0,0,0,0-.9l-3.605-2.8a.256.256,0,0,0-.412.2" transform="translate(7.069 10.114)" fill="#fff"/>
        <path id="Trazado_139225" data-name="Trazado 139225" d="M156.294,79.372l.422-.151a3.582,3.582,0,0,0,2.157-4.562L158.1,72.5a3.578,3.578,0,0,0-4.565-2.158l-.422.151a3.58,3.58,0,0,0-2.156,4.562l.772,2.161a3.579,3.579,0,0,0,4.565,2.158" transform="translate(18.883 8.785)" fill="#ed7d2b"/>
        <path id="Trazado_139226" data-name="Trazado 139226" d="M188.366,92.105c-.918,5.595-7.324,7.882-13.7,9-8.591,1.5-16.761-7.556-17.135-8.107s-1.97-.839,2.532-5.362c6.445-6.472-4.984-10.243-6.051-16.946,0,0-3.031-3.887.434-6.017,2.023-1.243,5.391-.983,5.715-1.084a22.5,22.5,0,0,1,2.961-.706c3.99-.664,7.145.036,9.011,1.484,3.039,2.359,2.144,10.563,6.308,10.4s8.068,1.389,7.657,6.053,3.273,5.156,2.267,11.287" transform="translate(19.138 7.845)" fill="#163560"/>
        <path id="Trazado_139227" data-name="Trazado 139227" d="M183.509,79.193l-.585-.545a4.52,4.52,0,0,0-1.245-4.452,3.787,3.787,0,0,0-3.714-1.1c-3.38.856-4.08.142-4.108.1l-.207.251,0-.4.177-.374c.007.009.9.995,4.077.19A4.389,4.389,0,0,1,182.06,74a5.806,5.806,0,0,1,1.448,5.2" transform="translate(21.751 9.103)" fill="#163560"/>
        <path id="Trazado_139228" data-name="Trazado 139228" d="M159.469,86.513s-14.694,6.649-17.71,6.518-19.85-7.338-19.85-7.338l.569,3.276s11.651,9.453,16.665,9.921c4.937.46,21.818-4.431,23.447-5.464s1.615-5.867-3.121-6.912" transform="translate(15.27 10.734)" fill="#ed985f"/>
        <path id="Trazado_139229" data-name="Trazado 139229" d="M154.451,94.513a15.976,15.976,0,0,0,5.586,2.378c8.612,1.989,11.911-5.289,13.151-10.284a7.418,7.418,0,0,0-2.918-.9c-.622-.073-1.277-.122-1.818-.149-.968-.74-2.408-3.772-2.727-8.478l-.405.108-6.786,1.858s.311,2.157.464,4.2a4.618,4.618,0,0,1-.6,3.01.557.557,0,0,0-.415.673l0,.007a43.752,43.752,0,0,0-3.529,7.577" transform="translate(19.346 9.655)" fill="#ffb27d"/>
        <path id="Trazado_139230" data-name="Trazado 139230" d="M158.079,79.039s.312,2.155.464,4.2c3.844-.385,5.629-4.045,6.323-6.053Z" transform="translate(19.801 9.668)" fill="#ed985f"/>
        <path id="Trazado_139231" data-name="Trazado 139231" d="M157.482,82.376s9.126-.5,8.725-6.182.506-9.567-5.337-9.486-6.821,2.328-7.149,4.256,1.376,11.4,3.761,11.412" transform="translate(19.25 8.356)" fill="#ffb27d"/>
        <path id="Trazado_139232" data-name="Trazado 139232" d="M176.446,112.23c.824-4.213,3.511-21.045.824-26.46-.964-1.946-4.751-2.121-8.906-1.951-1.292.835-4.115,3.82-8.339,3.261-.974-.129-.967-1.336-.789-1.939a16.75,16.75,0,0,0-4.7.887,40.245,40.245,0,0,0-5.343,3.2,16.066,16.066,0,0,0,5.2,4.008c-.492,4.4.24,6.336,4.8,16.493a19.308,19.308,0,0,1-.521,16.314S181.364,144.288,181.49,135c.1-6.993-6.1-17.384-5.045-22.769" transform="translate(18.688 10.493)" fill="#ffc200"/>
        <path id="Trazado_139233" data-name="Trazado 139233" d="M158.981,144.523a4.218,4.218,0,0,1-3.035-1.848l-.351-.528c-2.582-3.91-3.587-15.885-9.4-28.642-1.416-3.106-6.5-3.664-7.88-7.176,0,0-3.41-11.379,6.525-11.715s26.606,31.664,26.869,35.019c.255,3.251,6.568,17.067-12.731,14.889" transform="translate(17.255 11.851)" fill="#4e9387"/>
        <path id="Trazado_139234" data-name="Trazado 139234" d="M121.528,139.551h14.14a5.876,5.876,0,0,0-.4-3.79c-.821-1.358-.507-2.131.1-3.255a5.5,5.5,0,0,1-2.381.449,4.986,4.986,0,0,1-2.1-.739,51.113,51.113,0,0,1-4.028,4.232c-.924.664-5.045.428-5.329,3.1" transform="translate(15.223 16.561)" fill="#1a2e4f"/>
        <path id="Trazado_139235" data-name="Trazado 139235" d="M176.743,90.558s-2.613,7.67-14.548,11.178-13.048-7.559-3.412-8.92,17.96-2.258,17.96-2.258" transform="translate(19.078 11.343)" fill="#c4940c"/>
        <path id="Trazado_139236" data-name="Trazado 139236" d="M139.122,97.954c-.852,6.384-4.176,26.53-10.042,36.359-1.89,3.169,4.764,4.946,4.8,4.937a11.331,11.331,0,0,0,3.065-2.274c4.761-4.292,14.428-16.443,14.428-26.186,0-4.75.083-13.823-3.371-16.128-2.127-1.42-8.542.757-8.881,3.293" transform="translate(16.126 11.801)" fill="#4e9387"/>
        <path id="Trazado_139237" data-name="Trazado 139237" d="M166.473,144.342s-.524-.729-1.437-2.114c-1.088-1.647-2.291-4.888-3.752-9.043-1.534-4.363-3.353-9.728-5.626-15.311-.7-1.724-1.447-3.468-2.239-5.21-1.416-3.106-5.309-2.676-6.693-6.188,0,0-5.4-12.171,4.529-12.506s28.812,32.558,29.9,35.745c1.188,3.487,6.982,17.968-14.679,14.627" transform="translate(18.195 11.77)" fill="#6bbcb1"/>
        <path id="Trazado_139238" data-name="Trazado 139238" d="M130.752,139.551h14.14a5.876,5.876,0,0,0-.4-3.79c-.823-1.358-.507-2.131.1-3.255a5.5,5.5,0,0,1-2.381.449,4.986,4.986,0,0,1-2.1-.739,51.112,51.112,0,0,1-4.028,4.232c-.924.664-5.045.428-5.329,3.1" transform="translate(16.378 16.561)" fill="#2b478b"/>
        <path id="Trazado_139239" data-name="Trazado 139239" d="M160.126,131.572c-1.534-4.362-3.353-9.728-5.626-15.311.593-4.23,1.875-7.931,4.028-9.422,0,0,5.225,16.188,1.6,24.733" transform="translate(19.353 13.383)" fill="#4e9387"/>
        <path id="Trazado_139240" data-name="Trazado 139240" d="M146.221,97.473c-.852,6.382-2.05,26.983-7.916,36.812-1.89,3.169,4.764,4.946,4.8,4.937a11.331,11.331,0,0,0,3.065-2.274c4.762-4.292,14.428-16.443,14.428-26.186,0-4.75-5.575-13.441-9.029-15.747a3.475,3.475,0,0,0-5.348,2.459" transform="translate(17.282 11.829)" fill="#6bbcb1"/>
        <path id="Trazado_139241" data-name="Trazado 139241" d="M155.54,77.752a8.429,8.429,0,0,1,3.29-.144s-.128.946-1.92,1.04a1.426,1.426,0,0,1-1.371-.9" transform="translate(19.483 9.713)" fill="#fff"/>
        <path id="Trazado_139242" data-name="Trazado 139242" d="M132.173,93.36l-7.225,1.021a1.09,1.09,0,0,1-1.232-.927L121.79,79.827a1.09,1.09,0,0,1,.927-1.232l7.225-1.021a1.09,1.09,0,0,1,1.232.927L133.1,92.128a1.09,1.09,0,0,1-.927,1.232" transform="translate(15.254 9.716)" fill="#254f82"/>
        <path id="Trazado_139243" data-name="Trazado 139243" d="M130.886,93.542l-7.225,1.021a1.09,1.09,0,0,1-1.232-.927L120.5,80.009a1.09,1.09,0,0,1,.927-1.232l7.225-1.021a1.09,1.09,0,0,1,1.232.927l1.925,13.627a1.09,1.09,0,0,1-.927,1.232" transform="translate(15.093 9.738)" fill="#163560"/>
        <path id="Trazado_139244" data-name="Trazado 139244" d="M121.262,80.595a.944.944,0,1,1,1.068.8.944.944,0,0,1-1.068-.8" transform="translate(15.188 9.96)" fill="#254f82"/>
        <path id="Trazado_139245" data-name="Trazado 139245" d="M119.882,84.174a4.852,4.852,0,0,1,1.928-2.391c1.448-.286,1.448,1.621,1.141,2.853A4.381,4.381,0,0,1,121.6,86.55l.313,2.217c-2.446-1.345-2.492-3.313-2.033-4.592" transform="translate(14.988 10.24)" fill="#ffb27d"/>
        <path id="Trazado_139246" data-name="Trazado 139246" d="M148.781,134.877c-2.166,0-4.027-1.214-6.19-2.624A27.049,27.049,0,0,0,134.2,128.2c-4.2-1.088-8.992-.959-14.65.395a62.484,62.484,0,0,1-20.466,1.69c-6.246-.634-11.407-2.5-14.922-5.4a14.711,14.711,0,0,1-4.149-5.357,15.579,15.579,0,0,1-1.263-7.1l.217.009A14.333,14.333,0,0,0,84.3,124.72c3.483,2.873,8.6,4.723,14.806,5.353a62.294,62.294,0,0,0,20.394-1.686c12.841-3.074,18.832.833,23.207,3.685,3.333,2.173,5.741,3.744,9.61,1.526,3.111-1.784,4.243-5.389,3.366-10.717a45.869,45.869,0,0,0-3.9-11.491,20.52,20.52,0,0,1-1.974-6.979,8.713,8.713,0,0,1,.861-5.471c.9-1.456,2.463-2.311,4.768-2.613,6.765-.887,10.305-3.756,10.305-6.133a13.424,13.424,0,0,0-.872-3.637c-.837-2.572-1.786-5.489-.842-8.064l.2.075c-.919,2.5.018,5.382.844,7.921a13.531,13.531,0,0,1,.882,3.7c0,2.881-4.413,5.55-10.493,6.348-4.223.553-5.9,2.974-5.441,7.849a20.28,20.28,0,0,0,1.953,6.9,46.137,46.137,0,0,1,3.919,11.55c.893,5.427-.273,9.108-3.471,10.941a7.261,7.261,0,0,1-3.647,1.092" transform="translate(9.862 9.832)" fill="#163560"/>
        <path id="Trazado_139247" data-name="Trazado 139247" d="M156.2,90.787l-.082-.2A13.956,13.956,0,0,0,162,86.276a14.3,14.3,0,0,0,2.555-5.293,18,18,0,0,0,.453-6.384l.214-.032a18.169,18.169,0,0,1-.458,6.469,14.489,14.489,0,0,1-2.595,5.373,14.182,14.182,0,0,1-5.966,4.377" transform="translate(19.555 9.34)" fill="#163560"/>
        <path id="Trazado_139248" data-name="Trazado 139248" d="M127.909,86.076c.51-.1,1.6-.51,2.71-.815a2.268,2.268,0,0,1-.8-.9c-.2-.623-.329-.824.33-.627s2.962,1.255,2.962,1.255l-.007,0a6.108,6.108,0,0,1,2.515,2.233s16.2,5.695,18.149,5.793c3.016.151,23.085-7.24,23.085-7.24,4.736,1.045,3.674,6.865,2.045,7.9s-16.071,6.286-24.63,6.385c-4.335.051-20.1-10.085-20.1-10.085a6.709,6.709,0,0,0-3.291-.58c-1.448.263-4.8,0-5.528-1.185s1.71-1.975,2.567-2.139" transform="translate(15.684 10.48)" fill="#ffb27d"/>
        <path id="Trazado_139249" data-name="Trazado 139249" d="M161.913,89.244a11.026,11.026,0,0,0,7.959,6.975s10.18-3.136,5.112-10.072c0,0-5.012-3.723-13.071,3.1" transform="translate(20.281 10.664)" fill="#ffc200"/>
        <path id="Trazado_139250" data-name="Trazado 139250" d="M153.91,70.543a5.649,5.649,0,0,0,4.117-.343c2.545-1.03,3.031.895,3.06,1.767A1.89,1.89,0,0,0,162.955,74l4.569-2.925V65.664l-7.562-1.9-6.27,2.112a14.473,14.473,0,0,0,.218,4.663" transform="translate(19.239 7.988)" fill="#163560"/>
        <path id="Trazado_139251" data-name="Trazado 139251" d="M164.8,70.694l-1.373.129c0,.016-1.008.272-1.01.3a19.131,19.131,0,0,0-3.078-7.564,22.5,22.5,0,0,1,2.961-.706,19.342,19.342,0,0,1,2.5,7.842" transform="translate(19.959 7.873)" fill="#ed7d2b"/>
        <path id="Trazado_139252" data-name="Trazado 139252" d="M165.73,78.375l.432-.122a3.582,3.582,0,0,0,2.464-4.4L168,71.642a3.58,3.58,0,0,0-4.407-2.467l-.432.123a3.579,3.579,0,0,0-2.464,4.4l.622,2.209a3.579,3.579,0,0,0,4.407,2.467" transform="translate(20.113 8.648)" fill="#ed7d2b"/>
        <path id="Trazado_139253" data-name="Trazado 139253" d="M165.349,75.695l.214-.061a1.782,1.782,0,0,0,1.228-2.193l-.309-1.1a1.784,1.784,0,0,0-2.2-1.23l-.215.062a1.784,1.784,0,0,0-1.229,2.193l.311,1.1a1.784,1.784,0,0,0,2.2,1.229" transform="translate(20.389 8.899)" fill="#f99746"/>
        <path id="Trazado_139254" data-name="Trazado 139254" d="M154.324,78.292l-.095.934.447.081.257-.934Z" transform="translate(19.319 9.807)" fill="#ed7d2b"/>
        <path id="Trazado_139255" data-name="Trazado 139255" d="M163.84,77.084v1.454h.446l.248-1.454Z" transform="translate(20.522 9.655)" fill="#ed7d2b"/>
        <path id="Trazado_139256" data-name="Trazado 139256" d="M246,139.383H10.278a.293.293,0,0,1-.293-.293v-.164a.293.293,0,0,1,.293-.293H246a.293.293,0,0,1,.293.293v.164a.293.293,0,0,1-.293.293" transform="translate(1.251 17.365)" fill="#233862"/>
      </g>
    </g>
  </g>
</svg>
