<svg xmlns="http://www.w3.org/2000/svg" width="209.15" height="199.78" viewBox="0 0 209.15 199.78">
  <g id="Grupo_67058" data-name="Grupo 67058" transform="translate(-695.424 -5076.028)">
    <path id="Trazado_139147" data-name="Trazado 139147" d="M91.15,156.47c0,55.168,46.819,99.89,104.575,99.89S300.3,211.638,300.3,156.47,253.48,56.58,195.725,56.58,91.15,101.3,91.15,156.47" transform="translate(604.274 5019.448)" fill="#fff"/>
    <path id="Trazado_139148" data-name="Trazado 139148" d="M262.846,135.624c-1.206-1.12-3.45-3.207-3.488-4,.036-.793,2.279-2.877,3.486-4,2.692-2.5,5.472-5.087,4.637-8.066-.857-3.07-4.7-4-8.425-4.894-1.556-.375-4.451-1.076-4.914-1.674-.344-.7.481-3.5.923-5.008,1.03-3.5,2.095-7.106-.226-9.319s-6.1-1.2-9.756-.215c-1.578.424-4.5,1.213-5.224.894-.643-.452-1.376-3.218-1.768-4.705-.939-3.556-1.911-7.231-5.127-8.05-3.124-.789-5.824,1.862-8.444,4.429-1.173,1.153-3.357,3.3-4.183,3.332-.83-.034-3.012-2.177-4.188-3.33-2.617-2.569-5.328-5.228-8.443-4.429-3.215.82-4.187,4.5-5.125,8.048-.393,1.487-1.126,4.253-1.753,4.694-.732.332-3.667-.459-5.243-.881-3.657-.987-7.439-2.006-9.756.215s-1.254,5.827-.225,9.32c.444,1.506,1.27,4.3.936,4.989-.473.614-3.369,1.315-4.926,1.69-2.918.705-5.891,1.442-7.462,3.2a29.143,29.143,0,0,0-15.3-4.315c-15.647,0-28.376,12.159-28.376,27.1a25.946,25.946,0,0,0,1.045,7.255,13.688,13.688,0,0,0-10.5,13.074c0,7.474,6.363,13.553,14.189,13.553h30.741v28.351a13.179,13.179,0,0,0-4.488,12.566A13.84,13.84,0,0,0,172.391,226.2a15.3,15.3,0,0,0,2.994.3,14.581,14.581,0,0,0,8.969-3.031,13.3,13.3,0,0,0,5.238-10.52,13.142,13.142,0,0,0-4.729-10.049V174.543H215.6a14.539,14.539,0,0,0,8.486-2.718c.144.14.287.267.428.407,2.3,2.254,4.662,4.574,7.312,4.574a4.6,4.6,0,0,0,1.133-.145c3.214-.819,4.186-4.495,5.124-8.048.393-1.486,1.126-4.253,1.754-4.694.726-.332,3.664.459,5.242.882,3.655.982,7.437,2,9.756-.216s1.254-5.826.226-9.319c-.445-1.507-1.271-4.305-.937-4.99.473-.614,3.369-1.314,4.926-1.689,3.723-.9,7.57-1.825,8.428-4.9.835-2.979-1.945-5.566-4.635-8.066m-81.478,84.329a9.771,9.771,0,0,1-8.018,1.818,9.179,9.179,0,0,1-7.241-7.127,8.738,8.738,0,0,1,3.629-8.886l.938-.677V197.13h4.73v-4.517h-4.73V188.1h4.73v-4.517h-4.73V179.06h4.73v-4.517h-4.73v-4.518h4.73v-4.517h-4.73V160.99h4.73v-4.518h-4.73v-4.517a4.734,4.734,0,0,1,9.459,0v53.126l.939.677a8.74,8.74,0,0,1,.3,14.2M215.6,170.025H184.863v-18.07a9.469,9.469,0,0,0-18.917,0v18.07H135.2a9.044,9.044,0,1,1,9.459-9.035h4.729c0-7.113-5.767-12.949-13.068-13.5a21.564,21.564,0,0,1-1.119-6.83c0-12.455,10.607-22.587,23.646-22.587S182.5,128.206,182.5,140.661h4.73a25.931,25.931,0,0,0-1.057-7.237,19.621,19.621,0,0,1,8.151-1.8c9.709,0,17.726,7.027,18.789,16.035a13.756,13.756,0,0,0-11.695,13.329h4.73a9.469,9.469,0,1,1,9.459,9.035m2.256-22.4c-1.086-11.35-10.993-20.284-23.1-20.5,2.234-11.6,12.984-20.348,25.576-20.348,14.341,0,26.011,11.147,26.011,24.846,0,10.865-7.269,20.307-17.912,23.616a14.131,14.131,0,0,0-10.572-7.617m40.035-3.418c-3.343.806-6.5,1.568-7.853,3.795-1.369,2.259-.475,5.285.469,8.488.442,1.5,1.262,4.278,1.066,4.843-.738.317-3.646-.461-5.213-.88-3.353-.9-6.521-1.756-8.886-.448-2.334,1.289-3.131,4.308-3.975,7.5-.4,1.531-1.158,4.382-1.636,4.777-.787-.09-2.852-2.117-3.96-3.2-.182-.179-.362-.338-.543-.517a13.023,13.023,0,0,0,2.351-8.981c12.681-3.858,21.359-15.057,21.359-27.959,0-16.191-13.791-29.364-30.741-29.364-15.32,0-28.314,10.975-30.411,25.289a24.329,24.329,0,0,0-5.408,1.618,27.367,27.367,0,0,0-6.6-8.532c.783-.6,3.391-1.238,4.862-1.592,3.343-.807,6.5-1.568,7.853-3.795,1.369-2.259.476-5.285-.468-8.488-.443-1.5-1.263-4.278-1.066-4.843.735-.33,3.646.46,5.211.88,3.355.9,6.521,1.758,8.886.448,2.334-1.289,3.131-4.308,3.975-7.5.4-1.531,1.159-4.382,1.636-4.777.787.091,2.852,2.117,3.96,3.2,2.353,2.308,4.786,4.7,7.574,4.7s5.222-2.387,7.574-4.7c1.109-1.086,3.173-3.112,3.757-3.248.682.438,1.433,3.291,1.839,4.822.846,3.194,1.643,6.212,3.973,7.5,2.367,1.308,5.533.454,8.886-.448,1.566-.422,4.474-1.2,5.07-1.018.338.7-.482,3.483-.921,4.979-.946,3.2-1.838,6.229-.469,8.488,1.352,2.229,4.51,2.99,7.857,3.8,1.6.386,4.586,1.106,5,1.561-.094.752-2.215,2.724-3.353,3.783-2.416,2.248-4.916,4.571-4.916,7.235s2.5,4.987,4.919,7.235c1.137,1.059,3.258,3.031,3.4,3.589-.466.653-3.453,1.371-5.057,1.759" transform="translate(605.676 5019.448)" fill="#23394c"/>
  </g>
</svg>
