<svg xmlns="http://www.w3.org/2000/svg" xmlns:xlink="http://www.w3.org/1999/xlink" width="38.791" height="48.931" viewBox="0 0 38.791 48.931">
  <defs>
    <clipPath id="clip-path">
      <rect id="Rectángulo_9074" data-name="Rectángulo 9074" width="38.791" height="48.931" fill="none"/>
    </clipPath>
  </defs>
  <g id="Grupo_66842" data-name="Grupo 66842" transform="translate(0)">
    <g id="Grupo_66841" data-name="Grupo 66841" transform="translate(0)" clip-path="url(#clip-path)">
      <path id="Trazado_139271" data-name="Trazado 139271" d="M33.147,30.141A5.65,5.65,0,0,0,38.791,24.5a.841.841,0,0,0-.84-.841H31.792V16.949c1.04-.256,1.646-.45,1.72-.475a.839.839,0,0,0,.581-.8V4.257A4.262,4.262,0,0,0,29.836,0H8.953A4.262,4.262,0,0,0,4.7,4.257V15.675a.839.839,0,0,0,.583.8c.074.025.68.219,1.721.475v6.708H.84A.841.841,0,0,0,0,24.5a5.649,5.649,0,0,0,5.642,5.643h.034v1.714L2.758,47.939a.837.837,0,0,0,.827.99H5.6a.841.841,0,0,0,.816-.646L10.11,32.771H28.679l3.692,15.514a.841.841,0,0,0,.816.646H35.2a.843.843,0,0,0,.827-.99L33.112,31.857V30.141Zm-3.036-6.482h-1V17.52c.354-.064.688-.128,1-.192Zm-18.748,0V17.8a54.516,54.516,0,0,0,8.031.594,54.521,54.521,0,0,0,8.032-.6v5.857ZM6.376,4.257A2.581,2.581,0,0,1,8.953,1.68H29.836a2.58,2.58,0,0,1,2.576,2.577V15.046a50.7,50.7,0,0,1-13.018,1.669A50.706,50.706,0,0,1,6.376,15.046Zm2.3,13.069q.472.1,1,.192v6.139h-1ZM1.77,25.338H37.019a3.971,3.971,0,0,1-3.872,3.121H5.642A3.97,3.97,0,0,1,1.77,25.338M4.939,47.25H4.593L7.217,32.771H8.383Zm28.915,0L30.406,32.771h1.166L34.2,47.251ZM31.433,31.091H7.356v-.95H31.433Z" fill="#d44f4a"/>
    </g>
  </g>
</svg>
