<svg xmlns="http://www.w3.org/2000/svg" width="209.15" height="199.78" viewBox="0 0 209.15 199.78">
  <g id="Grupo_67061" data-name="Grupo 67061" transform="translate(-275.424 -5076.028)">
    <g id="Grupo_67057" data-name="Grupo 67057">
      <path id="Trazado_139143" data-name="Trazado 139143" d="M91.15,156.47c0,55.168,46.819,99.89,104.575,99.89S300.3,211.638,300.3,156.47,253.48,56.58,195.725,56.58,91.15,101.3,91.15,156.47" transform="translate(184.274 5019.448)" fill="#fff"/>
      <path id="Trazado_139144" data-name="Trazado 139144" d="M244.323,141.82l-7.255-7.665a10.493,10.493,0,0,0,1.411-7.556,10.891,10.891,0,0,0-4.776-7.071l-10.468-6.916a10.524,10.524,0,0,0-.933-4.763,11.21,11.21,0,0,0-6.312-5.871l-23.149-8.817a11.923,11.923,0,0,0-8.609.037,11.746,11.746,0,0,0-8.193-3.282H151.119a11.274,11.274,0,0,0-11.511,11v94.341c0,12.626,10.754,22.9,23.971,22.9a24.522,24.522,0,0,0,15.733-5.636,1.823,1.823,0,0,0,.176-.133l44.88-38.579a1.825,1.825,0,0,0,.147-2.66,2.036,2.036,0,0,0-2.784-.14l-1.849,1.59-6.007-6.347,9.43-13.026,8.575,9.058-3.9,3.354a1.825,1.825,0,0,0-.147,2.659,2.036,2.036,0,0,0,2.785.14l12.888-11.08a10.653,10.653,0,0,0,.819-15.529ZM234.6,127.274a6.925,6.925,0,0,1-1.221,5.408l-5.353,7.394-12.187-8.051,6.452-15.456,9.169,6.057A7.159,7.159,0,0,1,234.6,127.274Zm-18.737,29.6-8.148-5.383,6.627-15.877,11.443,7.558Zm-12.163,16.8-4.111-2.716,6.628-15.878,7.4,4.892Zm3.034-30-5.713-2.176a2,2,0,0,0-2.561,1.052,1.857,1.857,0,0,0,1.1,2.447l5.713,2.176L198.5,163.394l-10.952-4.171v-18.8l4.172,1.589a2.053,2.053,0,0,0,.73.134,1.975,1.975,0,0,0,1.832-1.186,1.857,1.857,0,0,0-1.1-2.447l-5.632-2.145v-18.8l25.956,9.886ZM183.608,131.92h-22.33a1.885,1.885,0,1,0,0,3.766h22.33v17.466H143.551V135.686h9.326a1.885,1.885,0,1,0,0-3.766h-9.326V114.454h40.057Zm-40.057,25h40.056v17.466H143.551Zm44,6.359,9.491,3.615-9.491,22.739Zm12.284,22.357,2.186,2.31L191.8,196.727Zm-8.52,5.146,6.776-16.232,3.367,2.224Zm.066-94.12,23.15,8.816a7.369,7.369,0,0,1,4.149,3.86,6.878,6.878,0,0,1,.552,3.811c0,.015,0,.03-.007.045a6.984,6.984,0,0,1-.468,1.676l-3.791,9.082-27.415-10.441v-12.6a10.516,10.516,0,0,0-1.01-4.5A7.837,7.837,0,0,1,191.381,96.66Zm-40.263-2.978H176.04a7.413,7.413,0,0,1,7.568,7.229v9.778H143.551v-9.778a7.413,7.413,0,0,1,7.568-7.229m-7.568,101.57v-17.1h40.057v17.1c0,10.549-8.986,19.131-20.029,19.131s-20.028-8.582-20.028-19.131m73.4-20.142-12,10.314-2.813-2.972,9.432-13.026Zm26.393-25.553a7.056,7.056,0,0,1-2.479,5l-6.054,5.2-9.2-9.721,9.177-12.675,6.612,6.985a6.99,6.99,0,0,1,1.945,5.211" transform="translate(186.548 5019.448)" fill="#23394c"/>
    </g>
    <path id="Trazado_139145" data-name="Trazado 139145" d="M162.5,186.291a9.039,9.039,0,1,0,9.453,9.03,9.26,9.26,0,0,0-9.453-9.03m0,14.294a5.27,5.27,0,1,1,5.511-5.264,5.4,5.4,0,0,1-5.511,5.264" transform="translate(187.178 5019.448)" fill="#23394c"/>
  </g>
</svg>
