<svg xmlns="http://www.w3.org/2000/svg" xmlns:xlink="http://www.w3.org/1999/xlink" width="50.508" height="50.508" viewBox="0 0 50.508 50.508">
  <defs>
    <clipPath id="clip-path">
      <rect id="Rectángulo_9081" data-name="Rectángulo 9081" width="50.508" height="50.508" fill="none"/>
    </clipPath>
  </defs>
  <g id="Grupo_66849" data-name="Grupo 66849" transform="translate(0)">
    <g id="Grupo_66848" data-name="Grupo 66848" transform="translate(0)" clip-path="url(#clip-path)">
      <path id="Trazado_139290" data-name="Trazado 139290" d="M39.458,33.145H11.048a11.048,11.048,0,0,1,0-22.1,11.212,11.212,0,0,1,1.662.124,12.627,12.627,0,0,1,25.086,0,11.242,11.242,0,0,1,1.662-.124,11.048,11.048,0,1,1,0,22.1ZM11.048,14.2a7.892,7.892,0,1,0,0,15.783h28.41a7.892,7.892,0,1,0-2.641-15.331,1.578,1.578,0,0,1-2.1-1.574c.007-.14.01-.29.01-.457a9.47,9.47,0,0,0-18.94,0c0,.167,0,.317.012.457a1.579,1.579,0,0,1-2.105,1.574,7.849,7.849,0,0,0-2.641-.453" transform="translate(0 0)" fill="#d44f4a"/>
      <path id="Trazado_139291" data-name="Trazado 139291" d="M14.827,29.905a1.578,1.578,0,0,1-1.312-2.454l1.578-2.367a1.578,1.578,0,1,1,2.627,1.751L16.142,29.2A1.577,1.577,0,0,1,14.827,29.905Z" transform="translate(6.479 11.922)" fill="#d44f4a"/>
      <path id="Trazado_139292" data-name="Trazado 139292" d="M5.817,29.905a1.578,1.578,0,0,1-1.312-2.454l1.578-2.367A1.578,1.578,0,1,1,8.71,26.835L7.132,29.2A1.577,1.577,0,0,1,5.817,29.905Z" transform="translate(2.073 11.922)" fill="#d44f4a"/>
      <path id="Trazado_139293" data-name="Trazado 139293" d="M24.9,29.905a1.578,1.578,0,0,1-1.312-2.454l1.578-2.367a1.578,1.578,0,0,1,2.627,1.751L26.212,29.2A1.577,1.577,0,0,1,24.9,29.905Z" transform="translate(11.403 11.922)" fill="#d44f4a"/>
      <path id="Trazado_139294" data-name="Trazado 139294" d="M14.827,35.735a1.578,1.578,0,0,1-1.312-2.454l1.578-2.367a1.578,1.578,0,1,1,2.627,1.751l-1.578,2.367a1.577,1.577,0,0,1-1.315.7" transform="translate(6.479 14.773)" fill="#d44f4a"/>
      <path id="Trazado_139295" data-name="Trazado 139295" d="M19.6,32.025a1.578,1.578,0,0,1-1.312-2.454L19.863,27.2a1.578,1.578,0,0,1,2.627,1.751l-1.578,2.367A1.577,1.577,0,0,1,19.6,32.025Z" transform="translate(8.811 12.959)" fill="#d44f4a"/>
      <path id="Trazado_139296" data-name="Trazado 139296" d="M24.368,35.735a1.577,1.577,0,0,1-1.312-2.454l1.577-2.367a1.578,1.578,0,1,1,2.627,1.751l-1.577,2.367a1.581,1.581,0,0,1-1.315.7" transform="translate(11.144 14.773)" fill="#d44f4a"/>
      <path id="Trazado_139297" data-name="Trazado 139297" d="M10.057,32.025a1.578,1.578,0,0,1-1.312-2.454L10.323,27.2a1.578,1.578,0,0,1,2.627,1.751l-1.578,2.367A1.577,1.577,0,0,1,10.057,32.025Z" transform="translate(4.146 12.959)" fill="#d44f4a"/>
      <path id="Trazado_139298" data-name="Trazado 139298" d="M5.287,35.735a1.578,1.578,0,0,1-1.312-2.454l1.578-2.367A1.578,1.578,0,1,1,8.18,32.665L6.6,35.032a1.577,1.577,0,0,1-1.315.7" transform="translate(1.814 14.773)" fill="#d44f4a"/>
    </g>
  </g>
</svg>
