<svg xmlns="http://www.w3.org/2000/svg" xmlns:xlink="http://www.w3.org/1999/xlink" width="52.145" height="52.143" viewBox="0 0 52.145 52.143">
  <defs>
    <clipPath id="clip-path">
      <rect id="Rectángulo_9111" data-name="Rectángulo 9111" width="52.145" height="52.143" fill="none"/>
    </clipPath>
  </defs>
  <g id="Grupo_66915" data-name="Grupo 66915" transform="translate(0 -0.001)">
    <g id="Grupo_66914" data-name="Grupo 66914" transform="translate(0 0)" clip-path="url(#clip-path)">
      <path id="Trazado_139342" data-name="Trazado 139342" d="M51.274,31.286h0a5.881,5.881,0,0,0-2.5.5,4.8,4.8,0,0,1-3.7,0,6.511,6.511,0,0,0-4.99,0,4.784,4.784,0,0,1-3.7,0,5.786,5.786,0,0,0-2.093-.487l-.458-1.191a.87.87,0,0,0-.811-.557h-.87V26.072a.869.869,0,0,0,.724-1.351L29.4,19.506a.905.905,0,0,0-1.447,0L24.48,24.721a.869.869,0,0,0,.723,1.351v3.477H23.946L19.857,23a.872.872,0,0,0-.737-.409h-.869V20.857h1.133a3.25,3.25,0,0,0,2.368-1.023,3.091,3.091,0,0,0,.837-2.344C22.577,17.316,21.341,0,17.382,0s-5.195,17.316-5.207,17.491a3.085,3.085,0,0,0,.836,2.344,3.25,3.25,0,0,0,2.368,1.023h1.133v1.738H6.083V20.857H7.218a3.255,3.255,0,0,0,2.368-1.023,3.1,3.1,0,0,0,.836-2.344C10.409,17.316,9.173,0,5.214,0S.02,17.316.008,17.491a3.1,3.1,0,0,0,.836,2.344,3.25,3.25,0,0,0,2.369,1.023H4.346v1.738H.869a.869.869,0,0,0-.869.87V51.274a.868.868,0,0,0,.869.869H51.274a.868.868,0,0,0,.869-.869V32.155a.869.869,0,0,0-.869-.869M28.68,21.554l1.851,2.78h-3.7Zm1.738,4.517v3.477H26.94V26.072ZM15.379,19.12a1.485,1.485,0,0,1-1.1-.472,1.368,1.368,0,0,1-.373-1.037C14.435,9.942,16.264,2.5,17.381,1.761c1.118.737,2.947,8.18,3.474,15.849a1.368,1.368,0,0,1-.373,1.037,1.485,1.485,0,0,1-1.1.472Zm-12.166,0a1.485,1.485,0,0,1-1.1-.472,1.374,1.374,0,0,1-.373-1.037C2.269,9.942,4.1,2.5,5.214,1.761,6.331,2.5,8.16,9.942,8.687,17.61a1.367,1.367,0,0,1-.372,1.037,1.485,1.485,0,0,1-1.1.472ZM50.406,50.405H1.738V24.334h16.9l4.09,6.544a.868.868,0,0,0,.737.408h8.963l4.131,10.741a.868.868,0,0,0,.811.557H50.406Zm0-9.56H37.966L35,33.144a5.35,5.35,0,0,1,.736.252,6.521,6.521,0,0,0,4.989,0,4.778,4.778,0,0,1,3.7,0,6.532,6.532,0,0,0,4.993,0,4.714,4.714,0,0,1,.982-.306Z" transform="translate(0 -0.001)" fill="#d44f4a"/>
      <path id="Trazado_139343" data-name="Trazado 139343" d="M31.421,2.329A3.476,3.476,0,1,0,34.9,5.806a3.48,3.48,0,0,0-3.477-3.477m0,5.214a1.738,1.738,0,1,1,1.738-1.738,1.737,1.737,0,0,1-1.738,1.738" transform="translate(13.77 1.147)" fill="#d44f4a"/>
      <rect id="Rectángulo_9103" data-name="Rectángulo 9103" width="1.738" height="1.738" transform="translate(44.322)" fill="#d44f4a"/>
      <rect id="Rectángulo_9104" data-name="Rectángulo 9104" width="1.738" height="1.738" transform="translate(50.405 6.083)" fill="#d44f4a"/>
      <rect id="Rectángulo_9105" data-name="Rectángulo 9105" width="1.738" height="1.738" transform="translate(44.322 12.166)" fill="#d44f4a"/>
      <rect id="Rectángulo_9106" data-name="Rectángulo 9106" width="1.738" height="1.738" transform="translate(38.239 6.083)" fill="#d44f4a"/>
      <rect id="Rectángulo_9107" data-name="Rectángulo 9107" width="1.739" height="1.739" transform="translate(48.265 2.65) rotate(-45.035)" fill="#d44f4a"/>
      <rect id="Rectángulo_9108" data-name="Rectángulo 9108" width="1.739" height="1.739" transform="translate(48.266 11.248) rotate(-44.965)" fill="#d44f4a"/>
      <rect id="Rectángulo_9109" data-name="Rectángulo 9109" width="1.739" height="1.739" transform="translate(39.662 11.254) rotate(-45.035)" fill="#d44f4a"/>
      <rect id="Rectángulo_9110" data-name="Rectángulo 9110" width="1.739" height="1.739" transform="translate(39.663 2.649) rotate(-44.965)" fill="#d44f4a"/>
    </g>
  </g>
</svg>
