<svg id="Grupo_66846" data-name="Grupo 66846" xmlns="http://www.w3.org/2000/svg" xmlns:xlink="http://www.w3.org/1999/xlink" width="39.416" height="54.129" viewBox="0 0 39.416 54.129">
  <defs>
    <clipPath id="clip-path">
      <rect id="Rectángulo_9079" data-name="Rectángulo 9079" width="39.416" height="54.129" fill="none"/>
    </clipPath>
  </defs>
  <g id="Grupo_66845" data-name="Grupo 66845" clip-path="url(#clip-path)">
    <path id="Trazado_139275" data-name="Trazado 139275" d="M17.581,33.089a.557.557,0,0,0-.557.557v6.685a.557.557,0,0,0,1.115,0V33.646a.557.557,0,0,0-.557-.557" transform="translate(2.071 4.024)" fill="#d44f4a"/>
    <path id="Trazado_139276" data-name="Trazado 139276" d="M37.917,36.483a.556.556,0,0,0,.556-.557V19.066a1.317,1.317,0,0,0-1.937-1.133l-.378.213L34.371,16.33a.559.559,0,0,0-.522-.153,24.836,24.836,0,0,0-3.006.958V14.91a.557.557,0,0,0-.76-.518,18.075,18.075,0,0,0-9.307,7.57,15.218,15.218,0,0,0-1.206,2.56,15.115,15.115,0,0,0-1.2-2.56,18.075,18.075,0,0,0-9.307-7.57.557.557,0,0,0-.76.518v2.225a24.9,24.9,0,0,0-3.006-.958.559.559,0,0,0-.522.153L2.982,18.146,2.6,17.933A1.317,1.317,0,0,0,.667,19.066V42.479a1.3,1.3,0,0,0,.663,1.133L15.69,51.69a1.5,1.5,0,0,0,1.035.1,1.3,1.3,0,0,0,1.087.59h3.516a1.3,1.3,0,0,0,1.087-.59,1.283,1.283,0,0,0,1.035-.1l14.36-8.078a1.3,1.3,0,0,0,.663-1.133V39.491a.557.557,0,0,0-1.114,0v2.988a.185.185,0,0,1-.1.162L22.9,50.718a.185.185,0,0,1-.276-.162v-23.1c-.021-.111-.025-.4.094-.47L37.083,18.9a.186.186,0,0,1,.277.162v16.86A.556.556,0,0,0,37.917,36.483Zm-8.189-20.74v1.843c-.526.224-1.083.479-1.66.766a23.89,23.89,0,0,0-6.7,4.844c.113-.218.236-.441.37-.668a16.746,16.746,0,0,1,7.993-6.785M21.514,31.22H17.626V29.858h3.888Zm-3.886,1.114h3.888V46.2H17.627Zm0,14.983h3.888v1.362H17.627Zm3.886-18.573H17.627V27.452a.186.186,0,0,1,.185-.186h3.516a.186.186,0,0,1,.185.186ZM5.34,17.34a29.246,29.246,0,0,1,5.811,2.3.558.558,0,0,0,.519-.986c-.79-.416-1.552-.772-2.258-1.072V15.743a16.762,16.762,0,0,1,7.964,6.736q.214.358.391.7a20.793,20.793,0,0,0-3-2.616.557.557,0,0,0-.652.9A17.848,17.848,0,0,1,18.7,26.152c-.647-.053-1.2.16-1.735-.141l-12.976-7.3ZM16.42,50.717h-.184L1.876,42.64a.183.183,0,0,1-.1-.162V19.066a.188.188,0,0,1,.277-.162l14.36,8.078c.119.067.116.359.094.47v23.1A.18.18,0,0,1,16.42,50.717Zm5.093.367a.185.185,0,0,1-.185.185H17.812a.185.185,0,0,1-.185-.185V49.793h3.886Zm.663-25.073c-.545.307-1.076.1-1.734.141a20.694,20.694,0,0,1,8.1-6.791A29.155,29.155,0,0,1,33.8,17.34l1.352,1.373Z" transform="translate(0.081 1.745)" fill="#d44f4a"/>
    <path id="Trazado_139277" data-name="Trazado 139277" d="M32.361,23.034l-10.4,5.942a.557.557,0,0,0-.282.483v3.591a.562.562,0,0,0,.834.483l10.4-5.941a.557.557,0,0,0,.28-.485V23.517A.564.564,0,0,0,32.361,23.034Zm-.28,3.752L22.8,32.091V29.783l9.285-5.305Z" transform="translate(2.637 2.792)" fill="#d44f4a"/>
    <path id="Trazado_139278" data-name="Trazado 139278" d="M.748,15.239a.636.636,0,0,1-.635-.616L0,11.145a.636.636,0,0,1,.615-.656.643.643,0,0,1,.656.616l.112,3.478a.636.636,0,0,1-.615.656Z" transform="translate(0 1.275)" fill="#d44f4a"/>
    <path id="Trazado_139279" data-name="Trazado 139279" d="M5.548,14.205a.635.635,0,0,1-.636-.62L4.8,8.683a.637.637,0,0,1,.621-.651.629.629,0,0,1,.651.62l.112,4.9a.635.635,0,0,1-.621.649Z" transform="translate(0.584 0.976)" fill="#d44f4a"/>
    <path id="Trazado_139280" data-name="Trazado 139280" d="M10.267,13.569a.636.636,0,0,1-.636-.626l-.112-7.3a.636.636,0,0,1,.626-.646h.01a.636.636,0,0,1,.636.626l.112,7.3a.636.636,0,0,1-.626.646Z" transform="translate(1.158 0.607)" fill="#d44f4a"/>
    <path id="Trazado_139281" data-name="Trazado 139281" d="M14.13,16.3a.637.637,0,0,1-.637-.631L13.381,2.4a.637.637,0,0,1,1.273-.01l.111,13.27a.635.635,0,0,1-.63.64Z" transform="translate(1.627 0.214)" fill="#d44f4a"/>
    <path id="Trazado_139282" data-name="Trazado 139282" d="M34.655,15.239a.636.636,0,0,1-.635-.616l-.112-3.478a.636.636,0,0,1,.615-.656.642.642,0,0,1,.656.616l.112,3.478a.636.636,0,0,1-.615.656Z" transform="translate(4.124 1.275)" fill="#d44f4a"/>
    <path id="Trazado_139283" data-name="Trazado 139283" d="M29.855,14.205a.635.635,0,0,1-.636-.62l-.112-4.9a.637.637,0,0,1,.621-.651.624.624,0,0,1,.651.62l.112,4.9a.635.635,0,0,1-.621.649Z" transform="translate(3.54 0.976)" fill="#d44f4a"/>
    <path id="Trazado_139284" data-name="Trazado 139284" d="M25.136,13.569a.636.636,0,0,1-.636-.626l-.112-7.3a.636.636,0,0,1,.626-.646h.01a.636.636,0,0,1,.636.626l.112,7.3a.636.636,0,0,1-.626.646Z" transform="translate(2.966 0.607)" fill="#d44f4a"/>
    <path id="Trazado_139285" data-name="Trazado 139285" d="M21.274,16.3a.637.637,0,0,1-.636-.631L20.526,2.4A.636.636,0,0,1,21.8,2.39l.112,13.27a.635.635,0,0,1-.63.64Z" transform="translate(2.496 0.214)" fill="#d44f4a"/>
    <path id="Trazado_139286" data-name="Trazado 139286" d="M17.6,19.981a.635.635,0,0,1-.636-.633L16.854.647a.635.635,0,0,1,.633-.639c.308-.063.637.279.639.633l.112,18.7a.626.626,0,0,1-.636.639" transform="translate(2.05 0)" fill="#d44f4a"/>
  </g>
</svg>
