<svg id="Grupo_66742" data-name="Grupo 66742" xmlns="http://www.w3.org/2000/svg" xmlns:xlink="http://www.w3.org/1999/xlink" width="277.5" height="239.558" viewBox="0 0 277.5 239.558">
  <defs>
    <clipPath id="clip-path">
      <rect id="Rectángulo_8882" data-name="Rectángulo 8882" width="277.5" height="239.558" fill="none"/>
    </clipPath>
  </defs>
  <g id="Grupo_66741" data-name="Grupo 66741" clip-path="url(#clip-path)">
    <path id="Trazado_138382" data-name="Trazado 138382" d="M26.246,210.422a2.42,2.42,0,0,0-.537-1.659,5.348,5.348,0,0,0-1.924-1.189,12.4,12.4,0,0,1-4.068-2.16,4.276,4.276,0,0,1-1.363-3.379,4.455,4.455,0,0,1,1.556-3.518,5.831,5.831,0,0,1,3.971-1.357A5.8,5.8,0,0,1,28,198.608a4.913,4.913,0,0,1,1.508,3.886l-.024.073H26.174a3.086,3.086,0,0,0-.61-2.07,2.182,2.182,0,0,0-1.743-.705,1.881,1.881,0,0,0-1.521.646,2.418,2.418,0,0,0-.543,1.611,1.932,1.932,0,0,0,.616,1.472,8.2,8.2,0,0,0,2.112,1.267,9.829,9.829,0,0,1,3.855,2.137,4.66,4.66,0,0,1,1.309,3.476,4.4,4.4,0,0,1-1.532,3.548,6.1,6.1,0,0,1-4.067,1.291,6.7,6.7,0,0,1-4.272-1.394,4.914,4.914,0,0,1-1.713-4.241l.024-.073h3.318a3.441,3.441,0,0,0,.671,2.377,2.553,2.553,0,0,0,1.973.725,2.116,2.116,0,0,0,1.647-.6,2.294,2.294,0,0,0,.549-1.605" transform="translate(2.228 24.321)"/>
    <path id="Trazado_138383" data-name="Trazado 138383" d="M29.772,207.837a7.72,7.72,0,0,1,1.406-4.8,4.677,4.677,0,0,1,3.952-1.851,4.713,4.713,0,0,1,3.958,1.851,7.657,7.657,0,0,1,1.424,4.8v.277a7.629,7.629,0,0,1-1.418,4.785,4.7,4.7,0,0,1-3.941,1.839,4.719,4.719,0,0,1-3.97-1.833,7.639,7.639,0,0,1-1.412-4.791Zm3.393.277a7.6,7.6,0,0,0,.452,2.9,1.569,1.569,0,0,0,1.538,1.074,1.552,1.552,0,0,0,1.5-1.074,7.547,7.547,0,0,0,.458-2.9v-.277a7.61,7.61,0,0,0-.458-2.89,1.6,1.6,0,0,0-3.035.007,7.67,7.67,0,0,0-.452,2.884Z" transform="translate(3.673 24.817)"/>
    <path id="Trazado_138384" data-name="Trazado 138384" d="M44.1,201.43l.144,1.822a4.429,4.429,0,0,1,1.357-1.52,3.123,3.123,0,0,1,1.793-.544,3.061,3.061,0,0,1,2.613,1.3,6.973,6.973,0,0,1,.947,4.073v7.929h-3.4v-7.929a4.383,4.383,0,0,0-.356-2.08,1.168,1.168,0,0,0-1.08-.61,1.984,1.984,0,0,0-1.02.265,2.315,2.315,0,0,0-.766.748v9.606h-3.4V201.43Z" transform="translate(5.048 24.817)"/>
    <path id="Trazado_138385" data-name="Trazado 138385" d="M55.348,198.863h-3.4v-2.595h3.4Zm0,16.23h-3.4V202.036h3.4Z" transform="translate(6.408 24.211)"/>
    <path id="Trazado_138386" data-name="Trazado 138386" d="M56.736,208.637a9.445,9.445,0,0,1,1.147-4.96,3.6,3.6,0,0,1,3.245-1.882,2.738,2.738,0,0,1,1.419.374,3.736,3.736,0,0,1,1.128,1.062v-6.963h3.4v18.824H64.169l-.253-1.472a3.877,3.877,0,0,1-1.219,1.285,2.933,2.933,0,0,1-1.593.44,3.63,3.63,0,0,1-3.222-1.767,8.5,8.5,0,0,1-1.147-4.689Zm3.379.254a7.2,7.2,0,0,0,.435,2.783,1.481,1.481,0,0,0,1.436,1.007,1.876,1.876,0,0,0,.984-.258,1.993,1.993,0,0,0,.705-.767v-6a2.333,2.333,0,0,0-.712-.868,1.605,1.605,0,0,0-.965-.315,1.515,1.515,0,0,0-1.437,1.147,8.464,8.464,0,0,0-.446,3.016Z" transform="translate(6.999 24.211)"/>
    <path id="Trazado_138387" data-name="Trazado 138387" d="M67.6,207.837a7.72,7.72,0,0,1,1.406-4.8,5.15,5.15,0,0,1,7.91,0,7.657,7.657,0,0,1,1.424,4.8v.277a7.629,7.629,0,0,1-1.418,4.785,5.178,5.178,0,0,1-7.911.006,7.639,7.639,0,0,1-1.412-4.791Zm3.391.277a7.6,7.6,0,0,0,.453,2.9,1.569,1.569,0,0,0,1.538,1.074,1.55,1.55,0,0,0,1.5-1.074,7.523,7.523,0,0,0,.459-2.9v-.277a7.586,7.586,0,0,0-.459-2.89,1.6,1.6,0,0,0-3.034.007,7.668,7.668,0,0,0-.453,2.884Z" transform="translate(8.338 24.817)"/>
    <path id="Trazado_138388" data-name="Trazado 138388" d="M83.258,208.637a9.445,9.445,0,0,1,1.147-4.96A3.6,3.6,0,0,1,87.65,201.8a2.738,2.738,0,0,1,1.419.374,3.736,3.736,0,0,1,1.128,1.062v-6.963h3.4v18.824H90.691l-.253-1.472a3.877,3.877,0,0,1-1.219,1.285,2.933,2.933,0,0,1-1.593.44A3.63,3.63,0,0,1,84.4,213.58a8.5,8.5,0,0,1-1.147-4.689Zm3.379.254a7.2,7.2,0,0,0,.435,2.783,1.481,1.481,0,0,0,1.436,1.007,1.876,1.876,0,0,0,.984-.258,1.993,1.993,0,0,0,.705-.767v-6a2.333,2.333,0,0,0-.712-.868,1.605,1.605,0,0,0-.965-.315,1.515,1.515,0,0,0-1.437,1.147,8.464,8.464,0,0,0-.446,3.016Z" transform="translate(10.27 24.211)"/>
    <path id="Trazado_138389" data-name="Trazado 138389" d="M99.538,215.326a4.835,4.835,0,0,1-4.007-1.785,7.148,7.148,0,0,1-1.423-4.6v-.5a7.912,7.912,0,0,1,1.369-4.815,4.513,4.513,0,0,1,3.855-1.858,4.213,4.213,0,0,1,3.535,1.581,6.816,6.816,0,0,1,1.231,4.3v1.859H97.511a4.583,4.583,0,0,0,.657,2.3,1.978,1.978,0,0,0,1.768.857,5.2,5.2,0,0,0,1.7-.236,6.793,6.793,0,0,0,1.467-.741l.881,2.124a5.648,5.648,0,0,1-1.888,1.074,7.377,7.377,0,0,1-2.552.434m.024-18.9h3.789l.036.072-3.041,3.138H97.4Zm-.229,8.012a1.362,1.362,0,0,0-1.273.754,5.233,5.233,0,0,0-.526,2.07h3.234v-.3a4.227,4.227,0,0,0-.331-1.858,1.143,1.143,0,0,0-1.1-.664" transform="translate(11.609 24.231)"/>
    <path id="Trazado_138390" data-name="Trazado 138390" d="M114.914,208.891A8.672,8.672,0,0,1,113.8,213.6a3.635,3.635,0,0,1-3.264,1.75,3.018,3.018,0,0,1-1.641-.44,3.7,3.7,0,0,1-1.2-1.274l-.229,1.46h-2.907V196.268h3.39v6.927a3.4,3.4,0,0,1,1.11-1.038,2.924,2.924,0,0,1,1.46-.362,3.6,3.6,0,0,1,3.277,1.858,9.64,9.64,0,0,1,1.115,4.984Zm-3.4-.254a9.347,9.347,0,0,0-.4-3.066,1.467,1.467,0,0,0-1.46-1.1,1.733,1.733,0,0,0-1.02.3,2.082,2.082,0,0,0-.682.845v6.071a1.755,1.755,0,0,0,.676.741,2.016,2.016,0,0,0,1.037.248,1.44,1.44,0,0,0,1.46-.966,7.961,7.961,0,0,0,.386-2.823Z" transform="translate(12.898 24.211)"/>
    <path id="Trazado_138391" data-name="Trazado 138391" d="M118.931,198.863h-3.4v-2.595h3.4Zm0,16.23h-3.4V202.036h3.4Z" transform="translate(14.251 24.211)"/>
    <rect id="Rectángulo_8877" data-name="Rectángulo 8877" width="3.403" height="18.825" transform="translate(135.776 220.479)"/>
    <path id="Trazado_138392" data-name="Trazado 138392" d="M76.575,131.5c-.588,0-.951-.027-1.039-.034-25.459-2.3-28.043-28.5-28.221-30.821l-9.14-40.723c-3.76-21.047-8.3-24.695-8.343-24.728l-.2-.128-.094-.134c-10.761-12-27.907-4-28.079-3.918L0,27.972c.194-.093,19.5-9.094,31.935,4.59,1.227.993,5.845,5.981,9.544,26.694l9.19,41.056c.055,1.047,1.605,25.665,25.16,27.794.536.049,13.544.9,22.154-12.575,0,0,2.285-4.12,4.2-17.528,2.01-14.07,10.777-51.153,11.149-52.725.073-.267,6.044-21.3,26.291-21.517,20.229-.233,26.826,18.75,26.891,18.941l.037.129,5.46,21.838,9.713,41.68c.216.807,5.765,20.879,23.785,20.335,18.082-.559,22.323-14.372,22.5-14.96l3.822-16.1,10.912-49.513c.127-.618,3.358-15.7,15.631-19.624.968-.388,10.182-3.938,17.539-1.206l-1.174,3.16c-6.36-2.366-15.063,1.156-15.15,1.191l-.135.049c-10.461,3.3-13.387,16.994-13.416,17.132L235.109,96.38l-3.849,16.2c-.066.242-5.044,16.833-25.65,17.47-20.691.636-27.1-22.655-27.158-22.889l-9.718-41.7L163.3,43.723c-.44-1.25-6.32-16.8-23.641-16.59-17.678.186-22.85,18.214-23.061,18.98-.076.327-9.09,38.45-11.079,52.366-2.047,14.326-4.565,18.65-4.672,18.826-8.4,13.157-20.633,14.194-24.272,14.194" transform="translate(0 2.931)" fill="#e52a1b"/>
    <rect id="Rectángulo_8878" data-name="Rectángulo 8878" width="276.346" height="1.123" transform="translate(0.727 81.605)"/>
    <rect id="Rectángulo_8879" data-name="Rectángulo 8879" width="276.346" height="1.123" transform="translate(0.727 168.417)"/>
    <rect id="Rectángulo_8880" data-name="Rectángulo 8880" width="32.976" height="1.123" transform="matrix(0.809, -0.588, 0.588, 0.809, 179.297, 47.312)"/>
    <path id="Trazado_138393" data-name="Trazado 138393" d="M158.65,37.631,154.1,47.864l11.14-1.173Z" transform="translate(19.009 4.642)"/>
    <rect id="Rectángulo_8881" data-name="Rectángulo 8881" width="32.975" height="1.122" transform="matrix(0.733, -0.681, 0.681, 0.733, 116.259, 215.897)"/>
    <path id="Trazado_138394" data-name="Trazado 138394" d="M128.5,178.408l3.3-10.7-10.921,2.49Z" transform="translate(14.912 20.687)"/>
    <path id="Trazado_138395" data-name="Trazado 138395" d="M105.045,14.379a2.42,2.42,0,0,0-.537-1.659,5.348,5.348,0,0,0-1.924-1.189,12.4,12.4,0,0,1-4.068-2.16,4.276,4.276,0,0,1-1.363-3.379,4.455,4.455,0,0,1,1.556-3.518,6.53,6.53,0,0,1,8.086.091A4.913,4.913,0,0,1,108.3,6.451l-.024.073h-3.306a3.086,3.086,0,0,0-.61-2.07,2.182,2.182,0,0,0-1.743-.705,1.881,1.881,0,0,0-1.521.646A2.418,2.418,0,0,0,100.556,6a1.932,1.932,0,0,0,.616,1.472,8.2,8.2,0,0,0,2.112,1.267,9.829,9.829,0,0,1,3.855,2.137,4.66,4.66,0,0,1,1.309,3.476,4.4,4.4,0,0,1-1.532,3.548,6.1,6.1,0,0,1-4.067,1.291A6.7,6.7,0,0,1,98.576,17.8a4.914,4.914,0,0,1-1.713-4.241l.024-.073h3.318a3.441,3.441,0,0,0,.671,2.377,2.553,2.553,0,0,0,1.973.725,2.116,2.116,0,0,0,1.647-.6,2.294,2.294,0,0,0,.549-1.605" transform="translate(11.948 0.138)"/>
    <path id="Trazado_138396" data-name="Trazado 138396" d="M108.572,11.8A7.72,7.72,0,0,1,109.978,7a5.15,5.15,0,0,1,7.91,0,7.656,7.656,0,0,1,1.424,4.8v.277a7.629,7.629,0,0,1-1.418,4.785,5.178,5.178,0,0,1-7.911.006,7.638,7.638,0,0,1-1.412-4.791Zm3.391.277a7.6,7.6,0,0,0,.453,2.9,1.569,1.569,0,0,0,1.538,1.074,1.55,1.55,0,0,0,1.5-1.074,7.523,7.523,0,0,0,.459-2.9V11.8a7.586,7.586,0,0,0-.459-2.89,1.6,1.6,0,0,0-3.034.007,7.667,7.667,0,0,0-.453,2.884Z" transform="translate(13.393 0.635)"/>
    <path id="Trazado_138397" data-name="Trazado 138397" d="M122.9,5.387l.145,1.822a4.429,4.429,0,0,1,1.357-1.52,3.121,3.121,0,0,1,1.793-.544,3.057,3.057,0,0,1,2.612,1.3,6.973,6.973,0,0,1,.948,4.073v7.929h-3.4V10.515a4.383,4.383,0,0,0-.356-2.08,1.168,1.168,0,0,0-1.08-.61,1.984,1.984,0,0,0-1.02.265,2.3,2.3,0,0,0-.766.748v9.606h-3.4V5.387Z" transform="translate(14.768 0.635)"/>
    <path id="Trazado_138398" data-name="Trazado 138398" d="M134.147,2.82h-3.4V.225h3.4Zm0,16.23h-3.4V5.993h3.4Z" transform="translate(16.128 0.028)"/>
    <path id="Trazado_138399" data-name="Trazado 138399" d="M135.535,12.594a9.445,9.445,0,0,1,1.147-4.96,3.6,3.6,0,0,1,3.245-1.882,2.738,2.738,0,0,1,1.419.374,3.736,3.736,0,0,1,1.128,1.062V.226h3.4V19.05h-2.908l-.253-1.472a3.877,3.877,0,0,1-1.219,1.285,2.933,2.933,0,0,1-1.593.44,3.63,3.63,0,0,1-3.222-1.767,8.505,8.505,0,0,1-1.147-4.689Zm3.379.254a7.2,7.2,0,0,0,.435,2.783,1.481,1.481,0,0,0,1.436,1.007,1.876,1.876,0,0,0,.984-.258,1.994,1.994,0,0,0,.705-.767v-6a2.333,2.333,0,0,0-.712-.868,1.6,1.6,0,0,0-.965-.315,1.515,1.515,0,0,0-1.437,1.147,8.464,8.464,0,0,0-.446,3.016Z" transform="translate(16.719 0.028)"/>
    <path id="Trazado_138400" data-name="Trazado 138400" d="M146.4,11.8A7.72,7.72,0,0,1,147.8,7a5.15,5.15,0,0,1,7.91,0,7.657,7.657,0,0,1,1.424,4.8v.277a7.629,7.629,0,0,1-1.418,4.785,5.178,5.178,0,0,1-7.911.006,7.638,7.638,0,0,1-1.412-4.791Zm3.391.277a7.6,7.6,0,0,0,.453,2.9,1.569,1.569,0,0,0,1.538,1.074,1.55,1.55,0,0,0,1.5-1.074,7.523,7.523,0,0,0,.459-2.9V11.8a7.586,7.586,0,0,0-.459-2.89,1.6,1.6,0,0,0-3.034.007,7.667,7.667,0,0,0-.453,2.884Z" transform="translate(18.058 0.635)"/>
    <path id="Trazado_138401" data-name="Trazado 138401" d="M163.332,19.078V8.447H161.7V6.021h1.629V4.548a4.656,4.656,0,0,1,1.14-3.367A4.258,4.258,0,0,1,167.688,0a4.763,4.763,0,0,1,.8.066c.265.044.571.107.917.186l-.265,2.559c-.169-.042-.33-.073-.483-.1a3.447,3.447,0,0,0-.543-.037,1.183,1.183,0,0,0-1.026.489,2.345,2.345,0,0,0-.35,1.382V6.021h2.1V8.447h-2.1V19.078Z" transform="translate(19.947)"/>
    <path id="Trazado_138402" data-name="Trazado 138402" d="M176.122,16.559a4.205,4.205,0,0,1-1.3,1.563,3.049,3.049,0,0,1-1.8.549,3.219,3.219,0,0,1-2.769-1.412,7.581,7.581,0,0,1-1.008-4.369V5.36h3.4v7.555a5.873,5.873,0,0,0,.344,2.42,1.14,1.14,0,0,0,1.081.67,2.3,2.3,0,0,0,1.038-.224,2.077,2.077,0,0,0,.759-.657V5.36h3.415V18.417H176.5Z" transform="translate(20.877 0.661)"/>
    <path id="Trazado_138403" data-name="Trazado 138403" d="M185.191,18.7a4.834,4.834,0,0,1-4.007-1.785,7.148,7.148,0,0,1-1.423-4.6v-.5A7.912,7.912,0,0,1,181.13,7a4.513,4.513,0,0,1,3.855-1.858,4.213,4.213,0,0,1,3.535,1.581,6.817,6.817,0,0,1,1.231,4.3v1.859h-6.588a4.583,4.583,0,0,0,.657,2.3,1.978,1.978,0,0,0,1.768.857,5.2,5.2,0,0,0,1.7-.236,6.793,6.793,0,0,0,1.467-.741l.881,2.124a5.648,5.648,0,0,1-1.888,1.074,7.377,7.377,0,0,1-2.552.434m-.206-10.884a1.362,1.362,0,0,0-1.273.754,5.233,5.233,0,0,0-.526,2.07h3.234v-.3a4.227,4.227,0,0,0-.331-1.858,1.143,1.143,0,0,0-1.1-.664" transform="translate(22.174 0.635)"/>
    <path id="Trazado_138404" data-name="Trazado 138404" d="M196.295,8.332,195.137,8.3a1.485,1.485,0,0,0-.948.3,1.917,1.917,0,0,0-.585.845v9h-3.39V5.388h3.173l.133,1.846a4.046,4.046,0,0,1,.959-1.539,1.913,1.913,0,0,1,1.346-.548,2.063,2.063,0,0,1,.422.042c.129.029.262.063.4.1Z" transform="translate(23.464 0.635)"/>
    <path id="Trazado_138405" data-name="Trazado 138405" d="M201.33,2.471V5.717H203.1V8.143H201.33v6.649a2.168,2.168,0,0,0,.242,1.183.762.762,0,0,0,.664.349,2.269,2.269,0,0,0,.4-.029,3.9,3.9,0,0,0,.386-.1l.265,2.51a5.912,5.912,0,0,1-.923.248,5.767,5.767,0,0,1-1,.078,3.209,3.209,0,0,1-2.552-1.013,4.787,4.787,0,0,1-.886-3.2V8.143h-1.582V5.717h1.582V2.471Z" transform="translate(24.22 0.305)"/>
    <path id="Trazado_138406" data-name="Trazado 138406" d="M209.1,18.7a4.834,4.834,0,0,1-4.007-1.785,7.148,7.148,0,0,1-1.423-4.6v-.5A7.912,7.912,0,0,1,205.042,7,4.513,4.513,0,0,1,208.9,5.146a4.213,4.213,0,0,1,3.535,1.581,6.817,6.817,0,0,1,1.231,4.3v1.859h-6.588a4.583,4.583,0,0,0,.657,2.3,1.978,1.978,0,0,0,1.768.857,5.2,5.2,0,0,0,1.7-.236,6.792,6.792,0,0,0,1.467-.741l.881,2.124a5.648,5.648,0,0,1-1.888,1.074,7.377,7.377,0,0,1-2.552.434M208.9,7.813a1.362,1.362,0,0,0-1.273.754,5.233,5.233,0,0,0-.526,2.07h3.234v-.3A4.228,4.228,0,0,0,210,8.477a1.143,1.143,0,0,0-1.1-.664" transform="translate(25.124 0.635)"/>
    <path id="Trazado_138407" data-name="Trazado 138407" d="M257.322,172.034A25.458,25.458,0,0,1,235.857,160.7l-4.332-7.373c-4.2-9.171-9.789-15.292-23.519-15.059a23.926,23.926,0,0,0-13.989,4.49,19.767,19.767,0,0,0-6.976,9.477c-.737,2.065-1.545,4.045-2.4,5.885-2.411,5.187-10.838,12.905-24.175,12.905-13.3,0-21.756-10.281-24.367-15.717-2.285-4.759-4.739-8.693-4.764-8.732a24.6,24.6,0,0,0-20.2-10.608,23.3,23.3,0,0,0-10.425,2.584,25.924,25.924,0,0,0-11.3,11.58,69.8,69.8,0,0,1-4.391,7.414c-3.756,5.544-9.561,11.337-24.138,12.263a21.655,21.655,0,0,1-19.963-9.73s-3.485-5.338-8.3-13.762c-4.587-8.025-9.09-9.708-16.859-10.276a32.165,32.165,0,0,0-14.326,2.474L.008,135.46a35.322,35.322,0,0,1,16.006-2.784c8.6.629,14.258,2.723,19.54,11.966,4.766,8.343,8.2,13.611,8.236,13.662a18.312,18.312,0,0,0,16.884,8.138c13.088-.83,18.1-5.675,21.561-10.788a66.429,66.429,0,0,0,4.179-7.054A29.251,29.251,0,0,1,99.2,135.543a26.618,26.618,0,0,1,11.921-2.947h.189c15.064,0,22.572,11.69,22.885,12.19a102.179,102.179,0,0,1,4.946,9.063c2.293,4.775,9.7,13.8,21.329,13.8,11.676,0,19.15-6.72,21.119-10.955.811-1.747,1.579-3.631,2.282-5.6a23.13,23.13,0,0,1,8.176-11.076,27.241,27.241,0,0,1,15.919-5.128c.2,0,.41,0,.611,0,15.986,0,22.114,8.539,25.98,16.948l4.2,7.139a22.08,22.08,0,0,0,18.567,9.684c12.6,0,17.249-6.12,17.44-6.381l2.737,1.968c-.227.317-5.726,7.783-20.177,7.783" transform="translate(0.001 16.356)" fill="#e52a1b"/>
  </g>
</svg>
