<svg id="Grupo_66997" data-name="Grupo 66997" xmlns="http://www.w3.org/2000/svg" xmlns:xlink="http://www.w3.org/1999/xlink" width="505" height="292.817" viewBox="0 0 505 292.817">
  <defs>
    <clipPath id="clip-path">
      <rect id="Rectángulo_9264" data-name="Rectángulo 9264" width="505" height="292.817" fill="none"/>
    </clipPath>
    <clipPath id="clip-path-3">
      <rect id="Rectángulo_9178" data-name="Rectángulo 9178" width="39.664" height="7.371" fill="none"/>
    </clipPath>
    <clipPath id="clip-path-4">
      <rect id="Rectángulo_9232" data-name="Rectángulo 9232" width="76.672" height="56.13" fill="none"/>
    </clipPath>
    <clipPath id="clip-path-5">
      <rect id="Rectángulo_9234" data-name="Rectángulo 9234" width="59.369" height="43.463" fill="none"/>
    </clipPath>
    <clipPath id="clip-path-6">
      <rect id="Rectángulo_9236" data-name="Rectángulo 9236" width="54.675" height="47.292" fill="none"/>
    </clipPath>
  </defs>
  <g id="Grupo_67011" data-name="Grupo 67011" clip-path="url(#clip-path)">
    <g id="Grupo_67010" data-name="Grupo 67010">
      <g id="Grupo_67009" data-name="Grupo 67009" clip-path="url(#clip-path)">
        <path id="Trazado_139710" data-name="Trazado 139710" d="M332.338,7.372c75.727,0,137.115,62.583,137.115,139.784S408.064,286.94,332.338,286.94,195.223,224.356,195.223,147.156,256.611,7.372,332.338,7.372" transform="translate(-10.615 -0.401)" fill="#efe3da"/>
        <path id="Trazado_139711" data-name="Trazado 139711" d="M188.76,45.644A124.827,124.827,0,1,1,63.932,170.471,124.828,124.828,0,0,1,188.76,45.644" transform="translate(-3.476 -2.482)" fill="#efe3da"/>
        <path id="Trazado_139712" data-name="Trazado 139712" d="M469.5,164.621c2.169,5.1,7.613,7.663,7.613,7.663s1.927-5.7-.242-10.8-7.613-7.662-7.613-7.662-1.927,5.7.242,10.8" transform="translate(-25.473 -8.364)" fill="#bfa586"/>
        <path id="Trazado_139713" data-name="Trazado 139713" d="M457.309,188.113c2.984,4.669,8.778,6.3,8.778,6.3s.955-5.941-2.029-10.61-8.778-6.3-8.778-6.3-.955,5.941,2.029,10.61" transform="translate(-24.748 -9.652)" fill="#bfa586"/>
        <path id="Trazado_139714" data-name="Trazado 139714" d="M492.634,148.84c-3.829,4-4.039,10.019-4.039,10.019s6-.478,9.829-4.482,4.038-10.019,4.038-10.019-6,.478-9.828,4.482" transform="translate(-26.567 -7.849)" fill="#bfa586"/>
        <path id="Trazado_139715" data-name="Trazado 139715" d="M487.349,169.258c-5.54.068-9.982,4.129-9.982,4.129s4.541,3.95,10.08,3.882,9.982-4.129,9.982-4.129-4.54-3.95-10.08-3.882" transform="translate(-25.957 -9.203)" fill="#bfa586"/>
        <path id="Trazado_139716" data-name="Trazado 139716" d="M476.749,190.88c-5.54.068-9.982,4.129-9.982,4.129s4.541,3.95,10.08,3.882,9.982-4.129,9.982-4.129-4.54-3.95-10.08-3.882" transform="translate(-25.38 -10.379)" fill="#bfa586"/>
        <path id="Trazado_139717" data-name="Trazado 139717" d="M455.818,236.95l1.128.046a152.974,152.974,0,0,1,4.955-29.637,130.158,130.158,0,0,1,9.957-26.234,84.615,84.615,0,0,1,18.252-24.242l-.754-.84A85.724,85.724,0,0,0,470.85,180.62,131.242,131.242,0,0,0,460.8,207.095a154.205,154.205,0,0,0-4.986,29.855" transform="translate(-24.785 -8.485)" fill="#bfa586"/>
        <path id="Trazado_139718" data-name="Trazado 139718" d="M504,195.7c.325,4.3,3.695,7.544,3.695,7.544s2.843-3.718,2.517-8.014-3.695-7.544-3.695-7.544S503.675,191.4,504,195.7" transform="translate(-27.403 -10.205)" fill="#bfa586"/>
        <path id="Trazado_139719" data-name="Trazado 139719" d="M489.2,209.947c1.033,4.183,4.895,6.827,4.895,6.827s2.186-4.138,1.153-8.321-4.894-6.827-4.894-6.827-2.186,4.138-1.154,8.321" transform="translate(-26.585 -10.963)" fill="#bfa586"/>
        <path id="Trazado_139720" data-name="Trazado 139720" d="M524.885,190.016c-3.819,1.993-5.475,6.371-5.475,6.371s4.538,1.145,8.357-.848,5.475-6.371,5.475-6.371-4.538-1.145-8.357.848" transform="translate(-28.243 -10.268)" fill="#bfa586"/>
        <path id="Trazado_139721" data-name="Trazado 139721" d="M516.046,203.671c-4.1-1.332-8.382.549-8.382.549s2.358,4.043,6.456,5.375,8.382-.549,8.382-.549-2.358-4.043-6.456-5.375" transform="translate(-27.604 -11.049)" fill="#bfa586"/>
        <path id="Trazado_139722" data-name="Trazado 139722" d="M502.843,216.951c-4.1-1.332-8.382.549-8.382.549s2.358,4.043,6.456,5.375,8.382-.549,8.382-.549-2.358-4.043-6.456-5.375" transform="translate(-26.886 -11.771)" fill="#bfa586"/>
        <path id="Trazado_139723" data-name="Trazado 139723" d="M474.828,246.023l.819.315a119.041,119.041,0,0,1,11.047-20.59,101.182,101.182,0,0,1,13.88-16.836,65.821,65.821,0,0,1,19.493-13.3l-.346-.807a66.688,66.688,0,0,0-19.764,13.483,102.088,102.088,0,0,0-14.006,16.991,119.906,119.906,0,0,0-11.123,20.744" transform="translate(-25.819 -10.592)" fill="#bfa586"/>
        <path id="Trazado_139724" data-name="Trazado 139724" d="M426.443,275.426H102.954a10.058,10.058,0,1,1,0-20.115H426.443a10.058,10.058,0,0,1,0,20.115" transform="translate(-5.051 -13.882)" fill="#d0d2db"/>
        <path id="Trazado_139725" data-name="Trazado 139725" d="M126.358,210.041a34.5,34.5,0,0,0-9.536,6.191c-.049-.137-.1-.273-.149-.41-1.286-3.517-2.837-7.452-4.669-11.653a34.469,34.469,0,0,0,10.346-5.3,34.006,34.006,0,0,0,8.321-9.42,34,34,0,0,0-11.27,5.564,34.5,34.5,0,0,0-7.716,8.428c-1.532-3.476-3.258-7.125-5.188-10.866a34.5,34.5,0,0,0,8.579-7.727,34.011,34.011,0,0,0,5.636-11.235,34.01,34.01,0,0,0-9.473,8.261,34.506,34.506,0,0,0-5.2,9.811c-1.946-3.723-4.1-7.529-6.462-11.335a34.537,34.537,0,0,0,7.31-8.952,34,34,0,0,0,3.855-11.963,34.006,34.006,0,0,0-8.1,9.609,34.479,34.479,0,0,0-3.629,10.4c-1.61-2.556-3.318-5.109-5.127-7.635a34.5,34.5,0,0,0,3.37-11.025,34.025,34.025,0,0,0-.952-12.533,32.431,32.431,0,0,0-3.468,22.113q-1.935-2.631-4.017-5.209a34.27,34.27,0,0,0-4.962-8.886,34,34,0,0,0-9.54-8.182,32.43,32.43,0,0,0,13.146,18.046q2.159,2.658,4.151,5.388a34.465,34.465,0,0,0-10.9-1.315,33.989,33.989,0,0,0-12.2,3.04,34.012,34.012,0,0,0,12.438,1.809,34.5,34.5,0,0,0,11.313-2.64c1.825,2.531,3.544,5.092,5.167,7.657a34.5,34.5,0,0,0-11.279,1.891,34.011,34.011,0,0,0-10.8,6.433,34.024,34.024,0,0,0,12.431-1.86,34.475,34.475,0,0,0,10.069-5.8c2.443,3.9,4.656,7.806,6.655,11.625a34.49,34.49,0,0,0-11.341.895,34.01,34.01,0,0,0-11.325,5.453,34.017,34.017,0,0,0,12.547-.756,34.47,34.47,0,0,0,10.5-4.857c1.955,3.775,3.7,7.458,5.246,10.965a34.478,34.478,0,0,0-11.3.492A34.014,34.014,0,0,0,87.318,209.6a34,34,0,0,0,12.565-.3,34.5,34.5,0,0,0,10.6-4.432c1.806,4.143,3.336,8.026,4.607,11.5.063.173.126.346.189.518a34.371,34.371,0,0,0-12.081,1.877,34.009,34.009,0,0,0-10.8,6.433,34.022,34.022,0,0,0,12.431-1.86,34.376,34.376,0,0,0,10.54-6.2,181.343,181.343,0,0,1,7.176,24.714l1.64-.312a182.163,182.163,0,0,0-7.073-24.487,34.463,34.463,0,0,0,11.133-2.533,33.987,33.987,0,0,0,10.412-7.039,34,34,0,0,0-12.3,2.568" transform="translate(-3.725 -8.052)" fill="#bfa586"/>
        <path id="Trazado_139726" data-name="Trazado 139726" d="M85.732,224.147a20.713,20.713,0,0,0-4.421,5.209l-.157-.21c-1.348-1.8-2.919-3.8-4.7-5.9a20.721,20.721,0,0,0,5.041-4.837,20.428,20.428,0,0,0,3.165-6.859,20.436,20.436,0,0,0-5.528,5.148,20.738,20.738,0,0,0-2.987,6.183c-1.483-1.736-3.105-3.539-4.862-5.36a20.743,20.743,0,0,0,3.606-5.928,20.445,20.445,0,0,0,1.3-7.441,20.446,20.446,0,0,0-4.027,6.391,20.7,20.7,0,0,0-1.3,6.547c-1.764-1.808-3.659-3.627-5.678-5.411a20.739,20.739,0,0,0,2.663-6.415,20.441,20.441,0,0,0,.155-7.553A20.46,20.46,0,0,0,65,204.64a20.694,20.694,0,0,0-.293,6.615c-1.369-1.193-2.792-2.369-4.27-3.511a20.752,20.752,0,0,0,.037-6.929,20.44,20.44,0,0,0-2.711-7.051,19.489,19.489,0,0,0,1.819,13.329q-1.567-1.182-3.211-2.305a19.484,19.484,0,0,0-11.295-7.323,19.486,19.486,0,0,0,10.683,8.12q1.7,1.157,3.32,2.385a20.733,20.733,0,0,0-6.5,1.124,20.449,20.449,0,0,0-6.5,3.855,20.456,20.456,0,0,0,7.473-1.105,20.732,20.732,0,0,0,6.057-3.472c1.487,1.142,2.919,2.32,4.3,3.516a20.74,20.74,0,0,0-6.166,3.035,20.425,20.425,0,0,0-5.106,5.567,20.43,20.43,0,0,0,6.835-3.216,20.729,20.729,0,0,0,4.8-5.075c2.079,1.824,4.027,3.69,5.838,5.543a20.732,20.732,0,0,0-6.375,2.472,20.426,20.426,0,0,0-5.577,5.1,20.44,20.44,0,0,0,7.092-2.6,20.755,20.755,0,0,0,5.207-4.608c1.777,1.835,3.417,3.655,4.913,5.406a20.743,20.743,0,0,0-6.424,2.234,20.43,20.43,0,0,0-5.758,4.89,20.428,20.428,0,0,0,7.181-2.342,20.756,20.756,0,0,0,5.34-4.382c1.755,2.073,3.306,4.044,4.636,5.824l.2.266a20.652,20.652,0,0,0-6.632,3.166,20.444,20.444,0,0,0-5.106,5.567,20.452,20.452,0,0,0,6.836-3.217,20.66,20.66,0,0,0,5-5.387,108.853,108.853,0,0,1,8.4,12.989l.891-.463a109.614,109.614,0,0,0-8.3-12.876,20.74,20.74,0,0,0,5.972-3.38,20.441,20.441,0,0,0,4.78-5.85,20.441,20.441,0,0,0-6.64,3.6" transform="translate(-2.451 -10.536)" fill="#bfa586"/>
        <path id="Trazado_139727" data-name="Trazado 139727" d="M92.587,239.518A23.492,23.492,0,0,0,70,256.544h45.167a23.492,23.492,0,0,0-22.583-17.026" transform="translate(-3.806 -13.024)" fill="#bfa586"/>
        <path id="Trazado_139728" data-name="Trazado 139728" d="M65.041,245.1a16.213,16.213,0,0,0-15.585,11.749h31.17A16.213,16.213,0,0,0,65.041,245.1" transform="translate(-2.689 -13.327)" fill="#bfa586"/>
        <path id="Trazado_139729" data-name="Trazado 139729" d="M101.461,256.469c3.034-10.5,15.054-18.337,29.423-18.337s26.39,7.84,29.423,18.337Z" transform="translate(-5.517 -12.948)" fill="#bfa586"/>
        <path id="Trazado_139730" data-name="Trazado 139730" d="M434.5,124.815a8.361,8.361,0,0,0-8.038,6.06h16.076a8.361,8.361,0,0,0-8.038-6.06" transform="translate(-23.189 -6.787)" fill="#998368"/>
        <path id="Trazado_139731" data-name="Trazado 139731" d="M475.719,121.783a12.319,12.319,0,0,0-11.841,8.927H487.56a12.319,12.319,0,0,0-11.841-8.927" transform="translate(-25.223 -6.622)" fill="#998368"/>
        <path id="Trazado_139732" data-name="Trazado 139732" d="M437.539,130.592c1.816-6.283,9.011-10.976,17.611-10.976s15.8,4.693,17.612,10.976Z" transform="translate(-23.791 -6.504)" fill="#998368"/>
        <path id="Trazado_139733" data-name="Trazado 139733" d="M155,62.651a20.093,20.093,0,0,1,19.315,14.562H135.681A20.093,20.093,0,0,1,155,62.651" transform="translate(-7.378 -3.407)" fill="#6bbcb1"/>
        <path id="Trazado_139734" data-name="Trazado 139734" d="M54.908,55.366A29.6,29.6,0,0,1,83.362,76.817H26.454A29.6,29.6,0,0,1,54.908,55.366" transform="translate(-1.438 -3.011)" fill="#6bbcb1"/>
        <path id="Trazado_139735" data-name="Trazado 139735" d="M145.059,76.534c-4.363-15.1-21.653-26.374-42.321-26.374S64.782,61.437,60.418,76.534Z" transform="translate(-3.285 -2.727)" fill="#6bbcb1"/>
        <path id="Trazado_139736" data-name="Trazado 139736" d="M189.571,42.548a4.1,4.1,0,0,0-3.941,2.971h7.883a4.1,4.1,0,0,0-3.941-2.971" transform="translate(-10.094 -2.314)" fill="#6f728a"/>
        <path id="Trazado_139737" data-name="Trazado 139737" d="M209.778,41.061a6.039,6.039,0,0,0-5.805,4.377h11.61a6.039,6.039,0,0,0-5.805-4.377" transform="translate(-11.091 -2.233)" fill="#6f728a"/>
        <path id="Trazado_139738" data-name="Trazado 139738" d="M191.059,45.381c.89-3.081,4.418-5.382,8.634-5.382s7.745,2.3,8.635,5.382Z" transform="translate(-10.389 -2.175)" fill="#6f728a"/>
        <path id="Trazado_139739" data-name="Trazado 139739" d="M63.862,76.225a9.982,9.982,0,0,1,9.6,7.235H54.266a9.982,9.982,0,0,1,9.6-7.235" transform="translate(-2.951 -4.145)" fill="#fff"/>
        <path id="Trazado_139740" data-name="Trazado 139740" d="M14.136,72.606A14.706,14.706,0,0,1,28.272,83.263H0A14.706,14.706,0,0,1,14.136,72.606" transform="translate(0 -3.948)" fill="#fff"/>
        <path id="Trazado_139741" data-name="Trazado 139741" d="M58.926,83.123c-2.167-7.5-10.757-13.1-21.026-13.1s-18.858,5.6-21.025,13.1Z" transform="translate(-0.918 -3.807)" fill="#fff"/>
        <g id="Grupo_66999" data-name="Grupo 66999" transform="translate(249.363 87.847)" opacity="0.3">
          <g id="Grupo_66998" data-name="Grupo 66998">
            <g id="Grupo_66997-2" data-name="Grupo 66997" clip-path="url(#clip-path-3)">
              <path id="Trazado_139742" data-name="Trazado 139742" d="M299.628,96.389a5.616,5.616,0,0,1,5.4,4.07h-10.8a5.616,5.616,0,0,1,5.4-4.07" transform="translate(-265.362 -93.088)" fill="#6f728a"/>
              <path id="Trazado_139743" data-name="Trazado 139743" d="M271.655,94.353a8.272,8.272,0,0,1,7.952,6H263.7a8.272,8.272,0,0,1,7.953-6" transform="translate(-263.702 -92.977)" fill="#6f728a"/>
              <path id="Trazado_139744" data-name="Trazado 139744" d="M296.851,100.269c-1.22-4.219-6.052-7.371-11.828-7.371s-10.609,3.152-11.829,7.371Z" transform="translate(-264.218 -92.898)" fill="#6f728a"/>
            </g>
          </g>
        </g>
        <path id="Trazado_139745" data-name="Trazado 139745" d="M359.5,71.857a7.784,7.784,0,0,1,7.483,5.641H352.021a7.783,7.783,0,0,1,7.483-5.641" transform="translate(-19.141 -3.907)" fill="#fff"/>
        <path id="Trazado_139746" data-name="Trazado 139746" d="M320.73,69.035a11.465,11.465,0,0,1,11.022,8.31H309.708a11.465,11.465,0,0,1,11.022-8.31" transform="translate(-16.84 -3.754)" fill="#fff"/>
        <path id="Trazado_139747" data-name="Trazado 139747" d="M355.654,77.235c-1.69-5.849-8.388-10.217-16.394-10.217s-14.7,4.368-16.394,10.217Z" transform="translate(-17.556 -3.644)" fill="#fff"/>
        <path id="Trazado_139748" data-name="Trazado 139748" d="M118.154,254.459a7.274,7.274,0,0,1,6.992,5.271H111.162a7.274,7.274,0,0,1,6.992-5.271" transform="translate(-6.044 -13.836)" fill="#897459"/>
        <path id="Trazado_139749" data-name="Trazado 139749" d="M81.924,251.822a10.715,10.715,0,0,1,10.3,7.765h-20.6a10.715,10.715,0,0,1,10.3-7.765" transform="translate(-3.895 -13.693)" fill="#897459"/>
        <path id="Trazado_139750" data-name="Trazado 139750" d="M114.557,259.484c-1.579-5.465-7.838-9.547-15.319-9.547S85.5,254.019,83.92,259.484Z" transform="translate(-4.563 -13.59)" fill="#897459"/>
        <path id="Trazado_139751" data-name="Trazado 139751" d="M349.6,241.512a25.105,25.105,0,0,0-24.134,18.195h48.268A25.1,25.1,0,0,0,349.6,241.512" transform="translate(-17.697 -13.132)" fill="#bfa586"/>
        <path id="Trazado_139752" data-name="Trazado 139752" d="M473.338,232.409a36.984,36.984,0,0,0-35.552,26.8h71.1a36.984,36.984,0,0,0-35.552-26.8" transform="translate(-23.804 -12.637)" fill="#bfa586"/>
        <path id="Trazado_139753" data-name="Trazado 139753" d="M358.7,258.858c5.452-18.863,27.054-32.953,52.877-32.953s47.426,14.09,52.877,32.953Z" transform="translate(-19.504 -12.283)" fill="#bfa586"/>
        <path id="Trazado_139754" data-name="Trazado 139754" d="M520.759,256.082a8.922,8.922,0,0,1,8.576,6.465H512.183a8.922,8.922,0,0,1,8.576-6.465" transform="translate(-27.85 -13.924)" fill="#474747"/>
        <path id="Trazado_139755" data-name="Trazado 139755" d="M476.322,252.847a13.141,13.141,0,0,1,12.633,9.523H463.689a13.141,13.141,0,0,1,12.633-9.523" transform="translate(-25.213 -13.748)" fill="#474747"/>
        <path id="Trazado_139756" data-name="Trazado 139756" d="M516.347,262.246c-1.938-6.7-9.613-11.71-18.79-11.71s-16.852,5.007-18.79,11.71Z" transform="translate(-26.033 -13.623)" fill="#474747"/>
        <path id="Trazado_139757" data-name="Trazado 139757" d="M233.5,254.377A1.256,1.256,0,0,1,235.1,256a36.175,36.175,0,0,1,3.023,3.17,19.586,19.586,0,0,1-.324-4.654,1.255,1.255,0,1,1,.9.023,1.239,1.239,0,0,1-.228.058,20.733,20.733,0,0,0,.59,5.722,54.465,54.465,0,0,1,7.663,13.454l-.637.233a50.811,50.811,0,0,0-2.983-6.329c-.592-1.072-1.313-2.293-2.156-3.577a13.383,13.383,0,0,0-4.687-.056,1.256,1.256,0,1,1-.177-.658,14.628,14.628,0,0,1,4.34-.067,40.389,40.389,0,0,0-5.73-6.769,1.272,1.272,0,0,1-.347.191,1.257,1.257,0,0,1-.847-2.367" transform="translate(-12.651 -13.708)" fill="#6f728a"/>
        <path id="Trazado_139758" data-name="Trazado 139758" d="M249.393,263.116a13.364,13.364,0,0,0-4.368-1.7,1.255,1.255,0,1,1,.067-.679,14.665,14.665,0,0,1,4.085,1.466,40.306,40.306,0,0,0-2.98-8.353,1.239,1.239,0,0,1-.391.056,1.257,1.257,0,1,1,.964-.426,36.021,36.021,0,0,1,1.713,4.031,19.544,19.544,0,0,1,1.335-4.47,1.256,1.256,0,1,1,.836.339,1.177,1.177,0,0,1-.233-.026,20.7,20.7,0,0,0-1.464,5.564,54.447,54.447,0,0,1,2.433,15.291l-.678-.007a50.687,50.687,0,0,0-.564-6.974c-.176-1.212-.42-2.609-.757-4.108" transform="translate(-13.191 -13.641)" fill="#6f728a"/>
        <path id="Trazado_139759" data-name="Trazado 139759" d="M265.043,274.736a5.411,5.411,0,0,1,5.2,3.921h-10.4a5.411,5.411,0,0,1,5.2-3.921" transform="translate(-14.129 -14.939)" fill="#474747"/>
        <path id="Trazado_139760" data-name="Trazado 139760" d="M238.1,272.775a7.969,7.969,0,0,1,7.661,5.775H230.434a7.969,7.969,0,0,1,7.661-5.775" transform="translate(-12.53 -14.832)" fill="#474747"/>
        <path id="Trazado_139761" data-name="Trazado 139761" d="M262.368,278.474c-1.174-4.065-5.83-7.1-11.394-7.1s-10.22,3.035-11.395,7.1Z" transform="translate(-13.027 -14.756)" fill="#474747"/>
        <path id="Trazado_139762" data-name="Trazado 139762" d="M326.175,252.64h32.014L331.4,133.074H299.387Z" transform="translate(-16.279 -7.236)" fill="#42475c"/>
        <rect id="Rectángulo_9179" data-name="Rectángulo 9179" width="123.615" height="8.314" transform="translate(243.77 239.43)" fill="#42475c"/>
        <path id="Trazado_139763" data-name="Trazado 139763" d="M400.615,96.665V86.154H192.59V99.208H400.615Z" transform="translate(-10.472 -4.685)" fill="#42475c"/>
        <path id="Trazado_139764" data-name="Trazado 139764" d="M192.59,99.958V208.374H400.615V99.958Z" transform="translate(-10.472 -5.435)" fill="#2d334a"/>
        <path id="Trazado_139765" data-name="Trazado 139765" d="M200.771,93.327a2.516,2.516,0,1,1,2.515,2.515,2.515,2.515,0,0,1-2.515-2.515" transform="translate(-10.917 -4.938)" fill="#f4c68e"/>
        <path id="Trazado_139766" data-name="Trazado 139766" d="M210.237,93.327a2.516,2.516,0,1,1,2.515,2.515,2.515,2.515,0,0,1-2.515-2.515" transform="translate(-11.432 -4.938)" fill="#8d92b3"/>
        <path id="Trazado_139767" data-name="Trazado 139767" d="M219.7,93.327a2.516,2.516,0,1,1,2.515,2.515,2.515,2.515,0,0,1-2.515-2.515" transform="translate(-11.946 -4.938)" fill="#bfbfbf"/>
        <rect id="Rectángulo_9180" data-name="Rectángulo 9180" width="1.014" height="30.804" transform="translate(276.594 130.128)" fill="#484e62"/>
        <rect id="Rectángulo_9181" data-name="Rectángulo 9181" width="1.014" height="24.907" transform="translate(274.762 136.025)" fill="#484e62"/>
        <rect id="Rectángulo_9182" data-name="Rectángulo 9182" width="1.014" height="22.744" transform="translate(272.93 138.188)" fill="#484e62"/>
        <rect id="Rectángulo_9183" data-name="Rectángulo 9183" width="1.014" height="18.781" transform="translate(271.099 142.151)" fill="#484e62"/>
        <rect id="Rectángulo_9184" data-name="Rectángulo 9184" width="1.014" height="30.567" transform="translate(269.268 130.365)" fill="#484e62"/>
        <rect id="Rectángulo_9185" data-name="Rectángulo 9185" width="1.014" height="13.912" transform="translate(267.437 147.02)" fill="#484e62"/>
        <rect id="Rectángulo_9186" data-name="Rectángulo 9186" width="1.014" height="11.849" transform="translate(265.605 149.084)" fill="#484e62"/>
        <rect id="Rectángulo_9187" data-name="Rectángulo 9187" width="1.014" height="8.603" transform="translate(263.774 152.329)" fill="#484e62"/>
        <rect id="Rectángulo_9188" data-name="Rectángulo 9188" width="1.014" height="6.956" transform="translate(261.943 153.976)" fill="#484e62"/>
        <rect id="Rectángulo_9189" data-name="Rectángulo 9189" width="1.014" height="8.603" transform="translate(260.111 152.329)" fill="#484e62"/>
        <rect id="Rectángulo_9190" data-name="Rectángulo 9190" width="1.014" height="10.039" transform="translate(258.28 150.893)" fill="#484e62"/>
        <rect id="Rectángulo_9191" data-name="Rectángulo 9191" width="1.014" height="13.912" transform="translate(256.449 147.02)" fill="#484e62"/>
        <rect id="Rectángulo_9192" data-name="Rectángulo 9192" width="1.014" height="28.199" transform="translate(254.617 132.733)" fill="#484e62"/>
        <rect id="Rectángulo_9193" data-name="Rectángulo 9193" width="1.014" height="20.078" transform="translate(252.786 140.855)" fill="#484e62"/>
        <rect id="Rectángulo_9194" data-name="Rectángulo 9194" width="1.014" height="20.078" transform="translate(250.955 140.855)" fill="#484e62"/>
        <rect id="Rectángulo_9195" data-name="Rectángulo 9195" width="1.014" height="23.698" transform="translate(249.123 137.234)" fill="#484e62"/>
        <rect id="Rectángulo_9196" data-name="Rectángulo 9196" width="1.014" height="30.576" transform="translate(247.292 130.356)" fill="#484e62"/>
        <rect id="Rectángulo_9197" data-name="Rectángulo 9197" width="1.014" height="28.878" transform="translate(245.461 132.055)" fill="#484e62"/>
        <rect id="Rectángulo_9198" data-name="Rectángulo 9198" width="1.014" height="26.99" transform="translate(243.63 133.942)" fill="#484e62"/>
        <rect id="Rectángulo_9199" data-name="Rectángulo 9199" width="1.014" height="44.942" transform="translate(241.798 115.99)" fill="#484e62"/>
        <rect id="Rectángulo_9200" data-name="Rectángulo 9200" width="1.014" height="23.181" transform="translate(239.967 137.751)" fill="#484e62"/>
        <rect id="Rectángulo_9201" data-name="Rectángulo 9201" width="1.014" height="19.442" transform="translate(238.136 141.49)" fill="#484e62"/>
        <rect id="Rectángulo_9202" data-name="Rectángulo 9202" width="1.014" height="16.611" transform="translate(236.304 144.321)" fill="#484e62"/>
        <rect id="Rectángulo_9203" data-name="Rectángulo 9203" width="1.014" height="14.566" transform="translate(234.473 146.366)" fill="#484e62"/>
        <rect id="Rectángulo_9204" data-name="Rectángulo 9204" width="1.014" height="11.124" transform="translate(232.642 149.808)" fill="#484e62"/>
        <rect id="Rectángulo_9205" data-name="Rectángulo 9205" width="1.014" height="9.208" transform="translate(230.81 151.725)" fill="#484e62"/>
        <rect id="Rectángulo_9206" data-name="Rectángulo 9206" width="1.014" height="12.453" transform="translate(228.979 148.479)" fill="#484e62"/>
        <rect id="Rectángulo_9207" data-name="Rectángulo 9207" width="1.014" height="12.453" transform="translate(227.148 148.479)" fill="#484e62"/>
        <rect id="Rectángulo_9208" data-name="Rectángulo 9208" width="1.014" height="35.247" transform="translate(225.316 125.685)" fill="#484e62"/>
        <rect id="Rectángulo_9209" data-name="Rectángulo 9209" width="1.014" height="23.698" transform="translate(223.485 137.234)" fill="#484e62"/>
        <rect id="Rectángulo_9210" data-name="Rectángulo 9210" width="1.014" height="24.907" transform="translate(221.654 136.025)" fill="#484e62"/>
        <rect id="Rectángulo_9211" data-name="Rectángulo 9211" width="1.014" height="21.057" transform="translate(219.823 139.875)" fill="#484e62"/>
        <rect id="Rectángulo_9212" data-name="Rectángulo 9212" width="1.014" height="19.442" transform="translate(217.991 141.49)" fill="#484e62"/>
        <rect id="Rectángulo_9213" data-name="Rectángulo 9213" width="1.014" height="17.208" transform="translate(216.16 143.725)" fill="#484e62"/>
        <rect id="Rectángulo_9214" data-name="Rectángulo 9214" width="1.014" height="14.566" transform="translate(214.329 146.366)" fill="#484e62"/>
        <rect id="Rectángulo_9215" data-name="Rectángulo 9215" width="1.014" height="11.609" transform="translate(212.497 149.323)" fill="#484e62"/>
        <rect id="Rectángulo_9216" data-name="Rectángulo 9216" width="1.014" height="17.208" transform="translate(210.666 143.725)" fill="#484e62"/>
        <rect id="Rectángulo_9217" data-name="Rectángulo 9217" width="1.014" height="17.208" transform="translate(208.835 143.725)" fill="#484e62"/>
        <rect id="Rectángulo_9218" data-name="Rectángulo 9218" width="1.014" height="21.8" transform="translate(207.003 139.132)" fill="#484e62"/>
        <rect id="Rectángulo_9219" data-name="Rectángulo 9219" width="1.014" height="26.99" transform="translate(205.172 133.942)" fill="#484e62"/>
        <rect id="Rectángulo_9220" data-name="Rectángulo 9220" width="1.014" height="29.593" transform="translate(203.341 131.339)" fill="#484e62"/>
        <rect id="Rectángulo_9221" data-name="Rectángulo 9221" width="1.014" height="35.247" transform="translate(201.509 125.685)" fill="#484e62"/>
        <rect id="Rectángulo_9222" data-name="Rectángulo 9222" width="1.014" height="13.912" transform="translate(199.678 147.02)" fill="#484e62"/>
        <rect id="Rectángulo_9223" data-name="Rectángulo 9223" width="1.014" height="18.416" transform="translate(197.847 142.516)" fill="#484e62"/>
        <rect id="Rectángulo_9224" data-name="Rectángulo 9224" width="1.014" height="22.248" transform="translate(196.016 138.684)" fill="#484e62"/>
        <rect id="Rectángulo_9225" data-name="Rectángulo 9225" width="1.014" height="14.934" transform="translate(194.184 145.998)" fill="#484e62"/>
        <rect id="Rectángulo_9226" data-name="Rectángulo 9226" width="1.014" height="14.934" transform="translate(192.353 145.998)" fill="#484e62"/>
        <rect id="Rectángulo_9227" data-name="Rectángulo 9227" width="1.014" height="11.609" transform="translate(190.522 149.323)" fill="#484e62"/>
        <rect id="Rectángulo_9228" data-name="Rectángulo 9228" width="1.014" height="8.025" transform="translate(188.69 152.908)" fill="#484e62"/>
        <path id="Trazado_139768" data-name="Trazado 139768" d="M430.415,244.89h15.433a1.056,1.056,0,0,0,0-2.113H430.415a.292.292,0,0,0-.292.292V244.6a.292.292,0,0,0,.292.292" transform="translate(-23.388 -13.201)" fill="#f6d2a6"/>
        <path id="Trazado_139769" data-name="Trazado 139769" d="M420.359,247.125a4.821,4.821,0,0,1-4.821-4.821v-22.83a4.821,4.821,0,1,1,9.642,0V242.3a4.821,4.821,0,0,1-4.821,4.821" transform="translate(-22.595 -11.672)" fill="#474747"/>
        <path id="Trazado_139770" data-name="Trazado 139770" d="M447.508,247.125a4.821,4.821,0,0,1-4.821-4.821v-22.83a4.821,4.821,0,1,1,9.642,0V242.3a4.821,4.821,0,0,1-4.821,4.821" transform="translate(-24.071 -11.672)" fill="#474747"/>
        <path id="Trazado_139771" data-name="Trazado 139771" d="M421.246,273.132a4.821,4.821,0,0,1-3.5-8.135l23.58-24.9a4.821,4.821,0,0,1,7,6.629l-23.58,24.9a4.807,4.807,0,0,1-3.5,1.506" transform="translate(-22.643 -12.973)" fill="#474747"/>
        <path id="Trazado_139772" data-name="Trazado 139772" d="M445.449,272.509a4.8,4.8,0,0,1-3.313-1.32l-24.9-23.581a4.82,4.82,0,1,1,6.629-7l24.9,23.58a4.82,4.82,0,0,1-3.315,8.321" transform="translate(-22.605 -13.011)" fill="#474747"/>
        <path id="Trazado_139773" data-name="Trazado 139773" d="M404.959,273.132a4.821,4.821,0,0,1-3.5-8.135l23.58-24.9a4.821,4.821,0,0,1,7,6.629l-23.58,24.9a4.807,4.807,0,0,1-3.5,1.506" transform="translate(-21.757 -12.973)" fill="#474747"/>
        <path id="Trazado_139774" data-name="Trazado 139774" d="M429.162,272.509a4.8,4.8,0,0,1-3.313-1.32l-24.9-23.581a4.82,4.82,0,1,1,6.63-7l24.9,23.58a4.82,4.82,0,0,1-3.315,8.321" transform="translate(-21.719 -13.011)" fill="#474747"/>
        <rect id="Rectángulo_9229" data-name="Rectángulo 9229" width="28.316" height="8.63" transform="translate(396.424 209.333)" fill="#f6d2a6"/>
        <path id="Trazado_139775" data-name="Trazado 139775" d="M428.334,199.331c-2.1,3.706-.131,10.62,4.46,11.376a4.372,4.372,0,0,1,1.273.291,2.773,2.773,0,0,1,1.193,1.621,22.841,22.841,0,0,0,1.572,4.346,5.446,5.446,0,0,0,6.472,2.155,6.029,6.029,0,0,0,3.457-5.48,8.818,8.818,0,0,0-2.688-6.121,6.735,6.735,0,0,1-1.121-1.287c-.527-.917-.449-2.053-.745-3.069a4.28,4.28,0,0,0-1.72-2.34,34.748,34.748,0,0,0-3.521-1.49c-1.33-.687-2.392-1.9-3.838-2.285a4.483,4.483,0,0,0-4.793,2.283" transform="translate(-23.245 -10.708)" fill="#2d334a"/>
        <path id="Trazado_139776" data-name="Trazado 139776" d="M403.586,202.631a2.271,2.271,0,0,0,.394-1.979c-.475-1.757-1.48-5.042-2.491-5.526-1.391-.666-.72,5.16,1.85,7.825Z" transform="translate(-21.792 -10.607)" fill="#deb097"/>
        <path id="Trazado_139777" data-name="Trazado 139777" d="M430.7,204.5a2,2,0,0,1,2.628,1.516,1.91,1.91,0,0,1-.848,2.259l-16.781,7.534c-.256.15-.539-.31-.714-.585a.645.645,0,0,1-.1-.292,2.255,2.255,0,0,1,.67-2.1c2.743-2.5,12.3-7.569,15.145-8.333" transform="translate(-22.556 -11.114)" fill="#ffc200"/>
        <path id="Trazado_139778" data-name="Trazado 139778" d="M415.981,212.774c1.212,1.855.068,2.564.03,2.608a1.81,1.81,0,0,1-2.29-.056L404.8,204.857l1.181-1.715c3.62,2.885,8.754,7.724,10,9.632" transform="translate(-22.011 -11.046)" fill="#ffc200"/>
        <path id="Trazado_139779" data-name="Trazado 139779" d="M404.7,204.783l-1.653-1.94,1.128-1.064c.506.356,1.084.794,1.706,1.29Z" transform="translate(-21.916 -10.972)" fill="#ffc200"/>
        <path id="Trazado_139780" data-name="Trazado 139780" d="M413.845,261.194a1.028,1.028,0,0,0-.2,0,1,1,0,0,0-.892,1.094l.726,7.143a1,1,0,0,0,1.987-.2l-.727-7.142a1,1,0,0,0-.893-.893" transform="translate(-22.443 -14.202)" fill="#deb097"/>
        <path id="Trazado_139781" data-name="Trazado 139781" d="M412.5,268.954a7.681,7.681,0,0,1-4.639,4.337s-1.593.73.547.748,5.356-1.1,6.247-2.31c0,0,.879,2.166,1.009,1.466s.7-3.9.7-3.9Z" transform="translate(-22.146 -14.624)" fill="#383e56"/>
        <path id="Trazado_139782" data-name="Trazado 139782" d="M421.735,261.475a1.019,1.019,0,0,0-.2,0,1,1,0,0,0-.892,1.094l.726,7.143a1,1,0,0,0,1.987-.2l-.727-7.142a1,1,0,0,0-.893-.893" transform="translate(-22.872 -14.217)" fill="#deb097"/>
        <path id="Trazado_139783" data-name="Trazado 139783" d="M420.393,269.234a7.681,7.681,0,0,1-4.639,4.337s-1.593.73.547.748,5.356-1.1,6.247-2.31c0,0,.879,2.166,1.009,1.466s.7-3.9.7-3.9Z" transform="translate(-22.575 -14.639)" fill="#383e56"/>
        <path id="Trazado_139784" data-name="Trazado 139784" d="M432.213,202.407s3.156-1.313,3.253-4.553c.13-4.35-4.357-6.267-6.667-4.722-2.126,1.421-1.66,3.276-1.38,3.725s4.793,5.551,4.793,5.551" transform="translate(-23.227 -10.473)" fill="#2d334a"/>
        <path id="Trazado_139785" data-name="Trazado 139785" d="M432.777,198.87c-.45,2.762-2.739,4.687-4.426,4.413s-2.136-2.647-1.686-5.409,2.047-3.944,3.735-3.67,2.827,1.9,2.377,4.666" transform="translate(-23.191 -10.558)" fill="#deb097"/>
        <path id="Trazado_139786" data-name="Trazado 139786" d="M427.213,196.056s3.029-1.208,3.449-2.29-1.151-.9-1.151-.9a4.043,4.043,0,0,0-2.3,3.189" transform="translate(-23.23 -10.486)" fill="#2d334a"/>
        <path id="Trazado_139787" data-name="Trazado 139787" d="M432.262,193.4a1.748,1.748,0,0,1-.533-2.358,1.662,1.662,0,0,1,2.935.1,1.707,1.707,0,0,1-.544,2.156,1.887,1.887,0,0,1-1.858.1" transform="translate(-23.459 -10.342)" fill="#2d334a"/>
        <path id="Trazado_139788" data-name="Trazado 139788" d="M433.749,208.933a2.116,2.116,0,0,1-.308-3.178c.289-.726.737-1.771,1.5-1.384l16.582,9.609c.283.125.063.652-.063.972a.69.69,0,0,1-.188.266,2.36,2.36,0,0,1-2.188.732c-3.785-.784-12.959-5.067-15.335-7.017" transform="translate(-23.536 -11.108)" fill="#ffc200"/>
        <rect id="Rectángulo_9230" data-name="Rectángulo 9230" width="26.134" height="2.113" transform="translate(381.913 229.576)" fill="#f6d2a6"/>
        <path id="Trazado_139789" data-name="Trazado 139789" d="M424.76,233.9s-17.7-.313-19.413.635-1.876,3.013-1.127,5.921,6.658,22.763,7.9,24.613l3.132-1.489s-3.282-21.931-5.365-24.166c0,0,20.8,4.669,23.6,3.261s-8.728-8.775-8.728-8.775" transform="translate(-21.956 -12.715)" fill="#454a5f"/>
        <path id="Trazado_139790" data-name="Trazado 139790" d="M437.629,232.086s-22.845,1.208-24.556,2.157-1.875,3.012-1.127,5.921,6.659,22.763,7.9,24.613l3.132-1.489s-3.282-21.931-5.365-24.167c0,0,15.482,5.415,19.2,3.528,3.9-1.98.817-10.563.817-10.563" transform="translate(-22.376 -12.62)" fill="#454a5f"/>
        <path id="Trazado_139791" data-name="Trazado 139791" d="M439.653,232.551a62.689,62.689,0,0,1-7.972.464c-2.511-.206-2.4-.935-4.041-1.98.274-.464.195-2,.442-2.457,1.282-2.37,2.356-11.319,1.489-12.646-2-3.068-1.459-3.248-1.515-4.743-.046-1.223,0-.258,0-.27.136-3.11.195-6.438,3.438-7.289,1.96-.514,3.807,1.346,4.691,2.629,3.082,4.478,2,11.53,2.479,17.207.116,1.385.591,7.122.983,9.086" transform="translate(-23.253 -11.068)" fill="#f9e6b9"/>
        <path id="Trazado_139792" data-name="Trazado 139792" d="M433.584,203.732c3.353,1.49,5.072,5.819,5.859,9.875s.9,11.127,1.43,15.842c-2.667.636-5.2,1.8-8.02.614s-.409-7.082.1-9.781-.683-6.43-.837-9.181,1.2-4.631,1.467-7.369" transform="translate(-23.463 -11.078)" fill="#ffc200"/>
        <path id="Trazado_139793" data-name="Trazado 139793" d="M433.11,197.676l-3.49-.064a55.352,55.352,0,0,0,.3,6.711c.168.514,1.051.687,1.972.385.826-.271,1.4-.833,1.383-1.317h0a45.988,45.988,0,0,1-.164-5.713" transform="translate(-23.36 -10.745)" fill="#deb097"/>
        <path id="Trazado_139794" data-name="Trazado 139794" d="M428.464,193.913a6.949,6.949,0,0,0,4.256,4.8c1.779.589,2.264-2.2,2.264-2.2l-1.819-2.576a4.516,4.516,0,0,0-2.529-.926c-.092.013-2.172.9-2.172.9" transform="translate(-23.298 -10.494)" fill="#2d334a"/>
        <path id="Trazado_139795" data-name="Trazado 139795" d="M434.484,200.091c-.254.647-1.223,1.221-1.691,1.036s-.379-.755-.124-1.4.872-1.1,1.34-.917a.9.9,0,0,1,.475,1.282" transform="translate(-23.515 -10.808)" fill="#deb097"/>
        <path id="Trazado_139796" data-name="Trazado 139796" d="M442.161,229.769a2.27,2.27,0,0,0-2.018.011c-1.626.817-4.643,2.461-4.914,3.549-.374,1.5,5.2-.331,7.3-3.382Z" transform="translate(-23.664 -12.481)" fill="#deb097"/>
        <path id="Trazado_139797" data-name="Trazado 139797" d="M449.6,215.057c1.574-1.559,2.5-.581,2.548-.553a1.812,1.812,0,0,1,.406,2.255L444.092,227.6l-1.917-.813c2.1-4.126,5.811-10.126,7.43-11.73" transform="translate(-24.043 -11.646)" fill="#ffc200"/>
        <path id="Trazado_139798" data-name="Trazado 139798" d="M444.039,228.325l-1.57,2.009-1.268-.892c.246-.566.56-1.221.92-1.93Z" transform="translate(-23.99 -12.371)" fill="#ffc200"/>
        <path id="Trazado_139799" data-name="Trazado 139799" d="M502.249,131.129a5.005,5.005,0,0,1,4.811,3.627h-9.623a5.005,5.005,0,0,1,4.811-3.627" transform="translate(-27.048 -7.13)" fill="#f7d9b4"/>
        <path id="Trazado_139800" data-name="Trazado 139800" d="M477.318,129.314a7.373,7.373,0,0,1,7.087,5.343H470.231a7.373,7.373,0,0,1,7.087-5.343" transform="translate(-25.569 -7.031)" fill="#f7d9b4"/>
        <path id="Trazado_139801" data-name="Trazado 139801" d="M499.775,134.587c-1.087-3.761-5.394-6.569-10.542-6.569s-9.455,2.809-10.543,6.569Z" transform="translate(-26.029 -6.961)" fill="#f7d9b4"/>
        <path id="Trazado_139802" data-name="Trazado 139802" d="M268.6,89.838a2.1,2.1,0,0,1,2.3-.8,1.768,1.768,0,0,1,1.126,2.279l-9.4,26.251a.816.816,0,0,1-1.554-.5l.328-1.159c4.323-18.642,4.722-23.153,7.193-26.075" transform="translate(-14.195 -4.836)" fill="#af7d61"/>
        <path id="Trazado_139803" data-name="Trazado 139803" d="M243.774,84.1c-2.722-1.929-2.541-3.749-2.026-4.841a1.76,1.76,0,0,1,2.375-1.3L270.1,88.1a.816.816,0,0,1,.473,1.031.827.827,0,0,1-.236.346,2.827,2.827,0,0,1-2.721,1.022c-5.4-.988-20.3-3.886-23.838-6.4" transform="translate(-13.128 -4.232)" fill="#af7d61"/>
        <path id="Trazado_139804" data-name="Trazado 139804" d="M249.8,101.4a2.1,2.1,0,0,1,2.314.769,1.767,1.767,0,0,1-.495,2.494l-23.438,15.1a.816.816,0,0,1-.93-1.34l.966-.721c14.779-12.155,17.843-15.49,21.582-16.3" transform="translate(-12.339 -5.511)" fill="#af7d61"/>
        <path id="Trazado_139805" data-name="Trazado 139805" d="M235.688,80.443c-.769-3.247.57-4.494,1.678-4.972a1.76,1.76,0,0,1,2.644.592L252.8,100.836a.816.816,0,0,1-.732,1.19,2.826,2.826,0,0,1-2.718-1.031c-3.4-4.309-12.668-16.329-13.667-20.551" transform="translate(-12.803 -4.084)" fill="#af7d61"/>
        <path id="Trazado_139806" data-name="Trazado 139806" d="M228.216,119.335a3.943,3.943,0,0,0,.923,1.127c.806,1.951,2.116,6.118,1.148,6.533-.356.153-4.346-7.137-4.581-7.668-.165-.374.956-.84,1.633-1.083a.365.365,0,0,1,.466.226,5.056,5.056,0,0,0,.41.864" transform="translate(-12.272 -6.428)" fill="#8d92b3"/>
        <path id="Trazado_139807" data-name="Trazado 139807" d="M261.771,118.68a3.941,3.941,0,0,0,1.38.466c1.718,1.226,5.038,4.066,4.438,4.931-.221.319-7.469-3.748-7.949-4.073-.339-.23.365-1.22.81-1.784a.365.365,0,0,1,.515-.056,5.034,5.034,0,0,0,.806.515" transform="translate(-14.113 -6.421)" fill="#8d92b3"/>
        <path id="Trazado_139808" data-name="Trazado 139808" d="M241.716,77.516s11.167,21.7,11.494,23.368.332,2.509-11.494,9.731l-9.135,5.6-.989-3.045s8.064-8.634,15.945-13.119c0,0-12.865-14.282-13.194-22.235Z" transform="translate(-12.593 -4.215)" fill="#9597a3"/>
        <path id="Trazado_139809" data-name="Trazado 139809" d="M245.351,78.093s24.322,8,25.449,10.24-.173,3.678-.363,4.447S262.91,114.1,262.91,114.1l-2.508-2.149s3.224-18.21,5.254-21.076c0,0-22.553-4.657-25.367-6.985a6.583,6.583,0,0,1-2.038-6.047Z" transform="translate(-12.949 -4.232)" fill="#9597a3"/>
        <path id="Trazado_139810" data-name="Trazado 139810" d="M255.595,39.268a2.139,2.139,0,0,0,1.191-1.482c.369-1.675.958-4.856.324-5.7-.873-1.162-2.846,4-1.86,7.342Z" transform="translate(-13.864 -1.736)" fill="#af7d61"/>
        <path id="Trazado_139811" data-name="Trazado 139811" d="M238.947,53.1a1.835,1.835,0,0,1-1.216-2.655c.064-.7,1.275-1.324,2.114-1.178l18.544,4.213c.3.039.886,1.139.858,1.445a.578.578,0,0,1-.1.274c-.3.656-1.769.594-2.506.568-3.612-.123-14.872-1.571-17.695-2.667" transform="translate(-12.915 -2.677)" fill="#d44f4a"/>
        <path id="Trazado_139812" data-name="Trazado 139812" d="M256.675,38.288c1.528,3.664,3.65,12.1,3.691,14.619.034,2.087-1.233,2.077-1.285,2.093a1.7,1.7,0,0,1-1.8-1.194l-2.452-15.062Z" transform="translate(-13.856 -2.082)" fill="#d44f4a"/>
        <path id="Trazado_139813" data-name="Trazado 139813" d="M232.759,73.528c-.133-.632-.255-1.253-.361-1.864-.071-.4-.138-.8-.2-1.193-.14-.892-.252-1.759-.341-2.616-.041-.4-.077-.809-.109-1.209q-.118-1.481-.147-2.895c-.008-.409-.013-.809-.01-1.209a48.669,48.669,0,0,1,.617-7.454,27.209,27.209,0,0,1,.836-3.661,4.455,4.455,0,0,1,7.331-1.905l.517.492a4.989,4.989,0,0,1,1.367,4.9c-.5,1.942-.63,4.775.125,9.159q.07.4.148.825c.077.4.161.809.247,1.234.128.595.269,1.218.423,1.865.095.39.194.787.3,1.194.185.722.386,1.472.609,2.255.062.218.125.44.191.664q.074.26.153.525c.12.419.252.852.386,1.291q.177.574.367,1.172.257.8.534,1.648a8.737,8.737,0,0,1-3.708.518c-2.084-.113-4.2-.6-6.235-.135a15.36,15.36,0,0,0-1.988.663q-.444-1.574-.791-3.08c-.095-.4-.179-.791-.261-1.179" transform="translate(-12.593 -2.626)" fill="#d44f4a"/>
        <path id="Trazado_139814" data-name="Trazado 139814" d="M235.411,54.1a1.836,1.836,0,0,0-.848-2.794c-.509-.478-1.833-.148-2.364.517L221.1,67.258c-.2.23.174.573.4.783a.564.564,0,0,0,.257.139,2.3,2.3,0,0,0,2.169-.365c3.03-2.346,10.1-11.028,11.49-13.719" transform="translate(-12.019 -2.777)" fill="#d44f4a"/>
        <path id="Trazado_139815" data-name="Trazado 139815" d="M234.539,78.47a2.142,2.142,0,0,1,1.512,1.152c.76,1.537,2.1,4.483,1.686,5.455-.567,1.337-3.725-3.2-3.572-6.679Z" transform="translate(-12.732 -4.263)" fill="#af7d61"/>
        <path id="Trazado_139816" data-name="Trazado 139816" d="M234.775,77.735c-2.457-3.118-8.8-9.079-10.976-10.339-1.806-1.045-2.414.067-2.454.1a1.7,1.7,0,0,0,.169,2.151l11.966,9.471Z" transform="translate(-12.019 -3.64)" fill="#d44f4a"/>
        <path id="Trazado_139817" data-name="Trazado 139817" d="M242.848,40.988c-.03-.3-.261-.564-.335-.847a6.279,6.279,0,0,0-.123-.9c-.121-.275-.421-.453-.582-.7s-.2-.6-.4-.821-.539-.3-.77-.488-.373-.507-.631-.657a6.031,6.031,0,0,0-.882-.228c-.276-.108-.51-.367-.8-.43a6.108,6.108,0,0,0-.91.058,5.785,5.785,0,0,0-.9-.161c-.3.03-.564.261-.848.335a6.3,6.3,0,0,0-.9.123c-.274.121-.452.422-.7.582s-.6.2-.82.4-.3.539-.488.77-.507.373-.658.631a6.152,6.152,0,0,0-.227.882c-.108.276-.367.51-.431.8a6.233,6.233,0,0,0,.059.91,5.777,5.777,0,0,0-.161.9c.03.3.26.563.335.847a6.164,6.164,0,0,0,.123.9c.121.275.421.453.582.7s.2.6.4.82.539.3.77.488.373.508.631.658a6.028,6.028,0,0,0,.882.227c.276.108.51.367.8.431a6.236,6.236,0,0,0,.91-.058,5.876,5.876,0,0,0,.9.16c.3-.029.564-.26.848-.335a6.01,6.01,0,0,0,.9-.123c.275-.12.453-.421.7-.581s.6-.2.82-.4.3-.539.488-.77.507-.373.658-.63a6.163,6.163,0,0,0,.227-.883c.108-.275.367-.509.431-.8a6.216,6.216,0,0,0-.059-.909,5.794,5.794,0,0,0,.161-.9" transform="translate(-12.579 -1.947)" fill="#2d334a"/>
        <path id="Trazado_139818" data-name="Trazado 139818" d="M234.352,45.251c.067.115,1.054,2.323,1.439,2.341.529.025.27-1.713.27-1.713Z" transform="translate(-12.743 -2.461)" fill="#2d334a"/>
        <path id="Trazado_139819" data-name="Trazado 139819" d="M241.289,41.623a2.5,2.5,0,0,0,0-1.943c-.455-.744-1.232-1.519-4.16-.779a.894.894,0,0,0-.673.925l.078,1.219Z" transform="translate(-12.857 -2.099)" fill="#2d334a"/>
        <path id="Trazado_139820" data-name="Trazado 139820" d="M235.774,44.185c.365,1.746.8,3.164,1.955,3.846a3.372,3.372,0,0,0,2.666.366,2.2,2.2,0,0,0,1.785-1.761,10.054,10.054,0,0,0-.341-3.718c-.573-2.74-2.221-3.852-3.9-3.5s-2.741,2.028-2.168,4.769" transform="translate(-12.812 -2.14)" fill="#af7d61"/>
        <path id="Trazado_139821" data-name="Trazado 139821" d="M235.586,44.633l2.924-.305a46.794,46.794,0,0,1,.236,5.652c-.1.443-.833.652-1.626.464-.714-.167-1.233-.6-1.256-1.005h0a38.97,38.97,0,0,0-.275-4.806" transform="translate(-12.81 -2.41)" fill="#af7d61"/>
        <path id="Trazado_139822" data-name="Trazado 139822" d="M234.389,45.1a1.4,1.4,0,0,0,1.317-.516,9.551,9.551,0,0,0,1.5-3.633c.238-1.494-.216-1.857-.216-1.857s-2.8.411-3.337,1.389c-.806,1.463.734,4.617.734,4.617" transform="translate(-12.692 -2.126)" fill="#2d334a"/>
        <path id="Trazado_139823" data-name="Trazado 139823" d="M236.482,42.845l.833,4a1.075,1.075,0,0,0,.842.835l.485.1a.483.483,0,0,0,.578-.474V46.47a.418.418,0,0,1,.3-.4l1.78-.516a.42.42,0,0,1,.486.205l.388.727a1.335,1.335,0,0,1-.724,1.884l-1.062.384a1.475,1.475,0,0,1-.707.074.527.527,0,0,1-.054-.008l-.032-.007h0l-.375-.076L238,48.489a1.9,1.9,0,0,1-1.489-1.477l-.833-4Z" transform="translate(-12.815 -2.33)" fill="#2d334a"/>
        <path id="Trazado_139824" data-name="Trazado 139824" d="M234.5,44.75c.121.594.866,1.234,1.3,1.146s.44-.591.319-1.186-.583-1.079-1.014-.991a.782.782,0,0,0-.6,1.031" transform="translate(-12.749 -2.377)" fill="#af7d61"/>
        <path id="Trazado_139825" data-name="Trazado 139825" d="M237.092,40.36l1.768-.354a2.514,2.514,0,0,1,1.734.279l.715.406L240.152,39.2l-1.53-.249-1.778.5Z" transform="translate(-12.878 -2.118)" fill="#2d334a"/>
        <g id="Grupo_67002" data-name="Grupo 67002" transform="translate(259.629)" opacity="0.5">
          <g id="Grupo_67001" data-name="Grupo 67001">
            <g id="Grupo_67000" data-name="Grupo 67000" clip-path="url(#clip-path-4)">
              <path id="Trazado_139826" data-name="Trazado 139826" d="M274.558,56.13h76.673V0H274.558Zm5.347-4.464h-2.165a1.278,1.278,0,1,1,0-2.557H279.9a1.278,1.278,0,0,1,0,2.557m0-5.581h-2.165a1.278,1.278,0,1,1,0-2.556H279.9a1.278,1.278,0,0,1,0,2.556m0-5.58h-2.165a1.278,1.278,0,1,1,0-2.557H279.9a1.278,1.278,0,0,1,0,2.557m0-5.581h-2.165a1.278,1.278,0,1,1,0-2.556H279.9a1.278,1.278,0,0,1,0,2.556m1.278-6.859a1.278,1.278,0,0,1-1.278,1.278h-2.165a1.278,1.278,0,1,1,0-2.557H279.9a1.278,1.278,0,0,1,1.278,1.278m-1.278-4.3h-2.165a1.278,1.278,0,1,1,0-2.556H279.9a1.278,1.278,0,0,1,0,2.556m0-5.58h-2.165a1.278,1.278,0,1,1,0-2.557H279.9a1.278,1.278,0,0,1,0,2.557m1.278-6.859A1.278,1.278,0,0,1,279.9,12.6h-2.165a1.278,1.278,0,1,1,0-2.556H279.9a1.278,1.278,0,0,1,1.278,1.278m-1.278-4.3h-2.165a1.278,1.278,0,1,1,0-2.556H279.9a1.278,1.278,0,0,1,0,2.556m67.41,44.645h-2.165a1.278,1.278,0,1,1,0-2.557h2.165a1.278,1.278,0,1,1,0,2.557m1.279-6.86a1.278,1.278,0,0,1-1.279,1.278h-2.165a1.278,1.278,0,1,1,0-2.556h2.165a1.278,1.278,0,0,1,1.279,1.278m-1.279-4.3h-2.165a1.278,1.278,0,1,1,0-2.557h2.165a1.278,1.278,0,1,1,0,2.557m0-5.581h-2.165a1.278,1.278,0,1,1,0-2.556h2.165a1.278,1.278,0,1,1,0,2.556m1.279-6.859a1.278,1.278,0,0,1-1.279,1.278h-2.165a1.278,1.278,0,1,1,0-2.557h2.165a1.279,1.279,0,0,1,1.279,1.278m-1.279-4.3h-2.165a1.278,1.278,0,1,1,0-2.556h2.165a1.278,1.278,0,1,1,0,2.556m0-5.58h-2.165a1.278,1.278,0,1,1,0-2.557h2.165a1.278,1.278,0,1,1,0,2.557m1.279-6.859a1.278,1.278,0,0,1-1.279,1.278h-2.165a1.278,1.278,0,1,1,0-2.556h2.165a1.278,1.278,0,0,1,1.279,1.278m-1.279-4.3h-2.165a1.278,1.278,0,1,1,0-2.556h2.165a1.278,1.278,0,1,1,0,2.556" transform="translate(-274.558 0)" fill="#898d9a"/>
              <rect id="Rectángulo_9231" data-name="Rectángulo 9231" width="57.663" height="46.75" transform="translate(9.504 4.69)" fill="#5b6072"/>
            </g>
          </g>
        </g>
        <g id="Grupo_67005" data-name="Grupo 67005" transform="translate(109.673 86.312)" opacity="0.5">
          <g id="Grupo_67004" data-name="Grupo 67004">
            <g id="Grupo_67003" data-name="Grupo 67003" clip-path="url(#clip-path-5)">
              <path id="Trazado_139827" data-name="Trazado 139827" d="M115.979,134.737h59.369V91.275H115.979Zm4.14-3.456h-1.677a.99.99,0,0,1,0-1.98h1.677a.99.99,0,0,1,0,1.98m0-4.322h-1.677a.99.99,0,1,1,0-1.979h1.677a.99.99,0,0,1,0,1.979m0-4.322h-1.677a.99.99,0,1,1,0-1.979h1.677a.99.99,0,0,1,0,1.979m0-4.321h-1.677a.99.99,0,1,1,0-1.979h1.677a.99.99,0,0,1,0,1.979m.989-5.311a.989.989,0,0,1-.989.989h-1.677a.99.99,0,1,1,0-1.979h1.677A.99.99,0,0,1,121.108,113.006Zm-.989-3.331h-1.677a.99.99,0,0,1,0-1.98h1.677a.99.99,0,0,1,0,1.98m0-4.322h-1.677a.99.99,0,1,1,0-1.979h1.677a.99.99,0,0,1,0,1.979m.989-5.311a.99.99,0,0,1-.989.99h-1.677a.99.99,0,0,1,0-1.98h1.677A.99.99,0,0,1,121.108,100.043Zm-.989-3.331h-1.677a.99.99,0,1,1,0-1.979h1.677a.99.99,0,0,1,0,1.979m52.2,34.569h-1.677a.99.99,0,0,1,0-1.98h1.677a.99.99,0,1,1,0,1.98m.99-5.312a.99.99,0,0,1-.99.99h-1.677a.99.99,0,1,1,0-1.979h1.677a.99.99,0,0,1,.99.989m-.99-3.331h-1.677a.99.99,0,1,1,0-1.979h1.677a.99.99,0,1,1,0,1.979m0-4.321h-1.677a.99.99,0,1,1,0-1.979h1.677a.99.99,0,1,1,0,1.979m.99-5.311a.99.99,0,0,1-.99.989h-1.677a.99.99,0,1,1,0-1.979h1.677A.99.99,0,0,1,173.306,113.006Zm-.99-3.331h-1.677a.99.99,0,0,1,0-1.98h1.677a.99.99,0,1,1,0,1.98m0-4.322h-1.677a.99.99,0,1,1,0-1.979h1.677a.99.99,0,1,1,0,1.979m.99-5.311a.99.99,0,0,1-.99.99h-1.677a.99.99,0,0,1,0-1.98h1.677A.99.99,0,0,1,173.306,100.043Zm-.99-3.331h-1.677a.99.99,0,1,1,0-1.979h1.677a.99.99,0,1,1,0,1.979" transform="translate(-115.979 -91.275)" fill="#898d9a"/>
              <rect id="Rectángulo_9233" data-name="Rectángulo 9233" width="44.65" height="36.199" transform="translate(7.36 3.632)" fill="#5b6072"/>
            </g>
          </g>
        </g>
        <g id="Grupo_67008" data-name="Grupo 67008" transform="translate(124.516 110.13)" opacity="0.5">
          <g id="Grupo_67007" data-name="Grupo 67007">
            <g id="Grupo_67006" data-name="Grupo 67006" clip-path="url(#clip-path-6)">
              <path id="Trazado_139828" data-name="Trazado 139828" d="M143.139,116.463,131.676,148.1l43.212,15.657L186.35,132.12ZM135.6,146.674l-1.22-.443a.767.767,0,1,1,.523-1.441l1.219.443a.766.766,0,1,1-.522,1.441m1.139-3.145-1.219-.443a.766.766,0,1,1,.521-1.441l1.22.443a.766.766,0,0,1-.522,1.441m1.139-3.145-1.22-.443a.766.766,0,0,1,.522-1.441l1.221.443a.767.767,0,0,1-.523,1.441m1.14-3.145L137.8,136.8a.766.766,0,1,1,.522-1.441l1.221.443a.766.766,0,0,1-.522,1.441m2.122-3.6a.768.768,0,0,1-.982.459l-1.221-.442a.766.766,0,0,1,.522-1.441l1.221.443a.768.768,0,0,1,.461.982m.157-2.687-1.221-.442a.766.766,0,0,1,.522-1.441l1.221.443a.766.766,0,1,1-.522,1.44m1.139-3.145-1.221-.442a.766.766,0,0,1,.522-1.441l1.221.443a.766.766,0,1,1-.522,1.44m2.121-3.6a.766.766,0,0,1-.982.459l-1.221-.442a.766.766,0,0,1,.522-1.441l1.221.443a.766.766,0,0,1,.46.981Zm.158-2.687-1.221-.442a.767.767,0,0,1,.523-1.441l1.221.443a.766.766,0,0,1-.523,1.44m28.876,38.927L172.374,160a.766.766,0,1,1,.521-1.441l1.22.443a.766.766,0,1,1-.522,1.44m2.121-3.6a.766.766,0,0,1-.982.459l-1.22-.442a.766.766,0,0,1,.522-1.441l1.22.443a.766.766,0,0,1,.46.982m.159-2.687-1.221-.442a.766.766,0,1,1,.522-1.441l1.221.443a.766.766,0,0,1-.522,1.44M177.012,151l-1.221-.442a.766.766,0,1,1,.522-1.441l1.221.443a.766.766,0,0,1-.522,1.44m2.121-3.6a.766.766,0,0,1-.982.46l-1.221-.442a.766.766,0,0,1,.522-1.441l1.221.443A.766.766,0,0,1,179.133,147.4Zm.158-2.686-1.221-.442a.766.766,0,1,1,.522-1.441l1.221.442a.766.766,0,1,1-.522,1.441m1.139-3.145-1.221-.442a.766.766,0,1,1,.522-1.441l1.221.442a.766.766,0,1,1-.522,1.441m2.121-3.6a.766.766,0,0,1-.982.46l-1.221-.443a.766.766,0,1,1,.523-1.44l1.22.442A.767.767,0,0,1,182.552,137.963Zm.159-2.686-1.221-.443a.766.766,0,0,1,.521-1.44l1.221.442a.766.766,0,0,1-.521,1.441" transform="translate(-131.676 -116.463)" fill="#898d9a"/>
              <rect id="Rectángulo_9235" data-name="Rectángulo 9235" width="28.024" height="34.567" transform="translate(6.315 30.932) rotate(-70.084)" fill="#5b6072"/>
            </g>
          </g>
        </g>
        <path id="Trazado_139829" data-name="Trazado 139829" d="M300.742,28.9a13.576,13.576,0,1,1,13.576,13.576A13.577,13.577,0,0,1,300.742,28.9" transform="translate(-16.353 -0.833)" fill="#6f728a"/>
        <path id="Trazado_139830" data-name="Trazado 139830" d="M320.375,29.4l-8.3-4.794V34.2Z" transform="translate(-16.969 -1.338)" fill="#f7d9b4"/>
        <rect id="Rectángulo_9237" data-name="Rectángulo 9237" width="0.929" height="13.782" transform="translate(235.404 173.466)" fill="#8d92b3"/>
        <rect id="Rectángulo_9238" data-name="Rectángulo 9238" width="0.929" height="13.782" transform="translate(245.562 173.466)" fill="#8d92b3"/>
        <rect id="Rectángulo_9239" data-name="Rectángulo 9239" width="0.929" height="13.782" transform="translate(255.719 173.466)" fill="#8d92b3"/>
        <rect id="Rectángulo_9240" data-name="Rectángulo 9240" width="0.929" height="13.782" transform="translate(265.876 173.466)" fill="#8d92b3"/>
        <rect id="Rectángulo_9241" data-name="Rectángulo 9241" width="0.929" height="13.782" transform="translate(276.034 173.466)" fill="#8d92b3"/>
        <rect id="Rectángulo_9242" data-name="Rectángulo 9242" width="0.929" height="13.782" transform="translate(286.191 173.466)" fill="#8d92b3"/>
        <rect id="Rectángulo_9243" data-name="Rectángulo 9243" width="0.929" height="13.782" transform="translate(296.349 173.466)" fill="#8d92b3"/>
        <rect id="Rectángulo_9244" data-name="Rectángulo 9244" width="0.929" height="13.782" transform="translate(306.506 173.466)" fill="#8d92b3"/>
        <rect id="Rectángulo_9245" data-name="Rectángulo 9245" width="0.929" height="13.782" transform="translate(316.663 173.466)" fill="#8d92b3"/>
        <rect id="Rectángulo_9246" data-name="Rectángulo 9246" width="0.929" height="13.782" transform="translate(326.82 173.466)" fill="#8d92b3"/>
        <rect id="Rectángulo_9247" data-name="Rectángulo 9247" width="0.929" height="13.782" transform="translate(336.977 173.466)" fill="#8d92b3"/>
        <rect id="Rectángulo_9248" data-name="Rectángulo 9248" width="0.929" height="13.782" transform="translate(347.135 173.466)" fill="#8d92b3"/>
        <rect id="Rectángulo_9249" data-name="Rectángulo 9249" width="0.929" height="13.782" transform="translate(357.292 173.466)" fill="#8d92b3"/>
        <rect id="Rectángulo_9250" data-name="Rectángulo 9250" width="0.929" height="13.782" transform="translate(367.449 173.466)" fill="#8d92b3"/>
        <rect id="Rectángulo_9251" data-name="Rectángulo 9251" width="0.929" height="13.782" transform="translate(377.607 173.466)" fill="#8d92b3"/>
        <rect id="Rectángulo_9252" data-name="Rectángulo 9252" width="156.814" height="10.16" transform="translate(221.722 177.489)" fill="#484e62"/>
        <rect id="Rectángulo_9253" data-name="Rectángulo 9253" width="47.413" height="10.16" transform="translate(221.721 177.489)" fill="#ffc200"/>
        <rect id="Rectángulo_9254" data-name="Rectángulo 9254" width="1.233" height="23.827" transform="translate(268.412 170.48)" fill="#ffc200"/>
        <path id="Trazado_139831" data-name="Trazado 139831" d="M287.218,178.127v-2.342a.709.709,0,0,0-.709-.709h-4.354a.709.709,0,0,0-.709.709v2.342a.7.7,0,0,0,.468.67,1.946,1.946,0,0,1,1.233,1.457.7.7,0,0,0,.688.54h.993a.7.7,0,0,0,.688-.54,1.948,1.948,0,0,1,1.233-1.457.7.7,0,0,0,.468-.67" transform="translate(-15.304 -9.52)" fill="#ffc200"/>
        <rect id="Rectángulo_9255" data-name="Rectángulo 9255" width="96.865" height="56.305" transform="translate(281.671 104.627)" fill="#8d92b3"/>
        <path id="Trazado_139832" data-name="Trazado 139832" d="M386.979,168.4H346.87l4.023-6.214,16.032-24.759Z" transform="translate(-18.861 -7.473)" fill="#737899"/>
        <path id="Trazado_139833" data-name="Trazado 139833" d="M352.252,167.394H297.866V154.31l22.957-35.457,27.4,42.328Z" transform="translate(-16.196 -6.463)" fill="#5d6285"/>
        <path id="Trazado_139834" data-name="Trazado 139834" d="M345.588,126.406a8.907,8.907,0,1,1,8.907,8.907,8.907,8.907,0,0,1-8.907-8.907" transform="translate(-18.791 -6.389)" fill="#f7d9b4"/>
        <path id="Trazado_139835" data-name="Trazado 139835" d="M390,120.129a2.161,2.161,0,0,1,2.078,1.567h-4.155A2.161,2.161,0,0,1,390,120.129" transform="translate(-21.093 -6.532)" fill="#d0d2db"/>
        <path id="Trazado_139836" data-name="Trazado 139836" d="M379.236,119.345a3.184,3.184,0,0,1,3.061,2.307h-6.122a3.184,3.184,0,0,1,3.061-2.307" transform="translate(-20.454 -6.489)" fill="#d0d2db"/>
        <path id="Trazado_139837" data-name="Trazado 139837" d="M388.934,121.622c-.469-1.624-2.329-2.837-4.552-2.837s-4.083,1.213-4.552,2.837Z" transform="translate(-20.653 -6.459)" fill="#d0d2db"/>
        <path id="Trazado_139838" data-name="Trazado 139838" d="M344.4,140.454a4.273,4.273,0,0,1,4.108,3.1H340.29a4.273,4.273,0,0,1,4.108-3.1" transform="translate(-18.503 -7.637)" fill="#d0d2db"/>
        <path id="Trazado_139839" data-name="Trazado 139839" d="M323.114,138.9a6.3,6.3,0,0,1,6.051,4.563h-12.1a6.3,6.3,0,0,1,6.051-4.563" transform="translate(-17.24 -7.553)" fill="#d0d2db"/>
        <path id="Trazado_139840" data-name="Trazado 139840" d="M342.285,143.405c-.928-3.21-4.6-5.609-9-5.609s-8.071,2.4-9,5.609Z" transform="translate(-17.633 -7.493)" fill="#d0d2db"/>
        <path id="Trazado_139841" data-name="Trazado 139841" d="M424.657,172.289a13.576,13.576,0,1,0-13.576,13.576,13.576,13.576,0,0,0,13.576-13.576" transform="translate(-21.614 -8.63)" fill="#ffc200"/>
        <path id="Trazado_139842" data-name="Trazado 139842" d="M404.966,171.253l6.125,6.125L425.5,162.973" transform="translate(-22.02 -8.862)" fill="none" stroke="#fff" stroke-linecap="round" stroke-linejoin="round" stroke-width="6.673"/>
        <path id="Trazado_139843" data-name="Trazado 139843" d="M414.889,184.577s.349,5.36,7.765,6.839c0,0-5.358-2.219-5.34-7.161Z" transform="translate(-22.559 -10.019)" fill="#ffc200"/>
        <path id="Trazado_139844" data-name="Trazado 139844" d="M382.673,145.892a2.9,2.9,0,0,0,2.9-2.9,2.9,2.9,0,0,0,2.9,2.9,2.9,2.9,0,0,0-2.9,2.9,2.9,2.9,0,0,0-2.9-2.9" transform="translate(-20.808 -7.775)" fill="#fff"/>
        <path id="Trazado_139845" data-name="Trazado 139845" d="M215.837,34.582a2.9,2.9,0,0,0,2.9-2.9,2.9,2.9,0,0,0,2.9,2.9,2.9,2.9,0,0,0-2.9,2.9,2.9,2.9,0,0,0-2.9-2.9" transform="translate(-11.736 -1.723)" fill="#fff"/>
        <path id="Trazado_139846" data-name="Trazado 139846" d="M363.539,160.288a5.2,5.2,0,0,0,5.2-5.2,5.2,5.2,0,0,0,5.2,5.2,5.2,5.2,0,0,0-5.2,5.2,5.2,5.2,0,0,0-5.2-5.2" transform="translate(-19.767 -8.433)" fill="#fff"/>
        <path id="Trazado_139847" data-name="Trazado 139847" d="M150.607,144.826a5.2,5.2,0,0,0,5.2-5.2,5.2,5.2,0,0,0,5.2,5.2,5.2,5.2,0,0,0-5.2,5.2,5.2,5.2,0,0,0-5.2-5.2" transform="translate(-8.189 -7.592)" fill="#fff"/>
        <path id="Trazado_139848" data-name="Trazado 139848" d="M288.73,43.077a5.2,5.2,0,0,0,5.2-5.2,5.2,5.2,0,0,0,5.2,5.2,5.2,5.2,0,0,0-5.2,5.2,5.2,5.2,0,0,0-5.2-5.2" transform="translate(-15.7 -2.059)" fill="#fff"/>
        <path id="Trazado_139849" data-name="Trazado 139849" d="M276.408,114.067a2.9,2.9,0,0,0,2.9-2.9,2.9,2.9,0,0,0,2.9,2.9,2.9,2.9,0,0,0-2.9,2.9,2.9,2.9,0,0,0-2.9-2.9" transform="translate(-15.03 -6.045)" fill="#fff"/>
        <rect id="Rectángulo_9256" data-name="Rectángulo 9256" width="91.203" height="57.337" transform="translate(124.972 193.502)" fill="#6a6e7e"/>
        <rect id="Rectángulo_9257" data-name="Rectángulo 9257" width="77.661" height="1.347" transform="translate(131.743 221.498)" fill="#f3c287"/>
        <rect id="Rectángulo_9258" data-name="Rectángulo 9258" width="77.661" height="1.347" transform="translate(131.743 233.012)" fill="#f3c287"/>
        <rect id="Rectángulo_9259" data-name="Rectángulo 9259" width="1.291" height="8.106" transform="translate(157.16 233.686)" fill="#f3c287"/>
        <rect id="Rectángulo_9260" data-name="Rectángulo 9260" width="1.291" height="8.106" transform="translate(182.697 233.686)" fill="#f3c287"/>
        <rect id="Rectángulo_9261" data-name="Rectángulo 9261" width="94.663" height="9.681" transform="translate(123.241 188.549)" fill="#8d92b3"/>
        <path id="Trazado_139850" data-name="Trazado 139850" d="M149.37,209.072h-9.33l-9.681-9.681h9.33Z" transform="translate(-7.088 -10.842)" fill="#fff"/>
        <path id="Trazado_139851" data-name="Trazado 139851" d="M169.547,209.072h-9.33l-9.687-9.681h9.336Z" transform="translate(-8.185 -10.842)" fill="#fff"/>
        <path id="Trazado_139852" data-name="Trazado 139852" d="M189.725,209.072h-9.33l-9.687-9.681h9.336Z" transform="translate(-9.282 -10.842)" fill="#fff"/>
        <path id="Trazado_139853" data-name="Trazado 139853" d="M209.9,209.072h-9.33l-9.687-9.681h9.33Z" transform="translate(-10.379 -10.842)" fill="#fff"/>
        <path id="Trazado_139854" data-name="Trazado 139854" d="M229.381,208.372v.7H220.75l-9.687-9.68h9.331Z" transform="translate(-11.476 -10.842)" fill="#fff"/>
        <rect id="Rectángulo_9262" data-name="Rectángulo 9262" width="94.663" height="9.681" transform="matrix(0.967, -0.255, 0.255, 0.967, 120.861, 178.999)" fill="#8d92b3"/>
        <path id="Trazado_139855" data-name="Trazado 139855" d="M207.751,177.994l9.022-2.378,6.895-11.829-9.023,2.378Z" transform="translate(-11.296 -8.906)" fill="#fff"/>
        <path id="Trazado_139856" data-name="Trazado 139856" d="M188.239,183.137l9.023-2.378,6.9-11.831-9.028,2.38Z" transform="translate(-10.235 -9.185)" fill="#fff"/>
        <path id="Trazado_139857" data-name="Trazado 139857" d="M168.728,188.28l9.023-2.378,6.9-11.831-9.028,2.38Z" transform="translate(-9.175 -9.465)" fill="#fff"/>
        <path id="Trazado_139858" data-name="Trazado 139858" d="M149.217,193.423l9.023-2.378,6.9-11.831-9.022,2.379Z" transform="translate(-8.114 -9.745)" fill="#fff"/>
        <path id="Trazado_139859" data-name="Trazado 139859" d="M130.232,197.711l.179.677,8.345-2.2,6.9-11.831-9.022,2.378Z" transform="translate(-7.081 -10.024)" fill="#fff"/>
        <path id="Trazado_139860" data-name="Trazado 139860" d="M139.639,225.731s2.026,3.713,10.485,2.809,8.183-15.374,4.561-15.374-3.22,15.136,5.574,15.374,2.035-8.52.036-6.235c-2.319,2.651,10.511,1.845,11.043,4.569.761,3.9-8,.1-2.38-3.522,4.057-2.613,4.857,5.189,4.857,5.189s-.763-5.76,2.985-5.878c3.3-.1,2.919,5.878,2.919,5.878s-.195-5.76,3.041-5.854,3.2,5.854,3.2,5.854" transform="translate(-7.593 -11.591)" fill="none" stroke="#fff" stroke-linecap="round" stroke-linejoin="round" stroke-width="2"/>
        <path id="Trazado_139861" data-name="Trazado 139861" d="M192.992,225.446s.952,3.522,3.446,3.094c4.016-.69,6.861-15.374,3.04-15.374s-2.074,15.326,3.716,15.374c0,0,3.886.428,4.267-6.711s-5.052-4.245-2.86,2.3,7.714,3.884,7.714,3.884" transform="translate(-10.494 -11.591)" fill="none" stroke="#fff" stroke-linecap="round" stroke-linejoin="round" stroke-width="2"/>
      </g>
    </g>
  </g>
</svg>
