<svg xmlns="http://www.w3.org/2000/svg" xmlns:xlink="http://www.w3.org/1999/xlink" width="603.62" height="600.276" viewBox="0 0 603.62 600.276">
  <defs>
    <filter id="Trazado_138318" x="0" y="0" width="277.922" height="277.922" filterUnits="userSpaceOnUse">
      <feOffset dy="3" input="SourceAlpha"/>
      <feGaussianBlur stdDeviation="3" result="blur"/>
      <feFlood flood-opacity="0.38"/>
      <feComposite operator="in" in2="blur"/>
      <feComposite in="SourceGraphic"/>
    </filter>
    <filter id="Trazado_138319" x="325.698" y="0" width="277.922" height="277.922" filterUnits="userSpaceOnUse">
      <feOffset dy="3" input="SourceAlpha"/>
      <feGaussianBlur stdDeviation="3" result="blur-2"/>
      <feFlood flood-opacity="0.388"/>
      <feComposite operator="in" in2="blur-2"/>
      <feComposite in="SourceGraphic"/>
    </filter>
    <filter id="Trazado_138321" x="0" y="322.354" width="277.922" height="277.922" filterUnits="userSpaceOnUse">
      <feOffset dy="3" input="SourceAlpha"/>
      <feGaussianBlur stdDeviation="3" result="blur-3"/>
      <feFlood flood-opacity="0.369"/>
      <feComposite operator="in" in2="blur-3"/>
      <feComposite in="SourceGraphic"/>
    </filter>
    <filter id="Trazado_138326" x="325.698" y="322.354" width="277.922" height="277.922" filterUnits="userSpaceOnUse">
      <feOffset dy="3" input="SourceAlpha"/>
      <feGaussianBlur stdDeviation="3" result="blur-4"/>
      <feFlood flood-opacity="0.431"/>
      <feComposite operator="in" in2="blur-4"/>
      <feComposite in="SourceGraphic"/>
    </filter>
    <clipPath id="clip-path">
      <path id="Trazado_138341" data-name="Trazado 138341" d="M167.19,289.864a125.5,125.5,0,1,0,125.5-125.5,125.5,125.5,0,0,0-125.5,125.5" fill="none"/>
    </clipPath>
    <linearGradient id="linear-gradient" x1="-0.325" y1="1.324" x2="-0.322" y2="1.324" gradientUnits="objectBoundingBox">
      <stop offset="0" stop-color="#fff"/>
      <stop offset="1" stop-color="#d9d9d9"/>
    </linearGradient>
    <filter id="Trazado_138342" x="178.657" y="175.83" width="246.069" height="246.068" filterUnits="userSpaceOnUse">
      <feOffset dy="3" input="SourceAlpha"/>
      <feGaussianBlur stdDeviation="3" result="blur-5"/>
      <feFlood flood-opacity="0.302"/>
      <feComposite operator="in" in2="blur-5"/>
      <feComposite in="SourceGraphic"/>
    </filter>
  </defs>
  <g id="Grupo_67057" data-name="Grupo 67057" transform="translate(-169.061 -1102)">
    <g transform="matrix(1, 0, 0, 1, 169.06, 1102)" filter="url(#Trazado_138318)">
      <path id="Trazado_138318-2" data-name="Trazado 138318" d="M259.922,259.922H6.612A6.612,6.612,0,0,1,0,253.31V6.612A6.612,6.612,0,0,1,6.612,0h246.7a6.612,6.612,0,0,1,6.612,6.612Z" transform="translate(9 6)" fill="#fff"/>
    </g>
    <g transform="matrix(1, 0, 0, 1, 169.06, 1102)" filter="url(#Trazado_138319)">
      <path id="Trazado_138319-2" data-name="Trazado 138319" d="M579.008,259.922H325.7V6.612A6.612,6.612,0,0,1,332.31,0h246.7a6.612,6.612,0,0,1,6.612,6.612v246.7a6.612,6.612,0,0,1-6.612,6.612" transform="translate(9 6)" fill="#fff"/>
    </g>
    <g transform="matrix(1, 0, 0, 1, 169.06, 1102)" filter="url(#Trazado_138321)">
      <path id="Trazado_138321-2" data-name="Trazado 138321" d="M253.31,582.276H6.612A6.612,6.612,0,0,1,0,575.664v-246.7a6.612,6.612,0,0,1,6.612-6.612h253.31v253.31a6.612,6.612,0,0,1-6.612,6.612" transform="translate(9 6)" fill="#fff"/>
    </g>
    <path id="Trazado_138322" data-name="Trazado 138322" d="M231.89,559.708H28.031a5.464,5.464,0,0,1-5.464-5.464V350.385a5.464,5.464,0,0,1,5.464-5.463H237.354V554.244a5.464,5.464,0,0,1-5.464,5.464" transform="translate(178.061 1108)" fill="#fff"/>
    <path id="Trazado_138323" data-name="Trazado 138323" d="M209.51,560.984H50.413a29.156,29.156,0,0,1-29.121-29.121v-159.1a29.156,29.156,0,0,1,29.121-29.121H238.631V531.863a29.156,29.156,0,0,1-29.121,29.121m-159.1-214.79A26.6,26.6,0,0,0,23.84,372.767v159.1a26.6,26.6,0,0,0,26.573,26.573h159.1a26.6,26.6,0,0,0,26.572-26.573V346.194Z" transform="translate(178.061 1108)" fill="#ececec"/>
    <path id="Trazado_138324" data-name="Trazado 138324" d="M22.568,231.891V28.032a5.464,5.464,0,0,1,5.464-5.464H231.89a5.464,5.464,0,0,1,5.464,5.464V237.355H28.032a5.464,5.464,0,0,1-5.464-5.464" transform="translate(178.061 1108)" fill="#fff"/>
    <path id="Trazado_138325" data-name="Trazado 138325" d="M238.631,238.63H50.413a29.156,29.156,0,0,1-29.121-29.121V50.413A29.156,29.156,0,0,1,50.413,21.292h159.1a29.156,29.156,0,0,1,29.121,29.121ZM50.413,23.84A26.6,26.6,0,0,0,23.84,50.413v159.1a26.6,26.6,0,0,0,26.573,26.573H236.082V50.413A26.6,26.6,0,0,0,209.51,23.84Z" transform="translate(178.061 1108)" fill="#ececec"/>
    <g transform="matrix(1, 0, 0, 1, 169.06, 1102)" filter="url(#Trazado_138326)">
      <path id="Trazado_138326-2" data-name="Trazado 138326" d="M579.008,582.276H332.31a6.612,6.612,0,0,1-6.612-6.612V322.354h253.31a6.612,6.612,0,0,1,6.612,6.612v246.7a6.612,6.612,0,0,1-6.612,6.612" transform="translate(9 6)" fill="#fff"/>
    </g>
    <path id="Trazado_138327" data-name="Trazado 138327" d="M563.052,350.386V554.245a5.464,5.464,0,0,1-5.464,5.464H353.729a5.464,5.464,0,0,1-5.463-5.464V344.922H557.588a5.464,5.464,0,0,1,5.464,5.464" transform="translate(178.061 1108)" fill="#fff"/>
    <path id="Trazado_138328" data-name="Trazado 138328" d="M535.208,560.984h-159.1a29.156,29.156,0,0,1-29.12-29.121V343.646H535.208a29.151,29.151,0,0,1,29.116,29.121v159.1a29.151,29.151,0,0,1-29.116,29.121M349.539,346.194V531.863a26.6,26.6,0,0,0,26.572,26.573h159.1a26.6,26.6,0,0,0,26.567-26.573v-159.1a26.6,26.6,0,0,0-26.567-26.573Z" transform="translate(178.061 1108)" fill="#ececec"/>
    <path id="Trazado_138329" data-name="Trazado 138329" d="M353.729,22.568H557.588a5.464,5.464,0,0,1,5.464,5.464V231.891a5.464,5.464,0,0,1-5.464,5.463H348.265V28.032a5.464,5.464,0,0,1,5.464-5.464" transform="translate(178.061 1108)" fill="#fff"/>
    <path id="Trazado_138330" data-name="Trazado 138330" d="M535.208,238.63H346.991V50.413a29.156,29.156,0,0,1,29.12-29.121h159.1a29.151,29.151,0,0,1,29.116,29.121v159.1a29.151,29.151,0,0,1-29.116,29.121m-185.669-2.548H535.208a26.6,26.6,0,0,0,26.567-26.573V50.413A26.6,26.6,0,0,0,535.208,23.84h-159.1a26.6,26.6,0,0,0-26.572,26.573Z" transform="translate(178.061 1108)" fill="#ececec"/>
    <path id="Trazado_138333" data-name="Trazado 138333" d="M271.292,283.252H133.059a10.961,10.961,0,0,1-10.951-11.685A160.569,160.569,0,0,1,270.544,123.131a10.961,10.961,0,0,1,11.685,10.951V272.315a10.937,10.937,0,0,1-10.937,10.937" transform="translate(178.061 1108)" fill="#e4c7a1"/>
    <path id="Trazado_138334" data-name="Trazado 138334" d="M303.154,272.315V134.082a10.961,10.961,0,0,1,11.685-10.951A160.569,160.569,0,0,1,463.275,271.567a10.961,10.961,0,0,1-10.951,11.685H314.091a10.937,10.937,0,0,1-10.937-10.937" transform="translate(178.061 1108)" fill="#d44f4a"/>
    <path id="Trazado_138335" data-name="Trazado 138335" d="M314.091,302.519H452.324A10.961,10.961,0,0,1,463.275,314.2,160.569,160.569,0,0,1,314.839,462.64a10.961,10.961,0,0,1-11.685-10.951V313.456a10.937,10.937,0,0,1,10.937-10.937" transform="translate(178.061 1108)" fill="#6bbcb1"/>
    <path id="Trazado_138340" data-name="Trazado 138340" d="M282.229,313.456V451.689a10.961,10.961,0,0,1-11.685,10.951A160.571,160.571,0,0,1,122.107,314.2a10.962,10.962,0,0,1,10.952-11.685H271.292a10.937,10.937,0,0,1,10.937,10.937" transform="translate(178.061 1108)" fill="#ffc200"/>
    <g id="Grupo_66735" data-name="Grupo 66735" transform="translate(178.061 1108)">
      <g id="Grupo_66734" data-name="Grupo 66734" clip-path="url(#clip-path)">
        <rect id="Rectángulo_8876" data-name="Rectángulo 8876" width="354.972" height="354.972" transform="translate(41.689 289.865) rotate(-45)" fill="url(#linear-gradient)"/>
      </g>
    </g>
    <g transform="matrix(1, 0, 0, 1, 169.06, 1102)" filter="url(#Trazado_138342)">
      <path id="Trazado_138342-2" data-name="Trazado 138342" d="M406.726,289.864A114.035,114.035,0,1,1,292.692,175.83,114.034,114.034,0,0,1,406.726,289.864" transform="translate(9 6)" fill="#fff"/>
    </g>
    <path id="Trazado_140742" data-name="Trazado 140742" d="M14.761-.761A10.665,10.665,0,0,1,9.739.3a8.1,8.1,0,0,1-6.214-2.5A9.218,9.218,0,0,1,1.192-8.75,9.661,9.661,0,0,1,3.817-15.8a8.909,8.909,0,0,1,6.657-2.688,10.674,10.674,0,0,1,4.286.748v2.27a8.692,8.692,0,0,0-4.311-1.091A6.616,6.616,0,0,0,5.37-14.469,7.882,7.882,0,0,0,3.424-8.877a7.5,7.5,0,0,0,1.82,5.294A6.192,6.192,0,0,0,10.018-1.61a8.957,8.957,0,0,0,4.743-1.217ZM28.1,0h-2.08V-2.029h-.051A4.354,4.354,0,0,1,21.978.3,4.269,4.269,0,0,1,18.941-.723a3.559,3.559,0,0,1-1.1-2.726q0-3.639,4.286-4.235l3.893-.545q0-3.31-2.676-3.31a6.392,6.392,0,0,0-4.235,1.6v-2.13a8.047,8.047,0,0,1,4.413-1.217q4.578,0,4.578,4.844Zm-2.08-6.569-3.132.431a5.085,5.085,0,0,0-2.181.716,2.066,2.066,0,0,0-.735,1.82,1.982,1.982,0,0,0,.678,1.553,2.622,2.622,0,0,0,1.807.6A3.338,3.338,0,0,0,25.015-2.53a3.874,3.874,0,0,0,1.008-2.745ZM39.416-10.88a2.543,2.543,0,0,0-1.572-.418,2.654,2.654,0,0,0-2.225,1.255,5.8,5.8,0,0,0-.894,3.424V0h-2.08V-12.985h2.08v2.676h.051a4.534,4.534,0,0,1,1.357-2.137,3.094,3.094,0,0,1,2.042-.767,3.4,3.4,0,0,1,1.243.178ZM51.592,0h-2.08V-2.029h-.051A4.354,4.354,0,0,1,45.467.3,4.269,4.269,0,0,1,42.43-.723a3.559,3.559,0,0,1-1.1-2.726q0-3.639,4.286-4.235l3.893-.545q0-3.31-2.676-3.31a6.392,6.392,0,0,0-4.235,1.6v-2.13a8.047,8.047,0,0,1,4.413-1.217q4.578,0,4.578,4.844Zm-2.08-6.569-3.132.431a5.085,5.085,0,0,0-2.181.716,2.066,2.066,0,0,0-.735,1.82,1.982,1.982,0,0,0,.678,1.553,2.622,2.622,0,0,0,1.807.6A3.338,3.338,0,0,0,48.5-2.53a3.874,3.874,0,0,0,1.008-2.745ZM64.984-.6a6.757,6.757,0,0,1-3.551.9A5.879,5.879,0,0,1,56.951-1.5a6.549,6.549,0,0,1-1.706-4.686,7.2,7.2,0,0,1,1.839-5.155,6.432,6.432,0,0,1,4.907-1.947,6.831,6.831,0,0,1,3.018.634v2.13a5.288,5.288,0,0,0-3.094-1.014,4.181,4.181,0,0,0-3.265,1.427,5.413,5.413,0,0,0-1.274,3.747,5.154,5.154,0,0,0,1.2,3.6,4.13,4.13,0,0,0,3.215,1.319,5.212,5.212,0,0,0,3.2-1.129ZM74.8-.127a4.01,4.01,0,0,1-1.94.406q-3.411,0-3.411-3.8V-11.21H67.219v-1.775h2.232v-3.17l2.08-.672v3.842H74.8v1.775H71.53v7.317a3.033,3.033,0,0,0,.444,1.864,1.771,1.771,0,0,0,1.471.558A2.186,2.186,0,0,0,74.8-1.9ZM88.639-5.973H79.47a4.857,4.857,0,0,0,1.167,3.348,4.022,4.022,0,0,0,3.069,1.179,6.38,6.38,0,0,0,4.033-1.446V-.938A7.537,7.537,0,0,1,83.211.3a5.488,5.488,0,0,1-4.324-1.769,7.24,7.24,0,0,1-1.572-4.977,7.1,7.1,0,0,1,1.718-4.939A5.509,5.509,0,0,1,83.3-13.29a4.882,4.882,0,0,1,3.944,1.649,6.873,6.873,0,0,1,1.395,4.578Zm-2.13-1.763a4.231,4.231,0,0,0-.869-2.8,2.96,2.96,0,0,0-2.378-1,3.359,3.359,0,0,0-2.5,1.053A4.776,4.776,0,0,0,79.5-7.735ZM99.2-10.88a2.543,2.543,0,0,0-1.572-.418,2.654,2.654,0,0,0-2.225,1.255,5.8,5.8,0,0,0-.894,3.424V0h-2.08V-12.985h2.08v2.676h.051a4.534,4.534,0,0,1,1.357-2.137,3.094,3.094,0,0,1,2.042-.767,3.4,3.4,0,0,1,1.243.178ZM104.165,0h-2.08V-12.985h2.08Zm1.864-19.6-3.322,4.159H101.1l2.828-4.159ZM108.238-.469V-2.7a6.154,6.154,0,0,0,3.741,1.255q2.739,0,2.739-1.826a1.584,1.584,0,0,0-.235-.881,2.338,2.338,0,0,0-.634-.64,4.881,4.881,0,0,0-.938-.5q-.539-.222-1.16-.463a14.943,14.943,0,0,1-1.515-.691,4.578,4.578,0,0,1-1.091-.786,2.925,2.925,0,0,1-.659-1,3.522,3.522,0,0,1-.222-1.306,3.1,3.1,0,0,1,.418-1.617,3.711,3.711,0,0,1,1.116-1.179,5.2,5.2,0,0,1,1.591-.716,7.059,7.059,0,0,1,1.845-.241,7.45,7.45,0,0,1,3.018.583V-10.6a5.882,5.882,0,0,0-3.3-.938,3.854,3.854,0,0,0-1.053.133,2.577,2.577,0,0,0-.805.374,1.728,1.728,0,0,0-.52.577,1.52,1.52,0,0,0-.184.742,1.779,1.779,0,0,0,.184.85,1.87,1.87,0,0,0,.539.609,4.119,4.119,0,0,0,.862.482q.507.216,1.154.469a16.06,16.06,0,0,1,1.547.678,5.306,5.306,0,0,1,1.167.786,3.072,3.072,0,0,1,.742,1.008,3.251,3.251,0,0,1,.26,1.357,3.2,3.2,0,0,1-.425,1.674,3.641,3.641,0,0,1-1.135,1.179,5.2,5.2,0,0,1-1.636.7,8.077,8.077,0,0,1-1.94.228A7.367,7.367,0,0,1,108.238-.469Zm18.479.342a4.01,4.01,0,0,1-1.94.406q-3.411,0-3.411-3.8V-11.21h-2.232v-1.775h2.232v-3.17l2.08-.672v3.842h3.272v1.775h-3.272v7.317a3.033,3.033,0,0,0,.444,1.864,1.771,1.771,0,0,0,1.471.558,2.186,2.186,0,0,0,1.357-.431Zm4.466-16.155a1.318,1.318,0,0,1-.951-.38,1.284,1.284,0,0,1-.393-.964,1.3,1.3,0,0,1,.393-.97,1.306,1.306,0,0,1,.951-.387,1.343,1.343,0,0,1,.97.387,1.294,1.294,0,0,1,.4.97,1.285,1.285,0,0,1-.4.951A1.332,1.332,0,0,1,131.182-16.282ZM132.2,0h-2.08V-12.985h2.08Zm13.711-.6a6.757,6.757,0,0,1-3.551.9A5.879,5.879,0,0,1,137.873-1.5a6.549,6.549,0,0,1-1.706-4.686,7.2,7.2,0,0,1,1.839-5.155,6.432,6.432,0,0,1,4.907-1.947,6.831,6.831,0,0,1,3.018.634v2.13a5.288,5.288,0,0,0-3.094-1.014,4.181,4.181,0,0,0-3.265,1.427A5.413,5.413,0,0,0,138.3-6.366a5.154,5.154,0,0,0,1.2,3.6,4.13,4.13,0,0,0,3.215,1.319,5.212,5.212,0,0,0,3.2-1.129ZM159,0h-2.08V-2.029h-.051A4.354,4.354,0,0,1,152.871.3a4.269,4.269,0,0,1-3.037-1.027,3.559,3.559,0,0,1-1.1-2.726q0-3.639,4.286-4.235l3.893-.545q0-3.31-2.676-3.31a6.392,6.392,0,0,0-4.235,1.6v-2.13a8.047,8.047,0,0,1,4.413-1.217Q159-13.29,159-8.445Zm-2.08-6.569-3.132.431a5.085,5.085,0,0,0-2.181.716,2.066,2.066,0,0,0-.735,1.82,1.982,1.982,0,0,0,.678,1.553,2.622,2.622,0,0,0,1.807.6,3.338,3.338,0,0,0,2.555-1.084,3.874,3.874,0,0,0,1.008-2.745Zm5.835,6.1V-2.7a6.155,6.155,0,0,0,3.741,1.255q2.739,0,2.739-1.826A1.584,1.584,0,0,0,169-4.153a2.338,2.338,0,0,0-.634-.64,4.88,4.88,0,0,0-.938-.5q-.539-.222-1.16-.463a14.945,14.945,0,0,1-1.515-.691,4.578,4.578,0,0,1-1.091-.786,2.925,2.925,0,0,1-.659-1,3.522,3.522,0,0,1-.222-1.306,3.1,3.1,0,0,1,.418-1.617,3.711,3.711,0,0,1,1.116-1.179,5.2,5.2,0,0,1,1.591-.716,7.059,7.059,0,0,1,1.845-.241,7.45,7.45,0,0,1,3.018.583V-10.6a5.882,5.882,0,0,0-3.3-.938,3.854,3.854,0,0,0-1.053.133,2.577,2.577,0,0,0-.805.374,1.728,1.728,0,0,0-.52.577,1.52,1.52,0,0,0-.184.742,1.779,1.779,0,0,0,.184.85,1.87,1.87,0,0,0,.539.609,4.12,4.12,0,0,0,.862.482q.507.216,1.154.469a16.061,16.061,0,0,1,1.547.678,5.306,5.306,0,0,1,1.167.786,3.072,3.072,0,0,1,.742,1.008,3.252,3.252,0,0,1,.26,1.357,3.2,3.2,0,0,1-.425,1.674A3.641,3.641,0,0,1,169.8-.621a5.2,5.2,0,0,1-1.636.7,8.077,8.077,0,0,1-1.94.228A7.367,7.367,0,0,1,162.751-.469Z" transform="translate(388.186 1367.923)"/>
    <path id="Trazado_140741" data-name="Trazado 140741" d="M13.188,0h-2.08V-2.206h-.051A4.8,4.8,0,0,1,6.594.3,4.85,4.85,0,0,1,2.682-1.439,7.153,7.153,0,0,1,1.217-6.188a7.782,7.782,0,0,1,1.623-5.161,5.353,5.353,0,0,1,4.324-1.94,4.163,4.163,0,0,1,3.893,2.105h.051v-8.04h2.08Zm-2.08-5.871V-7.786a3.715,3.715,0,0,0-1.04-2.663A3.488,3.488,0,0,0,7.431-11.54a3.591,3.591,0,0,0-2.993,1.395A6.113,6.113,0,0,0,3.348-6.29,5.5,5.5,0,0,0,4.394-2.745,3.419,3.419,0,0,0,7.2-1.446,3.552,3.552,0,0,0,10.024-2.7,4.677,4.677,0,0,0,11.108-5.871Zm17.349-.1H19.29a4.857,4.857,0,0,0,1.167,3.348,4.022,4.022,0,0,0,3.069,1.179,6.38,6.38,0,0,0,4.033-1.446V-.938A7.537,7.537,0,0,1,23.03.3a5.488,5.488,0,0,1-4.324-1.769,7.24,7.24,0,0,1-1.572-4.977,7.1,7.1,0,0,1,1.718-4.939,5.509,5.509,0,0,1,4.267-1.908,4.882,4.882,0,0,1,3.944,1.649,6.873,6.873,0,0,1,1.395,4.578Zm-2.13-1.763a4.231,4.231,0,0,0-.869-2.8,2.96,2.96,0,0,0-2.378-1,3.359,3.359,0,0,0-2.5,1.053,4.776,4.776,0,0,0-1.268,2.752ZM42.043,0h-2.08V-19.224h2.08ZM52.33.3a6.023,6.023,0,0,1-4.6-1.82A6.74,6.74,0,0,1,46.014-6.34a7.022,7.022,0,0,1,1.788-5.11,6.428,6.428,0,0,1,4.831-1.839A5.824,5.824,0,0,1,57.167-11.5,7.089,7.089,0,0,1,58.8-6.543,6.976,6.976,0,0,1,57.04-1.566,6.154,6.154,0,0,1,52.33.3Zm.152-11.844a3.956,3.956,0,0,0-3.17,1.363,5.6,5.6,0,0,0-1.167,3.76,5.3,5.3,0,0,0,1.179,3.639,4.008,4.008,0,0,0,3.158,1.331,3.8,3.8,0,0,0,3.1-1.306,5.668,5.668,0,0,0,1.084-3.715,5.765,5.765,0,0,0-1.084-3.754A3.785,3.785,0,0,0,52.482-11.54ZM61.956-.469V-2.7A6.154,6.154,0,0,0,65.7-1.446q2.739,0,2.739-1.826a1.584,1.584,0,0,0-.235-.881,2.338,2.338,0,0,0-.634-.64,4.881,4.881,0,0,0-.938-.5q-.539-.222-1.16-.463a14.944,14.944,0,0,1-1.515-.691,4.578,4.578,0,0,1-1.091-.786,2.926,2.926,0,0,1-.659-1,3.522,3.522,0,0,1-.222-1.306,3.1,3.1,0,0,1,.418-1.617,3.711,3.711,0,0,1,1.116-1.179,5.2,5.2,0,0,1,1.591-.716,7.059,7.059,0,0,1,1.845-.241,7.45,7.45,0,0,1,3.018.583V-10.6a5.882,5.882,0,0,0-3.3-.938,3.854,3.854,0,0,0-1.053.133,2.577,2.577,0,0,0-.805.374,1.728,1.728,0,0,0-.52.577,1.52,1.52,0,0,0-.184.742,1.779,1.779,0,0,0,.184.85,1.87,1.87,0,0,0,.539.609,4.119,4.119,0,0,0,.862.482q.507.216,1.154.469a16.06,16.06,0,0,1,1.547.678,5.306,5.306,0,0,1,1.167.786,3.072,3.072,0,0,1,.742,1.008,3.251,3.251,0,0,1,.26,1.357A3.2,3.2,0,0,1,70.142-1.8,3.641,3.641,0,0,1,69.007-.621a5.2,5.2,0,0,1-1.636.7A8.077,8.077,0,0,1,65.431.3,7.367,7.367,0,0,1,61.956-.469Zm19.406,0V-2.7A6.154,6.154,0,0,0,85.1-1.446q2.739,0,2.739-1.826a1.584,1.584,0,0,0-.235-.881,2.338,2.338,0,0,0-.634-.64,4.881,4.881,0,0,0-.938-.5q-.539-.222-1.16-.463a14.943,14.943,0,0,1-1.515-.691,4.578,4.578,0,0,1-1.091-.786,2.925,2.925,0,0,1-.659-1,3.522,3.522,0,0,1-.222-1.306,3.1,3.1,0,0,1,.418-1.617,3.711,3.711,0,0,1,1.116-1.179,5.2,5.2,0,0,1,1.591-.716,7.059,7.059,0,0,1,1.845-.241,7.45,7.45,0,0,1,3.018.583V-10.6a5.882,5.882,0,0,0-3.3-.938,3.854,3.854,0,0,0-1.053.133,2.577,2.577,0,0,0-.805.374,1.728,1.728,0,0,0-.52.577,1.52,1.52,0,0,0-.184.742,1.779,1.779,0,0,0,.184.85,1.87,1.87,0,0,0,.539.609,4.119,4.119,0,0,0,.862.482q.507.216,1.154.469a16.06,16.06,0,0,1,1.547.678,5.306,5.306,0,0,1,1.167.786,3.072,3.072,0,0,1,.742,1.008,3.251,3.251,0,0,1,.26,1.357A3.2,3.2,0,0,1,89.548-1.8,3.641,3.641,0,0,1,88.413-.621a5.2,5.2,0,0,1-1.636.7A8.077,8.077,0,0,1,84.837.3,7.367,7.367,0,0,1,81.362-.469ZM99.245.3a6.023,6.023,0,0,1-4.6-1.82A6.74,6.74,0,0,1,92.93-6.34a7.022,7.022,0,0,1,1.788-5.11,6.428,6.428,0,0,1,4.831-1.839,5.824,5.824,0,0,1,4.533,1.788,7.089,7.089,0,0,1,1.629,4.958,6.976,6.976,0,0,1-1.756,4.977A6.154,6.154,0,0,1,99.245.3ZM99.4-11.54a3.956,3.956,0,0,0-3.17,1.363,5.6,5.6,0,0,0-1.167,3.76A5.3,5.3,0,0,0,96.24-2.777,4.008,4.008,0,0,0,99.4-1.446a3.8,3.8,0,0,0,3.1-1.306,5.668,5.668,0,0,0,1.084-3.715,5.765,5.765,0,0,0-1.084-3.754A3.785,3.785,0,0,0,99.4-11.54ZM120.437,0h-2.08V-7.406q0-4.134-3.018-4.134a3.274,3.274,0,0,0-2.581,1.173,4.348,4.348,0,0,0-1.021,2.961V0h-2.08V-12.985h2.08v2.156h.051a4.687,4.687,0,0,1,4.261-2.46,3.973,3.973,0,0,1,3.259,1.376,6.129,6.129,0,0,1,1.129,3.975Zm5.607-16.282a1.318,1.318,0,0,1-.951-.38,1.284,1.284,0,0,1-.393-.964,1.3,1.3,0,0,1,.393-.97,1.306,1.306,0,0,1,.951-.387,1.343,1.343,0,0,1,.97.387,1.294,1.294,0,0,1,.4.97,1.285,1.285,0,0,1-.4.951A1.332,1.332,0,0,1,126.043-16.282ZM127.058,0h-2.08V-12.985h2.08ZM143,0h-2.08V-2.206h-.051A4.8,4.8,0,0,1,136.406.3a4.85,4.85,0,0,1-3.912-1.744,7.153,7.153,0,0,1-1.465-4.749,7.782,7.782,0,0,1,1.623-5.161,5.353,5.353,0,0,1,4.324-1.94,4.163,4.163,0,0,1,3.893,2.105h.051v-8.04H143Zm-2.08-5.871V-7.786a3.715,3.715,0,0,0-1.04-2.663,3.488,3.488,0,0,0-2.638-1.091,3.591,3.591,0,0,0-2.993,1.395A6.113,6.113,0,0,0,133.16-6.29a5.5,5.5,0,0,0,1.046,3.544,3.419,3.419,0,0,0,2.809,1.3A3.552,3.552,0,0,0,139.836-2.7,4.677,4.677,0,0,0,140.921-5.871ZM153.261.3a6.023,6.023,0,0,1-4.6-1.82,6.74,6.74,0,0,1-1.718-4.825,7.022,7.022,0,0,1,1.788-5.11,6.428,6.428,0,0,1,4.831-1.839A5.824,5.824,0,0,1,158.1-11.5a7.089,7.089,0,0,1,1.629,4.958,6.976,6.976,0,0,1-1.756,4.977A6.154,6.154,0,0,1,153.261.3Zm.152-11.844a3.956,3.956,0,0,0-3.17,1.363,5.6,5.6,0,0,0-1.167,3.76,5.3,5.3,0,0,0,1.179,3.639,4.008,4.008,0,0,0,3.158,1.331,3.8,3.8,0,0,0,3.1-1.306A5.668,5.668,0,0,0,157.6-6.467a5.765,5.765,0,0,0-1.084-3.754A3.785,3.785,0,0,0,153.413-11.54Zm9.475,11.07V-2.7a6.155,6.155,0,0,0,3.741,1.255q2.739,0,2.739-1.826a1.584,1.584,0,0,0-.235-.881,2.338,2.338,0,0,0-.634-.64,4.88,4.88,0,0,0-.938-.5q-.539-.222-1.16-.463a14.945,14.945,0,0,1-1.515-.691,4.578,4.578,0,0,1-1.091-.786,2.925,2.925,0,0,1-.659-1,3.522,3.522,0,0,1-.222-1.306,3.1,3.1,0,0,1,.418-1.617,3.711,3.711,0,0,1,1.116-1.179,5.2,5.2,0,0,1,1.591-.716,7.059,7.059,0,0,1,1.845-.241,7.45,7.45,0,0,1,3.018.583V-10.6a5.882,5.882,0,0,0-3.3-.938,3.854,3.854,0,0,0-1.053.133,2.577,2.577,0,0,0-.805.374,1.728,1.728,0,0,0-.52.577,1.52,1.52,0,0,0-.184.742,1.779,1.779,0,0,0,.184.85,1.87,1.87,0,0,0,.539.609,4.12,4.12,0,0,0,.862.482q.507.216,1.154.469a16.061,16.061,0,0,1,1.547.678,5.306,5.306,0,0,1,1.167.786,3.072,3.072,0,0,1,.742,1.008,3.252,3.252,0,0,1,.26,1.357,3.2,3.2,0,0,1-.425,1.674,3.641,3.641,0,0,1-1.135,1.179,5.2,5.2,0,0,1-1.636.7,8.077,8.077,0,0,1-1.94.228A7.367,7.367,0,0,1,162.888-.469Z" transform="translate(395.223 1399.087)"/>
    <path id="Trazado_140745" data-name="Trazado 140745" d="M9.84-13.771H3.824v5.328H9.389v1.622H3.824V0H2.02V-15.4H9.84Zm8.686,4.555a2.154,2.154,0,0,0-1.332-.354,2.248,2.248,0,0,0-1.885,1.063,4.917,4.917,0,0,0-.757,2.9V0H12.789V-11h1.762v2.267h.043a3.841,3.841,0,0,1,1.149-1.81,2.621,2.621,0,0,1,1.729-.65,2.876,2.876,0,0,1,1.053.15ZM29.609-5.06H21.842a4.114,4.114,0,0,0,.988,2.836,3.407,3.407,0,0,0,2.6,1,5.4,5.4,0,0,0,3.416-1.225V-.795A6.384,6.384,0,0,1,25.011.258a4.649,4.649,0,0,1-3.663-1.5,6.134,6.134,0,0,1-1.332-4.216,6.015,6.015,0,0,1,1.456-4.184,4.667,4.667,0,0,1,3.615-1.617,4.136,4.136,0,0,1,3.341,1.4,5.822,5.822,0,0,1,1.182,3.878ZM27.8-6.553a3.584,3.584,0,0,0-.736-2.374,2.507,2.507,0,0,0-2.014-.849,2.846,2.846,0,0,0-2.116.892,4.046,4.046,0,0,0-1.074,2.331ZM40.3-.5a5.724,5.724,0,0,1-3.008.763,4.98,4.98,0,0,1-3.8-1.531,5.548,5.548,0,0,1-1.445-3.969,6.1,6.1,0,0,1,1.558-4.367,5.449,5.449,0,0,1,4.157-1.649,5.787,5.787,0,0,1,2.557.537v1.8A4.479,4.479,0,0,0,37.7-9.775a3.542,3.542,0,0,0-2.766,1.208,4.586,4.586,0,0,0-1.08,3.174,4.366,4.366,0,0,0,1.015,3.051,3.5,3.5,0,0,0,2.723,1.117A4.415,4.415,0,0,0,40.3-2.181ZM52.407,0H50.646V-1.74H50.6a3.618,3.618,0,0,1-3.395,2q-3.932,0-3.932-4.684V-11h1.751v6.295q0,3.48,2.664,3.48a2.7,2.7,0,0,0,2.122-.951,3.638,3.638,0,0,0,.833-2.487V-11h1.762ZM65.332-5.06H57.565a4.114,4.114,0,0,0,.988,2.836,3.407,3.407,0,0,0,2.6,1,5.4,5.4,0,0,0,3.416-1.225V-.795A6.384,6.384,0,0,1,60.734.258a4.649,4.649,0,0,1-3.663-1.5,6.134,6.134,0,0,1-1.332-4.216,6.015,6.015,0,0,1,1.456-4.184,4.667,4.667,0,0,1,3.615-1.617,4.135,4.135,0,0,1,3.341,1.4,5.822,5.822,0,0,1,1.182,3.878Zm-1.8-1.493a3.584,3.584,0,0,0-.736-2.374,2.507,2.507,0,0,0-2.014-.849,2.846,2.846,0,0,0-2.116.892,4.046,4.046,0,0,0-1.074,2.331ZM77.655,0H75.893V-6.273q0-3.5-2.557-3.5a2.773,2.773,0,0,0-2.186.994,3.683,3.683,0,0,0-.865,2.508V0H68.524V-11h1.762v1.826h.043a3.97,3.97,0,0,1,3.609-2.084A3.365,3.365,0,0,1,76.7-10.092a5.192,5.192,0,0,1,.956,3.368ZM89-.5a5.724,5.724,0,0,1-3.008.763,4.98,4.98,0,0,1-3.8-1.531A5.548,5.548,0,0,1,80.75-5.242a6.1,6.1,0,0,1,1.558-4.367,5.449,5.449,0,0,1,4.157-1.649,5.787,5.787,0,0,1,2.557.537v1.8A4.479,4.479,0,0,0,86.4-9.775a3.542,3.542,0,0,0-2.766,1.208,4.586,4.586,0,0,0-1.08,3.174A4.366,4.366,0,0,0,83.57-2.342a3.5,3.5,0,0,0,2.723,1.117A4.415,4.415,0,0,0,89-2.181Zm4.116-13.288a1.116,1.116,0,0,1-.806-.322,1.088,1.088,0,0,1-.333-.816,1.105,1.105,0,0,1,.333-.822,1.107,1.107,0,0,1,.806-.328,1.138,1.138,0,0,1,.822.328,1.1,1.1,0,0,1,.338.822,1.089,1.089,0,0,1-.338.806A1.128,1.128,0,0,1,93.117-13.793ZM93.976,0H92.214V-11h1.762Zm11.99,0H104.2V-1.719h-.043A3.688,3.688,0,0,1,100.778.258a3.616,3.616,0,0,1-2.573-.87,3.015,3.015,0,0,1-.929-2.31q0-3.083,3.631-3.588l3.3-.462q0-2.8-2.267-2.8A5.415,5.415,0,0,0,98.35-8.422v-1.8a6.817,6.817,0,0,1,3.738-1.031q3.878,0,3.878,4.1ZM104.2-5.564l-2.653.365a4.308,4.308,0,0,0-1.848.607,1.75,1.75,0,0,0-.623,1.542,1.679,1.679,0,0,0,.575,1.316,2.221,2.221,0,0,0,1.531.51,2.828,2.828,0,0,0,2.165-.918,3.282,3.282,0,0,0,.854-2.326Z" transform="translate(584.129 1182.953)"/>
    <path id="Trazado_140746" data-name="Trazado 140746" d="M2.02,0V-15.4H6.273q8.143,0,8.143,7.509a7.567,7.567,0,0,1-2.261,5.731A8.388,8.388,0,0,1,6.1,0Zm1.8-13.771V-1.633h2.3a6.524,6.524,0,0,0,4.716-1.622,6.081,6.081,0,0,0,1.687-4.6q0-5.919-6.295-5.919ZM26.654,0H24.892V-1.74h-.043a3.618,3.618,0,0,1-3.395,2q-3.932,0-3.932-4.684V-11h1.751v6.295q0,3.48,2.664,3.48a2.7,2.7,0,0,0,2.122-.951,3.638,3.638,0,0,0,.833-2.487V-11h1.762Zm9.82-9.217a2.154,2.154,0,0,0-1.332-.354,2.248,2.248,0,0,0-1.885,1.063,4.917,4.917,0,0,0-.757,2.9V0H30.737V-11H32.5v2.267h.043a3.841,3.841,0,0,1,1.149-1.81,2.621,2.621,0,0,1,1.729-.65,2.876,2.876,0,0,1,1.053.15ZM46.788,0H45.026V-1.719h-.043A3.688,3.688,0,0,1,41.6.258a3.616,3.616,0,0,1-2.573-.87,3.015,3.015,0,0,1-.929-2.31Q38.1-6,41.728-6.51l3.3-.462q0-2.8-2.267-2.8a5.415,5.415,0,0,0-3.588,1.354v-1.8a6.817,6.817,0,0,1,3.738-1.031q3.878,0,3.878,4.1ZM45.026-5.564,42.373-5.2a4.308,4.308,0,0,0-1.848.607A1.75,1.75,0,0,0,39.9-3.051a1.679,1.679,0,0,0,.575,1.316,2.221,2.221,0,0,0,1.531.51,2.828,2.828,0,0,0,2.165-.918,3.282,3.282,0,0,0,.854-2.326ZM58.133-.5a5.724,5.724,0,0,1-3.008.763,4.98,4.98,0,0,1-3.8-1.531,5.548,5.548,0,0,1-1.445-3.969,6.1,6.1,0,0,1,1.558-4.367A5.449,5.449,0,0,1,55.6-11.258a5.787,5.787,0,0,1,2.557.537v1.8a4.479,4.479,0,0,0-2.621-.859,3.542,3.542,0,0,0-2.766,1.208,4.586,4.586,0,0,0-1.08,3.174A4.366,4.366,0,0,0,52.7-2.342a3.5,3.5,0,0,0,2.723,1.117,4.415,4.415,0,0,0,2.707-.956Zm4.116-13.288a1.116,1.116,0,0,1-.806-.322,1.088,1.088,0,0,1-.333-.816,1.105,1.105,0,0,1,.333-.822,1.107,1.107,0,0,1,.806-.328,1.138,1.138,0,0,1,.822.328,1.1,1.1,0,0,1,.338.822,1.089,1.089,0,0,1-.338.806A1.128,1.128,0,0,1,62.249-13.793ZM63.109,0H61.347V-11h1.762Zm8.714.258a5.1,5.1,0,0,1-3.894-1.542,5.71,5.71,0,0,1-1.456-4.087A5.948,5.948,0,0,1,67.988-9.7a5.445,5.445,0,0,1,4.093-1.558,4.934,4.934,0,0,1,3.84,1.515,6.006,6.006,0,0,1,1.38,4.2,5.91,5.91,0,0,1-1.488,4.216A5.213,5.213,0,0,1,71.823.258Zm.129-10.033a3.351,3.351,0,0,0-2.686,1.155,4.743,4.743,0,0,0-.988,3.185,4.485,4.485,0,0,0,1,3.083,3.4,3.4,0,0,0,2.675,1.128,3.221,3.221,0,0,0,2.626-1.106A4.8,4.8,0,0,0,75.5-5.479a4.884,4.884,0,0,0-.918-3.18A3.206,3.206,0,0,0,71.952-9.775Zm2.578-6.832-2.814,3.523H70.351l2.4-3.523ZM89.775,0H88.013V-6.273q0-3.5-2.557-3.5a2.773,2.773,0,0,0-2.186.994,3.683,3.683,0,0,0-.865,2.508V0H80.644V-11h1.762v1.826h.043a3.97,3.97,0,0,1,3.609-2.084,3.365,3.365,0,0,1,2.761,1.166,5.192,5.192,0,0,1,.956,3.368Zm19.157-11-5.06,12.762q-1.354,3.416-3.8,3.416a4.031,4.031,0,0,1-1.149-.14V3.459a3.265,3.265,0,0,0,1.042.193,2.159,2.159,0,0,0,2-1.59l.881-2.084L98.544-11H100.5l2.976,8.465q.054.161.226.838h.064q.054-.258.215-.816L107.105-11Z" transform="translate(248.871 1182.953)"/>
    <path id="Trazado_140744" data-name="Trazado 140744" d="M10.624-5.06H2.857a4.114,4.114,0,0,0,.988,2.836,3.407,3.407,0,0,0,2.6,1A5.4,5.4,0,0,0,9.861-2.449V-.795A6.384,6.384,0,0,1,6.026.258a4.649,4.649,0,0,1-3.663-1.5A6.134,6.134,0,0,1,1.031-5.457,6.015,6.015,0,0,1,2.487-9.641,4.667,4.667,0,0,1,6.1-11.258a4.136,4.136,0,0,1,3.341,1.4,5.822,5.822,0,0,1,1.182,3.878Zm-1.8-1.493a3.584,3.584,0,0,0-.736-2.374,2.507,2.507,0,0,0-2.014-.849,2.846,2.846,0,0,0-2.116.892A4.046,4.046,0,0,0,2.879-6.553ZM22.947,0H21.185V-6.273q0-3.5-2.557-3.5a2.773,2.773,0,0,0-2.186.994,3.683,3.683,0,0,0-.865,2.508V0H13.816V-11h1.762v1.826h.043a3.97,3.97,0,0,1,3.609-2.084,3.365,3.365,0,0,1,2.761,1.166,5.192,5.192,0,0,1,.956,3.368ZM35.442-11,31.059,0H29.329L25.161-11H27.1l2.793,7.992a7.173,7.173,0,0,1,.387,1.536h.043a7.264,7.264,0,0,1,.344-1.493L33.583-11ZM42.3.258A5.1,5.1,0,0,1,38.41-1.284a5.71,5.71,0,0,1-1.456-4.087A5.948,5.948,0,0,1,38.469-9.7a5.445,5.445,0,0,1,4.093-1.558A4.934,4.934,0,0,1,46.4-9.743a6.006,6.006,0,0,1,1.38,4.2,5.91,5.91,0,0,1-1.488,4.216A5.213,5.213,0,0,1,42.3.258Zm.129-10.033a3.351,3.351,0,0,0-2.686,1.155,4.743,4.743,0,0,0-.988,3.185,4.485,4.485,0,0,0,1,3.083,3.4,3.4,0,0,0,2.675,1.128,3.221,3.221,0,0,0,2.626-1.106,4.8,4.8,0,0,0,.918-3.147,4.884,4.884,0,0,0-.918-3.18A3.206,3.206,0,0,0,42.433-9.775ZM52.887,0H51.125V-16.285h1.762ZM65.651-11,61.268,0H59.538L55.37-11H57.3L60.1-3.008a7.173,7.173,0,0,1,.387,1.536h.043a7.264,7.264,0,0,1,.344-1.493L63.792-11ZM76.778-5.06H69.011A4.114,4.114,0,0,0,70-2.224a3.407,3.407,0,0,0,2.6,1,5.4,5.4,0,0,0,3.416-1.225V-.795A6.384,6.384,0,0,1,72.18.258a4.649,4.649,0,0,1-3.663-1.5,6.134,6.134,0,0,1-1.332-4.216,6.015,6.015,0,0,1,1.456-4.184,4.667,4.667,0,0,1,3.615-1.617,4.136,4.136,0,0,1,3.341,1.4,5.822,5.822,0,0,1,1.182,3.878Zm-1.8-1.493a3.584,3.584,0,0,0-.736-2.374,2.507,2.507,0,0,0-2.014-.849,2.846,2.846,0,0,0-2.116.892,4.046,4.046,0,0,0-1.074,2.331ZM89.1,0H87.339V-6.273q0-3.5-2.557-3.5a2.773,2.773,0,0,0-2.186.994,3.683,3.683,0,0,0-.865,2.508V0H79.97V-11h1.762v1.826h.043a3.97,3.97,0,0,1,3.609-2.084,3.365,3.365,0,0,1,2.761,1.166A5.192,5.192,0,0,1,89.1-6.725Zm8.95-.107a3.4,3.4,0,0,1-1.644.344q-2.89,0-2.89-3.223V-9.5H91.627V-11h1.891v-2.686l1.762-.569V-11h2.771v1.5H95.279v6.2a2.57,2.57,0,0,0,.376,1.579,1.5,1.5,0,0,0,1.246.473,1.852,1.852,0,0,0,1.149-.365ZM109.772-5.06h-7.767a4.114,4.114,0,0,0,.988,2.836,3.407,3.407,0,0,0,2.6,1,5.4,5.4,0,0,0,3.416-1.225V-.795A6.384,6.384,0,0,1,105.175.258a4.649,4.649,0,0,1-3.663-1.5,6.134,6.134,0,0,1-1.332-4.216,6.015,6.015,0,0,1,1.456-4.184,4.667,4.667,0,0,1,3.615-1.617,4.136,4.136,0,0,1,3.341,1.4,5.822,5.822,0,0,1,1.182,3.878Zm-1.8-1.493a3.584,3.584,0,0,0-.736-2.374,2.507,2.507,0,0,0-2.014-.849,2.846,2.846,0,0,0-2.116.892,4.046,4.046,0,0,0-1.074,2.331Z" transform="translate(250.521 1209.353)"/>
    <path id="Trazado_140740" data-name="Trazado 140740" d="M13.943,0h-2L10.313-4.318H3.781L2.245,0H.236L6.145-15.4H8.014ZM9.722-5.94,7.3-12.5a6.285,6.285,0,0,1-.236-1.031H7.025A5.754,5.754,0,0,1,6.778-12.5L4.383-5.94ZM32.121,0H30.359V-6.316A4.765,4.765,0,0,0,29.8-8.959a2.139,2.139,0,0,0-1.9-.816,2.348,2.348,0,0,0-1.917,1.031,3.945,3.945,0,0,0-.79,2.471V0H23.43V-6.531q0-3.244-2.5-3.244a2.319,2.319,0,0,0-1.912.972,4.019,4.019,0,0,0-.752,2.53V0H16.5V-11h1.762v1.74h.043a3.737,3.737,0,0,1,3.416-2,3.185,3.185,0,0,1,1.966.628A3.161,3.161,0,0,1,24.838-8.98a3.925,3.925,0,0,1,3.652-2.277q3.631,0,3.631,4.479Zm5.663-1.59h-.043V5.06H35.979V-11h1.762v1.934h.043a4.166,4.166,0,0,1,3.8-2.191,4.028,4.028,0,0,1,3.319,1.477A6.118,6.118,0,0,1,46.1-5.822,6.818,6.818,0,0,1,44.755-1.4,4.471,4.471,0,0,1,41.081.258,3.68,3.68,0,0,1,37.784-1.59Zm-.043-4.437V-4.49a3.271,3.271,0,0,0,.886,2.315,2.943,2.943,0,0,0,2.25.951,2.949,2.949,0,0,0,2.508-1.225,5.618,5.618,0,0,0,.908-3.405,4.435,4.435,0,0,0-.849-2.879,2.808,2.808,0,0,0-2.3-1.042,3.121,3.121,0,0,0-2.471,1.069A3.925,3.925,0,0,0,37.741-6.026ZM51.2,0H49.44V-16.285H51.2Zm5.019-13.793a1.116,1.116,0,0,1-.806-.322,1.088,1.088,0,0,1-.333-.816,1.105,1.105,0,0,1,.333-.822,1.107,1.107,0,0,1,.806-.328,1.138,1.138,0,0,1,.822.328,1.1,1.1,0,0,1,.338.822,1.089,1.089,0,0,1-.338.806A1.128,1.128,0,0,1,56.221-13.793ZM57.08,0H55.319V-11H57.08ZM66.3-.107a3.4,3.4,0,0,1-1.644.344q-2.89,0-2.89-3.223V-9.5H59.875V-11h1.891v-2.686l1.762-.569V-11H66.3v1.5H63.528v6.2A2.57,2.57,0,0,0,63.9-1.719a1.5,1.5,0,0,0,1.246.473A1.852,1.852,0,0,0,66.3-1.611ZM78.074,0H76.313V-1.74H76.27a3.618,3.618,0,0,1-3.395,2q-3.932,0-3.932-4.684V-11h1.751v6.295q0,3.48,2.664,3.48a2.7,2.7,0,0,0,2.122-.951,3.638,3.638,0,0,0,.833-2.487V-11h1.762ZM91.547,0H89.785V-1.869h-.043A4.067,4.067,0,0,1,85.961.258a4.109,4.109,0,0,1-3.314-1.477,6.059,6.059,0,0,1-1.241-4.023,6.592,6.592,0,0,1,1.375-4.372,4.535,4.535,0,0,1,3.663-1.644,3.526,3.526,0,0,1,3.3,1.783h.043v-6.811h1.762ZM89.785-4.974V-6.6A3.147,3.147,0,0,0,88.9-8.852a2.954,2.954,0,0,0-2.234-.924,3.042,3.042,0,0,0-2.535,1.182,5.178,5.178,0,0,0-.924,3.266,4.657,4.657,0,0,0,.886,3,2.9,2.9,0,0,0,2.379,1.1,3.009,3.009,0,0,0,2.39-1.063A3.962,3.962,0,0,0,89.785-4.974Z" transform="translate(592.467 1652.808)"/>
    <path id="Trazado_140743" data-name="Trazado 140743" d="M11.129-13.771H6.682V0h-1.8V-13.771H.44V-15.4H11.129Zm3.611-.021a1.116,1.116,0,0,1-.806-.322,1.088,1.088,0,0,1-.333-.816,1.105,1.105,0,0,1,.333-.822,1.107,1.107,0,0,1,.806-.328,1.138,1.138,0,0,1,.822.328,1.1,1.1,0,0,1,.338.822,1.089,1.089,0,0,1-.338.806A1.128,1.128,0,0,1,14.74-13.793ZM15.6,0H13.838V-11H15.6ZM35.335,0H33.573V-6.316a4.765,4.765,0,0,0-.564-2.643,2.139,2.139,0,0,0-1.9-.816A2.348,2.348,0,0,0,29.2-8.744a3.945,3.945,0,0,0-.79,2.471V0H26.644V-6.531q0-3.244-2.5-3.244a2.319,2.319,0,0,0-1.912.972,4.019,4.019,0,0,0-.752,2.53V0H19.716V-11h1.762v1.74h.043a3.737,3.737,0,0,1,3.416-2,3.185,3.185,0,0,1,1.966.628A3.161,3.161,0,0,1,28.052-8.98,3.925,3.925,0,0,1,31.7-11.258q3.631,0,3.631,4.479ZM41-1.59h-.043V0H39.193V-16.285h1.762v7.219H41a4.166,4.166,0,0,1,3.8-2.191,4.032,4.032,0,0,1,3.314,1.477,6.1,6.1,0,0,1,1.2,3.958A6.818,6.818,0,0,1,47.969-1.4,4.471,4.471,0,0,1,44.3.258,3.618,3.618,0,0,1,41-1.59Zm-.043-4.437V-4.49a3.271,3.271,0,0,0,.886,2.315,2.943,2.943,0,0,0,2.25.951A2.949,2.949,0,0,0,46.6-2.449a5.618,5.618,0,0,0,.908-3.405,4.435,4.435,0,0,0-.849-2.879,2.808,2.808,0,0,0-2.3-1.042,3.121,3.121,0,0,0-2.471,1.069A3.925,3.925,0,0,0,40.955-6.026Zm17.436-3.19a2.154,2.154,0,0,0-1.332-.354,2.248,2.248,0,0,0-1.885,1.063,4.917,4.917,0,0,0-.757,2.9V0H52.655V-11h1.762v2.267h.043a3.841,3.841,0,0,1,1.149-1.81,2.621,2.621,0,0,1,1.729-.65,2.876,2.876,0,0,1,1.053.15ZM69.474-5.06H61.707A4.114,4.114,0,0,0,62.7-2.224a3.407,3.407,0,0,0,2.6,1,5.4,5.4,0,0,0,3.416-1.225V-.795A6.384,6.384,0,0,1,64.876.258a4.649,4.649,0,0,1-3.663-1.5,6.134,6.134,0,0,1-1.332-4.216,6.015,6.015,0,0,1,1.456-4.184,4.667,4.667,0,0,1,3.615-1.617,4.136,4.136,0,0,1,3.341,1.4,5.822,5.822,0,0,1,1.182,3.878Zm-1.8-1.493a3.584,3.584,0,0,0-.736-2.374,2.507,2.507,0,0,0-2.014-.849,2.846,2.846,0,0,0-2.116.892,4.046,4.046,0,0,0-1.074,2.331Z" transform="translate(287.723 1652.808)"/>
    <g id="Grupo_66739" data-name="Grupo 66739">
      <path id="Trazado_138343" data-name="Trazado 138343" d="M345.765,348.372a7.22,7.22,0,0,1-.556.723,1.917,1.917,0,0,1-2.17.534,1.938,1.938,0,0,1-1.353-1.9q-.049-4.4,0-8.8a1.907,1.907,0,0,1,1.421-1.947,1.971,1.971,0,0,1,2.347.852c.094.135.208.256.313.383Z" transform="translate(178.061 1108)"/>
      <path id="Trazado_138344" data-name="Trazado 138344" d="M315.129,343.7q0,17.879,0,35.756a8.6,8.6,0,0,1-.05,1.344,2.008,2.008,0,0,1-3.945-.025,7.419,7.419,0,0,1-.05-1.137q0-35.963,0-71.926c0-1.855.668-2.8,1.986-2.833,1.35-.03,2.063.953,2.063,2.858V343.7" transform="translate(178.061 1108)"/>
      <path id="Trazado_138345" data-name="Trazado 138345" d="M264.1,343.6q0,13.887,0,27.775a7.874,7.874,0,0,1-.042,1.24,2.02,2.02,0,0,1-1.974,1.659,1.981,1.981,0,0,1-1.956-1.54,6.56,6.56,0,0,1-.1-1.338q-.006-27.723,0-55.445a6.64,6.64,0,0,1,.094-1.339,1.925,1.925,0,0,1,2.043-1.537,1.967,1.967,0,0,1,1.906,1.716,8.627,8.627,0,0,1,.029,1.138q0,13.836,0,27.671" transform="translate(178.061 1108)"/>
      <path id="Trazado_138346" data-name="Trazado 138346" d="M305.136,343.328q0,11.289,0,22.579c0,1.357-.615,2.194-1.69,2.364a1.98,1.98,0,0,1-2.312-1.579,5.9,5.9,0,0,1-.087-1.234q-.006-22.164,0-44.329a5.761,5.761,0,0,1,.1-1.233,1.986,1.986,0,0,1,2.027-1.579,2.032,2.032,0,0,1,1.944,1.812,8.691,8.691,0,0,1,.022,1.034q0,11.084,0,22.165" transform="translate(178.061 1108)"/>
      <path id="Trazado_138347" data-name="Trazado 138347" d="M321.284,343.67c0-6.632-.007-13.263.013-19.9a3.567,3.567,0,0,1,.32-1.585,1.794,1.794,0,0,1,2.018-.94,1.871,1.871,0,0,1,1.626,1.531,6.06,6.06,0,0,1,.094,1.235q.006,19.637,0,39.272a8.156,8.156,0,0,1-.022.828,2.023,2.023,0,1,1-4.043-.136c-.022-2.936-.009-5.872-.009-8.808v-11.5" transform="translate(178.061 1108)"/>
      <path id="Trazado_138348" data-name="Trazado 138348" d="M274.308,342.679q0,8.237,0,16.472a7.626,7.626,0,0,1-.057,1.239,2.005,2.005,0,0,1-1.977,1.646,2.026,2.026,0,0,1-1.968-1.662,7.294,7.294,0,0,1-.045-1.137q0-16.575,0-33.151a9.154,9.154,0,0,1,.028-1.035,2.006,2.006,0,0,1,3.974-.084,8.829,8.829,0,0,1,.046,1.24q0,8.236,0,16.472" transform="translate(178.061 1108)"/>
      <path id="Trazado_138349" data-name="Trazado 138349" d="M253.921,343.4c0,4.522.032,9.044-.034,13.565a3.223,3.223,0,0,1-.768,2.013,1.914,1.914,0,0,1-3.117-.816,4.765,4.765,0,0,1-.178-1.526q-.015-13.308-.007-26.614c0-.207-.006-.414,0-.621a2.044,2.044,0,0,1,2.065-2.228,2.015,2.015,0,0,1,2.031,2.247c.015,4.142.006,8.285.006,12.427V343.4" transform="translate(178.061 1108)"/>
      <path id="Trazado_138350" data-name="Trazado 138350" d="M331.47,343.616c0-3.282-.008-6.564,0-9.846a2.071,2.071,0,1,1,4.1.038c.015,3.455.005,6.91.005,10.365q0,4.664,0,9.327a2.183,2.183,0,0,1-1.132,2.163,2.033,2.033,0,0,1-2.966-1.994c-.027-3.351-.008-6.7-.008-10.053" transform="translate(178.061 1108)"/>
      <path id="Trazado_138351" data-name="Trazado 138351" d="M290.444,343.4c0-2.693-.011-5.386.005-8.078a2.067,2.067,0,0,1,1.758-2.31,2.026,2.026,0,0,1,2.336,2.238c.02,3.141.007,6.283.007,9.424,0,2.21.01,4.419,0,6.629a2.064,2.064,0,0,1-2.062,2.334c-1.235-.009-2.027-.9-2.036-2.366-.015-2.623,0-5.247,0-7.871" transform="translate(178.061 1108)"/>
      <path id="Trazado_138352" data-name="Trazado 138352" d="M239.621,342.586c0-1.585-.01-3.169,0-4.754a2.057,2.057,0,1,1,4.087-.041q.039,4.857,0,9.714a2.093,2.093,0,0,1-2.028,2.284,2.122,2.122,0,0,1-2.058-2.346c-.013-1.619,0-3.238,0-4.857" transform="translate(178.061 1108)"/>
      <path id="Trazado_138353" data-name="Trazado 138353" d="M280.454,343.527c0-1.277-.018-2.553.006-3.829a1.991,1.991,0,0,1,1.93-2.128,1.969,1.969,0,0,1,2.126,2.041q.081,4.035,0,8.072a2.027,2.027,0,0,1-2.092,2.106,2.086,2.086,0,0,1-1.969-2.225c-.019-1.346,0-2.691,0-4.037" transform="translate(178.061 1108)"/>
    </g>
    <g id="Grupo_66736" data-name="Grupo 66736">
      <path id="Trazado_138354" data-name="Trazado 138354" d="M450.365,154.543l-1.007-8.057h-6.383l-.512,2.047-1.023-2.047h-3.917l-1.269,3.808-.762-3.808H412.37v1.8h11.936l.505-1.012,4.075,10.187,3.014-10.544,3.479,17.4,4.379-13.135,3.84,7.681,2.447-9.792,4.082,32.64,5.032-35.23h-3.643Z" transform="translate(178.061 1108)" fill="#d44f4a"/>
      <path id="Trazado_138355" data-name="Trazado 138355" d="M472.167,148.759l-.413-2.273h-6.895l-1.551,8.789-.942-8.789h-3.628l3.7,34.5,5.874-33.287,3.3,18.16,4.451-17.81,3.041,6.08,3.041-6.08,1.8,7.214,3.485-6.971h11.511v-1.8H472.735Z" transform="translate(178.061 1108)" fill="#d44f4a"/>
      <path id="Trazado_138356" data-name="Trazado 138356" d="M485.081,144.926l-1.8-7.214L479.1,146.06l-4.174-8.348-2.2,8.774h26.209v-1.8H485.2Z" transform="translate(178.061 1108)" fill="#d44f4a"/>
      <path id="Trazado_138357" data-name="Trazado 138357" d="M468.255,127.24l-3.4,19.246h6.9Z" transform="translate(178.061 1108)" fill="#d44f4a"/>
      <path id="Trazado_138358" data-name="Trazado 138358" d="M457.729,103.2H457.7l-6.185,43.287h3.644L457.2,132.17l1.534,14.316h3.628Z" transform="translate(178.061 1108)" fill="#d44f4a"/>
      <path id="Trazado_138359" data-name="Trazado 138359" d="M432.518,131.623l-4.2,14.707-3.14-7.85-3.1,6.2h-9.7v1.8h23.122Z" transform="translate(178.061 1108)" fill="#d44f4a"/>
      <path id="Trazado_138360" data-name="Trazado 138360" d="M442.975,146.486h6.383l-2.128-17.019Z" transform="translate(178.061 1108)" fill="#d44f4a"/>
      <path id="Trazado_138361" data-name="Trazado 138361" d="M437.523,146.486h3.917l-2.351-4.7Z" transform="translate(178.061 1108)" fill="#d44f4a"/>
    </g>
    <path id="Trazado_138362" data-name="Trazado 138362" d="M471.345,467.614a1.85,1.85,0,0,0-1.85,1.85c0,7.017-3.388,12.947-7.4,12.947s-7.4-5.93-7.4-12.947c0-10.371-4.875-18.5-11.1-18.5-5.334,0-9.976,6.136-11.039,14.59a1.851,1.851,0,0,0,3.672.463c.8-6.359,4.038-11.353,7.367-11.353,3.5,0,7.4,6.076,7.4,14.8,0,9.335,4.876,16.646,11.1,16.646s11.1-7.311,11.1-16.646a1.849,1.849,0,0,0-1.849-1.85" transform="translate(178.061 1108)" fill="#6bbcb1"/>
    <path id="Trazado_138363" data-name="Trazado 138363" d="M418.63,454.667c-5.7,0-10.173,6.5-10.173,14.8a1.85,1.85,0,1,0,3.7,0c0-6.015,2.96-11.1,6.474-11.1,3.085,0,6.061,3.572,6.37,7.643a1.831,1.831,0,0,0,1.948,1.706l.039,0a1.849,1.849,0,0,0,1.7-1.986c-.462-6.1-4.975-11.059-10.058-11.059" transform="translate(178.061 1108)" fill="#75c9bb"/>
    <path id="Trazado_138364" data-name="Trazado 138364" d="M462.1,497.208c-7.214,0-11.1-14.3-11.1-27.744,0-15.807-4.381-25.895-7.4-25.895-2.614,0-6.738,7.941-7.356,22.3a1.818,1.818,0,0,1-1.864,1.771q-.031,0-.063,0a1.85,1.85,0,0,1-1.769-1.927c.555-12.86,4.186-25.839,11.052-25.839,7.285,0,11.1,14.887,11.1,29.594,0,14.678,4.381,24.045,7.4,24.045s7.4-9.367,7.4-24.045c0-6.222,3.25-11.1,7.4-11.1s7.4,4.876,7.4,11.1c0,4.234,1.954,7.4,3.7,7.4s3.7-3.164,3.7-7.4c0-9.491,3.579-16.647,8.323-16.647s8.323,7.156,8.323,16.647a1.85,1.85,0,0,1-3.7,0c0-7.9-2.737-12.948-4.624-12.948s-4.624,5.044-4.624,12.948c0,6.222-3.25,11.1-7.4,11.1s-7.4-4.875-7.4-11.1c0-4.234-1.953-7.4-3.7-7.4s-3.7,3.165-3.7,7.4c0,13.448-3.884,27.744-11.1,27.744" transform="translate(178.061 1108)" fill="#75c9bb"/>
    <path id="Trazado_138365" data-name="Trazado 138365" d="M462.1,508.306c-7.624,0-11.1-20.135-11.1-38.842,0-22.739-4.888-35.143-7.4-35.143-2.3,0-6.844,10.824-7.354,31.512a5.629,5.629,0,0,1-11.248.146c-.671-11-4.13-16.861-6.368-16.861-2.639,0-6.474,7.926-6.474,20.346a1.85,1.85,0,1,1-3.7,0c0-11.653,3.566-24.045,10.173-24.045,6.091,0,9.442,10.214,10.06,20.346a1.957,1.957,0,0,0,1.927,1.849,1.935,1.935,0,0,0,1.93-1.871c.325-13.044,3.011-35.121,11.053-35.121,7.624,0,11.1,20.135,11.1,38.842,0,22.739,4.888,35.143,7.4,35.143s7.4-12.4,7.4-35.143c0-9.8,2.316-20.346,7.4-20.346s7.4,10.543,7.4,20.346c0,11.179,2.459,17.991,3.777,18.507,1.164-.516,3.622-7.328,3.622-18.507,0-10.3,1.753-27.744,8.323-27.744s8.323,17.44,8.323,27.744a1.85,1.85,0,1,1-3.7,0c0-14.849-3.037-23.549-4.663-24.045-1.548.5-4.585,9.2-4.585,24.045,0,8.244-1.559,22.2-7.4,22.2s-7.4-13.951-7.4-22.2c0-10.822-2.7-16.369-3.727-16.646-.971.277-3.671,5.824-3.671,16.646,0,18.707-3.474,38.842-11.1,38.842" transform="translate(178.061 1108)" fill="#68afa3"/>
    <path id="Trazado_138366" data-name="Trazado 138366" d="M512.036,471.313H404.758a1.849,1.849,0,0,1,0-3.7H512.036a1.849,1.849,0,1,1,0,3.7" transform="translate(178.061 1108)" fill="#4e847a"/>
    <g id="Grupo_66738" data-name="Grupo 66738">
      <path id="Trazado_138367" data-name="Trazado 138367" d="M136.039,480.319a1.536,1.536,0,1,1-1.536-1.536,1.536,1.536,0,0,1,1.536,1.536" transform="translate(178.061 1108)" fill="#ffc200"/>
      <path id="Trazado_138368" data-name="Trazado 138368" d="M99.646,478.269V465.978a1.536,1.536,0,1,1,3.073,0v12.291a1.536,1.536,0,0,1-3.073,0" transform="translate(178.061 1108)" fill="#ffc200"/>
      <path id="Trazado_138369" data-name="Trazado 138369" d="M105.791,484.415V459.832a1.536,1.536,0,0,1,3.073,0v24.583a1.536,1.536,0,0,1-3.073,0" transform="translate(178.061 1108)" fill="#ffc200"/>
      <path id="Trazado_138370" data-name="Trazado 138370" d="M111.937,495.17V449.078a1.537,1.537,0,1,1,3.073,0V495.17a1.537,1.537,0,0,1-3.073,0" transform="translate(178.061 1108)" fill="#ffc200"/>
      <path id="Trazado_138371" data-name="Trazado 138371" d="M167.248,495.17V449.078a1.536,1.536,0,1,1,3.073,0V495.17a1.536,1.536,0,0,1-3.073,0" transform="translate(178.061 1108)" fill="#ffc200"/>
      <path id="Trazado_138372" data-name="Trazado 138372" d="M173.394,484.415V459.832a1.536,1.536,0,0,1,3.073,0v24.583a1.536,1.536,0,0,1-3.073,0" transform="translate(178.061 1108)" fill="#ffc200"/>
      <path id="Trazado_138373" data-name="Trazado 138373" d="M179.539,478.269V465.978a1.536,1.536,0,1,1,3.073,0v12.291a1.536,1.536,0,0,1-3.073,0" transform="translate(178.061 1108)" fill="#ffc200"/>
      <path id="Trazado_138374" data-name="Trazado 138374" d="M149.548,473.434a1.539,1.539,0,0,1-2.428-1.891c2.706-3.466,1.711-4.74.174-6.12a21.823,21.823,0,0,1-2.8-2.938c0,19.442.232,20.058-.392,21.6a8.116,8.116,0,0,1-4.514,4.219c-5.018,2.079-9.515-.476-9.209-4.394a1.536,1.536,0,1,1,3.063.242c-.135,1.66,2.459,2.351,4.971,1.314a5.2,5.2,0,0,0,2.842-2.54,1.657,1.657,0,0,0,.061-1.3,2.557,2.557,0,0,0-2.43-1.147,1.536,1.536,0,1,1,.054-3.072,7.045,7.045,0,0,1,2.481.471v-21.19a1.466,1.466,0,0,1,2.862-.558,18.825,18.825,0,0,0,5.06,7.011c3,2.687,3.692,5.82.2,10.3" transform="translate(178.061 1108)" fill="#ffc200"/>
      <path id="Trazado_138375" data-name="Trazado 138375" d="M165.712,472.123a24.44,24.44,0,0,0-1.537-8.473V440.627a1.536,1.536,0,1,0-3.073,0v17.22a24.9,24.9,0,0,0-3.072-3.534V434.481a1.536,1.536,0,0,0-3.073,0v17.334a24.343,24.343,0,0,0-3.073-1.762V430.64a1.536,1.536,0,0,0-3.073,0v18.147a24.287,24.287,0,0,0-3.073-.8V433.713a1.537,1.537,0,1,0-3.073,0v13.906a14.88,14.88,0,0,0-3.072,0V433.713a1.536,1.536,0,1,0-3.073,0v14.276a24.286,24.286,0,0,0-3.073.8V430.64a1.537,1.537,0,0,0-3.073,0v19.413a24.343,24.343,0,0,0-3.073,1.762V434.481a1.537,1.537,0,0,0-3.073,0v19.837a24.892,24.892,0,0,0-3.072,3.533V440.627a1.536,1.536,0,1,0-3.073,0V463.65a24.129,24.129,0,0,0,0,16.947V503.62a1.536,1.536,0,0,0,3.073,0V486.4a24.894,24.894,0,0,0,3.072,3.533v19.832a1.537,1.537,0,1,0,3.073,0V492.432a24.347,24.347,0,0,0,3.073,1.762v19.412a1.537,1.537,0,1,0,3.073,0V495.46a24.449,24.449,0,0,0,3.073.8v14.277a1.536,1.536,0,0,0,3.073,0V496.627a14.88,14.88,0,0,0,3.072,0v13.907a1.537,1.537,0,0,0,3.073,0V496.257a24.45,24.45,0,0,0,3.073-.8v18.146a1.536,1.536,0,1,0,3.073,0V494.194a24.346,24.346,0,0,0,3.073-1.762v17.333a1.536,1.536,0,1,0,3.073,0V489.929a24.9,24.9,0,0,0,3.072-3.534V503.62a1.536,1.536,0,0,0,3.073,0V480.6a24.449,24.449,0,0,0,1.537-8.474m-24.583,21.51a21.51,21.51,0,1,1,21.51-21.51,21.51,21.51,0,0,1-21.51,21.51" transform="translate(178.061 1108)" fill="#ffc200"/>
    </g>
    <g id="Grupo_66737" data-name="Grupo 66737">
      <path id="Trazado_138376" data-name="Trazado 138376" d="M114.781,118.176a1.894,1.894,0,0,0-.674-.3,1.474,1.474,0,0,0-1.813.11c-7.433,5.643-15.456,10.4-23.257,15.506-4.786,0-9.565.039-14.34.379a.718.718,0,0,0-.083.013,1.834,1.834,0,0,0-.612.055,1.915,1.915,0,0,0-1.327,2.337,8.089,8.089,0,0,1,.306,2.281,150.864,150.864,0,0,0,.2,17.727,1.976,1.976,0,0,0,2.495,1.769,71.093,71.093,0,0,0,12.576.158c8.136,4.988,15.289,11.345,23.1,16.807a1.565,1.565,0,0,0,1.666.175,1.9,1.9,0,0,0,.826-.472,44.367,44.367,0,0,0,3.224-3.458,1.5,1.5,0,0,0,.866-1.048c12.33-15.573,14.811-39.5-3.145-52.039M90.168,154.935a1.535,1.535,0,0,0-1.136-.544,1.622,1.622,0,0,0-.634.014,72.217,72.217,0,0,1-11.534-.031c-.26-4.841-.348-9.679-.135-14.523a2.062,2.062,0,0,0,.055-.471c0-.241,0-.483-.008-.724,0-.075,0-.15.008-.227a1.957,1.957,0,0,0-.035-.494c-.006-.126-.012-.252-.021-.378,4.257-.232,8.517-.266,12.782-.267a1.838,1.838,0,0,0,.943-.247,2.025,2.025,0,0,0,.395-.2c6.628-4.34,13.416-8.436,19.871-13.026-5.213,4.387-6.582,15.149-6.9,21-.305,5.531-.113,11.544,1.6,16.859.56,1.732,1.016,3.706,1.689,5.52-5.546-4.228-10.98-8.607-16.938-12.258m17.412-9.351c.04-1.258.137-3.1.369-5.166,5.33,3.043,5.935,10.233-.263,12.668a69.921,69.921,0,0,1-.106-7.5m7.6,21.922a1.726,1.726,0,0,0-1.108.472c-2.25.209-2.9-.59-3.633-3.285-.549-2.021-1.407-3.926-1.9-5.962-.145-.593-.266-1.191-.374-1.794,10.749-3.5,9.6-16.017.368-20.415,1.163-6.017,3.714-12.036,9.315-10.557,10.068,11.682,6.681,29.449-2.665,41.541" transform="translate(178.061 1108)" fill="#ceb18e"/>
      <path id="Trazado_138377" data-name="Trazado 138377" d="M138.147,123.968c-1.1-2.445-4.692-.325-3.6,2.1a40.9,40.9,0,0,1-4.166,40.934c-1.557,2.2,2.057,4.273,3.6,2.1a45.061,45.061,0,0,0,4.165-45.139" transform="translate(178.061 1108)" fill="#ceb18e"/>
      <path id="Trazado_138378" data-name="Trazado 138378" d="M141.8,121.631a49.8,49.8,0,0,1-5.073,49.849c-1.9,2.674,2.5,5.2,4.38,2.56,11.576-16.321,13.268-36.806,5.072-54.969-1.344-2.976-5.713-.4-4.379,2.56" transform="translate(178.061 1108)" fill="#ceb18e"/>
      <path id="Trazado_138379" data-name="Trazado 138379" d="M130.7,127.89c-.912-2.018-3.874-.268-2.969,1.736a33.763,33.763,0,0,1-3.439,33.8c-1.286,1.813,1.7,3.528,2.969,1.736A37.208,37.208,0,0,0,130.7,127.89" transform="translate(178.061 1108)" fill="#ceb18e"/>
    </g>
  </g>
</svg>
