<svg id="Grupo_67033" data-name="Grupo 67033" xmlns="http://www.w3.org/2000/svg" xmlns:xlink="http://www.w3.org/1999/xlink" width="400.056" height="282.967" viewBox="0 0 400.056 282.967">
  <defs>
    <clipPath id="clip-path">
      <rect id="Rectángulo_9338" data-name="Rectángulo 9338" width="400.056" height="282.967" fill="none"/>
    </clipPath>
  </defs>
  <g id="Grupo_67032" data-name="Grupo 67032" clip-path="url(#clip-path)">
    <path id="Trazado_139864" data-name="Trazado 139864" d="M261.479,0c74.964,0,135.734,61.953,135.734,138.376s-60.77,138.377-135.734,138.377S125.745,214.8,125.745,138.376,186.515,0,261.479,0" fill="#efe3da"/>
    <path id="Trazado_139865" data-name="Trazado 139865" d="M126.414,35.827A123.57,123.57,0,1,1,2.844,159.4a123.57,123.57,0,0,1,123.57-123.57" fill="#efe3da"/>
    <rect id="Rectángulo_9289" data-name="Rectángulo 9289" width="64.336" height="52.832" transform="translate(215.487 43.58)" fill="#f5f5f5"/>
    <path id="Trazado_139866" data-name="Trazado 139866" d="M272.576,43.58H222.732V94.918l49.844-49.844Z" fill="#f7c663"/>
    <path id="Trazado_139867" data-name="Trazado 139867" d="M222.733,94.918v1.494h49.844V45.074Z" fill="#ffc200"/>
    <rect id="Rectángulo_9290" data-name="Rectángulo 9290" width="3.704" height="2.803" transform="translate(274.18 65.347)" fill="#ffc200"/>
    <rect id="Rectángulo_9291" data-name="Rectángulo 9291" width="3.704" height="2.803" transform="translate(274.18 47.029)" fill="#ffc200"/>
    <rect id="Rectángulo_9292" data-name="Rectángulo 9292" width="3.704" height="2.803" transform="translate(274.18 53.135)" fill="#ffc200"/>
    <rect id="Rectángulo_9293" data-name="Rectángulo 9293" width="3.704" height="2.803" transform="translate(274.18 59.241)" fill="#ffc200"/>
    <rect id="Rectángulo_9294" data-name="Rectángulo 9294" width="3.704" height="2.803" transform="translate(274.18 71.453)" fill="#ffc200"/>
    <rect id="Rectángulo_9295" data-name="Rectángulo 9295" width="3.704" height="2.803" transform="translate(274.18 77.559)" fill="#ffc200"/>
    <rect id="Rectángulo_9296" data-name="Rectángulo 9296" width="3.704" height="2.803" transform="translate(274.18 83.665)" fill="#ffc200"/>
    <rect id="Rectángulo_9297" data-name="Rectángulo 9297" width="3.704" height="2.803" transform="translate(274.18 89.771)" fill="#ffc200"/>
    <rect id="Rectángulo_9298" data-name="Rectángulo 9298" width="3.704" height="2.803" transform="translate(217.075 65.347)" fill="#ffc200"/>
    <rect id="Rectángulo_9299" data-name="Rectángulo 9299" width="3.704" height="2.803" transform="translate(217.075 47.029)" fill="#ffc200"/>
    <rect id="Rectángulo_9300" data-name="Rectángulo 9300" width="3.704" height="2.803" transform="translate(217.075 53.135)" fill="#ffc200"/>
    <rect id="Rectángulo_9301" data-name="Rectángulo 9301" width="3.704" height="2.803" transform="translate(217.075 59.241)" fill="#ffc200"/>
    <rect id="Rectángulo_9302" data-name="Rectángulo 9302" width="3.704" height="2.803" transform="translate(217.075 71.453)" fill="#ffc200"/>
    <rect id="Rectángulo_9303" data-name="Rectángulo 9303" width="3.704" height="2.803" transform="translate(217.075 77.559)" fill="#ffc200"/>
    <rect id="Rectángulo_9304" data-name="Rectángulo 9304" width="3.704" height="2.803" transform="translate(217.075 83.665)" fill="#ffc200"/>
    <rect id="Rectángulo_9305" data-name="Rectángulo 9305" width="3.704" height="2.803" transform="translate(217.075 89.771)" fill="#ffc200"/>
    <rect id="Rectángulo_9306" data-name="Rectángulo 9306" width="2.183" height="167.512" transform="translate(303.143 98.705)" fill="#bfa586"/>
    <path id="Trazado_139868" data-name="Trazado 139868" d="M304.881,103.66c3.153-1.6,13.728-9.061.814-32.856a1.822,1.822,0,0,0-3.215,0c-3.794,7.353-12.164,26.655.82,32.873a1.8,1.8,0,0,0,1.581-.022" fill="#bfa586"/>
    <path id="Trazado_139869" data-name="Trazado 139869" d="M305.37,123.739c2.986,1.889,14.782,7.155,28.614-16.064a1.822,1.822,0,0,0-1.648-2.761c-8.25.5-29.079,3.164-27.792,17.478a1.8,1.8,0,0,0,.826,1.347" fill="#bfa586"/>
    <path id="Trazado_139870" data-name="Trazado 139870" d="M303.367,123.739c-2.985,1.889-14.782,7.155-28.614-16.064a1.823,1.823,0,0,1,1.648-2.761c8.25.5,29.08,3.164,27.792,17.478a1.8,1.8,0,0,1-.826,1.347" fill="#bfa586"/>
    <path id="Trazado_139871" data-name="Trazado 139871" d="M305.4,154.418c3.247,2.113,17.1,8.713,33.336-18.877a1.821,1.821,0,0,0-1.655-2.748c-9.138.492-34.163,3.382-32.5,20.3a1.8,1.8,0,0,0,.819,1.325" fill="#bfa586"/>
    <path id="Trazado_139872" data-name="Trazado 139872" d="M303.336,154.418c-3.247,2.113-17.1,8.713-33.336-18.877a1.821,1.821,0,0,1,1.655-2.748c9.138.492,34.163,3.382,32.5,20.3a1.8,1.8,0,0,1-.819,1.325" fill="#bfa586"/>
    <path id="Trazado_139873" data-name="Trazado 139873" d="M305.444,190.655c3.617,2.443,20.979,11.448,41.32-23.607a1.814,1.814,0,0,0-1.629-2.742c-10.477.48-42.779,3.69-40.484,25.037a1.825,1.825,0,0,0,.793,1.312" fill="#bfa586"/>
    <path id="Trazado_139874" data-name="Trazado 139874" d="M303.293,190.655c-3.617,2.443-20.979,11.448-41.32-23.607a1.813,1.813,0,0,1,1.628-2.742c10.477.48,42.779,3.69,40.484,25.037a1.826,1.826,0,0,1-.792,1.312" fill="#bfa586"/>
    <path id="Trazado_139875" data-name="Trazado 139875" d="M305.51,232.274c4.051,2.827,26.063,15.111,51.843-29.873a1.8,1.8,0,0,0-1.63-2.7c-12.06.467-54.129,4.048-50.982,31.285a1.825,1.825,0,0,0,.769,1.288" fill="#bfa586"/>
    <path id="Trazado_139876" data-name="Trazado 139876" d="M303.226,232.274c-4.052,2.827-26.063,15.111-51.844-29.873a1.8,1.8,0,0,1,1.63-2.7c12.061.467,54.129,4.048,50.982,31.285a1.831,1.831,0,0,1-.768,1.288" fill="#bfa586"/>
    <path id="Trazado_139877" data-name="Trazado 139877" d="M35.756,232.967a.814.814,0,0,0,.63-.935c-3.253-18.606-26.627-38.326-27.621-39.156A.813.813,0,0,0,7.7,194.1l.027.022c.239.2,23.912,20.172,27.062,38.19a.814.814,0,0,0,.941.661Z" fill="#998368"/>
    <path id="Trazado_139878" data-name="Trazado 139878" d="M21.482,218.749a23.758,23.758,0,0,1-3.5,1.541,3.343,3.343,0,0,1-3.5-.9c-1.022-1.364-.191-3.41,1.141-4.472a8.288,8.288,0,0,1,6.24-1.436,24.584,24.584,0,0,1,6.247,2,11.5,11.5,0,0,1,.089-8.737c.765-1.784,2.556-3.56,4.394-2.935a3.148,3.148,0,0,1,1.836,3.3,7.584,7.584,0,0,1-1.664,3.658,16.172,16.172,0,0,0-2.192,3.414,6.354,6.354,0,0,0,.017,4.688,11.246,11.246,0,0,0-9.108-.121" fill="#998368"/>
    <path id="Trazado_139879" data-name="Trazado 139879" d="M25.769,200.135a14.371,14.371,0,0,0-1.368,10.1,24.306,24.306,0,0,0-10.156.967,10.776,10.776,0,0,1-3.018.714A2.83,2.83,0,0,1,8.6,210.568a2.692,2.692,0,0,1,.832-3.081,6.423,6.423,0,0,1,3.148-1.264,14.842,14.842,0,0,1,8.881.822,15.758,15.758,0,0,1-.886-7.029,6,6,0,0,1,2.061-4.405c1.362-.97,3.7-.578,4.159,1.03.344,1.2-.43,2.4-1.03,3.494" fill="#998368"/>
    <path id="Trazado_139880" data-name="Trazado 139880" d="M16.862,201.728a7.9,7.9,0,0,1,.312-5.34c.481-1.114,1.214-2.1,1.713-3.208a4.193,4.193,0,0,0,.208-3.514,3.039,3.039,0,0,0-2.69-1.615,3.651,3.651,0,0,0-2.836,1.46,6.114,6.114,0,0,0-.943,4.29c.138,1.493.549,2.951.674,4.444-2.127-1.417-4.9-1.374-7.426-1-1.789.264-3.733.782-4.739,2.285a2.509,2.509,0,0,0-.458,1.309c-.041,1.5,1.683,2.5,3.177,2.407a14.6,14.6,0,0,0,4.222-1.457,12.366,12.366,0,0,1,8.786-.061" fill="#998368"/>
    <path id="Trazado_139881" data-name="Trazado 139881" d="M1.7,182.668c1.182-.58,2.621.04,3.605.915,1.925,1.712,2.845,4.254,3.694,6.687l2.091,5.994A18.31,18.31,0,0,1,5.16,192.2a19.462,19.462,0,0,1-4.021-4.448,5.191,5.191,0,0,1-.819-2.721A2.715,2.715,0,0,1,1.7,182.668" fill="#998368"/>
    <path id="Trazado_139882" data-name="Trazado 139882" d="M35.451,51.107A36.879,36.879,0,0,0,0,77.833H70.9A36.879,36.879,0,0,0,35.451,51.107" fill="#d0f1f2"/>
    <path id="Trazado_139883" data-name="Trazado 139883" d="M132.166,51.107A36.879,36.879,0,0,0,96.715,77.833h70.9a36.879,36.879,0,0,0-35.451-26.726" fill="#d0f1f2"/>
    <path id="Trazado_139884" data-name="Trazado 139884" d="M86.089,39.658A52.677,52.677,0,0,0,35.451,77.833H136.727A52.68,52.68,0,0,0,86.089,39.658" fill="#d0f1f2"/>
    <path id="Trazado_139885" data-name="Trazado 139885" d="M54.527,70.5a18.209,18.209,0,0,0-17.5,13.2H72.031a18.209,18.209,0,0,0-17.5-13.2" fill="#ff7975"/>
    <path id="Trazado_139886" data-name="Trazado 139886" d="M102.281,70.5a18.209,18.209,0,0,0-17.5,13.2h35.008a18.209,18.209,0,0,0-17.5-13.2" fill="#ff7975"/>
    <path id="Trazado_139887" data-name="Trazado 139887" d="M79.53,64.842a26.01,26.01,0,0,0-25,18.849h50.006a26.01,26.01,0,0,0-25-18.849" fill="#ff7975"/>
    <rect id="Rectángulo_9307" data-name="Rectángulo 9307" width="5.292" height="3.505" transform="translate(134.739 62.72)" fill="#292b3b"/>
    <path id="Trazado_139888" data-name="Trazado 139888" d="M110.084,92.007a27.3,27.3,0,1,1,27.3,27.3,27.3,27.3,0,0,1-27.3-27.3" fill="#4f5370"/>
    <path id="Trazado_139889" data-name="Trazado 139889" d="M121.737,76.359a22.13,22.13,0,0,0,0,31.3l31.3-31.3a22.13,22.13,0,0,0-31.3,0" fill="#ffb0ad"/>
    <path id="Trazado_139890" data-name="Trazado 139890" d="M153.033,76.359l-31.3,31.3a22.13,22.13,0,1,0,31.3-31.3" fill="#ff8b87"/>
    <path id="Trazado_139891" data-name="Trazado 139891" d="M137.385,94.007a2,2,0,0,1-2-2v-17a2,2,0,0,1,4,0v17a2,2,0,0,1-2,2" fill="#292b3b"/>
    <path id="Trazado_139892" data-name="Trazado 139892" d="M137.387,94.007a2,2,0,0,1-.982-3.743l13.05-7.339a2,2,0,1,1,1.961,3.486l-13.05,7.339a1.988,1.988,0,0,1-.979.257" fill="#292b3b"/>
    <path id="Trazado_139893" data-name="Trazado 139893" d="M121.737,94.007h-2.9a2,2,0,0,1,0-4h2.9a2,2,0,0,1,0,4" fill="#292b3b"/>
    <path id="Trazado_139894" data-name="Trazado 139894" d="M156.872,94.007h-2.9a2,2,0,0,1,0-4h2.9a2,2,0,0,1,0,4" fill="#292b3b"/>
    <rect id="Rectángulo_9308" data-name="Rectángulo 9308" width="64.336" height="52.832" transform="translate(179.465 60.126)" fill="#f5f5f5"/>
    <path id="Trazado_139895" data-name="Trazado 139895" d="M236.555,60.126H186.711v51.338L236.555,61.62Z" fill="#f7c663"/>
    <path id="Trazado_139896" data-name="Trazado 139896" d="M186.712,111.464v1.494h49.844V61.62Z" fill="#ffc200"/>
    <rect id="Rectángulo_9309" data-name="Rectángulo 9309" width="3.704" height="2.803" transform="translate(238.159 81.893)" fill="#ffc200"/>
    <rect id="Rectángulo_9310" data-name="Rectángulo 9310" width="3.704" height="2.803" transform="translate(238.159 63.575)" fill="#ffc200"/>
    <rect id="Rectángulo_9311" data-name="Rectángulo 9311" width="3.704" height="2.803" transform="translate(238.159 69.681)" fill="#ffc200"/>
    <rect id="Rectángulo_9312" data-name="Rectángulo 9312" width="3.704" height="2.803" transform="translate(238.159 75.787)" fill="#ffc200"/>
    <rect id="Rectángulo_9313" data-name="Rectángulo 9313" width="3.704" height="2.803" transform="translate(238.159 87.998)" fill="#ffc200"/>
    <rect id="Rectángulo_9314" data-name="Rectángulo 9314" width="3.704" height="2.803" transform="translate(238.159 94.104)" fill="#ffc200"/>
    <rect id="Rectángulo_9315" data-name="Rectángulo 9315" width="3.704" height="2.803" transform="translate(238.159 100.21)" fill="#ffc200"/>
    <rect id="Rectángulo_9316" data-name="Rectángulo 9316" width="3.704" height="2.803" transform="translate(238.159 106.316)" fill="#ffc200"/>
    <rect id="Rectángulo_9317" data-name="Rectángulo 9317" width="3.704" height="2.803" transform="translate(181.054 81.893)" fill="#ffc200"/>
    <rect id="Rectángulo_9318" data-name="Rectángulo 9318" width="3.704" height="2.803" transform="translate(181.054 63.575)" fill="#ffc200"/>
    <rect id="Rectángulo_9319" data-name="Rectángulo 9319" width="3.704" height="2.803" transform="translate(181.054 69.681)" fill="#ffc200"/>
    <rect id="Rectángulo_9320" data-name="Rectángulo 9320" width="3.704" height="2.803" transform="translate(181.054 75.787)" fill="#ffc200"/>
    <rect id="Rectángulo_9321" data-name="Rectángulo 9321" width="3.704" height="2.803" transform="translate(181.054 87.998)" fill="#ffc200"/>
    <rect id="Rectángulo_9322" data-name="Rectángulo 9322" width="3.704" height="2.803" transform="translate(181.054 94.104)" fill="#ffc200"/>
    <rect id="Rectángulo_9323" data-name="Rectángulo 9323" width="3.704" height="2.803" transform="translate(181.054 100.21)" fill="#ffc200"/>
    <rect id="Rectángulo_9324" data-name="Rectángulo 9324" width="3.704" height="2.803" transform="translate(181.054 106.316)" fill="#ffc200"/>
    <path id="Trazado_139897" data-name="Trazado 139897" d="M43.413,224.579A38.32,38.32,0,0,0,6.576,252.35H80.25a38.32,38.32,0,0,0-36.837-27.771" fill="#bfa586"/>
    <path id="Trazado_139898" data-name="Trazado 139898" d="M143.909,224.579a38.32,38.32,0,0,0-36.837,27.771h73.674a38.32,38.32,0,0,0-36.837-27.771" fill="#bfa586"/>
    <path id="Trazado_139899" data-name="Trazado 139899" d="M96.03,212.682A54.737,54.737,0,0,0,43.412,252.35H148.648A54.737,54.737,0,0,0,96.03,212.682" fill="#bfa586"/>
    <path id="Trazado_139900" data-name="Trazado 139900" d="M330.675,179.1a19.359,19.359,0,0,0-18.61,14.03h37.22a19.359,19.359,0,0,0-18.61-14.03" fill="#6bbcb1"/>
    <path id="Trazado_139901" data-name="Trazado 139901" d="M381.446,179.1a19.359,19.359,0,0,0-18.61,14.03h37.22a19.359,19.359,0,0,0-18.61-14.03" fill="#6bbcb1"/>
    <path id="Trazado_139902" data-name="Trazado 139902" d="M357.258,173.089a27.652,27.652,0,0,0-26.582,20.04H383.84a27.652,27.652,0,0,0-26.582-20.04" fill="#6bbcb1"/>
    <path id="Trazado_139903" data-name="Trazado 139903" d="M304.748,268.043H59.535a8.205,8.205,0,0,1,0-16.411H304.748a8.205,8.205,0,0,1,0,16.411" fill="#998368"/>
    <path id="Trazado_139904" data-name="Trazado 139904" d="M303.969,50.545a18.209,18.209,0,0,0-17.5,13.2h35.008a18.209,18.209,0,0,0-17.5-13.2" fill="#ff7975"/>
    <path id="Trazado_139905" data-name="Trazado 139905" d="M351.723,50.545a18.209,18.209,0,0,0-17.5,13.2h35.008a18.209,18.209,0,0,0-17.5-13.2" fill="#ff7975"/>
    <path id="Trazado_139906" data-name="Trazado 139906" d="M328.972,44.892a26.01,26.01,0,0,0-25,18.849h50.006a26.01,26.01,0,0,0-25-18.849" fill="#ff7975"/>
    <path id="Trazado_139907" data-name="Trazado 139907" d="M317.472,154.2a11.275,11.275,0,0,0-10.838,8.17H328.31a11.275,11.275,0,0,0-10.838-8.17" fill="#fff"/>
    <path id="Trazado_139908" data-name="Trazado 139908" d="M347.039,154.2a11.275,11.275,0,0,0-10.838,8.17h21.676a11.275,11.275,0,0,0-10.838-8.17" fill="#fff"/>
    <path id="Trazado_139909" data-name="Trazado 139909" d="M332.953,150.7a16.1,16.1,0,0,0-15.48,11.67h30.96a16.1,16.1,0,0,0-15.48-11.67" fill="#fff"/>
    <path id="Trazado_139910" data-name="Trazado 139910" d="M162.2,237.293l-1.157,15.239h40.039l-1.157-15.239Z" fill="#f1f1f1"/>
    <path id="Trazado_139911" data-name="Trazado 139911" d="M199.285,228.927H162.831l-.636,8.367H199.92Z" fill="gray"/>
    <path id="Trazado_139912" data-name="Trazado 139912" d="M211.163,257.761H150.954a6.574,6.574,0,0,1,6.574-6.574h47.061A6.574,6.574,0,0,1,211.163,257.761Z" fill="#fff"/>
    <path id="Trazado_139913" data-name="Trazado 139913" d="M269.628,103.429H92.489a5.4,5.4,0,0,0-5.4,5.4V215.182H275.033V108.834a5.405,5.405,0,0,0-5.4-5.4" fill="#3b3e54"/>
    <path id="Trazado_139914" data-name="Trazado 139914" d="M198.538,215.182H87.084V228a5.405,5.405,0,0,0,5.4,5.4H269.627a5.405,5.405,0,0,0,5.4-5.4V215.182Z" fill="#fff"/>
    <path id="Trazado_139915" data-name="Trazado 139915" d="M159.368,110H93.661v97.7h52.965l97.7-97.7Z" fill="#b74444"/>
    <path id="Trazado_139916" data-name="Trazado 139916" d="M267.263,110H244.329l-97.7,97.7H267.263Z" fill="#d44f4a"/>
    <path id="Trazado_139917" data-name="Trazado 139917" d="M137.788,117.432H103.735V176.18H193.7V117.432Z" fill="#fe918e"/>
    <rect id="Rectángulo_9325" data-name="Rectángulo 9325" width="156.093" height="2.481" transform="translate(103.735 182.64)" fill="#fe918e"/>
    <rect id="Rectángulo_9326" data-name="Rectángulo 9326" width="156.093" height="2.481" transform="translate(103.735 188.907)" fill="#fe918e"/>
    <rect id="Rectángulo_9327" data-name="Rectángulo 9327" width="156.093" height="2.481" transform="translate(103.735 195.174)" fill="#fec8c6"/>
    <circle id="Elipse_5576" data-name="Elipse 5576" cx="11.335" cy="11.335" r="11.335" transform="translate(135.084 155.233) rotate(-76.717)" fill="none" stroke="#fec8c6" stroke-miterlimit="10" stroke-width="17.349"/>
    <path id="Trazado_139918" data-name="Trazado 139918" d="M154.792,146.806l-9.655-5.574V152.38Z" fill="#fec8c6"/>
    <path id="Trazado_139919" data-name="Trazado 139919" d="M158.594,190.148l-3.224-3.3v6.608Z" fill="#fe918e"/>
    <path id="Trazado_139920" data-name="Trazado 139920" d="M164.08,190.148l-3.224-3.3v6.608Z" fill="#fe918e"/>
    <path id="Trazado_139921" data-name="Trazado 139921" d="M169.566,190.148l-3.224-3.3v6.608Z" fill="#fe918e"/>
    <path id="Trazado_139922" data-name="Trazado 139922" d="M175.052,190.148l-3.224-3.3v6.608Z" fill="#fe918e"/>
    <path id="Trazado_139923" data-name="Trazado 139923" d="M180.538,190.148l-3.224-3.3v6.608Z" fill="#fe918e"/>
    <path id="Trazado_139924" data-name="Trazado 139924" d="M142.689,196.415l-3.224-3.3v6.608Z" fill="#fec8c6"/>
    <path id="Trazado_139925" data-name="Trazado 139925" d="M148.174,196.415l-3.224-3.3v6.608Z" fill="#fec8c6"/>
    <path id="Trazado_139926" data-name="Trazado 139926" d="M153.661,196.415l-3.224-3.3v6.608Z" fill="#fec8c6"/>
    <path id="Trazado_139927" data-name="Trazado 139927" d="M134.789,183.881l-3.224-3.3v6.608Z" fill="#fe918e"/>
    <path id="Trazado_139928" data-name="Trazado 139928" d="M167.924,183.881l-3.224-3.3v6.608Z" fill="#fe918e"/>
    <path id="Trazado_139929" data-name="Trazado 139929" d="M152.566,183.881l-3.224-3.3v6.608Z" fill="#fe918e"/>
    <path id="Trazado_139930" data-name="Trazado 139930" d="M200.287,183.881l-3.224-3.3v6.608Z" fill="#fe918e"/>
    <path id="Trazado_139931" data-name="Trazado 139931" d="M204.087,152.893l-1.612-23.287V176.18Z" fill="#fec8c6"/>
    <path id="Trazado_139932" data-name="Trazado 139932" d="M208.115,152.893l-1.612-16.5V169.4Z" fill="#fec8c6"/>
    <path id="Trazado_139933" data-name="Trazado 139933" d="M208.921,152.893l-1.612-16.5V169.4Z" fill="#fec8c6"/>
    <path id="Trazado_139934" data-name="Trazado 139934" d="M212.143,152.893l-1.612-6.7V159.6Z" fill="#fec8c6"/>
    <path id="Trazado_139935" data-name="Trazado 139935" d="M216.171,152.893l-1.612-6.7V159.6Z" fill="#fec8c6"/>
    <path id="Trazado_139936" data-name="Trazado 139936" d="M213.246,152.893l-1.612-6.7V159.6Z" fill="#fec8c6"/>
    <path id="Trazado_139937" data-name="Trazado 139937" d="M206.945,152.893l-1.612-6.7V159.6Z" fill="#fec8c6"/>
    <path id="Trazado_139938" data-name="Trazado 139938" d="M217.454,152.893l-1.612-6.7V159.6Z" fill="#fec8c6"/>
    <path id="Trazado_139939" data-name="Trazado 139939" d="M239.534,152.893l-1.612-6.7V159.6Z" fill="#fec8c6"/>
    <path id="Trazado_139940" data-name="Trazado 139940" d="M247.113,152.893l-1.612-6.7V159.6Z" fill="#fec8c6"/>
    <path id="Trazado_139941" data-name="Trazado 139941" d="M220.2,152.893l-1.612-23.287V176.18Z" fill="#fec8c6"/>
    <path id="Trazado_139942" data-name="Trazado 139942" d="M221.812,152.893,220.2,137.12v31.546Z" fill="#fec8c6"/>
    <path id="Trazado_139943" data-name="Trazado 139943" d="M224.228,152.893l-1.612-15.773v31.546Z" fill="#fec8c6"/>
    <path id="Trazado_139944" data-name="Trazado 139944" d="M228.256,152.893l-1.612-23.287V176.18Z" fill="#fec8c6"/>
    <path id="Trazado_139945" data-name="Trazado 139945" d="M232.284,152.893l-1.612-15.773v31.546Z" fill="#fec8c6"/>
    <path id="Trazado_139946" data-name="Trazado 139946" d="M236.312,152.893,234.7,137.12v31.546Z" fill="#fec8c6"/>
    <path id="Trazado_139947" data-name="Trazado 139947" d="M233.529,152.893l-1.612-15.773v31.546Z" fill="#fec8c6"/>
    <path id="Trazado_139948" data-name="Trazado 139948" d="M240.34,152.893l-1.612-15.773v31.546Z" fill="#fec8c6"/>
    <path id="Trazado_139949" data-name="Trazado 139949" d="M244.368,152.893l-1.612-15.773v31.546Z" fill="#fec8c6"/>
    <path id="Trazado_139950" data-name="Trazado 139950" d="M248.4,152.893l-1.612-23.287V176.18Z" fill="#fec8c6"/>
    <path id="Trazado_139951" data-name="Trazado 139951" d="M252.721,152.893,251.5,135.328v35.13Z" fill="#fec8c6"/>
    <path id="Trazado_139952" data-name="Trazado 139952" d="M255.759,152.893l-1.216-17.565v35.13Z" fill="#fec8c6"/>
    <path id="Trazado_139953" data-name="Trazado 139953" d="M230.038,183.881l-3.224-3.3v6.608Z" fill="#fe918e"/>
    <rect id="Rectángulo_9328" data-name="Rectángulo 9328" width="31.94" height="1.874" transform="translate(227.323 117.432)" fill="#fec8c6"/>
    <rect id="Rectángulo_9329" data-name="Rectángulo 9329" width="31.94" height="1.874" transform="translate(227.323 121.541)" fill="#fe918e"/>
    <rect id="Rectángulo_9330" data-name="Rectángulo 9330" width="58.735" height="1.764" transform="translate(199.63 152.011)" fill="#fec8c6"/>
    <path id="Trazado_139954" data-name="Trazado 139954" d="M263.684,201.132l5.247,55.589h10.9V201.132Z" fill="#ffb0ad"/>
    <path id="Trazado_139955" data-name="Trazado 139955" d="M295.969,201.132H279.826v55.589h10.9Z" fill="#ff8b87"/>
    <path id="Trazado_139956" data-name="Trazado 139956" d="M297.307,204.707H262.345a7.051,7.051,0,0,1,7.051-7.051h20.86A7.051,7.051,0,0,1,297.307,204.707Z" fill="#5e6175"/>
    <path id="Trazado_139957" data-name="Trazado 139957" d="M285.32,218.8a7.769,7.769,0,1,0-10.987,10.987L285.32,218.8" fill="#46495e"/>
    <path id="Trazado_139958" data-name="Trazado 139958" d="M285.32,229.789a7.769,7.769,0,0,0,0-10.987l-10.987,10.987a7.769,7.769,0,0,0,10.987,0" fill="#3b3e54"/>
    <path id="Trazado_139959" data-name="Trazado 139959" d="M280.964,194.5v-6.181a3.2,3.2,0,0,1,3.2-3.2h16.143a3.2,3.2,0,1,0,0-6.4h-8.072a3.2,3.2,0,0,1-3.2-3.2v-2.6" fill="none" stroke="#fff" stroke-linecap="round" stroke-linejoin="round" stroke-width="6.94"/>
    <rect id="Rectángulo_9331" data-name="Rectángulo 9331" width="24.162" height="24.162" transform="matrix(0.198, -0.98, 0.98, 0.198, 258.225, 145.528)" fill="#d0f1f2"/>
    <path id="Trazado_139960" data-name="Trazado 139960" d="M280.033,132.973l-13.162-2.652a1.343,1.343,0,1,1,.531-2.632l13.161,2.652a1.342,1.342,0,1,1-.53,2.632" fill="#369094"/>
    <path id="Trazado_139961" data-name="Trazado 139961" d="M279.165,137.281,266,134.629a1.343,1.343,0,1,1,.531-2.632l13.161,2.652a1.342,1.342,0,0,1-.53,2.632" fill="#369094"/>
    <path id="Trazado_139962" data-name="Trazado 139962" d="M274.169,140.757l-9.034-1.82a1.343,1.343,0,1,1,.531-2.632l9.033,1.82a1.342,1.342,0,0,1-.53,2.632" fill="#369094"/>
    <rect id="Rectángulo_9332" data-name="Rectángulo 9332" width="5.925" height="15.018" transform="translate(61.497 195.175)" fill="#1a1c2e"/>
    <path id="Trazado_139963" data-name="Trazado 139963" d="M95.074,257.63H74.634a26.316,26.316,0,1,1,0-52.632h20.44a26.316,26.316,0,1,1,0,52.632" fill="#5e6175"/>
    <path id="Trazado_139964" data-name="Trazado 139964" d="M64.426,233.11a20.428,20.428,0,1,1,20.428,20.428A20.428,20.428,0,0,1,64.426,233.11" fill="#3b3e54"/>
    <path id="Trazado_139965" data-name="Trazado 139965" d="M68.854,233.11a16,16,0,1,1,16,16,16,16,0,0,1-16-16" fill="#1a1c2e"/>
    <path id="Trazado_139966" data-name="Trazado 139966" d="M83.461,226.358a4.117,4.117,0,1,1-4.116-4.116,4.116,4.116,0,0,1,4.116,4.116" fill="#5e6175"/>
    <path id="Trazado_139967" data-name="Trazado 139967" d="M91.372,197.277l-49.185-1.495v-8.3l49.185-1.495Z" fill="#5e6175"/>
    <path id="Trazado_139968" data-name="Trazado 139968" d="M113.178,201.829H100.223a10.2,10.2,0,1,1,0-20.4h12.955a10.2,10.2,0,0,1,0,20.4" fill="#1a1c2e"/>
    <path id="Trazado_139969" data-name="Trazado 139969" d="M41.406,182.463a.958.958,0,0,1-.118-.148.941.941,0,0,1,.28-1.3l5.685-3.669a.941.941,0,0,1,1.02,1.581L42.588,182.6a.942.942,0,0,1-1.182-.132" fill="#fff"/>
    <path id="Trazado_139970" data-name="Trazado 139970" d="M41.588,180.41s-2.15,1.253-1.8,1.72,5.97,6.7,6.285,6.463c1.075-.8-2.781-6.594-3.343-6.986s-.841-1.385-1.147-1.2" fill="#f6b291"/>
    <path id="Trazado_139971" data-name="Trazado 139971" d="M95.7,122.092s4.036-2.691,5.2-2.32-2.388,3.367-5.316,3.509Z" fill="#fff"/>
    <path id="Trazado_139972" data-name="Trazado 139972" d="M95.822,121.389c.184.765.394,1.5.582,2.233-11.662,3.354-18.644,1.206-25.5-8.516-1.048-1.488-.669-2.006.651-2.754,0-.282-.022-.272,0,0,1.321-.749,1.773-.581,2.839.927,6.97,9.864,9.489,9.454,21.425,8.11" fill="#e89f7b"/>
    <path id="Trazado_139973" data-name="Trazado 139973" d="M98.57,180.762a1.031,1.031,0,0,1-.189-.021.94.94,0,0,1-.723-1.116l1.413-6.617a.941.941,0,0,1,1.84.393L99.5,180.018a.942.942,0,0,1-.928.744" fill="#fff"/>
    <path id="Trazado_139974" data-name="Trazado 139974" d="M100.823,177.246c-.99-.354-1.96-.75-2.92-1.18,7.473-23.168-8.7-30.471-28.6-36.859.723-2.588,1.507-5.173,2.163-7.772,18.924,7.511,39.665,23.349,29.352,45.811" fill="#292b3b"/>
    <path id="Trazado_139975" data-name="Trazado 139975" d="M45.332,182.126c-.656-.8-1.288-1.616-1.882-2.464C65.036,164.746,69.766,158.65,68.9,131.714c2.737-.276,5.474-.509,8.22-.676-3.493,29.846-8.222,33.811-31.79,51.088" fill="#3b3e54"/>
    <path id="Trazado_139976" data-name="Trazado 139976" d="M97.4,179.5s-.6,2.413-.024,2.486,8.963.407,9.016.019c.18-1.326-6.661-2.617-7.335-2.489s-1.577-.367-1.657-.016" fill="#f6b291"/>
    <path id="Trazado_139977" data-name="Trazado 139977" d="M67.854,136.354c3.508,1.028,8.913,2.225,10,.25a5.3,5.3,0,0,1,.906-1.225c-.235-7.147-.772-12.718-3-19.766-1.379-4.344-4.169-4.787-4.342-4.822-3.223-.637-5.6,1.049-5.4,4.462a11.928,11.928,0,0,0,.956,3.165c2.037,6.03,1.354,11.7.878,17.936" fill="#f6b291"/>
    <path id="Trazado_139978" data-name="Trazado 139978" d="M61.273,144.036s1.077,4.978.267,5.973-2.372-3.628-1.384-6.544Z" fill="#fff"/>
    <path id="Trazado_139979" data-name="Trazado 139979" d="M61.515,144.259c-.768.179-1.535.3-2.282.428-2.489-14.639-3.775-20.346,6.35-31.313,1.548-1.677,1.788-1.18,2.875.01.346-.05.305-.087,0,0,1.086,1.191,1.2,1.527-.458,3.129-10.815,10.474-7.014,13.2-6.485,27.746" fill="#e89f7b"/>
    <path id="Trazado_139980" data-name="Trazado 139980" d="M69.229,103.741c-.92,2.693.21,5.518,1.856,6.08s3.184-1.35,4.1-4.043.055-4.52-1.591-5.082-3.449.352-4.369,3.045" fill="#fff"/>
    <path id="Trazado_139981" data-name="Trazado 139981" d="M68.485,105.9l2.978-.256a47.449,47.449,0,0,1,.133,5.75c-.114.449-.858.647-1.662.442-.722-.184-1.242-.631-1.257-1.045h0a39.542,39.542,0,0,0-.189-4.89" fill="#fff"/>
    <path id="Trazado_139982" data-name="Trazado 139982" d="M73.846,108.4l-.105-.046c-.542-.236-3.037-1.275-3.952-.861-1.029.465,1.115.736,1.955.668s1.112.433,1.54.739,1.067.1.562-.5" fill="#1a1c2e"/>
    <path id="Trazado_139983" data-name="Trazado 139983" d="M67.7,104.253c-.214.627.134,1.641.588,1.8s.741-.314.956-.941.046-1.339-.408-1.494a.854.854,0,0,0-1.136.639" fill="#fff"/>
    <path id="Trazado_139984" data-name="Trazado 139984" d="M69.424,101.892a4.594,4.594,0,0,1,2.721-1.693c1.563-.162,4.127.834,3.874,3.414,0,0-.348,1.816-2.5,1.211s-1.335-1.529-2.761-.944-2.006-.546-2.291-.393Z" fill="#1a1c2e"/>
    <path id="Trazado_139985" data-name="Trazado 139985" d="M69.482,105.389c.644.052.562.641.747,1.837s1.469,2.587,3.494,1.167c1.29-.9-.187,1.38-.188,1.382a2.38,2.38,0,0,1-2.713.81,4.692,4.692,0,0,1-2.684-3.98c.33-.6.9-1.252,1.344-1.216" fill="#1a1c2e"/>
    <path id="Trazado_139986" data-name="Trazado 139986" d="M249.944,260.433a.941.941,0,0,0,.923-1.129l-1.35-6.629a.941.941,0,1,0-1.844.375l1.35,6.63a.942.942,0,0,0,.921.753" fill="#fff"/>
    <path id="Trazado_139987" data-name="Trazado 139987" d="M251.121,259.183s.582,2.419,0,2.486-8.966.322-9.015-.067c-.168-1.328,6.686-2.553,7.358-2.419s1.581-.351,1.657,0" fill="#f6b291"/>
    <path id="Trazado_139988" data-name="Trazado 139988" d="M211.171,180.209s-2.665-4.053-3.881-4.166.883,4.032,3.524,5.306Z" fill="#fff"/>
    <path id="Trazado_139989" data-name="Trazado 139989" d="M211.333,179.513c-.468.632-.947,1.225-1.407,1.828,9.427,7.641,16.693,8.39,26.8,2.115,1.545-.96,1.4-1.585.476-2.79.111-.258.126-.241,0,0-.924-1.205-1.4-1.227-2.976-.254-10.269,6.359-12.427,5-22.891-.9" fill="#ed814c"/>
    <path id="Trazado_139990" data-name="Trazado 139990" d="M233.549,260.433a.941.941,0,0,0,.923-1.129l-1.35-6.629a.941.941,0,1,0-1.844.375l1.35,6.63a.942.942,0,0,0,.921.753" fill="#fff"/>
    <path id="Trazado_139991" data-name="Trazado 139991" d="M231.478,256.577a24.654,24.654,0,0,0,3-.276c-2.981-15.937-5.238-37.327,2.735-52.222q-3.63-1.78-7.293-3.5c-5.826,12.978-.864,42.286,1.562,55.995" fill="#292b3b"/>
    <path id="Trazado_139992" data-name="Trazado 139992" d="M247.98,256.127c1-.3,1.989-.611,2.954-1.006-7.459-14.577-12.918-37.521-11.614-54.116-2.711-.139-5.429-.23-8.142-.308,1.017,16.608,10.349,40.459,16.8,55.43" fill="#4f5370"/>
    <path id="Trazado_139993" data-name="Trazado 139993" d="M234.726,259.183s.582,2.419,0,2.486-8.966.322-9.015-.067c-.168-1.328,6.686-2.553,7.358-2.419s1.581-.351,1.657,0" fill="#f6b291"/>
    <path id="Trazado_139994" data-name="Trazado 139994" d="M239.689,205.647a19.211,19.211,0,0,0-6.445-1.15,30.875,30.875,0,0,0-5.333.166c5.722-12.28,6.714-18.4,6.2-21.849a4.762,4.762,0,0,1,1.793-4.5l.538-.414a4.247,4.247,0,0,1,6.757,2.548,25.7,25.7,0,0,1,.425,3.554,48.942,48.942,0,0,1-3.93,21.647" fill="#f6b291"/>
    <path id="Trazado_139995" data-name="Trazado 139995" d="M240.743,172.609c-1.073,2.636-3.779,4.026-5.39,3.37s-1.517-3.108-.444-5.744,2.925-3.446,4.536-2.791,2.371,2.529,1.3,5.165" fill="#fff"/>
    <path id="Trazado_139996" data-name="Trazado 139996" d="M241.561,174c-.25.614-1.178,1.15-1.623.97s-.353-.724-.1-1.337.843-1.042,1.288-.861a.854.854,0,0,1,.438,1.228" fill="#fff"/>
    <path id="Trazado_139997" data-name="Trazado 139997" d="M241.809,171.085a4.594,4.594,0,0,0-.943-3.063c-1.072-1.148-3.661-2.079-5.163.034,0,0-.929,1.6,1.1,2.556s2.01-.277,2.7,1.1,1.872.9,1.987,1.207Z" fill="#1a1c2e"/>
    <path id="Trazado_139998" data-name="Trazado 139998" d="M240.284,172.7l-2.975-.29a47.553,47.553,0,0,0-.2,5.748c.11.45.851.656,1.657.461.725-.176,1.249-.616,1.27-1.031h0a39.422,39.422,0,0,1,.246-4.888" fill="#fff"/>
    <path id="Trazado_139999" data-name="Trazado 139999" d="M239.47,173.686c-.52-.383-.845.115-1.769.9s-2.806.988-3.4-1.412c-.38-1.53-.764,1.164-.765,1.166a2.379,2.379,0,0,0,1.515,2.391,4.69,4.69,0,0,0,4.637-1.241c.146-.672.139-1.539-.216-1.8" fill="#1a1c2e"/>
    <path id="Trazado_140000" data-name="Trazado 140000" d="M234.2,173.094l.109.034c.564.178,3.129,1.032,3.548,1.944.471,1.026-1.325-.177-1.914-.779s-1.124-.4-1.648-.453-.869-.626-.1-.746" fill="#1a1c2e"/>
    <rect id="Rectángulo_9333" data-name="Rectángulo 9333" width="30.476" height="17.975" transform="translate(189.713 187.672)" fill="#1a1c2e"/>
    <rect id="Rectángulo_9334" data-name="Rectángulo 9334" width="30.475" height="2.993" transform="translate(189.714 184.689)" fill="#1a1c2e"/>
    <path id="Trazado_140001" data-name="Trazado 140001" d="M214.738,184.689l2.993,2.993h2.006l-2.993-2.993Z" fill="#fff"/>
    <path id="Trazado_140002" data-name="Trazado 140002" d="M208.4,184.689l2.993,2.993h2.01l-2.993-2.993Z" fill="#fff"/>
    <path id="Trazado_140003" data-name="Trazado 140003" d="M202.068,184.689l2.993,2.993h2.006l-2.993-2.993Z" fill="#fff"/>
    <path id="Trazado_140004" data-name="Trazado 140004" d="M195.731,184.689l2.993,2.993h2.01l-2.993-2.993Z" fill="#fff"/>
    <path id="Trazado_140005" data-name="Trazado 140005" d="M189.714,184.689V185l2.677,2.677H194.4l-2.993-2.993Z" fill="#fff"/>
    <rect id="Rectángulo_9335" data-name="Rectángulo 9335" width="2.994" height="30.475" transform="translate(192.055 173.034) rotate(-67.513)" fill="#1a1c2e"/>
    <path id="Trazado_140006" data-name="Trazado 140006" d="M216.322,179.839l1.621,3.91,1.853.767-1.621-3.91Z" fill="#fff"/>
    <path id="Trazado_140007" data-name="Trazado 140007" d="M210.467,177.415l1.621,3.91,1.857.769-1.621-3.91Z" fill="#fff"/>
    <path id="Trazado_140008" data-name="Trazado 140008" d="M204.615,174.993l1.621,3.91,1.853.767-1.621-3.91Z" fill="#fff"/>
    <path id="Trazado_140009" data-name="Trazado 140009" d="M198.76,172.57l1.621,3.91,1.857.769-1.621-3.91Z" fill="#fff"/>
    <path id="Trazado_140010" data-name="Trazado 140010" d="M193.2,170.269l-.121.292,1.45,3.5,1.853.767-1.621-3.91Z" fill="#fff"/>
    <path id="Trazado_140011" data-name="Trazado 140011" d="M224.683,194.513s-4.45-2.477-5.637-1.991,2.781,3.323,5.859,3.226Z" fill="#fff"/>
    <path id="Trazado_140012" data-name="Trazado 140012" d="M223.8,193.689c-.182.776-.368,1.548-.571,2.247C236,199.023,245.953,196.7,243,181.7c-.452-2.294-.918-1.811-2.283-1.6-.328-.174-.2-.156,0,0-1.365.214-2.132.5-1.553,2.562,3.782,13.5-5.162,11.647-15.362,11.024" fill="#ed814c"/>
    <rect id="Rectángulo_9336" data-name="Rectángulo 9336" width="15.322" height="0.925" transform="translate(193.079 192.459)" fill="#fff"/>
    <rect id="Rectángulo_9337" data-name="Rectángulo 9337" width="15.322" height="0.925" transform="translate(193.079 196.662)" fill="#fff"/>
    <path id="Trazado_140013" data-name="Trazado 140013" d="M228.934,95.108a23.56,23.56,0,0,0-22.648,17.074h45.3a23.56,23.56,0,0,0-22.648-17.074" fill="#6bbcb1"/>
    <path id="Trazado_140014" data-name="Trazado 140014" d="M290.722,95.108a23.56,23.56,0,0,0-22.648,17.074h45.3a23.56,23.56,0,0,0-22.648-17.074" fill="#6bbcb1"/>
    <path id="Trazado_140015" data-name="Trazado 140015" d="M261.285,87.794a33.654,33.654,0,0,0-32.351,24.389h64.7a33.654,33.654,0,0,0-32.351-24.389" fill="#6bbcb1"/>
    <path id="Trazado_140016" data-name="Trazado 140016" d="M110.332,134.555a3.007,3.007,0,0,0,3.007-3.007,3.007,3.007,0,0,0,3.008,3.007,3.008,3.008,0,0,0-3.008,3.007,3.007,3.007,0,0,0-3.007-3.007" fill="#fff"/>
    <path id="Trazado_140017" data-name="Trazado 140017" d="M300.9,218.546a3.007,3.007,0,0,0,3.007-3.007,3.007,3.007,0,0,0,3.008,3.007,3.007,3.007,0,0,0-3.008,3.007,3.007,3.007,0,0,0-3.007-3.007" fill="#fff"/>
    <path id="Trazado_140018" data-name="Trazado 140018" d="M12.344,204.707a3.007,3.007,0,0,0,3.007-3.007,3.008,3.008,0,0,0,3.008,3.007,3.007,3.007,0,0,0-3.008,3.007,3.007,3.007,0,0,0-3.007-3.007" fill="#fff"/>
    <path id="Trazado_140019" data-name="Trazado 140019" d="M119.143,126.2a4.378,4.378,0,0,0,4.378-4.378A4.379,4.379,0,0,0,127.9,126.2a4.379,4.379,0,0,0-4.379,4.378,4.378,4.378,0,0,0-4.378-4.378" fill="#fff"/>
    <path id="Trazado_140020" data-name="Trazado 140020" d="M307.258,211.38A4.378,4.378,0,0,0,311.636,207a4.379,4.379,0,0,0,4.379,4.378,4.379,4.379,0,0,0-4.379,4.378,4.378,4.378,0,0,0-4.378-4.378" fill="#fff"/>
    <path id="Trazado_140021" data-name="Trazado 140021" d="M124.338,79.153a2.815,2.815,0,0,0,2.815-2.815,2.816,2.816,0,0,0,2.816,2.815,2.816,2.816,0,0,0-2.816,2.815,2.815,2.815,0,0,0-2.815-2.815" fill="#fff"/>
    <path id="Trazado_140022" data-name="Trazado 140022" d="M67.671,215.731a2.815,2.815,0,0,0,2.815-2.815,2.816,2.816,0,0,0,2.816,2.815,2.816,2.816,0,0,0-2.816,2.815,2.815,2.815,0,0,0-2.815-2.815" fill="#fff"/>
    <path id="Trazado_140023" data-name="Trazado 140023" d="M123.275,161.761a4.624,4.624,0,0,0,4.624-4.624,4.624,4.624,0,0,0,4.624,4.624,4.624,4.624,0,0,0-4.624,4.624,4.624,4.624,0,0,0-4.624-4.624" fill="#fff"/>
    <path id="Trazado_140024" data-name="Trazado 140024" d="M6.1,191.332a4.624,4.624,0,0,0,4.624-4.624,4.624,4.624,0,0,0,4.624,4.624,4.624,4.624,0,0,0-4.624,4.624A4.624,4.624,0,0,0,6.1,191.332" fill="#fff"/>
  </g>
</svg>
